{
  "accessors": [
    {
      "name": "obj01_1_0_positions",
      "componentType": 5126,
      "count": 7066,
      "min": [
        -3.9621999263763428,
        -1.6994999647140503,
        -19.72949981689453
      ],
      "max": [
        3.9621999263763428,
        3.1603000164031982,
        19.72949981689453
      ],
      "type": "VEC3",
      "bufferView": 0,
      "byteOffset": 0
    },
    {
      "name": "obj01_1_0_normals",
      "componentType": 5126,
      "count": 7066,
      "min": [
        -1,
        -1,
        -1
      ],
      "max": [
        1,
        1,
        1
      ],
      "type": "VEC3",
      "bufferView": 1,
      "byteOffset": 0
    },
    {
      "name": "obj01_1_0_texcoords",
      "componentType": 5126,
      "count": 7066,
      "min": [
        0.3727000057697296,
        0.0005000000237487257
      ],
      "max": [
        0.6273000240325928,
        0.9994999766349792
      ],
      "type": "VEC2",
      "bufferView": 2,
      "byteOffset": 0
    },
    {
      "name": "obj01_1_0_indices",
      "componentType": 5123,
      "count": 42384,
      "min": [
        0
      ],
      "max": [
        7065
      ],
      "type": "SCALAR",
      "bufferView": 3,
      "byteOffset": 0
    },
    {
      "name": "obj02_1_0_positions",
      "componentType": 5126,
      "count": 6823,
      "min": [
        -3.9463000297546387,
        2.710599899291992,
        -19.6560001373291
      ],
      "max": [
        3.9463000297546387,
        8.099499702453613,
        19.710599899291992
      ],
      "type": "VEC3",
      "bufferView": 0,
      "byteOffset": 84792
    },
    {
      "name": "obj02_1_0_normals",
      "componentType": 5126,
      "count": 6823,
      "min": [
        -1,
        -1,
        -1
      ],
      "max": [
        1,
        1,
        1
      ],
      "type": "VEC3",
      "bufferView": 1,
      "byteOffset": 84792
    },
    {
      "name": "obj02_1_0_texcoords",
      "componentType": 5126,
      "count": 6823,
      "min": [
        -4968.3896484375,
        -975.4747924804688
      ],
      "max": [
        4772.5546875,
        977.4747924804688
      ],
      "type": "VEC2",
      "bufferView": 2,
      "byteOffset": 56528
    },
    {
      "name": "obj02_1_0_indices",
      "componentType": 5123,
      "count": 19824,
      "min": [
        0
      ],
      "max": [
        6822
      ],
      "type": "SCALAR",
      "bufferView": 3,
      "byteOffset": 84768
    },
    {
      "name": "Line002_1_0_positions",
      "componentType": 5126,
      "count": 72,
      "min": [
        -3.434000015258789,
        3.4830000400543213,
        -0.4909999966621399
      ],
      "max": [
        3.4439001083374023,
        6.2555999755859375,
        2.372999906539917
      ],
      "type": "VEC3",
      "bufferView": 0,
      "byteOffset": 166668
    },
    {
      "name": "Line002_1_0_normals",
      "componentType": 5126,
      "count": 72,
      "min": [
        -1,
        -1,
        -1
      ],
      "max": [
        1,
        1,
        1
      ],
      "type": "VEC3",
      "bufferView": 1,
      "byteOffset": 166668
    },
    {
      "name": "Line002_1_0_indices",
      "componentType": 5123,
      "count": 132,
      "min": [
        0
      ],
      "max": [
        71
      ],
      "type": "SCALAR",
      "bufferView": 3,
      "byteOffset": 124416
    },
    {
      "name": "Line001_1_0_positions",
      "componentType": 5126,
      "count": 72,
      "min": [
        -3.435499906539917,
        3.4791998863220215,
        2.7767999172210693
      ],
      "max": [
        3.442500114440918,
        4.6305999755859375,
        5.640699863433838
      ],
      "type": "VEC3",
      "bufferView": 0,
      "byteOffset": 167532
    },
    {
      "name": "Line001_1_0_normals",
      "componentType": 5126,
      "count": 72,
      "min": [
        -1,
        -1,
        -1
      ],
      "max": [
        1,
        1,
        1
      ],
      "type": "VEC3",
      "bufferView": 1,
      "byteOffset": 167532
    },
    {
      "name": "Line001_1_0_indices",
      "componentType": 5123,
      "count": 132,
      "min": [
        0
      ],
      "max": [
        71
      ],
      "type": "SCALAR",
      "bufferView": 3,
      "byteOffset": 124680
    },
    {
      "name": "Line004_1_0_positions",
      "componentType": 5126,
      "count": 72,
      "min": [
        -3.435499906539917,
        3.4830000400543213,
        14.313799858093262
      ],
      "max": [
        3.442500114440918,
        5.18149995803833,
        17.177799224853516
      ],
      "type": "VEC3",
      "bufferView": 0,
      "byteOffset": 168396
    },
    {
      "name": "Line004_1_0_normals",
      "componentType": 5126,
      "count": 72,
      "min": [
        -1,
        -1,
        -1
      ],
      "max": [
        1,
        1,
        1
      ],
      "type": "VEC3",
      "bufferView": 1,
      "byteOffset": 168396
    },
    {
      "name": "Line004_1_0_indices",
      "componentType": 5123,
      "count": 132,
      "min": [
        0
      ],
      "max": [
        71
      ],
      "type": "SCALAR",
      "bufferView": 3,
      "byteOffset": 124944
    },
    {
      "name": "Line003_1_0_positions",
      "componentType": 5126,
      "count": 72,
      "min": [
        -3.434000015258789,
        3.4830000400543213,
        -6.972899913787842
      ],
      "max": [
        3.4439001083374023,
        5.6971001625061035,
        -4.10890007019043
      ],
      "type": "VEC3",
      "bufferView": 0,
      "byteOffset": 169260
    },
    {
      "name": "Line003_1_0_normals",
      "componentType": 5126,
      "count": 72,
      "min": [
        -1,
        -1,
        -1
      ],
      "max": [
        1,
        1,
        1
      ],
      "type": "VEC3",
      "bufferView": 1,
      "byteOffset": 169260
    },
    {
      "name": "Line003_1_0_indices",
      "componentType": 5123,
      "count": 132,
      "min": [
        0
      ],
      "max": [
        71
      ],
      "type": "SCALAR",
      "bufferView": 3,
      "byteOffset": 125208
    },
    {
      "name": "Line005_1_0_positions",
      "componentType": 5126,
      "count": 72,
      "min": [
        -3.434000015258789,
        3.4830000400543213,
        -3.7390999794006348
      ],
      "max": [
        3.4439001083374023,
        6.23960018157959,
        -0.8751000165939331
      ],
      "type": "VEC3",
      "bufferView": 0,
      "byteOffset": 170124
    },
    {
      "name": "Line005_1_0_normals",
      "componentType": 5126,
      "count": 72,
      "min": [
        -1,
        -1,
        -1
      ],
      "max": [
        1,
        1,
        1
      ],
      "type": "VEC3",
      "bufferView": 1,
      "byteOffset": 170124
    },
    {
      "name": "Line005_1_0_indices",
      "componentType": 5123,
      "count": 132,
      "min": [
        0
      ],
      "max": [
        71
      ],
      "type": "SCALAR",
      "bufferView": 3,
      "byteOffset": 125472
    },
    {
      "name": "Line006_1_0_positions",
      "componentType": 5126,
      "count": 48,
      "min": [
        -3.435499906539917,
        3.4791998863220215,
        5.9980998039245605
      ],
      "max": [
        3.442500114440918,
        4.029099941253662,
        8.862000465393066
      ],
      "type": "VEC3",
      "bufferView": 0,
      "byteOffset": 170988
    },
    {
      "name": "Line006_1_0_normals",
      "componentType": 5126,
      "count": 48,
      "min": [
        -1,
        -1,
        -1
      ],
      "max": [
        1,
        1,
        1
      ],
      "type": "VEC3",
      "bufferView": 1,
      "byteOffset": 170988
    },
    {
      "name": "Line006_1_0_indices",
      "componentType": 5123,
      "count": 84,
      "min": [
        0
      ],
      "max": [
        47
      ],
      "type": "SCALAR",
      "bufferView": 3,
      "byteOffset": 125736
    },
    {
      "name": "Line007_1_0_positions",
      "componentType": 5126,
      "count": 48,
      "min": [
        -2.9237000942230225,
        3.4830000400543213,
        -10.236599922180176
      ],
      "max": [
        2.9235999584198,
        5.122700214385986,
        -7.372600078582764
      ],
      "type": "VEC3",
      "bufferView": 0,
      "byteOffset": 171564
    },
    {
      "name": "Line007_1_0_normals",
      "componentType": 5126,
      "count": 48,
      "min": [
        -0.999964714050293,
        -1,
        -1
      ],
      "max": [
        0.9999992847442627,
        1,
        1
      ],
      "type": "VEC3",
      "bufferView": 1,
      "byteOffset": 171564
    },
    {
      "name": "Line007_1_0_indices",
      "componentType": 5123,
      "count": 84,
      "min": [
        0
      ],
      "max": [
        47
      ],
      "type": "SCALAR",
      "bufferView": 3,
      "byteOffset": 125904
    }
  ],
  "asset": {
    "generator": "obj2gltf",
    "version": "2.0"
  },
  "buffers": [
    {
      "name": "ship3",
      "byteLength": 581464,
      "uri": "data:application/octet-stream;base64,"
    }
  ],
  "bufferViews": [
    {
      "name": "bufferView_0",
      "buffer": 0,
      "byteLength": 172140,
      "byteOffset": 0,
      "byteStride": 12,
      "target": 34962
    },
    {
      "name": "bufferView_1",
      "buffer": 0,
      "byteLength": 172140,
      "byteOffset": 172140,
      "byteStride": 12,
      "target": 34962
    },
    {
      "name": "bufferView_2",
      "buffer": 0,
      "byteLength": 111112,
      "byteOffset": 344280,
      "byteStride": 8,
      "target": 34962
    },
    {
      "name": "bufferView_3",
      "buffer": 0,
      "byteLength": 126072,
      "byteOffset": 455392,
      "target": 34963
    }
  ],
  "materials": [
    {
      "name": "Standardmaterial_2",
      "pbrMetallicRoughness": {
        "baseColorFactor": [
          0.1647,
          0.5608,
          0.8824,
          1
        ],
        "metallicFactor": 0,
        "roughnessFactor": 0.99
      },
      "emissiveFactor": [
        0,
        0,
        0
      ],
      "alphaMode": "OPAQUE",
      "doubleSided": false
    },
    {
      "name": "Standardmaterial_2-2",
      "pbrMetallicRoughness": {
        "baseColorFactor": [
          0.1647,
          0.5608,
          0.8824,
          1
        ],
        "metallicFactor": 0,
        "roughnessFactor": 0.99
      },
      "emissiveFactor": [
        0,
        0,
        0
      ],
      "alphaMode": "OPAQUE",
      "doubleSided": false
    }
  ],
  "meshes": [
    {
      "name": "obj01_1",
      "primitives": [
        {
          "attributes": {
            "POSITION": 0,
            "NORMAL": 1,
            "TEXCOORD_0": 2
          },
          "indices": 3,
          "material": 0,
          "mode": 4
        }
      ]
    },
    {
      "name": "obj02_1",
      "primitives": [
        {
          "attributes": {
            "POSITION": 4,
            "NORMAL": 5,
            "TEXCOORD_0": 6
          },
          "indices": 7,
          "material": 0,
          "mode": 4
        }
      ]
    },
    {
      "name": "Line002_1",
      "primitives": [
        {
          "attributes": {
            "POSITION": 8,
            "NORMAL": 9
          },
          "indices": 10,
          "material": 1,
          "mode": 4
        }
      ]
    },
    {
      "name": "Line001_1",
      "primitives": [
        {
          "attributes": {
            "POSITION": 11,
            "NORMAL": 12
          },
          "indices": 13,
          "material": 1,
          "mode": 4
        }
      ]
    },
    {
      "name": "Line004_1",
      "primitives": [
        {
          "attributes": {
            "POSITION": 14,
            "NORMAL": 15
          },
          "indices": 16,
          "material": 1,
          "mode": 4
        }
      ]
    },
    {
      "name": "Line003_1",
      "primitives": [
        {
          "attributes": {
            "POSITION": 17,
            "NORMAL": 18
          },
          "indices": 19,
          "material": 1,
          "mode": 4
        }
      ]
    },
    {
      "name": "Line005_1",
      "primitives": [
        {
          "attributes": {
            "POSITION": 20,
            "NORMAL": 21
          },
          "indices": 22,
          "material": 1,
          "mode": 4
        }
      ]
    },
    {
      "name": "Line006_1",
      "primitives": [
        {
          "attributes": {
            "POSITION": 23,
            "NORMAL": 24
          },
          "indices": 25,
          "material": 1,
          "mode": 4
        }
      ]
    },
    {
      "name": "Line007_1",
      "primitives": [
        {
          "attributes": {
            "POSITION": 26,
            "NORMAL": 27
          },
          "indices": 28,
          "material": 1,
          "mode": 4
        }
      ]
    }
  ],
  "nodes": [
    {
      "name": "obj01",
      "mesh": 0
    },
    {
      "name": "obj02",
      "mesh": 1
    },
    {
      "name": "Line002",
      "mesh": 2
    },
    {
      "name": "Line001",
      "mesh": 3
    },
    {
      "name": "Line004",
      "mesh": 4
    },
    {
      "name": "Line003",
      "mesh": 5
    },
    {
      "name": "Line005",
      "mesh": 6
    },
    {
      "name": "Line006",
      "mesh": 7
    },
    {
      "name": "Line007",
      "mesh": 8
    }
  ],
  "scene": 0,
  "scenes": [
    {
      "nodes": [
        0,
        1,
        2,
        3,
        4,
        5,
        6,
        7,
        8
      ]
    }
  ]
}
