{
  "accessors": [
    {
      "name": "obj01_1_0_positions",
      "componentType": 5126,
      "count": 7066,
      "min": [
        -3.9621999263763428,
        -1.6994999647140503,
        -19.72949981689453
      ],
      "max": [
        3.9621999263763428,
        3.1603000164031982,
        19.72949981689453
      ],
      "type": "VEC3",
      "bufferView": 0,
      "byteOffset": 0
    },
    {
      "name": "obj01_1_0_normals",
      "componentType": 5126,
      "count": 7066,
      "min": [
        -1,
        -1,
        -1
      ],
      "max": [
        1,
        1,
        1
      ],
      "type": "VEC3",
      "bufferView": 1,
      "byteOffset": 0
    },
    {
      "name": "obj01_1_0_texcoords",
      "componentType": 5126,
      "count": 7066,
      "min": [
        0.3727000057697296,
        0.0005000000237487257
      ],
      "max": [
        0.6273000240325928,
        0.9994999766349792
      ],
      "type": "VEC2",
      "bufferView": 2,
      "byteOffset": 0
    },
    {
      "name": "obj01_1_0_indices",
      "componentType": 5123,
      "count": 42384,
      "min": [
        0
      ],
      "max": [
        7065
      ],
      "type": "SCALAR",
      "bufferView": 3,
      "byteOffset": 0
    },
    {
      "name": "obj02_1_0_positions",
      "componentType": 5126,
      "count": 6310,
      "min": [
        -3.9463000297546387,
        2.710599899291992,
        -19.6560001373291
      ],
      "max": [
        3.9463000297546387,
        8.099499702453613,
        19.710599899291992
      ],
      "type": "VEC3",
      "bufferView": 0,
      "byteOffset": 84792
    },
    {
      "name": "obj02_1_0_normals",
      "componentType": 5126,
      "count": 6310,
      "min": [
        -1,
        -1,
        -1
      ],
      "max": [
        1,
        1,
        1
      ],
      "type": "VEC3",
      "bufferView": 1,
      "byteOffset": 84792
    },
    {
      "name": "obj02_1_0_texcoords",
      "componentType": 5126,
      "count": 6310,
      "min": [
        -4968.3896484375,
        -975.4747924804688
      ],
      "max": [
        4772.5546875,
        977.4747924804688
      ],
      "type": "VEC2",
      "bufferView": 2,
      "byteOffset": 56528
    },
    {
      "name": "obj02_1_0_indices",
      "componentType": 5123,
      "count": 18294,
      "min": [
        0
      ],
      "max": [
        6309
      ],
      "type": "SCALAR",
      "bufferView": 3,
      "byteOffset": 84768
    },
    {
      "name": "Line002_1_0_positions",
      "componentType": 5126,
      "count": 72,
      "min": [
        -3.434000015258789,
        3.4830000400543213,
        -0.4909999966621399
      ],
      "max": [
        3.4439001083374023,
        6.2555999755859375,
        2.372999906539917
      ],
      "type": "VEC3",
      "bufferView": 0,
      "byteOffset": 160512
    },
    {
      "name": "Line002_1_0_normals",
      "componentType": 5126,
      "count": 72,
      "min": [
        -1,
        -1,
        -1
      ],
      "max": [
        1,
        1,
        1
      ],
      "type": "VEC3",
      "bufferView": 1,
      "byteOffset": 160512
    },
    {
      "name": "Line002_1_0_indices",
      "componentType": 5123,
      "count": 132,
      "min": [
        0
      ],
      "max": [
        71
      ],
      "type": "SCALAR",
      "bufferView": 3,
      "byteOffset": 121356
    },
    {
      "name": "Line001_1_0_positions",
      "componentType": 5126,
      "count": 72,
      "min": [
        -3.435499906539917,
        3.4791998863220215,
        2.7767999172210693
      ],
      "max": [
        3.442500114440918,
        4.6305999755859375,
        5.640699863433838
      ],
      "type": "VEC3",
      "bufferView": 0,
      "byteOffset": 161376
    },
    {
      "name": "Line001_1_0_normals",
      "componentType": 5126,
      "count": 72,
      "min": [
        -1,
        -1,
        -1
      ],
      "max": [
        1,
        1,
        1
      ],
      "type": "VEC3",
      "bufferView": 1,
      "byteOffset": 161376
    },
    {
      "name": "Line001_1_0_indices",
      "componentType": 5123,
      "count": 132,
      "min": [
        0
      ],
      "max": [
        71
      ],
      "type": "SCALAR",
      "bufferView": 3,
      "byteOffset": 121620
    },
    {
      "name": "Line004_1_0_positions",
      "componentType": 5126,
      "count": 72,
      "min": [
        -3.435499906539917,
        3.4830000400543213,
        13.366000175476074
      ],
      "max": [
        3.442500114440918,
        5.140399932861328,
        16.229999542236328
      ],
      "type": "VEC3",
      "bufferView": 0,
      "byteOffset": 162240
    },
    {
      "name": "Line004_1_0_normals",
      "componentType": 5126,
      "count": 72,
      "min": [
        -1,
        -1,
        -1
      ],
      "max": [
        1,
        1,
        1
      ],
      "type": "VEC3",
      "bufferView": 1,
      "byteOffset": 162240
    },
    {
      "name": "Line004_1_0_indices",
      "componentType": 5123,
      "count": 132,
      "min": [
        0
      ],
      "max": [
        71
      ],
      "type": "SCALAR",
      "bufferView": 3,
      "byteOffset": 121884
    },
    {
      "name": "Line003_1_0_positions",
      "componentType": 5126,
      "count": 72,
      "min": [
        -3.434000015258789,
        3.4830000400543213,
        -6.972899913787842
      ],
      "max": [
        3.4439001083374023,
        5.6971001625061035,
        -4.10890007019043
      ],
      "type": "VEC3",
      "bufferView": 0,
      "byteOffset": 163104
    },
    {
      "name": "Line003_1_0_normals",
      "componentType": 5126,
      "count": 72,
      "min": [
        -1,
        -1,
        -1
      ],
      "max": [
        1,
        1,
        1
      ],
      "type": "VEC3",
      "bufferView": 1,
      "byteOffset": 163104
    },
    {
      "name": "Line003_1_0_indices",
      "componentType": 5123,
      "count": 132,
      "min": [
        0
      ],
      "max": [
        71
      ],
      "type": "SCALAR",
      "bufferView": 3,
      "byteOffset": 122148
    },
    {
      "name": "Line005_1_0_positions",
      "componentType": 5126,
      "count": 72,
      "min": [
        -3.434000015258789,
        3.4830000400543213,
        -3.7390999794006348
      ],
      "max": [
        3.4439001083374023,
        6.23960018157959,
        -0.8751000165939331
      ],
      "type": "VEC3",
      "bufferView": 0,
      "byteOffset": 163968
    },
    {
      "name": "Line005_1_0_normals",
      "componentType": 5126,
      "count": 72,
      "min": [
        -1,
        -1,
        -1
      ],
      "max": [
        1,
        1,
        1
      ],
      "type": "VEC3",
      "bufferView": 1,
      "byteOffset": 163968
    },
    {
      "name": "Line005_1_0_indices",
      "componentType": 5123,
      "count": 132,
      "min": [
        0
      ],
      "max": [
        71
      ],
      "type": "SCALAR",
      "bufferView": 3,
      "byteOffset": 122412
    },
    {
      "name": "Line006_1_0_positions",
      "componentType": 5126,
      "count": 48,
      "min": [
        -3.435499906539917,
        3.4791998863220215,
        5.9980998039245605
      ],
      "max": [
        3.442500114440918,
        4.029099941253662,
        8.862000465393066
      ],
      "type": "VEC3",
      "bufferView": 0,
      "byteOffset": 164832
    },
    {
      "name": "Line006_1_0_normals",
      "componentType": 5126,
      "count": 48,
      "min": [
        -1,
        -1,
        -1
      ],
      "max": [
        1,
        1,
        1
      ],
      "type": "VEC3",
      "bufferView": 1,
      "byteOffset": 164832
    },
    {
      "name": "Line006_1_0_indices",
      "componentType": 5123,
      "count": 84,
      "min": [
        0
      ],
      "max": [
        47
      ],
      "type": "SCALAR",
      "bufferView": 3,
      "byteOffset": 122676
    },
    {
      "name": "Line007_1_0_positions",
      "componentType": 5126,
      "count": 48,
      "min": [
        -2.9237000942230225,
        3.4830000400543213,
        -10.236599922180176
      ],
      "max": [
        2.9235999584198,
        5.122700214385986,
        -7.372600078582764
      ],
      "type": "VEC3",
      "bufferView": 0,
      "byteOffset": 165408
    },
    {
      "name": "Line007_1_0_normals",
      "componentType": 5126,
      "count": 48,
      "min": [
        -0.999964714050293,
        -1,
        -1
      ],
      "max": [
        0.9999992847442627,
        1,
        1
      ],
      "type": "VEC3",
      "bufferView": 1,
      "byteOffset": 165408
    },
    {
      "name": "Line007_1_0_indices",
      "componentType": 5123,
      "count": 84,
      "min": [
        0
      ],
      "max": [
        47
      ],
      "type": "SCALAR",
      "bufferView": 3,
      "byteOffset": 122844
    },
    {
      "name": "flag0_1_0_positions",
      "componentType": 5126,
      "count": 24,
      "min": [
        -0.263700008392334,
        6.012400150299072,
        16.675500869750977
      ],
      "max": [
        -0.2386000007390976,
        8.05739974975586,
        19.963199615478516
      ],
      "type": "VEC3",
      "bufferView": 0,
      "byteOffset": 165984
    },
    {
      "name": "flag0_1_0_normals",
      "componentType": 5126,
      "count": 24,
      "min": [
        -1,
        -1,
        -1
      ],
      "max": [
        1,
        1,
        1
      ],
      "type": "VEC3",
      "bufferView": 1,
      "byteOffset": 165984
    },
    {
      "name": "flag0_1_0_texcoords",
      "componentType": 5126,
      "count": 24,
      "min": [
        0,
        0
      ],
      "max": [
        1,
        1
      ],
      "type": "VEC2",
      "bufferView": 2,
      "byteOffset": 107008
    },
    {
      "name": "flag0_1_0_indices",
      "componentType": 5123,
      "count": 36,
      "min": [
        0
      ],
      "max": [
        23
      ],
      "type": "SCALAR",
      "bufferView": 3,
      "byteOffset": 123012
    },
    {
      "name": "flag1_1_0_positions",
      "componentType": 5126,
      "count": 24,
      "min": [
        -1.5846999883651733,
        2.8557000160217285,
        -18.036100387573242
      ],
      "max": [
        1.686900019645691,
        2.895699977874756,
        -12.776300430297852
      ],
      "type": "VEC3",
      "bufferView": 0,
      "byteOffset": 166272
    },
    {
      "name": "flag1_1_0_normals",
      "componentType": 5126,
      "count": 24,
      "min": [
        -1,
        -1,
        -1
      ],
      "max": [
        1,
        1,
        1
      ],
      "type": "VEC3",
      "bufferView": 1,
      "byteOffset": 166272
    },
    {
      "name": "flag1_1_0_texcoords",
      "componentType": 5126,
      "count": 24,
      "min": [
        0,
        0
      ],
      "max": [
        1,
        1
      ],
      "type": "VEC2",
      "bufferView": 2,
      "byteOffset": 107200
    },
    {
      "name": "flag1_1_0_indices",
      "componentType": 5123,
      "count": 36,
      "min": [
        0
      ],
      "max": [
        23
      ],
      "type": "SCALAR",
      "bufferView": 3,
      "byteOffset": 123084
    },
    {
      "name": "Object001_1_0_positions",
      "componentType": 5126,
      "count": 90,
      "min": [
        -0.29760000109672546,
        3.4651999473571777,
        16.589000701904297
      ],
      "max": [
        -0.2012999951839447,
        8.094200134277344,
        16.683799743652344
      ],
      "type": "VEC3",
      "bufferView": 0,
      "byteOffset": 166560
    },
    {
      "name": "Object001_1_0_normals",
      "componentType": 5126,
      "count": 90,
      "min": [
        -0.9748175144195557,
        0,
        -0.9759724736213684
      ],
      "max": [
        0.9747957587242126,
        0.9999719262123108,
        0.9759724736213684
      ],
      "type": "VEC3",
      "bufferView": 1,
      "byteOffset": 166560
    },
    {
      "name": "Object001_1_0_texcoords",
      "componentType": 5126,
      "count": 90,
      "min": [
        68.91600036621094,
        203.22740173339844
      ],
      "max": [
        110.78019714355469,
        203.6011962890625
      ],
      "type": "VEC2",
      "bufferView": 2,
      "byteOffset": 107392
    },
    {
      "name": "Object001_1_0_indices",
      "componentType": 5123,
      "count": 246,
      "min": [
        0
      ],
      "max": [
        89
      ],
      "type": "SCALAR",
      "bufferView": 3,
      "byteOffset": 123156
    },
    {
      "name": "Point0_1_0_positions",
      "componentType": 5126,
      "count": 4,
      "min": [
        3.9665000438690186,
        2.172800064086914,
        -1.356600046157837
      ],
      "max": [
        3.9665000438690186,
        2.174799919128418,
        -1.354599952697754
      ],
      "type": "VEC3",
      "bufferView": 0,
      "byteOffset": 167640
    },
    {
      "name": "Point0_1_0_normals",
      "componentType": 5126,
      "count": 4,
      "min": [
        1,
        0,
        0
      ],
      "max": [
        1,
        0,
        0
      ],
      "type": "VEC3",
      "bufferView": 1,
      "byteOffset": 167640
    },
    {
      "name": "Point0_1_0_texcoords",
      "componentType": 5126,
      "count": 4,
      "min": [
        0,
        0
      ],
      "max": [
        1,
        1
      ],
      "type": "VEC2",
      "bufferView": 2,
      "byteOffset": 108112
    },
    {
      "name": "Point0_1_0_indices",
      "componentType": 5123,
      "count": 6,
      "min": [
        0
      ],
      "max": [
        3
      ],
      "type": "SCALAR",
      "bufferView": 3,
      "byteOffset": 123648
    },
    {
      "name": "Point1_1_0_positions",
      "componentType": 5126,
      "count": 4,
      "min": [
        -3.9632999897003174,
        2.1928999423980713,
        -1.356600046157837
      ],
      "max": [
        -3.9632999897003174,
        2.1949000358581543,
        -1.354599952697754
      ],
      "type": "VEC3",
      "bufferView": 0,
      "byteOffset": 167688
    },
    {
      "name": "Point1_1_0_normals",
      "componentType": 5126,
      "count": 4,
      "min": [
        -1,
        0,
        0
      ],
      "max": [
        -1,
        0,
        0
      ],
      "type": "VEC3",
      "bufferView": 1,
      "byteOffset": 167688
    },
    {
      "name": "Point1_1_0_texcoords",
      "componentType": 5126,
      "count": 4,
      "min": [
        0,
        0
      ],
      "max": [
        1,
        1
      ],
      "type": "VEC2",
      "bufferView": 2,
      "byteOffset": 108144
    },
    {
      "name": "Point1_1_0_indices",
      "componentType": 5123,
      "count": 6,
      "min": [
        0
      ],
      "max": [
        3
      ],
      "type": "SCALAR",
      "bufferView": 3,
      "byteOffset": 123660
    }
  ],
  "asset": {
    "generator": "obj2gltf",
    "version": "2.0"
  },
  "buffers": [
    {
      "name": "ship3",
      "byteLength": 567320,
      "uri": "data:application/octet-stream;base64,"
    }
  ],
  "bufferViews": [
    {
      "name": "bufferView_0",
      "buffer": 0,
      "byteLength": 167736,
      "byteOffset": 0,
      "byteStride": 12,
      "target": 34962
    },
    {
      "name": "bufferView_1",
      "buffer": 0,
      "byteLength": 167736,
      "byteOffset": 167736,
      "byteStride": 12,
      "target": 34962
    },
    {
      "name": "bufferView_2",
      "buffer": 0,
      "byteLength": 108176,
      "byteOffset": 335472,
      "byteStride": 8,
      "target": 34962
    },
    {
      "name": "bufferView_3",
      "buffer": 0,
      "byteLength": 123672,
      "byteOffset": 443648,
      "target": 34963
    }
  ],
  "materials": [
    {
      "name": "Standardmaterial_2",
      "pbrMetallicRoughness": {
        "baseColorFactor": [
          0.1647,
          0.5608,
          0.8824,
          1
        ],
        "metallicFactor": 0,
        "roughnessFactor": 0.99
      },
      "emissiveFactor": [
        0,
        0,
        0
      ],
      "alphaMode": "OPAQUE",
      "doubleSided": false
    },
    {
      "name": "Standardmaterial_2-2",
      "pbrMetallicRoughness": {
        "baseColorFactor": [
          0.1647,
          0.5608,
          0.8824,
          1
        ],
        "metallicFactor": 0,
        "roughnessFactor": 0.99
      },
      "emissiveFactor": [
        0,
        0,
        0
      ],
      "alphaMode": "OPAQUE",
      "doubleSided": false
    },
    {
      "name": "Material__687",
      "pbrMetallicRoughness": {
        "baseColorFactor": [
          0.588,
          0.588,
          0.588,
          1
        ],
        "metallicFactor": 0,
        "roughnessFactor": 0.99
      },
      "emissiveFactor": [
        0,
        0,
        0
      ],
      "alphaMode": "OPAQUE",
      "doubleSided": false
    }
  ],
  "meshes": [
    {
      "name": "obj01_1",
      "primitives": [
        {
          "attributes": {
            "POSITION": 0,
            "NORMAL": 1,
            "TEXCOORD_0": 2
          },
          "indices": 3,
          "material": 0,
          "mode": 4
        }
      ]
    },
    {
      "name": "obj02_1",
      "primitives": [
        {
          "attributes": {
            "POSITION": 4,
            "NORMAL": 5,
            "TEXCOORD_0": 6
          },
          "indices": 7,
          "material": 0,
          "mode": 4
        }
      ]
    },
    {
      "name": "Line002_1",
      "primitives": [
        {
          "attributes": {
            "POSITION": 8,
            "NORMAL": 9
          },
          "indices": 10,
          "material": 1,
          "mode": 4
        }
      ]
    },
    {
      "name": "Line001_1",
      "primitives": [
        {
          "attributes": {
            "POSITION": 11,
            "NORMAL": 12
          },
          "indices": 13,
          "material": 1,
          "mode": 4
        }
      ]
    },
    {
      "name": "Line004_1",
      "primitives": [
        {
          "attributes": {
            "POSITION": 14,
            "NORMAL": 15
          },
          "indices": 16,
          "material": 1,
          "mode": 4
        }
      ]
    },
    {
      "name": "Line003_1",
      "primitives": [
        {
          "attributes": {
            "POSITION": 17,
            "NORMAL": 18
          },
          "indices": 19,
          "material": 1,
          "mode": 4
        }
      ]
    },
    {
      "name": "Line005_1",
      "primitives": [
        {
          "attributes": {
            "POSITION": 20,
            "NORMAL": 21
          },
          "indices": 22,
          "material": 1,
          "mode": 4
        }
      ]
    },
    {
      "name": "Line006_1",
      "primitives": [
        {
          "attributes": {
            "POSITION": 23,
            "NORMAL": 24
          },
          "indices": 25,
          "material": 1,
          "mode": 4
        }
      ]
    },
    {
      "name": "Line007_1",
      "primitives": [
        {
          "attributes": {
            "POSITION": 26,
            "NORMAL": 27
          },
          "indices": 28,
          "material": 1,
          "mode": 4
        }
      ]
    },
    {
      "name": "flag0_1",
      "primitives": [
        {
          "attributes": {
            "POSITION": 29,
            "NORMAL": 30,
            "TEXCOORD_0": 31
          },
          "indices": 32,
          "material": 2,
          "mode": 4
        }
      ]
    },
    {
      "name": "flag1_1",
      "primitives": [
        {
          "attributes": {
            "POSITION": 33,
            "NORMAL": 34,
            "TEXCOORD_0": 35
          },
          "indices": 36,
          "material": 2,
          "mode": 4
        }
      ]
    },
    {
      "name": "Object001_1",
      "primitives": [
        {
          "attributes": {
            "POSITION": 37,
            "NORMAL": 38,
            "TEXCOORD_0": 39
          },
          "indices": 40,
          "material": 0,
          "mode": 4
        }
      ]
    },
    {
      "name": "Point0_1",
      "primitives": [
        {
          "attributes": {
            "POSITION": 41,
            "NORMAL": 42,
            "TEXCOORD_0": 43
          },
          "indices": 44,
          "material": 0,
          "mode": 4
        }
      ]
    },
    {
      "name": "Point1_1",
      "primitives": [
        {
          "attributes": {
            "POSITION": 45,
            "NORMAL": 46,
            "TEXCOORD_0": 47
          },
          "indices": 48,
          "material": 0,
          "mode": 4
        }
      ]
    }
  ],
  "nodes": [
    {
      "name": "obj01",
      "mesh": 0
    },
    {
      "name": "obj02",
      "mesh": 1
    },
    {
      "name": "Line002",
      "mesh": 2
    },
    {
      "name": "Line001",
      "mesh": 3
    },
    {
      "name": "Line004",
      "mesh": 4
    },
    {
      "name": "Line003",
      "mesh": 5
    },
    {
      "name": "Line005",
      "mesh": 6
    },
    {
      "name": "Line006",
      "mesh": 7
    },
    {
      "name": "Line007",
      "mesh": 8
    },
    {
      "name": "flag0",
      "mesh": 9
    },
    {
      "name": "flag1",
      "mesh": 10
    },
    {
      "name": "Object001",
      "mesh": 11
    },
    {
      "name": "Point0",
      "mesh": 12
    },
    {
      "name": "Point1",
      "mesh": 13
    }
  ],
  "scene": 0,
  "scenes": [
    {
      "nodes": [
        0,
        1,
        2,
        3,
        4,
        5,
        6,
        7,
        8,
        9,
        10,
        11,
        12,
        13
      ]
    }
  ]
}
