{
  "accessors": [
    {
      "name": "strip_1_0_positions",
      "componentType": 5126,
      "count": 4,
      "min": [
        -4.016499996185303,
        0.20000000298023224,
        -3.014699935913086
      ],
      "max": [
        4.016499996185303,
        0.20000000298023224,
        3.014699935913086
      ],
      "type": "VEC3",
      "bufferView": 0,
      "byteOffset": 0
    },
    {
      "name": "strip_1_0_normals",
      "componentType": 5126,
      "count": 4,
      "min": [
        0,
        1,
        0
      ],
      "max": [
        0,
        1,
        0
      ],
      "type": "VEC3",
      "bufferView": 1,
      "byteOffset": 0
    },
    {
      "name": "strip_1_0_texcoords",
      "componentType": 5126,
      "count": 4,
      "min": [
        0,
        0
      ],
      "max": [
        1,
        1
      ],
      "type": "VEC2",
      "bufferView": 2,
      "byteOffset": 0
    },
    {
      "name": "strip_1_0_indices",
      "componentType": 5123,
      "count": 6,
      "min": [
        0
      ],
      "max": [
        3
      ],
      "type": "SCALAR",
      "bufferView": 3,
      "byteOffset": 0
    },
    {
      "name": "SPoint_1_0_positions",
      "componentType": 5126,
      "count": 4,
      "min": [
        -0.009999999776482582,
        0.2630000114440918,
        -0.009999999776482582
      ],
      "max": [
        0.009999999776482582,
        0.2630000114440918,
        0.009999999776482582
      ],
      "type": "VEC3",
      "bufferView": 0,
      "byteOffset": 48
    },
    {
      "name": "SPoint_1_0_normals",
      "componentType": 5126,
      "count": 4,
      "min": [
        0,
        1,
        0
      ],
      "max": [
        0,
        1,
        0
      ],
      "type": "VEC3",
      "bufferView": 1,
      "byteOffset": 48
    },
    {
      "name": "SPoint_1_0_texcoords",
      "componentType": 5126,
      "count": 4,
      "min": [
        0,
        0
      ],
      "max": [
        1,
        1
      ],
      "type": "VEC2",
      "bufferView": 2,
      "byteOffset": 32
    },
    {
      "name": "SPoint_1_0_indices",
      "componentType": 5123,
      "count": 6,
      "min": [
        0
      ],
      "max": [
        3
      ],
      "type": "SCALAR",
      "bufferView": 3,
      "byteOffset": 12
    }
  ],
  "asset": {
    "generator": "obj2gltf",
    "version": "2.0"
  },
  "buffers": [
    {
      "name": "st",
      "byteLength": 35132,
      "uri": "data:application/octet-stream;base64,"
    }
  ],
  "bufferViews": [
    {
      "name": "bufferView_0",
      "buffer": 0,
      "byteLength": 96,
      "byteOffset": 0,
      "byteStride": 12,
      "target": 34962
    },
    {
      "name": "bufferView_1",
      "buffer": 0,
      "byteLength": 96,
      "byteOffset": 96,
      "byteStride": 12,
      "target": 34962
    },
    {
      "name": "bufferView_2",
      "buffer": 0,
      "byteLength": 64,
      "byteOffset": 192,
      "byteStride": 8,
      "target": 34962
    },
    {
      "name": "bufferView_3",
      "buffer": 0,
      "byteLength": 24,
      "byteOffset": 256,
      "target": 34963
    },
    {
      "buffer": 0,
      "byteOffset": 280,
      "byteLength": 34852
    }
  ],
  "images": [
    {
      "name": "strip",
      "mimeType": "image/png",
      "bufferView": 4
    }
  ],
  "materials": [
    {
      "name": "Material__688",
      "pbrMetallicRoughness": {
        "baseColorTexture": {
          "index": 0
        },
        "baseColorFactor": [
          1,
          1,
          1,
          1
        ],
        "metallicFactor": 0,
        "roughnessFactor": 0.99
      },
      "emissiveFactor": [
        0,
        0,
        0
      ],
      "alphaMode": "BLEND",
      "doubleSided": true
    },
    {
      "name": "wire_113135006",
      "pbrMetallicRoughness": {
        "baseColorFactor": [
          0.4431,
          0.5294,
          0.0235,
          1
        ],
        "metallicFactor": 0,
        "roughnessFactor": 0.968
      },
      "emissiveFactor": [
        0,
        0,
        0
      ],
      "alphaMode": "OPAQUE",
      "doubleSided": false
    }
  ],
  "meshes": [
    {
      "name": "strip_1",
      "primitives": [
        {
          "attributes": {
            "POSITION": 0,
            "NORMAL": 1,
            "TEXCOORD_0": 2
          },
          "indices": 3,
          "material": 0,
          "mode": 4
        }
      ]
    },
    {
      "name": "SPoint_1",
      "primitives": [
        {
          "attributes": {
            "POSITION": 4,
            "NORMAL": 5,
            "TEXCOORD_0": 6
          },
          "indices": 7,
          "material": 1,
          "mode": 4
        }
      ]
    }
  ],
  "nodes": [
    {
      "name": "strip",
      "mesh": 0
    },
    {
      "name": "SPoint",
      "mesh": 1
    }
  ],
  "samplers": [
    {
      "magFilter": 9729,
      "minFilter": 9986,
      "wrapS": 10497,
      "wrapT": 10497
    }
  ],
  "scene": 0,
  "scenes": [
    {
      "nodes": [
        0,
        1
      ]
    }
  ],
  "textures": [
    {
      "name": "strip",
      "sampler": 0,
      "source": 0
    }
  ]
}
