<?xml version="1.0" encoding="utf-8"?>
<!-- Generator: Adobe Illustrator 26.0.1, SVG Export Plug-In . SVG Version: 6.00 Build 0)  -->
<svg version="1.1" id="Layer_1" xmlns="http://www.w3.org/2000/svg" xmlns:xlink="http://www.w3.org/1999/xlink" x="0px" y="0px"
	 viewBox="0 0 80.73 30.93" style="enable-background:new 0 0 80.73 30.93;" xml:space="preserve">
<style type="text/css">
	.st0{fill:#FBFBFB;}
	.st1{fill:#1D1D1B;}
	.st2{fill:url(#SVGID_1_);}
	.st3{fill:#C6C6C5;}
	.st4{fill:url(#SVGID_00000034792850346368503460000010623193776373817504_);}
	.st5{fill:url(#SVGID_00000012441977276006065030000005959213078339932082_);}
	.st6{fill:url(#SVGID_00000016793593835762537820000012098173494809755305_);}
	.st7{fill:url(#SVGID_00000124878803517156777910000005578080791362388657_);}
	.st8{fill:url(#SVGID_00000096017351249823719820000006440107981742764220_);}
	.st9{fill:url(#SVGID_00000047741013954900526870000007318771589015195779_);}
	.st10{fill:url(#SVGID_00000051355427394638828380000011113805431781586083_);}
	.st11{fill:url(#SVGID_00000040550420893329169640000015435037469630436781_);}
	.st12{fill:url(#SVGID_00000042700477106746410830000016928623177649135021_);}
	.st13{fill:url(#SVGID_00000124127573559388685710000014606318528456754052_);}
	.st14{fill:url(#SVGID_00000134210063552451760260000016904949232517609094_);}
	.st15{fill:url(#SVGID_00000164499688475494111780000013245043847813700762_);}
	.st16{fill:url(#SVGID_00000091722622940805202240000016617461388950325138_);}
	.st17{fill:url(#SVGID_00000100350661138910312310000011284122709433294520_);}
	.st18{fill:url(#SVGID_00000183230577180592507840000008995416007318214541_);}
	.st19{fill:url(#SVGID_00000023258690385428037140000015604875234626932115_);}
	.st20{fill:url(#SVGID_00000067229267610892829110000008184618930757442451_);}
	.st21{fill:url(#SVGID_00000038392555852209802130000015098684786094283939_);}
	.st22{fill:url(#SVGID_00000078761690994413534620000005818303651628208319_);}
	.st23{fill:url(#SVGID_00000086672263061826482870000015226188283421480868_);}
	.st24{fill:url(#SVGID_00000012447474787126020060000001165826008041548966_);}
	.st25{fill:url(#SVGID_00000018956325910539132740000016938951648800665241_);}
	.st26{fill:url(#SVGID_00000142163242890100715430000003985859926473553036_);}
	.st27{fill:url(#SVGID_00000008136689849581598310000000391484926587899320_);}
	.st28{fill:url(#SVGID_00000114789141464532556280000015270505375083932046_);}
	.st29{fill:url(#SVGID_00000051379548199138105460000000171126450066455437_);}
	.st30{fill:url(#SVGID_00000049914855155302550400000005435036947912066205_);}
	.st31{fill:url(#SVGID_00000103226730876932748870000002642391982502643841_);}
</style>
<g>
	<path class="st0" d="M22.08,11.04l-4.56-0.02V5.39h0.54V4.74h-0.54V3.96h-1.45V2.69h-5.12c-0.21,0-0.39-0.17-0.39-0.39V0H6.63v2.69
		H5.52v1.26H4.1v0.78H3.55v0.65H4.1v12.04"/>
	<polygon class="st0" points="22.08,11.04 22.08,17.43 4.1,17.43 	"/>
	<g>
		<ellipse class="st1" cx="5.25" cy="27.4" rx="1.17" ry="0.93"/>
		<g>
			<path class="st1" d="M4.77,27.37c0.11,0.66,0.37,2.41-0.13,3.14c-0.09,0.13-0.33,0.48-0.5,0.42C4.06,30.9,4.02,30.78,4,30.7
				c0.13-0.27,0.26-0.59,0.36-0.97c0.26-0.97,0.18-1.82,0.09-2.34C4.56,27.38,4.67,27.38,4.77,27.37z"/>
			<path class="st1" d="M4.48,27.37c-0.11-0.66-0.37-2.41,0.13-3.14c0.09-0.13,0.33-0.48,0.5-0.42c0.08,0.03,0.12,0.14,0.15,0.23
				c-0.13,0.27-0.26,0.59-0.36,0.97c-0.26,0.97-0.18,1.82-0.09,2.34C4.69,27.36,4.58,27.37,4.48,27.37z"/>
		</g>
	</g>
	<linearGradient id="SVGID_1_" gradientUnits="userSpaceOnUse" x1="0" y1="16.2038" x2="79.5785" y2="16.2038">
		<stop  offset="0" style="stop-color:#A49A98"/>
		<stop  offset="0.176" style="stop-color:#C5C3C3"/>
		<stop  offset="0.8073" style="stop-color:#C5C3C3"/>
		<stop  offset="1" style="stop-color:#999693"/>
	</linearGradient>
	<path class="st2" d="M0,17.43h65.73v-6.19h13.83c0.08,1.71-0.28,2.93-0.61,3.71c-0.96,2.25-2.75,3.37-2.51,5.26
		c0.05,0.43,0.2,0.77,0.3,0.97c-25.06,0-50.13,0-75.19,0C0.69,21.17,0,20.48,0,19.62V17.43z"/>
	<rect x="65.73" y="9.75" class="st3" width="0.92" height="1.49"/>
	<g>
		<rect x="54.8" y="9.75" class="st3" width="0.92" height="7.68"/>
		<rect x="43.94" y="9.75" class="st3" width="0.92" height="7.68"/>
		<rect x="33.01" y="9.75" class="st3" width="0.92" height="7.68"/>
		<rect x="22.08" y="9.75" class="st3" width="0.92" height="7.68"/>
		
			<linearGradient id="SVGID_00000049217226511265016080000017031592637739238051_" gradientUnits="userSpaceOnUse" x1="60.7261" y1="17.4267" x2="60.7261" y2="11.2356">
			<stop  offset="0" style="stop-color:#DEAC0B"/>
			<stop  offset="1" style="stop-color:#FBC01E"/>
		</linearGradient>
		<path style="fill:url(#SVGID_00000049217226511265016080000017031592637739238051_);" d="M55.72,17.43h10.01v-4.97
			c-0.86-0.45-2.65-1.23-5.04-1.22c-2.35,0.01-4.11,0.78-4.97,1.22C55.72,14.11,55.72,15.77,55.72,17.43"/>
		
			<linearGradient id="SVGID_00000067918845966571447240000003994231629567548559_" gradientUnits="userSpaceOnUse" x1="49.7962" y1="17.4267" x2="49.7962" y2="11.2356">
			<stop  offset="0" style="stop-color:#DEAC0B"/>
			<stop  offset="1" style="stop-color:#FBC01E"/>
		</linearGradient>
		<path style="fill:url(#SVGID_00000067918845966571447240000003994231629567548559_);" d="M44.79,17.43H54.8v-4.97
			c-0.86-0.45-2.65-1.23-5.04-1.22c-2.35,0.01-4.11,0.78-4.97,1.22C44.79,14.11,44.79,15.77,44.79,17.43"/>
		
			<linearGradient id="SVGID_00000181784615473637445710000015194943221873023375_" gradientUnits="userSpaceOnUse" x1="38.9379" y1="17.4267" x2="38.9379" y2="11.2356">
			<stop  offset="0" style="stop-color:#DEAC0B"/>
			<stop  offset="1" style="stop-color:#FBC01E"/>
		</linearGradient>
		<path style="fill:url(#SVGID_00000181784615473637445710000015194943221873023375_);" d="M33.93,17.43h10.01v-4.97
			c-0.86-0.45-2.65-1.23-5.04-1.22c-2.35,0.01-4.11,0.78-4.97,1.22C33.93,14.11,33.93,15.77,33.93,17.43"/>
		
			<linearGradient id="SVGID_00000050641144526558347140000009410318498129357464_" gradientUnits="userSpaceOnUse" x1="28.008" y1="17.4267" x2="28.008" y2="11.2356">
			<stop  offset="0" style="stop-color:#DEAC0B"/>
			<stop  offset="1" style="stop-color:#FBC01E"/>
		</linearGradient>
		<path style="fill:url(#SVGID_00000050641144526558347140000009410318498129357464_);" d="M23,17.43h10.01v-4.97
			c-0.86-0.45-2.65-1.23-5.04-1.22c-2.35,0.01-4.11,0.78-4.97,1.22C23,14.11,23,15.77,23,17.43"/>
	</g>
	
		<linearGradient id="SVGID_00000000928484774177952620000011308987906370075521_" gradientUnits="userSpaceOnUse" x1="3.7261" y1="25.1465" x2="80.7308" y2="25.1465">
		<stop  offset="0" style="stop-color:#073D5B"/>
		<stop  offset="0.1816" style="stop-color:#0D5278"/>
		<stop  offset="0.8073" style="stop-color:#0D5278"/>
		<stop  offset="1" style="stop-color:#083449"/>
	</linearGradient>
	<path style="fill:url(#SVGID_00000000928484774177952620000011308987906370075521_);" d="M76.74,21.17c0.2,0.1,0.53,0.25,0.96,0.34
		c1.09,0.25,1.65-0.09,2.22,0.25c0.52,0.3,0.67,0.93,0.75,1.26c0.39,1.63-0.84,3.16-1.3,3.73c-1.17,1.45-2.66,2.06-3.48,2.32
		c-22.9,0.02-45.8,0.04-68.7,0.05c-0.68-0.2-1.51-0.57-1.76-1.29c-0.49-1.4,1.69-2.74,1.39-4.32c-0.14-0.71-0.8-1.58-3.08-2.34
		C28.06,21.17,52.4,21.17,76.74,21.17z"/>
	<path class="st1" d="M2.23,21.18v1.27H1.07c-0.17,0-0.31,0.14-0.31,0.31v6.71h1.82c0.22,0,0.4-0.18,0.4-0.4
		c0.03-2.04,0.07-4.08,0.1-6.11c0.01-0.32,0.13-0.96,0.28-1.24l0.4-0.55L2.23,21.18z"/>
	
		<linearGradient id="SVGID_00000119819298126170203940000014863041623825790879_" gradientUnits="userSpaceOnUse" x1="12.4013" y1="13.156" x2="12.4013" y2="12.0382">
		<stop  offset="0" style="stop-color:#C6C6C5"/>
		<stop  offset="1" style="stop-color:#6F6F6E"/>
	</linearGradient>
	
		<rect x="8.73" y="12.04" style="fill:url(#SVGID_00000119819298126170203940000014863041623825790879_);" width="7.34" height="1.12"/>
	
		<linearGradient id="SVGID_00000069373389551241183470000002568535432736355726_" gradientUnits="userSpaceOnUse" x1="10.7986" y1="9.9554" x2="10.7986" y2="5.3986">
		<stop  offset="0.1732" style="stop-color:#FFFFFF"/>
		<stop  offset="1" style="stop-color:#B2B2B2"/>
	</linearGradient>
	
		<rect x="4.09" y="5.4" style="fill:url(#SVGID_00000069373389551241183470000002568535432736355726_);" width="13.43" height="4.56"/>
	
		<linearGradient id="SVGID_00000015343456181340641320000015853301634927764626_" gradientUnits="userSpaceOnUse" x1="12.4013" y1="17.4267" x2="12.4013" y2="13.3758">
		<stop  offset="0.1229" style="stop-color:#FFFFFF"/>
		<stop  offset="1" style="stop-color:#868686"/>
	</linearGradient>
	
		<rect x="8.73" y="13.38" style="fill:url(#SVGID_00000015343456181340641320000015853301634927764626_);" width="7.34" height="4.05"/>
	<path class="st1" d="M4.1,17.43"/>
	<g>
		
			<linearGradient id="SVGID_00000134243256014922675260000001968977771062420899_" gradientUnits="userSpaceOnUse" x1="5.2118" y1="6.6117" x2="5.2118" y2="5.6752">
			<stop  offset="0" style="stop-color:#FFFFFF"/>
			<stop  offset="1" style="stop-color:#6F6F6E"/>
		</linearGradient>
		
			<rect x="4.75" y="5.68" style="fill:url(#SVGID_00000134243256014922675260000001968977771062420899_);" width="0.93" height="0.94"/>
		
			<linearGradient id="SVGID_00000044876552689414445240000005432394279741085843_" gradientUnits="userSpaceOnUse" x1="6.6246" y1="6.6117" x2="6.6246" y2="5.6752">
			<stop  offset="0" style="stop-color:#FFFFFF"/>
			<stop  offset="1" style="stop-color:#6F6F6E"/>
		</linearGradient>
		
			<rect x="6.16" y="5.68" style="fill:url(#SVGID_00000044876552689414445240000005432394279741085843_);" width="0.93" height="0.94"/>
		
			<linearGradient id="SVGID_00000151520841637695998800000010238384206069660815_" gradientUnits="userSpaceOnUse" x1="8.0374" y1="6.6117" x2="8.0374" y2="5.6752">
			<stop  offset="0" style="stop-color:#FFFFFF"/>
			<stop  offset="1" style="stop-color:#6F6F6E"/>
		</linearGradient>
		
			<rect x="7.57" y="5.68" style="fill:url(#SVGID_00000151520841637695998800000010238384206069660815_);" width="0.93" height="0.94"/>
		
			<linearGradient id="SVGID_00000168818144801844353080000002668673482857637002_" gradientUnits="userSpaceOnUse" x1="9.4502" y1="6.6117" x2="9.4502" y2="5.6752">
			<stop  offset="0" style="stop-color:#FFFFFF"/>
			<stop  offset="1" style="stop-color:#6F6F6E"/>
		</linearGradient>
		
			<rect x="8.99" y="5.68" style="fill:url(#SVGID_00000168818144801844353080000002668673482857637002_);" width="0.93" height="0.94"/>
		
			<linearGradient id="SVGID_00000094578190757408788660000010534499836942880954_" gradientUnits="userSpaceOnUse" x1="10.8631" y1="6.6117" x2="10.8631" y2="5.6752">
			<stop  offset="0" style="stop-color:#FFFFFF"/>
			<stop  offset="1" style="stop-color:#6F6F6E"/>
		</linearGradient>
		
			<rect x="10.4" y="5.68" style="fill:url(#SVGID_00000094578190757408788660000010534499836942880954_);" width="0.93" height="0.94"/>
	</g>
	<g>
		
			<linearGradient id="SVGID_00000090988715955874904700000007853996685338233786_" gradientUnits="userSpaceOnUse" x1="5.2118" y1="8.0639" x2="5.2118" y2="7.1274">
			<stop  offset="0" style="stop-color:#FFFFFF"/>
			<stop  offset="1" style="stop-color:#6F6F6E"/>
		</linearGradient>
		
			<rect x="4.75" y="7.13" style="fill:url(#SVGID_00000090988715955874904700000007853996685338233786_);" width="0.93" height="0.94"/>
		
			<linearGradient id="SVGID_00000131365546101732730270000014697401701904225154_" gradientUnits="userSpaceOnUse" x1="6.6246" y1="8.0639" x2="6.6246" y2="7.1274">
			<stop  offset="0" style="stop-color:#FFFFFF"/>
			<stop  offset="1" style="stop-color:#6F6F6E"/>
		</linearGradient>
		
			<rect x="6.16" y="7.13" style="fill:url(#SVGID_00000131365546101732730270000014697401701904225154_);" width="0.93" height="0.94"/>
		
			<linearGradient id="SVGID_00000066479702027104454070000017714330178171443588_" gradientUnits="userSpaceOnUse" x1="8.0374" y1="8.0639" x2="8.0374" y2="7.1274">
			<stop  offset="0" style="stop-color:#FFFFFF"/>
			<stop  offset="1" style="stop-color:#6F6F6E"/>
		</linearGradient>
		
			<rect x="7.57" y="7.13" style="fill:url(#SVGID_00000066479702027104454070000017714330178171443588_);" width="0.93" height="0.94"/>
		
			<linearGradient id="SVGID_00000074431772094626034450000002277822277072457345_" gradientUnits="userSpaceOnUse" x1="9.4502" y1="8.0639" x2="9.4502" y2="7.1274">
			<stop  offset="0" style="stop-color:#FFFFFF"/>
			<stop  offset="1" style="stop-color:#6F6F6E"/>
		</linearGradient>
		
			<rect x="8.99" y="7.13" style="fill:url(#SVGID_00000074431772094626034450000002277822277072457345_);" width="0.93" height="0.94"/>
		
			<linearGradient id="SVGID_00000090983398745486644640000008341937449588527518_" gradientUnits="userSpaceOnUse" x1="10.8631" y1="8.0639" x2="10.8631" y2="7.1274">
			<stop  offset="0" style="stop-color:#FFFFFF"/>
			<stop  offset="1" style="stop-color:#6F6F6E"/>
		</linearGradient>
		
			<rect x="10.4" y="7.13" style="fill:url(#SVGID_00000090983398745486644640000008341937449588527518_);" width="0.93" height="0.94"/>
	</g>
	<g>
		
			<linearGradient id="SVGID_00000136387083628937832210000005968895684557423236_" gradientUnits="userSpaceOnUse" x1="5.2118" y1="9.4779" x2="5.2118" y2="8.5414">
			<stop  offset="0" style="stop-color:#FFFFFF"/>
			<stop  offset="1" style="stop-color:#6F6F6E"/>
		</linearGradient>
		
			<rect x="4.75" y="8.54" style="fill:url(#SVGID_00000136387083628937832210000005968895684557423236_);" width="0.93" height="0.94"/>
		
			<linearGradient id="SVGID_00000037655870358114895590000010648725354499635605_" gradientUnits="userSpaceOnUse" x1="6.6246" y1="9.4779" x2="6.6246" y2="8.5414">
			<stop  offset="0" style="stop-color:#FFFFFF"/>
			<stop  offset="1" style="stop-color:#6F6F6E"/>
		</linearGradient>
		
			<rect x="6.16" y="8.54" style="fill:url(#SVGID_00000037655870358114895590000010648725354499635605_);" width="0.93" height="0.94"/>
		
			<linearGradient id="SVGID_00000110455773898727086900000016170629113401690806_" gradientUnits="userSpaceOnUse" x1="8.0374" y1="9.4779" x2="8.0374" y2="8.5414">
			<stop  offset="0" style="stop-color:#FFFFFF"/>
			<stop  offset="1" style="stop-color:#6F6F6E"/>
		</linearGradient>
		
			<rect x="7.57" y="8.54" style="fill:url(#SVGID_00000110455773898727086900000016170629113401690806_);" width="0.93" height="0.94"/>
		
			<linearGradient id="SVGID_00000031199100647985151530000012690286736351858601_" gradientUnits="userSpaceOnUse" x1="9.4502" y1="9.4779" x2="9.4502" y2="8.5414">
			<stop  offset="0" style="stop-color:#FFFFFF"/>
			<stop  offset="1" style="stop-color:#6F6F6E"/>
		</linearGradient>
		
			<rect x="8.99" y="8.54" style="fill:url(#SVGID_00000031199100647985151530000012690286736351858601_);" width="0.93" height="0.94"/>
		
			<linearGradient id="SVGID_00000064333184113133114750000015622773234335383224_" gradientUnits="userSpaceOnUse" x1="10.8631" y1="9.4779" x2="10.8631" y2="8.5414">
			<stop  offset="0" style="stop-color:#FFFFFF"/>
			<stop  offset="1" style="stop-color:#6F6F6E"/>
		</linearGradient>
		
			<rect x="10.4" y="8.54" style="fill:url(#SVGID_00000064333184113133114750000015622773234335383224_);" width="0.93" height="0.94"/>
	</g>
	<g>
		
			<linearGradient id="SVGID_00000048499798319149986750000010575181855091509439_" gradientUnits="userSpaceOnUse" x1="5.2118" y1="10.8919" x2="5.2118" y2="9.9554">
			<stop  offset="0" style="stop-color:#FFFFFF"/>
			<stop  offset="1" style="stop-color:#6F6F6E"/>
		</linearGradient>
		
			<rect x="4.75" y="9.96" style="fill:url(#SVGID_00000048499798319149986750000010575181855091509439_);" width="0.93" height="0.94"/>
		
			<linearGradient id="SVGID_00000102546679983467577970000008523066094498794405_" gradientUnits="userSpaceOnUse" x1="6.6246" y1="10.8919" x2="6.6246" y2="9.9554">
			<stop  offset="0" style="stop-color:#FFFFFF"/>
			<stop  offset="1" style="stop-color:#6F6F6E"/>
		</linearGradient>
		
			<rect x="6.16" y="9.96" style="fill:url(#SVGID_00000102546679983467577970000008523066094498794405_);" width="0.93" height="0.94"/>
		
			<linearGradient id="SVGID_00000049192596744987611340000003706171663473209241_" gradientUnits="userSpaceOnUse" x1="8.0374" y1="10.8919" x2="8.0374" y2="9.9554">
			<stop  offset="0" style="stop-color:#FFFFFF"/>
			<stop  offset="1" style="stop-color:#6F6F6E"/>
		</linearGradient>
		
			<rect x="7.57" y="9.96" style="fill:url(#SVGID_00000049192596744987611340000003706171663473209241_);" width="0.93" height="0.94"/>
		
			<linearGradient id="SVGID_00000116212131488343409140000001961606598889616784_" gradientUnits="userSpaceOnUse" x1="9.4502" y1="10.8919" x2="9.4502" y2="9.9554">
			<stop  offset="0" style="stop-color:#FFFFFF"/>
			<stop  offset="1" style="stop-color:#6F6F6E"/>
		</linearGradient>
		
			<rect x="8.99" y="9.96" style="fill:url(#SVGID_00000116212131488343409140000001961606598889616784_);" width="0.93" height="0.94"/>
		
			<linearGradient id="SVGID_00000034078748661104644100000000649932957344891056_" gradientUnits="userSpaceOnUse" x1="10.8631" y1="10.8919" x2="10.8631" y2="9.9554">
			<stop  offset="0" style="stop-color:#FFFFFF"/>
			<stop  offset="1" style="stop-color:#6F6F6E"/>
		</linearGradient>
		
			<rect x="10.4" y="9.96" style="fill:url(#SVGID_00000034078748661104644100000000649932957344891056_);" width="0.93" height="0.94"/>
	</g>
</g>
</svg>
