<?xml version="1.0" encoding="utf-8"?>
<!-- Generator: Adobe Illustrator 21.0.0, SVG Export Plug-In . SVG Version: 6.00 Build 0)  -->
<svg version="1.1" id="Layer_1" xmlns="http://www.w3.org/2000/svg" xmlns:xlink="http://www.w3.org/1999/xlink" x="0px" y="0px"
	 viewBox="0 0 80.7 30.9" style="enable-background:new 0 0 80.7 30.9;" xml:space="preserve">
<style type="text/css">
	.st0{fill:#FBFBFB;}
	.st1{fill:#1D1D1B;}
	.st2{fill:url(#SVGID_1_);}
	.st3{fill:#C6C6C5;}
	.st4{fill:url(#SVGID_2_);}
	.st5{fill:url(#SVGID_3_);}
	.st6{fill:url(#SVGID_4_);}
	.st7{fill:url(#SVGID_5_);}
	.st8{fill:url(#SVGID_6_);}
	.st9{fill:url(#SVGID_7_);}
	.st10{fill:url(#SVGID_8_);}
	.st11{fill:url(#SVGID_9_);}
	.st12{fill:url(#SVGID_10_);}
	.st13{fill:url(#SVGID_11_);}
	.st14{fill:url(#SVGID_12_);}
	.st15{fill:url(#SVGID_13_);}
	.st16{fill:url(#SVGID_14_);}
	.st17{fill:url(#SVGID_15_);}
	.st18{fill:url(#SVGID_16_);}
	.st19{fill:url(#SVGID_17_);}
	.st20{fill:url(#SVGID_18_);}
	.st21{fill:url(#SVGID_19_);}
	.st22{fill:url(#SVGID_20_);}
	.st23{fill:url(#SVGID_21_);}
	.st24{fill:url(#SVGID_22_);}
	.st25{fill:url(#SVGID_23_);}
	.st26{fill:url(#SVGID_24_);}
	.st27{fill:url(#SVGID_25_);}
	.st28{fill:url(#SVGID_26_);}
	.st29{fill:url(#SVGID_27_);}
	.st30{fill:url(#SVGID_28_);}
	.st31{fill:url(#SVGID_29_);}
</style>
<g>
	<path class="st0" d="M58.7,11l4.6,0V5.4h-0.5V4.7h0.5V4h1.5V2.7h5.1c0.2,0,0.4-0.2,0.4-0.4V0h3.9v2.7h1.1V4h1.4v0.8h0.6v0.7h-0.6
		v12"/>
	<polygon class="st0" points="58.7,11 58.7,17.4 76.6,17.4 	"/>
	<g>
		<ellipse class="st1" cx="75.5" cy="27.4" rx="1.2" ry="0.9"/>
		<g>
			<path class="st1" d="M76,27.4c-0.1,0.7-0.4,2.4,0.1,3.1c0.1,0.1,0.3,0.5,0.5,0.4c0.1,0,0.1-0.1,0.1-0.2c-0.1-0.3-0.3-0.6-0.4-1
				c-0.3-1-0.2-1.8-0.1-2.3C76.2,27.4,76.1,27.4,76,27.4z"/>
			<path class="st1" d="M76.3,27.4c0.1-0.7,0.4-2.4-0.1-3.1c-0.1-0.1-0.3-0.5-0.5-0.4c-0.1,0-0.1,0.1-0.2,0.2c0.1,0.3,0.3,0.6,0.4,1
				c0.3,1,0.2,1.8,0.1,2.3C76.1,27.4,76.2,27.4,76.3,27.4z"/>
		</g>
	</g>
	
		<linearGradient id="SVGID_1_" gradientUnits="userSpaceOnUse" x1="0" y1="15.79" x2="79.5713" y2="15.79" gradientTransform="matrix(-1 0 0 -1 80.7453 32)">
		<stop  offset="0" style="stop-color:#A49A98"/>
		<stop  offset="0.176" style="stop-color:#C5C3C3"/>
		<stop  offset="0.8073" style="stop-color:#C5C3C3"/>
		<stop  offset="1" style="stop-color:#999693"/>
	</linearGradient>
	<path class="st2" d="M80.7,17.4H15v-6.2H1.2c-0.1,1.7,0.3,2.9,0.6,3.7c1,2.3,2.8,3.4,2.5,5.3c-0.1,0.4-0.2,0.8-0.3,1
		c25.1,0,50.1,0,75.2,0c0.9,0,1.6-0.7,1.6-1.6V17.4z"/>
	<rect x="14.1" y="9.8" class="st3" width="0.9" height="1.5"/>
	<g>
		<rect x="25" y="9.8" class="st3" width="0.9" height="7.7"/>
		<rect x="35.9" y="9.8" class="st3" width="0.9" height="7.7"/>
		<rect x="46.8" y="9.8" class="st3" width="0.9" height="7.7"/>
		<rect x="57.7" y="9.8" class="st3" width="0.9" height="7.7"/>
		
			<linearGradient id="SVGID_2_" gradientUnits="userSpaceOnUse" x1="60.725" y1="14.57" x2="60.725" y2="20.7601" gradientTransform="matrix(-1 0 0 -1 80.7453 32)">
			<stop  offset="0" style="stop-color:#DEAC0B"/>
			<stop  offset="1" style="stop-color:#FBC01E"/>
		</linearGradient>
		<path class="st4" d="M25,17.4H15v-5c0.9-0.4,2.7-1.2,5-1.2c2.3,0,4.1,0.8,5,1.2C25,14.1,25,15.8,25,17.4"/>
		
			<linearGradient id="SVGID_3_" gradientUnits="userSpaceOnUse" x1="49.795" y1="14.57" x2="49.795" y2="20.7601" gradientTransform="matrix(-1 0 0 -1 80.7453 32)">
			<stop  offset="0" style="stop-color:#DEAC0B"/>
			<stop  offset="1" style="stop-color:#FBC01E"/>
		</linearGradient>
		<path class="st5" d="M36,17.4h-10v-5c0.9-0.4,2.7-1.2,5-1.2c2.3,0,4.1,0.8,5,1.2C36,14.1,36,15.8,36,17.4"/>
		
			<linearGradient id="SVGID_4_" gradientUnits="userSpaceOnUse" x1="38.935" y1="14.57" x2="38.935" y2="20.7601" gradientTransform="matrix(-1 0 0 -1 80.7453 32)">
			<stop  offset="0" style="stop-color:#DEAC0B"/>
			<stop  offset="1" style="stop-color:#FBC01E"/>
		</linearGradient>
		<path class="st6" d="M46.8,17.4h-10v-5c0.9-0.4,2.7-1.2,5-1.2c2.3,0,4.1,0.8,5,1.2C46.8,14.1,46.8,15.8,46.8,17.4"/>
		
			<linearGradient id="SVGID_5_" gradientUnits="userSpaceOnUse" x1="28.005" y1="14.57" x2="28.005" y2="20.7601" gradientTransform="matrix(-1 0 0 -1 80.7453 32)">
			<stop  offset="0" style="stop-color:#DEAC0B"/>
			<stop  offset="1" style="stop-color:#FBC01E"/>
		</linearGradient>
		<path class="st7" d="M57.7,17.4h-10v-5c0.9-0.4,2.7-1.2,5-1.2c2.4,0,4.1,0.8,5,1.2C57.7,14.1,57.7,15.8,57.7,17.4"/>
	</g>
	
		<linearGradient id="SVGID_6_" gradientUnits="userSpaceOnUse" x1="3.74" y1="6.855" x2="80.7453" y2="6.855" gradientTransform="matrix(-1 0 0 -1 80.7453 32)">
		<stop  offset="0" style="stop-color:#073D5B"/>
		<stop  offset="0.1816" style="stop-color:#0D5278"/>
		<stop  offset="0.8073" style="stop-color:#0D5278"/>
		<stop  offset="1" style="stop-color:#083449"/>
	</linearGradient>
	<path class="st8" d="M4,21.2c-0.2,0.1-0.5,0.3-1,0.3c-1.1,0.3-1.7-0.1-2.2,0.3c-0.5,0.3-0.7,0.9-0.8,1.3c-0.4,1.6,0.8,3.2,1.3,3.7
		c1.2,1.5,2.7,2.1,3.5,2.3c22.9,0,45.8,0,68.7,0c0.7-0.2,1.5-0.6,1.8-1.3c0.5-1.4-1.7-2.7-1.4-4.3c0.1-0.7,0.8-1.6,3.1-2.3
		C52.7,21.2,28.3,21.2,4,21.2z"/>
	<path class="st1" d="M78.5,21.2v1.3h1.2c0.2,0,0.3,0.1,0.3,0.3v6.7h-1.8c-0.2,0-0.4-0.2-0.4-0.4c0-2-0.1-4.1-0.1-6.1
		c0-0.3-0.1-1-0.3-1.2L77,21.2L78.5,21.2z"/>
	
		<linearGradient id="SVGID_7_" gradientUnits="userSpaceOnUse" x1="12.4" y1="18.844" x2="12.4" y2="19.9618" gradientTransform="matrix(-1 0 0 -1 80.7453 32)">
		<stop  offset="0" style="stop-color:#C6C6C5"/>
		<stop  offset="1" style="stop-color:#6F6F6E"/>
	</linearGradient>
	<rect x="64.7" y="12" class="st9" width="7.3" height="1.1"/>
	
		<linearGradient id="SVGID_8_" gradientUnits="userSpaceOnUse" x1="10.805" y1="22.0446" x2="10.805" y2="26.6046" gradientTransform="matrix(-1 0 0 -1 80.7453 32)">
		<stop  offset="0.1732" style="stop-color:#FFFFFF"/>
		<stop  offset="1" style="stop-color:#B2B2B2"/>
	</linearGradient>
	<rect x="63.2" y="5.4" class="st10" width="13.4" height="4.6"/>
	
		<linearGradient id="SVGID_9_" gradientUnits="userSpaceOnUse" x1="12.4" y1="14.57" x2="12.4" y2="18.62" gradientTransform="matrix(-1 0 0 -1 80.7453 32)">
		<stop  offset="0.1229" style="stop-color:#FFFFFF"/>
		<stop  offset="1" style="stop-color:#868686"/>
	</linearGradient>
	<rect x="64.7" y="13.4" class="st11" width="7.3" height="4.1"/>
	<path class="st1" d="M76.6,17.4"/>
	<g>
		
			<linearGradient id="SVGID_10_" gradientUnits="userSpaceOnUse" x1="5.215" y1="25.3883" x2="5.215" y2="26.3248" gradientTransform="matrix(-1 0 0 -1 80.7453 32)">
			<stop  offset="0" style="stop-color:#FFFFFF"/>
			<stop  offset="1" style="stop-color:#6F6F6E"/>
		</linearGradient>
		<rect x="75.1" y="5.7" class="st12" width="0.9" height="0.9"/>
		
			<linearGradient id="SVGID_11_" gradientUnits="userSpaceOnUse" x1="6.625" y1="25.3883" x2="6.625" y2="26.3248" gradientTransform="matrix(-1 0 0 -1 80.7453 32)">
			<stop  offset="0" style="stop-color:#FFFFFF"/>
			<stop  offset="1" style="stop-color:#6F6F6E"/>
		</linearGradient>
		<rect x="73.7" y="5.7" class="st13" width="0.9" height="0.9"/>
		
			<linearGradient id="SVGID_12_" gradientUnits="userSpaceOnUse" x1="8.035" y1="25.3883" x2="8.035" y2="26.3248" gradientTransform="matrix(-1 0 0 -1 80.7453 32)">
			<stop  offset="0" style="stop-color:#FFFFFF"/>
			<stop  offset="1" style="stop-color:#6F6F6E"/>
		</linearGradient>
		<rect x="72.2" y="5.7" class="st14" width="0.9" height="0.9"/>
		
			<linearGradient id="SVGID_13_" gradientUnits="userSpaceOnUse" x1="9.455" y1="25.3883" x2="9.455" y2="26.3248" gradientTransform="matrix(-1 0 0 -1 80.7453 32)">
			<stop  offset="0" style="stop-color:#FFFFFF"/>
			<stop  offset="1" style="stop-color:#6F6F6E"/>
		</linearGradient>
		<rect x="70.8" y="5.7" class="st15" width="0.9" height="0.9"/>
		
			<linearGradient id="SVGID_14_" gradientUnits="userSpaceOnUse" x1="10.865" y1="25.3883" x2="10.865" y2="26.3248" gradientTransform="matrix(-1 0 0 -1 80.7453 32)">
			<stop  offset="0" style="stop-color:#FFFFFF"/>
			<stop  offset="1" style="stop-color:#6F6F6E"/>
		</linearGradient>
		<rect x="69.4" y="5.7" class="st16" width="0.9" height="0.9"/>
	</g>
	<g>
		
			<linearGradient id="SVGID_15_" gradientUnits="userSpaceOnUse" x1="5.215" y1="23.9361" x2="5.215" y2="24.8726" gradientTransform="matrix(-1 0 0 -1 80.7453 32)">
			<stop  offset="0" style="stop-color:#FFFFFF"/>
			<stop  offset="1" style="stop-color:#6F6F6E"/>
		</linearGradient>
		<rect x="75.1" y="7.1" class="st17" width="0.9" height="0.9"/>
		
			<linearGradient id="SVGID_16_" gradientUnits="userSpaceOnUse" x1="6.625" y1="23.9361" x2="6.625" y2="24.8726" gradientTransform="matrix(-1 0 0 -1 80.7453 32)">
			<stop  offset="0" style="stop-color:#FFFFFF"/>
			<stop  offset="1" style="stop-color:#6F6F6E"/>
		</linearGradient>
		<rect x="73.7" y="7.1" class="st18" width="0.9" height="0.9"/>
		
			<linearGradient id="SVGID_17_" gradientUnits="userSpaceOnUse" x1="8.035" y1="23.9361" x2="8.035" y2="24.8726" gradientTransform="matrix(-1 0 0 -1 80.7453 32)">
			<stop  offset="0" style="stop-color:#FFFFFF"/>
			<stop  offset="1" style="stop-color:#6F6F6E"/>
		</linearGradient>
		<rect x="72.2" y="7.1" class="st19" width="0.9" height="0.9"/>
		
			<linearGradient id="SVGID_18_" gradientUnits="userSpaceOnUse" x1="9.455" y1="23.9361" x2="9.455" y2="24.8726" gradientTransform="matrix(-1 0 0 -1 80.7453 32)">
			<stop  offset="0" style="stop-color:#FFFFFF"/>
			<stop  offset="1" style="stop-color:#6F6F6E"/>
		</linearGradient>
		<rect x="70.8" y="7.1" class="st20" width="0.9" height="0.9"/>
		
			<linearGradient id="SVGID_19_" gradientUnits="userSpaceOnUse" x1="10.865" y1="23.9361" x2="10.865" y2="24.8726" gradientTransform="matrix(-1 0 0 -1 80.7453 32)">
			<stop  offset="0" style="stop-color:#FFFFFF"/>
			<stop  offset="1" style="stop-color:#6F6F6E"/>
		</linearGradient>
		<rect x="69.4" y="7.1" class="st21" width="0.9" height="0.9"/>
	</g>
	<g>
		
			<linearGradient id="SVGID_20_" gradientUnits="userSpaceOnUse" x1="5.215" y1="22.5221" x2="5.215" y2="23.4586" gradientTransform="matrix(-1 0 0 -1 80.7453 32)">
			<stop  offset="0" style="stop-color:#FFFFFF"/>
			<stop  offset="1" style="stop-color:#6F6F6E"/>
		</linearGradient>
		<rect x="75.1" y="8.5" class="st22" width="0.9" height="0.9"/>
		
			<linearGradient id="SVGID_21_" gradientUnits="userSpaceOnUse" x1="6.625" y1="22.5221" x2="6.625" y2="23.4586" gradientTransform="matrix(-1 0 0 -1 80.7453 32)">
			<stop  offset="0" style="stop-color:#FFFFFF"/>
			<stop  offset="1" style="stop-color:#6F6F6E"/>
		</linearGradient>
		<rect x="73.7" y="8.5" class="st23" width="0.9" height="0.9"/>
		
			<linearGradient id="SVGID_22_" gradientUnits="userSpaceOnUse" x1="8.035" y1="22.5221" x2="8.035" y2="23.4586" gradientTransform="matrix(-1 0 0 -1 80.7453 32)">
			<stop  offset="0" style="stop-color:#FFFFFF"/>
			<stop  offset="1" style="stop-color:#6F6F6E"/>
		</linearGradient>
		<rect x="72.2" y="8.5" class="st24" width="0.9" height="0.9"/>
		
			<linearGradient id="SVGID_23_" gradientUnits="userSpaceOnUse" x1="9.455" y1="22.5221" x2="9.455" y2="23.4586" gradientTransform="matrix(-1 0 0 -1 80.7453 32)">
			<stop  offset="0" style="stop-color:#FFFFFF"/>
			<stop  offset="1" style="stop-color:#6F6F6E"/>
		</linearGradient>
		<rect x="70.8" y="8.5" class="st25" width="0.9" height="0.9"/>
		
			<linearGradient id="SVGID_24_" gradientUnits="userSpaceOnUse" x1="10.865" y1="22.5221" x2="10.865" y2="23.4586" gradientTransform="matrix(-1 0 0 -1 80.7453 32)">
			<stop  offset="0" style="stop-color:#FFFFFF"/>
			<stop  offset="1" style="stop-color:#6F6F6E"/>
		</linearGradient>
		<rect x="69.4" y="8.5" class="st26" width="0.9" height="0.9"/>
	</g>
	<g>
		
			<linearGradient id="SVGID_25_" gradientUnits="userSpaceOnUse" x1="5.215" y1="21.1081" x2="5.215" y2="22.0446" gradientTransform="matrix(-1 0 0 -1 80.7453 32)">
			<stop  offset="0" style="stop-color:#FFFFFF"/>
			<stop  offset="1" style="stop-color:#6F6F6E"/>
		</linearGradient>
		<rect x="75.1" y="10" class="st27" width="0.9" height="0.9"/>
		
			<linearGradient id="SVGID_26_" gradientUnits="userSpaceOnUse" x1="6.625" y1="21.1081" x2="6.625" y2="22.0446" gradientTransform="matrix(-1 0 0 -1 80.7453 32)">
			<stop  offset="0" style="stop-color:#FFFFFF"/>
			<stop  offset="1" style="stop-color:#6F6F6E"/>
		</linearGradient>
		<rect x="73.7" y="10" class="st28" width="0.9" height="0.9"/>
		
			<linearGradient id="SVGID_27_" gradientUnits="userSpaceOnUse" x1="8.035" y1="21.1081" x2="8.035" y2="22.0446" gradientTransform="matrix(-1 0 0 -1 80.7453 32)">
			<stop  offset="0" style="stop-color:#FFFFFF"/>
			<stop  offset="1" style="stop-color:#6F6F6E"/>
		</linearGradient>
		<rect x="72.2" y="10" class="st29" width="0.9" height="0.9"/>
		
			<linearGradient id="SVGID_28_" gradientUnits="userSpaceOnUse" x1="9.455" y1="21.1081" x2="9.455" y2="22.0446" gradientTransform="matrix(-1 0 0 -1 80.7453 32)">
			<stop  offset="0" style="stop-color:#FFFFFF"/>
			<stop  offset="1" style="stop-color:#6F6F6E"/>
		</linearGradient>
		<rect x="70.8" y="10" class="st30" width="0.9" height="0.9"/>
		
			<linearGradient id="SVGID_29_" gradientUnits="userSpaceOnUse" x1="10.865" y1="21.1081" x2="10.865" y2="22.0446" gradientTransform="matrix(-1 0 0 -1 80.7453 32)">
			<stop  offset="0" style="stop-color:#FFFFFF"/>
			<stop  offset="1" style="stop-color:#6F6F6E"/>
		</linearGradient>
		<rect x="69.4" y="10" class="st31" width="0.9" height="0.9"/>
	</g>
</g>
</svg>
