<?xml version="1.0" encoding="utf-8"?>
<!-- Generator: Adobe Illustrator 21.0.0, SVG Export Plug-In . SVG Version: 6.00 Build 0)  -->
<svg version="1.1" id="Layer_1" xmlns="http://www.w3.org/2000/svg" xmlns:xlink="http://www.w3.org/1999/xlink" x="0px" y="0px"
	 viewBox="0 0 80.1 21.6" style="enable-background:new 0 0 80.1 21.6;" xml:space="preserve">
<style type="text/css">
	.st0{fill:#D54545;}
	.st1{fill:#FBFBFB;}
	.st2{fill:#1D1D1B;}
	.st3{fill:url(#SVGID_1_);}
	.st4{fill:url(#SVGID_2_);}
	.st5{fill:url(#SVGID_3_);}
	.st6{fill:url(#SVGID_4_);}
	.st7{fill:url(#SVGID_5_);}
	.st8{fill:url(#SVGID_6_);}
	.st9{fill:url(#SVGID_7_);}
	.st10{fill:url(#SVGID_8_);}
	.st11{fill:url(#SVGID_9_);}
	.st12{fill:url(#SVGID_10_);}
	.st13{fill:url(#SVGID_11_);}
	.st14{fill:url(#SVGID_12_);}
	.st15{fill:url(#SVGID_13_);}
	.st16{fill:url(#SVGID_14_);}
	.st17{fill:url(#SVGID_15_);}
	.st18{fill:url(#SVGID_16_);}
	.st19{fill:url(#SVGID_17_);}
	.st20{fill:url(#SVGID_18_);}
	.st21{fill:url(#SVGID_19_);}
	.st22{fill:url(#SVGID_20_);}
	.st23{fill:url(#SVGID_21_);}
	.st24{fill:url(#SVGID_22_);}
	.st25{fill:url(#SVGID_23_);}
	.st26{fill:#1E7CA8;}
</style>
<g>
	<path class="st0" d="M64.4,8.2h-3.6c-0.3,0-0.5,0.2-0.5,0.5v0.7h4.1C64.4,9.4,64.4,8.2,64.4,8.2z"/>
	<polyline class="st1" points="76.7,12 76.7,9.4 75.2,9.4 75.2,2.6 76.2,2.6 76.2,1.7 73,1.7 73,0.6 73.6,0.6 73.6,0 66,0 66,0.6 
		66.6,0.6 66.6,1.7 63.4,1.7 63.4,2.6 64.4,2.7 64.4,9.4 59.1,9.4 59.1,12 	"/>
	<g>
		<ellipse class="st2" cx="75.7" cy="20.5" rx="0.4" ry="0.3"/>
		<g>
			<path class="st2" d="M75.9,20.4c0,0.2-0.1,0.8,0,1c0,0,0.1,0.2,0.2,0.1c0,0,0,0,0.1-0.1c0-0.1-0.1-0.2-0.1-0.3
				C76,20.9,76,20.6,75.9,20.4C76,20.5,75.9,20.5,75.9,20.4z"/>
			<path class="st2" d="M76,20.4c0-0.2,0.1-0.8,0-1c0,0-0.1-0.2-0.2-0.1c0,0,0,0-0.1,0.1c0,0.1,0.1,0.2,0.1,0.3
				C75.9,20,75.9,20.3,76,20.4C75.9,20.4,76,20.4,76,20.4z"/>
		</g>
	</g>
	<path class="st0" d="M24.3,12h12.3c0.9,0,1.6-0.7,1.6-1.6v-0.1c0-0.9-0.7-1.6-1.6-1.6H24.3c-0.9,0-1.6,0.7-1.6,1.6v0.1
		C22.8,11.3,23.5,12,24.3,12z"/>
	<polygon class="st2" points="76.6,21.6 78.1,21.6 78.2,17.5 76.6,18.4 	"/>
	
		<linearGradient id="SVGID_1_" gradientUnits="userSpaceOnUse" x1="1.33" y1="4.9913" x2="78.1536" y2="4.9913" gradientTransform="matrix(-1 0 0 -1 80.0713 24)">
		<stop  offset="0" style="stop-color:#18506D"/>
		<stop  offset="0.2207" style="stop-color:#1C719B"/>
		<stop  offset="0.7849" style="stop-color:#1C719B"/>
		<stop  offset="1" style="stop-color:#1B516E"/>
	</linearGradient>
	<path class="st3" d="M5,21.4h69.5c0.5,0.1,0.9-0.1,1.2-0.5c0.1-0.2,0.2-0.6,0.1-0.9c-0.2-0.3-0.5-0.3-0.6-0.6c0,0-0.1-0.4,0-0.6
		c0.2-0.4,0.7-0.2,1.6-0.4c0.3-0.1,0.9-0.3,1.4-0.8c0.3-0.3,0.5-0.7,0.6-0.9c-25.4,0-50.8,0-76.1,0c0,0.3,0,0.8-0.2,1.2
		C2.2,18.3,2,18.4,2,18.8c-0.2,0.6,0.1,1.2,0.2,1.3C2.6,21,3.7,21.5,5,21.4z"/>
	
		<linearGradient id="SVGID_2_" gradientUnits="userSpaceOnUse" x1="10.29" y1="20.5131" x2="10.29" y2="21.3151" gradientTransform="matrix(-1 0 0 -1 80.0713 24)">
		<stop  offset="0" style="stop-color:#FFFFFF"/>
		<stop  offset="1" style="stop-color:#6F6F6E"/>
	</linearGradient>
	<rect x="64.4" y="2.7" class="st4" width="10.8" height="0.8"/>
	<g>
		<g>
			
				<linearGradient id="SVGID_3_" gradientUnits="userSpaceOnUse" x1="6.07" y1="19.6576" x2="6.07" y2="20.3265" gradientTransform="matrix(-1 0 0 -1 80.0713 24)">
				<stop  offset="0" style="stop-color:#FFFFFF"/>
				<stop  offset="1" style="stop-color:#6F6F6E"/>
			</linearGradient>
			<rect x="73.7" y="3.7" class="st5" width="0.7" height="0.7"/>
			
				<linearGradient id="SVGID_4_" gradientUnits="userSpaceOnUse" x1="7.08" y1="19.6576" x2="7.08" y2="20.3265" gradientTransform="matrix(-1 0 0 -1 80.0713 24)">
				<stop  offset="0" style="stop-color:#FFFFFF"/>
				<stop  offset="1" style="stop-color:#6F6F6E"/>
			</linearGradient>
			<rect x="72.7" y="3.7" class="st6" width="0.7" height="0.7"/>
			
				<linearGradient id="SVGID_5_" gradientUnits="userSpaceOnUse" x1="8.08" y1="19.6576" x2="8.08" y2="20.3265" gradientTransform="matrix(-1 0 0 -1 80.0713 24)">
				<stop  offset="0" style="stop-color:#FFFFFF"/>
				<stop  offset="1" style="stop-color:#6F6F6E"/>
			</linearGradient>
			<rect x="71.7" y="3.7" class="st7" width="0.7" height="0.7"/>
			
				<linearGradient id="SVGID_6_" gradientUnits="userSpaceOnUse" x1="9.09" y1="19.6576" x2="9.09" y2="20.3265" gradientTransform="matrix(-1 0 0 -1 80.0713 24)">
				<stop  offset="0" style="stop-color:#FFFFFF"/>
				<stop  offset="1" style="stop-color:#6F6F6E"/>
			</linearGradient>
			<rect x="70.7" y="3.7" class="st8" width="0.7" height="0.7"/>
			
				<linearGradient id="SVGID_7_" gradientUnits="userSpaceOnUse" x1="10.1" y1="19.6576" x2="10.1" y2="20.3265" gradientTransform="matrix(-1 0 0 -1 80.0713 24)">
				<stop  offset="0" style="stop-color:#FFFFFF"/>
				<stop  offset="1" style="stop-color:#6F6F6E"/>
			</linearGradient>
			<rect x="69.6" y="3.7" class="st9" width="0.7" height="0.7"/>
		</g>
		<g>
			
				<linearGradient id="SVGID_8_" gradientUnits="userSpaceOnUse" x1="6.07" y1="18.7069" x2="6.07" y2="19.3759" gradientTransform="matrix(-1 0 0 -1 80.0713 24)">
				<stop  offset="0" style="stop-color:#FFFFFF"/>
				<stop  offset="1" style="stop-color:#6F6F6E"/>
			</linearGradient>
			<rect x="73.7" y="4.6" class="st10" width="0.7" height="0.7"/>
			
				<linearGradient id="SVGID_9_" gradientUnits="userSpaceOnUse" x1="7.08" y1="18.7069" x2="7.08" y2="19.3759" gradientTransform="matrix(-1 0 0 -1 80.0713 24)">
				<stop  offset="0" style="stop-color:#FFFFFF"/>
				<stop  offset="1" style="stop-color:#6F6F6E"/>
			</linearGradient>
			<rect x="72.7" y="4.6" class="st11" width="0.7" height="0.7"/>
			
				<linearGradient id="SVGID_10_" gradientUnits="userSpaceOnUse" x1="8.08" y1="18.7069" x2="8.08" y2="19.3759" gradientTransform="matrix(-1 0 0 -1 80.0713 24)">
				<stop  offset="0" style="stop-color:#FFFFFF"/>
				<stop  offset="1" style="stop-color:#6F6F6E"/>
			</linearGradient>
			<rect x="71.7" y="4.6" class="st12" width="0.7" height="0.7"/>
			
				<linearGradient id="SVGID_11_" gradientUnits="userSpaceOnUse" x1="9.09" y1="18.7069" x2="9.09" y2="19.3759" gradientTransform="matrix(-1 0 0 -1 80.0713 24)">
				<stop  offset="0" style="stop-color:#FFFFFF"/>
				<stop  offset="1" style="stop-color:#6F6F6E"/>
			</linearGradient>
			<rect x="70.7" y="4.6" class="st13" width="0.7" height="0.7"/>
			
				<linearGradient id="SVGID_12_" gradientUnits="userSpaceOnUse" x1="10.1" y1="18.7069" x2="10.1" y2="19.3759" gradientTransform="matrix(-1 0 0 -1 80.0713 24)">
				<stop  offset="0" style="stop-color:#FFFFFF"/>
				<stop  offset="1" style="stop-color:#6F6F6E"/>
			</linearGradient>
			<rect x="69.6" y="4.6" class="st14" width="0.7" height="0.7"/>
		</g>
		<g>
			
				<linearGradient id="SVGID_13_" gradientUnits="userSpaceOnUse" x1="6.07" y1="17.6441" x2="6.07" y2="18.313" gradientTransform="matrix(-1 0 0 -1 80.0713 24)">
				<stop  offset="0" style="stop-color:#FFFFFF"/>
				<stop  offset="1" style="stop-color:#6F6F6E"/>
			</linearGradient>
			<rect x="73.7" y="5.7" class="st15" width="0.7" height="0.7"/>
			
				<linearGradient id="SVGID_14_" gradientUnits="userSpaceOnUse" x1="7.08" y1="17.6441" x2="7.08" y2="18.313" gradientTransform="matrix(-1 0 0 -1 80.0713 24)">
				<stop  offset="0" style="stop-color:#FFFFFF"/>
				<stop  offset="1" style="stop-color:#6F6F6E"/>
			</linearGradient>
			<rect x="72.7" y="5.7" class="st16" width="0.7" height="0.7"/>
			
				<linearGradient id="SVGID_15_" gradientUnits="userSpaceOnUse" x1="8.08" y1="17.6441" x2="8.08" y2="18.313" gradientTransform="matrix(-1 0 0 -1 80.0713 24)">
				<stop  offset="0" style="stop-color:#FFFFFF"/>
				<stop  offset="1" style="stop-color:#6F6F6E"/>
			</linearGradient>
			<rect x="71.7" y="5.7" class="st17" width="0.7" height="0.7"/>
			
				<linearGradient id="SVGID_16_" gradientUnits="userSpaceOnUse" x1="9.09" y1="17.6441" x2="9.09" y2="18.313" gradientTransform="matrix(-1 0 0 -1 80.0713 24)">
				<stop  offset="0" style="stop-color:#FFFFFF"/>
				<stop  offset="1" style="stop-color:#6F6F6E"/>
			</linearGradient>
			<rect x="70.7" y="5.7" class="st18" width="0.7" height="0.7"/>
			
				<linearGradient id="SVGID_17_" gradientUnits="userSpaceOnUse" x1="10.1" y1="17.6441" x2="10.1" y2="18.313" gradientTransform="matrix(-1 0 0 -1 80.0713 24)">
				<stop  offset="0" style="stop-color:#FFFFFF"/>
				<stop  offset="1" style="stop-color:#6F6F6E"/>
			</linearGradient>
			<rect x="69.6" y="5.7" class="st19" width="0.7" height="0.7"/>
		</g>
		<g>
			
				<linearGradient id="SVGID_18_" gradientUnits="userSpaceOnUse" x1="6.07" y1="16.6409" x2="6.07" y2="17.3098" gradientTransform="matrix(-1 0 0 -1 80.0713 24)">
				<stop  offset="0" style="stop-color:#FFFFFF"/>
				<stop  offset="1" style="stop-color:#6F6F6E"/>
			</linearGradient>
			<rect x="73.7" y="6.7" class="st20" width="0.7" height="0.7"/>
			
				<linearGradient id="SVGID_19_" gradientUnits="userSpaceOnUse" x1="7.08" y1="16.6409" x2="7.08" y2="17.3098" gradientTransform="matrix(-1 0 0 -1 80.0713 24)">
				<stop  offset="0" style="stop-color:#FFFFFF"/>
				<stop  offset="1" style="stop-color:#6F6F6E"/>
			</linearGradient>
			<rect x="72.7" y="6.7" class="st21" width="0.7" height="0.7"/>
			
				<linearGradient id="SVGID_20_" gradientUnits="userSpaceOnUse" x1="8.08" y1="16.6409" x2="8.08" y2="17.3098" gradientTransform="matrix(-1 0 0 -1 80.0713 24)">
				<stop  offset="0" style="stop-color:#FFFFFF"/>
				<stop  offset="1" style="stop-color:#6F6F6E"/>
			</linearGradient>
			<rect x="71.7" y="6.7" class="st22" width="0.7" height="0.7"/>
			
				<linearGradient id="SVGID_21_" gradientUnits="userSpaceOnUse" x1="9.09" y1="16.6409" x2="9.09" y2="17.3098" gradientTransform="matrix(-1 0 0 -1 80.0713 24)">
				<stop  offset="0" style="stop-color:#FFFFFF"/>
				<stop  offset="1" style="stop-color:#6F6F6E"/>
			</linearGradient>
			<rect x="70.7" y="6.7" class="st23" width="0.7" height="0.7"/>
			
				<linearGradient id="SVGID_22_" gradientUnits="userSpaceOnUse" x1="10.1" y1="16.6409" x2="10.1" y2="17.3098" gradientTransform="matrix(-1 0 0 -1 80.0713 24)">
				<stop  offset="0" style="stop-color:#FFFFFF"/>
				<stop  offset="1" style="stop-color:#6F6F6E"/>
			</linearGradient>
			<rect x="69.6" y="6.7" class="st24" width="0.7" height="0.7"/>
		</g>
	</g>
	
		<linearGradient id="SVGID_23_" gradientUnits="userSpaceOnUse" x1="10.305" y1="22.622" x2="10.305" y2="23.3551" gradientTransform="matrix(-1 0 0 -1 80.0713 24)">
		<stop  offset="0" style="stop-color:#FFFFFF"/>
		<stop  offset="1" style="stop-color:#6F6F6E"/>
	</linearGradient>
	<rect x="66.5" y="0.6" class="st25" width="6.4" height="0.7"/>
	<rect x="8.2" y="10.7" class="st1" width="0.5" height="1.3"/>
	<g>
		<rect x="36.7" y="10.7" class="st1" width="0.5" height="1.3"/>
		<rect x="34.6" y="10.7" class="st1" width="0.5" height="1.3"/>
		<rect x="32.6" y="10.7" class="st1" width="0.5" height="1.3"/>
		<rect x="30.6" y="10.7" class="st1" width="0.5" height="1.3"/>
		<rect x="28.5" y="10.7" class="st1" width="0.5" height="1.3"/>
		<rect x="26.5" y="10.7" class="st1" width="0.5" height="1.3"/>
		<rect x="24.5" y="10.7" class="st1" width="0.5" height="1.3"/>
		<rect x="22.4" y="10.7" class="st1" width="0.5" height="1.3"/>
		<rect x="7.7" y="10.2" class="st1" width="51.4" height="0.6"/>
		<rect x="57" y="10.7" class="st1" width="0.5" height="1.3"/>
		<rect x="55" y="10.7" class="st1" width="0.5" height="1.3"/>
		<rect x="53" y="10.7" class="st1" width="0.5" height="1.3"/>
		<rect x="50.9" y="10.7" class="st1" width="0.5" height="1.3"/>
		<rect x="48.9" y="10.7" class="st1" width="0.5" height="1.3"/>
		<rect x="46.9" y="10.7" class="st1" width="0.5" height="1.3"/>
		<rect x="44.8" y="10.7" class="st1" width="0.5" height="1.3"/>
		<rect x="42.8" y="10.7" class="st1" width="0.5" height="1.3"/>
		<rect x="40.8" y="10.7" class="st1" width="0.5" height="1.3"/>
		<rect x="38.7" y="10.7" class="st1" width="0.5" height="1.3"/>
		<rect x="16.3" y="10.7" class="st1" width="0.5" height="1.3"/>
		<rect x="14.3" y="10.7" class="st1" width="0.5" height="1.3"/>
		<rect x="12.3" y="10.7" class="st1" width="0.5" height="1.3"/>
		<rect x="10.2" y="10.7" class="st1" width="0.5" height="1.3"/>
		<rect x="20.4" y="10.7" class="st1" width="0.5" height="1.3"/>
		<rect x="18.4" y="10.7" class="st1" width="0.5" height="1.3"/>
	</g>
	<path class="st26" d="M80,12c-22.3,0-44.6,0-66.9,0c-0.4,0-1,0-1.7-0.1c-0.5-0.1-1.3-0.2-2-0.5c-1-0.5-1.7-1.3-2.1-1.9
		c-2.4,0-4.9,0-7.3,0l2.6,7h76.1c0.2-0.3,0.5-0.6,0.7-1.1C80.1,14.1,80.1,12.8,80,12z"/>
</g>
</svg>
