<?xml version="1.0" encoding="utf-8"?>
<!-- Generator: Adobe Illustrator 26.0.1, SVG Export Plug-In . SVG Version: 6.00 Build 0)  -->
<svg version="1.1" id="Layer_1" xmlns="http://www.w3.org/2000/svg" xmlns:xlink="http://www.w3.org/1999/xlink" x="0px" y="0px"
	 viewBox="0 0 80.06 21.61" style="enable-background:new 0 0 80.06 21.61;" xml:space="preserve">
<style type="text/css">
	.st0{fill:#D54545;}
	.st1{fill:#FBFBFB;}
	.st2{fill:#1D1D1B;}
	.st3{fill:url(#SVGID_1_);}
	.st4{fill:url(#SVGID_00000073712683804840641380000008225585405750752391_);}
	.st5{fill:url(#SVGID_00000160174899229223690510000007920887646893977478_);}
	.st6{fill:url(#SVGID_00000061453199511505641240000005911656624690534036_);}
	.st7{fill:url(#SVGID_00000038408628631896683210000008041640296071618730_);}
	.st8{fill:url(#SVGID_00000012454336294821290300000014069452705943814047_);}
	.st9{fill:url(#SVGID_00000001652847153775801660000014816226717528174212_);}
	.st10{fill:url(#SVGID_00000027573239938060377850000015981544343714512547_);}
	.st11{fill:url(#SVGID_00000013888774785452378480000009679095073516127914_);}
	.st12{fill:url(#SVGID_00000017514124193153887790000013094000108364457390_);}
	.st13{fill:url(#SVGID_00000071531212914432971530000009463176932073396412_);}
	.st14{fill:url(#SVGID_00000067946852145007881440000003275884841923079092_);}
	.st15{fill:url(#SVGID_00000168080207490514597080000009594406240950880952_);}
	.st16{fill:url(#SVGID_00000177453641698100453290000006748486757058021780_);}
	.st17{fill:url(#SVGID_00000088123635465915483140000017890235764188048030_);}
	.st18{fill:url(#SVGID_00000090294339336372417180000011155921344878918282_);}
	.st19{fill:url(#SVGID_00000136374720023495938050000015423003170221794179_);}
	.st20{fill:url(#SVGID_00000093177273878662544550000014401963104010818236_);}
	.st21{fill:url(#SVGID_00000042018335107586070680000002532089936770666382_);}
	.st22{fill:url(#SVGID_00000104694230212866820730000015674122459830425986_);}
	.st23{fill:url(#SVGID_00000116194116906305229550000003100716020115091846_);}
	.st24{fill:url(#SVGID_00000008847232945931004000000006350323428245399192_);}
	.st25{fill:url(#SVGID_00000141456551161640298880000010670447317780830650_);}
	.st26{fill:#1E7CA8;}
</style>
<g>
	<path class="st0" d="M15.68,8.18h3.6c0.29,0,0.53,0.24,0.53,0.53V9.4h-4.13V8.18z"/>
	<polyline class="st1" points="3.39,11.98 3.39,9.42 4.88,9.42 4.88,2.64 3.91,2.64 3.91,1.66 7.08,1.66 7.08,0.62 6.46,0.62 
		6.46,0 14.07,0 14.07,0.64 13.51,0.64 13.51,1.71 16.65,1.71 16.66,2.64 15.68,2.65 15.68,9.42 21.02,9.4 21.02,12.04 	"/>
	<g>
		<ellipse class="st2" cx="4.33" cy="20.45" rx="0.38" ry="0.3"/>
		<g>
			<path class="st2" d="M4.17,20.44c0.04,0.22,0.12,0.79-0.04,1.02c-0.03,0.04-0.11,0.16-0.16,0.14c-0.03-0.01-0.04-0.05-0.05-0.08
				c0.04-0.09,0.09-0.19,0.12-0.32c0.08-0.32,0.06-0.59,0.03-0.77C4.1,20.45,4.14,20.45,4.17,20.44z"/>
			<path class="st2" d="M4.08,20.44c-0.04-0.22-0.12-0.79,0.04-1.02c0.03-0.04,0.11-0.16,0.16-0.14c0.03,0.01,0.04,0.05,0.05,0.08
				c-0.04,0.09-0.09,0.19-0.12,0.32c-0.08,0.32-0.06,0.59-0.03,0.77C4.15,20.44,4.11,20.44,4.08,20.44z"/>
		</g>
	</g>
	<path class="st0" d="M55.75,12.04H43.42c-0.87,0-1.58-0.71-1.58-1.58v-0.05c0-0.87,0.71-1.58,1.58-1.58h12.32
		c0.87,0,1.58,0.71,1.58,1.58v0.05C57.32,11.34,56.62,12.04,55.75,12.04z"/>
	<polygon class="st2" points="3.51,21.56 2.02,21.56 1.9,17.55 3.51,18.43 	"/>
	<linearGradient id="SVGID_1_" gradientUnits="userSpaceOnUse" x1="1.3348" y1="19.0066" x2="78.1563" y2="19.0066">
		<stop  offset="0" style="stop-color:#18506D"/>
		<stop  offset="0.2207" style="stop-color:#1C719B"/>
		<stop  offset="0.7849" style="stop-color:#1C719B"/>
		<stop  offset="1" style="stop-color:#1B516E"/>
	</linearGradient>
	<path class="st3" d="M75.09,21.37H5.54c-0.49,0.08-0.95-0.12-1.17-0.5C4.24,20.63,4.19,20.28,4.32,20
		c0.16-0.32,0.46-0.31,0.59-0.65c0.01-0.02,0.13-0.35-0.02-0.6c-0.21-0.35-0.72-0.16-1.6-0.42C3,18.25,2.4,18.07,1.9,17.55
		c-0.32-0.33-0.48-0.68-0.57-0.92c25.38,0,50.75,0,76.13,0c0,0.3,0.03,0.75,0.23,1.24c0.17,0.43,0.34,0.56,0.42,0.92
		c0.15,0.63-0.13,1.21-0.19,1.34C77.51,20.97,76.38,21.48,75.09,21.37z"/>
	
		<linearGradient id="SVGID_00000103244849592137514990000016152542236993635759_" gradientUnits="userSpaceOnUse" x1="10.2856" y1="3.4869" x2="10.2856" y2="2.6849">
		<stop  offset="0" style="stop-color:#FFFFFF"/>
		<stop  offset="1" style="stop-color:#6F6F6E"/>
	</linearGradient>
	
		<rect x="4.9" y="2.68" style="fill:url(#SVGID_00000103244849592137514990000016152542236993635759_);" width="10.78" height="0.8"/>
	<g>
		<g>
			
				<linearGradient id="SVGID_00000176024687669228015070000007358117270106630292_" gradientUnits="userSpaceOnUse" x1="6.0678" y1="4.3424" x2="6.0678" y2="3.6735">
				<stop  offset="0" style="stop-color:#FFFFFF"/>
				<stop  offset="1" style="stop-color:#6F6F6E"/>
			</linearGradient>
			
				<rect x="5.74" y="3.67" style="fill:url(#SVGID_00000176024687669228015070000007358117270106630292_);" width="0.66" height="0.67"/>
			
				<linearGradient id="SVGID_00000158748206271350741820000017563505424942710691_" gradientUnits="userSpaceOnUse" x1="7.0769" y1="4.3424" x2="7.0769" y2="3.6735">
				<stop  offset="0" style="stop-color:#FFFFFF"/>
				<stop  offset="1" style="stop-color:#6F6F6E"/>
			</linearGradient>
			
				<rect x="6.75" y="3.67" style="fill:url(#SVGID_00000158748206271350741820000017563505424942710691_);" width="0.66" height="0.67"/>
			
				<linearGradient id="SVGID_00000136405890626617215960000005467811967691309759_" gradientUnits="userSpaceOnUse" x1="8.0859" y1="4.3424" x2="8.0859" y2="3.6735">
				<stop  offset="0" style="stop-color:#FFFFFF"/>
				<stop  offset="1" style="stop-color:#6F6F6E"/>
			</linearGradient>
			
				<rect x="7.75" y="3.67" style="fill:url(#SVGID_00000136405890626617215960000005467811967691309759_);" width="0.66" height="0.67"/>
			
				<linearGradient id="SVGID_00000177457644664028702080000011023904847160778664_" gradientUnits="userSpaceOnUse" x1="9.095" y1="4.3424" x2="9.095" y2="3.6735">
				<stop  offset="0" style="stop-color:#FFFFFF"/>
				<stop  offset="1" style="stop-color:#6F6F6E"/>
			</linearGradient>
			
				<rect x="8.76" y="3.67" style="fill:url(#SVGID_00000177457644664028702080000011023904847160778664_);" width="0.66" height="0.67"/>
			
				<linearGradient id="SVGID_00000139981585964010451830000008797828304933511562_" gradientUnits="userSpaceOnUse" x1="10.1041" y1="4.3424" x2="10.1041" y2="3.6735">
				<stop  offset="0" style="stop-color:#FFFFFF"/>
				<stop  offset="1" style="stop-color:#6F6F6E"/>
			</linearGradient>
			
				<rect x="9.77" y="3.67" style="fill:url(#SVGID_00000139981585964010451830000008797828304933511562_);" width="0.66" height="0.67"/>
		</g>
		<g>
			
				<linearGradient id="SVGID_00000010288808390398837440000005175512102188613275_" gradientUnits="userSpaceOnUse" x1="6.0678" y1="5.2931" x2="6.0678" y2="4.6241">
				<stop  offset="0" style="stop-color:#FFFFFF"/>
				<stop  offset="1" style="stop-color:#6F6F6E"/>
			</linearGradient>
			
				<rect x="5.74" y="4.62" style="fill:url(#SVGID_00000010288808390398837440000005175512102188613275_);" width="0.66" height="0.67"/>
			
				<linearGradient id="SVGID_00000131339500012492085600000002651798199931893385_" gradientUnits="userSpaceOnUse" x1="7.0769" y1="5.2931" x2="7.0769" y2="4.6241">
				<stop  offset="0" style="stop-color:#FFFFFF"/>
				<stop  offset="1" style="stop-color:#6F6F6E"/>
			</linearGradient>
			
				<rect x="6.75" y="4.62" style="fill:url(#SVGID_00000131339500012492085600000002651798199931893385_);" width="0.66" height="0.67"/>
			
				<linearGradient id="SVGID_00000167392718340081200760000013794357667292817049_" gradientUnits="userSpaceOnUse" x1="8.0859" y1="5.2931" x2="8.0859" y2="4.6241">
				<stop  offset="0" style="stop-color:#FFFFFF"/>
				<stop  offset="1" style="stop-color:#6F6F6E"/>
			</linearGradient>
			
				<rect x="7.75" y="4.62" style="fill:url(#SVGID_00000167392718340081200760000013794357667292817049_);" width="0.66" height="0.67"/>
			
				<linearGradient id="SVGID_00000108989707330255372460000018417856877225457047_" gradientUnits="userSpaceOnUse" x1="9.095" y1="5.2931" x2="9.095" y2="4.6241">
				<stop  offset="0" style="stop-color:#FFFFFF"/>
				<stop  offset="1" style="stop-color:#6F6F6E"/>
			</linearGradient>
			
				<rect x="8.76" y="4.62" style="fill:url(#SVGID_00000108989707330255372460000018417856877225457047_);" width="0.66" height="0.67"/>
			
				<linearGradient id="SVGID_00000034056344118289203300000010615208850963535770_" gradientUnits="userSpaceOnUse" x1="10.1041" y1="5.2931" x2="10.1041" y2="4.6241">
				<stop  offset="0" style="stop-color:#FFFFFF"/>
				<stop  offset="1" style="stop-color:#6F6F6E"/>
			</linearGradient>
			
				<rect x="9.77" y="4.62" style="fill:url(#SVGID_00000034056344118289203300000010615208850963535770_);" width="0.66" height="0.67"/>
		</g>
		<g>
			
				<linearGradient id="SVGID_00000087376855152886400250000005150199448385188790_" gradientUnits="userSpaceOnUse" x1="6.0678" y1="6.3559" x2="6.0678" y2="5.687">
				<stop  offset="0" style="stop-color:#FFFFFF"/>
				<stop  offset="1" style="stop-color:#6F6F6E"/>
			</linearGradient>
			
				<rect x="5.74" y="5.69" style="fill:url(#SVGID_00000087376855152886400250000005150199448385188790_);" width="0.66" height="0.67"/>
			
				<linearGradient id="SVGID_00000086649441875649382710000001601921164588229291_" gradientUnits="userSpaceOnUse" x1="7.0769" y1="6.3559" x2="7.0769" y2="5.687">
				<stop  offset="0" style="stop-color:#FFFFFF"/>
				<stop  offset="1" style="stop-color:#6F6F6E"/>
			</linearGradient>
			
				<rect x="6.75" y="5.69" style="fill:url(#SVGID_00000086649441875649382710000001601921164588229291_);" width="0.66" height="0.67"/>
			
				<linearGradient id="SVGID_00000077316270653199429100000001948138548446426031_" gradientUnits="userSpaceOnUse" x1="8.0859" y1="6.3559" x2="8.0859" y2="5.687">
				<stop  offset="0" style="stop-color:#FFFFFF"/>
				<stop  offset="1" style="stop-color:#6F6F6E"/>
			</linearGradient>
			
				<rect x="7.75" y="5.69" style="fill:url(#SVGID_00000077316270653199429100000001948138548446426031_);" width="0.66" height="0.67"/>
			
				<linearGradient id="SVGID_00000071536268581786887720000003641026981554923663_" gradientUnits="userSpaceOnUse" x1="9.095" y1="6.3559" x2="9.095" y2="5.687">
				<stop  offset="0" style="stop-color:#FFFFFF"/>
				<stop  offset="1" style="stop-color:#6F6F6E"/>
			</linearGradient>
			
				<rect x="8.76" y="5.69" style="fill:url(#SVGID_00000071536268581786887720000003641026981554923663_);" width="0.66" height="0.67"/>
			
				<linearGradient id="SVGID_00000132785471910118785810000001030492736760876732_" gradientUnits="userSpaceOnUse" x1="10.1041" y1="6.3559" x2="10.1041" y2="5.687">
				<stop  offset="0" style="stop-color:#FFFFFF"/>
				<stop  offset="1" style="stop-color:#6F6F6E"/>
			</linearGradient>
			
				<rect x="9.77" y="5.69" style="fill:url(#SVGID_00000132785471910118785810000001030492736760876732_);" width="0.66" height="0.67"/>
		</g>
		<g>
			
				<linearGradient id="SVGID_00000037657449660567739260000001400010112414165637_" gradientUnits="userSpaceOnUse" x1="6.0678" y1="7.3591" x2="6.0678" y2="6.6902">
				<stop  offset="0" style="stop-color:#FFFFFF"/>
				<stop  offset="1" style="stop-color:#6F6F6E"/>
			</linearGradient>
			
				<rect x="5.74" y="6.69" style="fill:url(#SVGID_00000037657449660567739260000001400010112414165637_);" width="0.66" height="0.67"/>
			
				<linearGradient id="SVGID_00000097494078154783530180000004391067125165325716_" gradientUnits="userSpaceOnUse" x1="7.0769" y1="7.3591" x2="7.0769" y2="6.6902">
				<stop  offset="0" style="stop-color:#FFFFFF"/>
				<stop  offset="1" style="stop-color:#6F6F6E"/>
			</linearGradient>
			
				<rect x="6.75" y="6.69" style="fill:url(#SVGID_00000097494078154783530180000004391067125165325716_);" width="0.66" height="0.67"/>
			
				<linearGradient id="SVGID_00000072983478896003583050000009086389600129376958_" gradientUnits="userSpaceOnUse" x1="8.0859" y1="7.3591" x2="8.0859" y2="6.6902">
				<stop  offset="0" style="stop-color:#FFFFFF"/>
				<stop  offset="1" style="stop-color:#6F6F6E"/>
			</linearGradient>
			
				<rect x="7.75" y="6.69" style="fill:url(#SVGID_00000072983478896003583050000009086389600129376958_);" width="0.66" height="0.67"/>
			
				<linearGradient id="SVGID_00000132804141701974073780000005601559056346004113_" gradientUnits="userSpaceOnUse" x1="9.095" y1="7.3591" x2="9.095" y2="6.6902">
				<stop  offset="0" style="stop-color:#FFFFFF"/>
				<stop  offset="1" style="stop-color:#6F6F6E"/>
			</linearGradient>
			
				<rect x="8.76" y="6.69" style="fill:url(#SVGID_00000132804141701974073780000005601559056346004113_);" width="0.66" height="0.67"/>
			
				<linearGradient id="SVGID_00000040562368883097003380000006653632351692949913_" gradientUnits="userSpaceOnUse" x1="10.1041" y1="7.3591" x2="10.1041" y2="6.6902">
				<stop  offset="0" style="stop-color:#FFFFFF"/>
				<stop  offset="1" style="stop-color:#6F6F6E"/>
			</linearGradient>
			
				<rect x="9.77" y="6.69" style="fill:url(#SVGID_00000040562368883097003380000006653632351692949913_);" width="0.66" height="0.67"/>
		</g>
	</g>
	
		<linearGradient id="SVGID_00000070114031683430380330000007242793646476079245_" gradientUnits="userSpaceOnUse" x1="10.3013" y1="1.378" x2="10.3013" y2="0.6449">
		<stop  offset="0" style="stop-color:#FFFFFF"/>
		<stop  offset="1" style="stop-color:#6F6F6E"/>
	</linearGradient>
	
		<rect x="7.08" y="0.64" style="fill:url(#SVGID_00000070114031683430380330000007242793646476079245_);" width="6.45" height="0.73"/>
	<rect x="71.41" y="10.74" class="st1" width="0.47" height="1.31"/>
	<g>
		<rect x="42.91" y="10.74" class="st1" width="0.48" height="1.31"/>
		<rect x="44.95" y="10.74" class="st1" width="0.48" height="1.31"/>
		<rect x="46.99" y="10.74" class="st1" width="0.47" height="1.31"/>
		<rect x="49.03" y="10.74" class="st1" width="0.47" height="1.31"/>
		<rect x="51.06" y="10.74" class="st1" width="0.47" height="1.31"/>
		<rect x="53.09" y="10.74" class="st1" width="0.47" height="1.31"/>
		<rect x="55.13" y="10.74" class="st1" width="0.47" height="1.31"/>
		<rect x="57.16" y="10.74" class="st1" width="0.47" height="1.31"/>
		<rect x="21.02" y="10.18" class="st1" width="51.38" height="0.56"/>
		<rect x="22.57" y="10.74" class="st1" width="0.48" height="1.31"/>
		<rect x="24.61" y="10.74" class="st1" width="0.48" height="1.31"/>
		<rect x="26.65" y="10.74" class="st1" width="0.47" height="1.31"/>
		<rect x="28.68" y="10.74" class="st1" width="0.47" height="1.31"/>
		<rect x="30.72" y="10.74" class="st1" width="0.47" height="1.31"/>
		<rect x="32.75" y="10.74" class="st1" width="0.47" height="1.31"/>
		<rect x="34.78" y="10.74" class="st1" width="0.47" height="1.31"/>
		<rect x="36.81" y="10.74" class="st1" width="0.47" height="1.31"/>
		<rect x="38.85" y="10.74" class="st1" width="0.47" height="1.31"/>
		<rect x="40.88" y="10.74" class="st1" width="0.47" height="1.31"/>
		<rect x="63.25" y="10.74" class="st1" width="0.48" height="1.31"/>
		<rect x="65.3" y="10.74" class="st1" width="0.48" height="1.31"/>
		<rect x="67.34" y="10.74" class="st1" width="0.47" height="1.31"/>
		<rect x="69.37" y="10.74" class="st1" width="0.47" height="1.31"/>
		<rect x="59.19" y="10.74" class="st1" width="0.47" height="1.31"/>
		<rect x="61.22" y="10.74" class="st1" width="0.47" height="1.31"/>
	</g>
	<path class="st26" d="M0.04,12.04c22.29,0,44.59,0,66.88,0c0.43,0.03,1.02,0.04,1.72-0.05c0.54-0.07,1.26-0.16,2.03-0.53
		c1.04-0.5,1.69-1.29,2.06-1.86c2.45,0,4.89,0,7.34,0l-2.6,7.03H1.33c-0.23-0.29-0.48-0.65-0.69-1.07
		C-0.06,14.15-0.04,12.79,0.04,12.04z"/>
</g>
</svg>
