<?xml version="1.0" encoding="utf-8"?>
<!-- Generator: Adobe Illustrator 21.0.0, SVG Export Plug-In . SVG Version: 6.00 Build 0)  -->
<svg version="1.1" id="Layer_1" xmlns="http://www.w3.org/2000/svg" xmlns:xlink="http://www.w3.org/1999/xlink" x="0px" y="0px"
	 viewBox="0 0 80.1 35.4" style="enable-background:new 0 0 80.1 35.4;" xml:space="preserve">
<style type="text/css">
	.st0{fill:#E20613;}
	.st1{fill:#009EE2;stroke:#1D70B7;stroke-width:0.25;stroke-miterlimit:10;}
	.st2{fill:#1D1D1B;}
	.st3{fill:url(#SVGID_1_);}
	.st4{fill:#FBFBFB;}
	.st5{fill:url(#SVGID_2_);}
	.st6{fill:url(#SVGID_3_);}
	.st7{fill:url(#SVGID_4_);}
	.st8{fill:url(#SVGID_5_);}
	.st9{fill:url(#SVGID_6_);}
	.st10{fill:url(#SVGID_7_);}
	.st11{fill:url(#SVGID_8_);}
	.st12{fill:url(#SVGID_9_);}
	.st13{fill:url(#SVGID_10_);}
	.st14{fill:url(#SVGID_11_);}
	.st15{fill:url(#SVGID_12_);}
	.st16{fill:url(#SVGID_13_);}
	.st17{fill:url(#SVGID_14_);}
	.st18{fill:url(#SVGID_15_);}
	.st19{fill:url(#SVGID_16_);}
	.st20{fill:url(#SVGID_17_);}
	.st21{fill:url(#SVGID_18_);}
	.st22{fill:url(#SVGID_19_);}
	.st23{fill:url(#SVGID_20_);}
	.st24{fill:url(#SVGID_21_);}
	.st25{fill:url(#SVGID_22_);}
	.st26{fill:url(#SVGID_23_);}
	.st27{fill:url(#SVGID_24_);}
	.st28{fill:url(#SVGID_25_);}
	.st29{fill:#D0D0CF;}
	.st30{fill:#009EE2;}
	.st31{fill:#D7691D;}
	.st32{fill:#8F313B;}
</style>
<g>
	<path class="st0" d="M55,2.3"/>
	<path class="st0" d="M78.7,18.3"/>
	<path class="st1" d="M2.8,24.6"/>
	<g>
		<ellipse class="st2" cx="75.3" cy="31.9" rx="1.2" ry="0.9"/>
		<g>
			<path class="st2" d="M75.8,31.8c-0.1,0.7-0.4,2.4,0.1,3.1c0.1,0.1,0.3,0.5,0.5,0.4c0.1,0,0.1-0.1,0.2-0.2c-0.1-0.3-0.3-0.6-0.4-1
				c-0.3-1-0.2-1.8-0.1-2.3C76,31.9,75.9,31.9,75.8,31.8z"/>
			<path class="st2" d="M76.1,31.8c0.1-0.7,0.4-2.4-0.1-3.1c-0.1-0.1-0.3-0.5-0.5-0.4c-0.1,0-0.1,0.1-0.2,0.2c0.1,0.3,0.3,0.6,0.4,1
				c0.3,1,0.2,1.8,0.1,2.3C75.9,31.8,76,31.8,76.1,31.8z"/>
		</g>
	</g>
	
		<linearGradient id="SVGID_1_" gradientUnits="userSpaceOnUse" x1="3.78" y1="8.11" x2="80.72" y2="8.11" gradientTransform="matrix(-1 0 0 -1 80.72 38)">
		<stop  offset="0" style="stop-color:#752337"/>
		<stop  offset="0.1929" style="stop-color:#97313D"/>
		<stop  offset="0.8096" style="stop-color:#97313D"/>
		<stop  offset="1" style="stop-color:#872936"/>
	</linearGradient>
	<path class="st3" d="M4,25.9C4,26,4,26,3.9,26.1c0,0-0.1,0.1-0.2,0.1c-0.4,0.1-2.5-0.2-3.3,0.3C0.3,26.7,0,27,0,27.7
		c0,0.4,0,2.6,1.8,4.4c1.7,1.7,3.9,1.8,4.3,1.8c22.6,0,45.2,0,67.8,0c0.8-0.2,1.4-0.9,1.6-1.6c0.2-0.9-0.2-1.8-1-2.4
		c-0.3-0.3-0.6-0.9-0.6-1.5c0.1-1.1,1.3-2.3,3.1-2.5C52.6,25.9,28.3,25.9,4,25.9z"/>
	<path class="st2" d="M78.5,25.9v1.3h1.2c0.2,0,0.3,0.1,0.3,0.3v6.7h-1.8c-0.2,0-0.4-0.2-0.4-0.4c0-2-0.1-4.1-0.1-6.1
		c0-0.3-0.1-1-0.3-1.2l-0.4-0.5L78.5,25.9z"/>
	<g>
		<polygon class="st4" points="55.8,3 65.5,3 65.5,3.7 64.5,3.7 64.5,6.4 66.1,6.4 67.7,2.9 70.5,2.9 70.1,6.4 70.5,6.4 70.5,7.2 
			70.1,7.2 70.1,18.3 56.4,18.3 56.4,15 55.8,15 55.8,14.4 56.4,14.4 56.4,3.7 55.8,3.7 		"/>
		<polygon class="st4" points="63.2,0 62.5,0 61.3,3 63.1,3 		"/>
	</g>
	
		<linearGradient id="SVGID_2_" gradientUnits="userSpaceOnUse" x1="20.235" y1="33.4119" x2="20.235" y2="34.2749" gradientTransform="matrix(-1 0 0 -1 80.72 38)">
		<stop  offset="0" style="stop-color:#FFFFFF"/>
		<stop  offset="1" style="stop-color:#6F6F6E"/>
	</linearGradient>
	<rect x="56.4" y="3.7" class="st5" width="8.1" height="0.9"/>
	<g>
		<g>
			
				<linearGradient id="SVGID_3_" gradientUnits="userSpaceOnUse" x1="17.36" y1="31.664" x2="17.36" y2="32.6097" gradientTransform="matrix(-1 0 0 -1 80.72 38)">
				<stop  offset="0" style="stop-color:#FFFFFF"/>
				<stop  offset="1" style="stop-color:#6F6F6E"/>
			</linearGradient>
			<rect x="62.9" y="5.4" class="st6" width="0.9" height="0.9"/>
			
				<linearGradient id="SVGID_4_" gradientUnits="userSpaceOnUse" x1="18.78" y1="31.664" x2="18.78" y2="32.6097" gradientTransform="matrix(-1 0 0 -1 80.72 38)">
				<stop  offset="0" style="stop-color:#FFFFFF"/>
				<stop  offset="1" style="stop-color:#6F6F6E"/>
			</linearGradient>
			<rect x="61.5" y="5.4" class="st7" width="0.9" height="0.9"/>
			
				<linearGradient id="SVGID_5_" gradientUnits="userSpaceOnUse" x1="20.21" y1="31.664" x2="20.21" y2="32.6097" gradientTransform="matrix(-1 0 0 -1 80.72 38)">
				<stop  offset="0" style="stop-color:#FFFFFF"/>
				<stop  offset="1" style="stop-color:#6F6F6E"/>
			</linearGradient>
			<rect x="60" y="5.4" class="st8" width="0.9" height="0.9"/>
			
				<linearGradient id="SVGID_6_" gradientUnits="userSpaceOnUse" x1="21.64" y1="31.664" x2="21.64" y2="32.6097" gradientTransform="matrix(-1 0 0 -1 80.72 38)">
				<stop  offset="0" style="stop-color:#FFFFFF"/>
				<stop  offset="1" style="stop-color:#6F6F6E"/>
			</linearGradient>
			<rect x="58.6" y="5.4" class="st9" width="0.9" height="0.9"/>
			
				<linearGradient id="SVGID_7_" gradientUnits="userSpaceOnUse" x1="23.06" y1="31.664" x2="23.06" y2="32.6097" gradientTransform="matrix(-1 0 0 -1 80.72 38)">
				<stop  offset="0" style="stop-color:#FFFFFF"/>
				<stop  offset="1" style="stop-color:#6F6F6E"/>
			</linearGradient>
			<rect x="57.2" y="5.4" class="st10" width="0.9" height="0.9"/>
		</g>
		<g>
			
				<linearGradient id="SVGID_8_" gradientUnits="userSpaceOnUse" x1="17.36" y1="30.32" x2="17.36" y2="31.2657" gradientTransform="matrix(-1 0 0 -1 80.72 38)">
				<stop  offset="0" style="stop-color:#FFFFFF"/>
				<stop  offset="1" style="stop-color:#6F6F6E"/>
			</linearGradient>
			<rect x="62.9" y="6.7" class="st11" width="0.9" height="0.9"/>
			
				<linearGradient id="SVGID_9_" gradientUnits="userSpaceOnUse" x1="18.78" y1="30.32" x2="18.78" y2="31.2657" gradientTransform="matrix(-1 0 0 -1 80.72 38)">
				<stop  offset="0" style="stop-color:#FFFFFF"/>
				<stop  offset="1" style="stop-color:#6F6F6E"/>
			</linearGradient>
			<rect x="61.5" y="6.7" class="st12" width="0.9" height="0.9"/>
			
				<linearGradient id="SVGID_10_" gradientUnits="userSpaceOnUse" x1="20.21" y1="30.32" x2="20.21" y2="31.2657" gradientTransform="matrix(-1 0 0 -1 80.72 38)">
				<stop  offset="0" style="stop-color:#FFFFFF"/>
				<stop  offset="1" style="stop-color:#6F6F6E"/>
			</linearGradient>
			<rect x="60" y="6.7" class="st13" width="0.9" height="0.9"/>
			
				<linearGradient id="SVGID_11_" gradientUnits="userSpaceOnUse" x1="21.64" y1="30.32" x2="21.64" y2="31.2657" gradientTransform="matrix(-1 0 0 -1 80.72 38)">
				<stop  offset="0" style="stop-color:#FFFFFF"/>
				<stop  offset="1" style="stop-color:#6F6F6E"/>
			</linearGradient>
			<rect x="58.6" y="6.7" class="st14" width="0.9" height="0.9"/>
			
				<linearGradient id="SVGID_12_" gradientUnits="userSpaceOnUse" x1="23.06" y1="30.32" x2="23.06" y2="31.2657" gradientTransform="matrix(-1 0 0 -1 80.72 38)">
				<stop  offset="0" style="stop-color:#FFFFFF"/>
				<stop  offset="1" style="stop-color:#6F6F6E"/>
			</linearGradient>
			<rect x="57.2" y="6.7" class="st15" width="0.9" height="0.9"/>
		</g>
		<g>
			
				<linearGradient id="SVGID_13_" gradientUnits="userSpaceOnUse" x1="17.36" y1="28.817" x2="17.36" y2="29.7627" gradientTransform="matrix(-1 0 0 -1 80.72 38)">
				<stop  offset="0" style="stop-color:#FFFFFF"/>
				<stop  offset="1" style="stop-color:#6F6F6E"/>
			</linearGradient>
			<rect x="62.9" y="8.2" class="st16" width="0.9" height="0.9"/>
			
				<linearGradient id="SVGID_14_" gradientUnits="userSpaceOnUse" x1="18.78" y1="28.817" x2="18.78" y2="29.7627" gradientTransform="matrix(-1 0 0 -1 80.72 38)">
				<stop  offset="0" style="stop-color:#FFFFFF"/>
				<stop  offset="1" style="stop-color:#6F6F6E"/>
			</linearGradient>
			<rect x="61.5" y="8.2" class="st17" width="0.9" height="0.9"/>
			
				<linearGradient id="SVGID_15_" gradientUnits="userSpaceOnUse" x1="20.21" y1="28.817" x2="20.21" y2="29.7627" gradientTransform="matrix(-1 0 0 -1 80.72 38)">
				<stop  offset="0" style="stop-color:#FFFFFF"/>
				<stop  offset="1" style="stop-color:#6F6F6E"/>
			</linearGradient>
			<rect x="60" y="8.2" class="st18" width="0.9" height="0.9"/>
			
				<linearGradient id="SVGID_16_" gradientUnits="userSpaceOnUse" x1="21.64" y1="28.817" x2="21.64" y2="29.7627" gradientTransform="matrix(-1 0 0 -1 80.72 38)">
				<stop  offset="0" style="stop-color:#FFFFFF"/>
				<stop  offset="1" style="stop-color:#6F6F6E"/>
			</linearGradient>
			<rect x="58.6" y="8.2" class="st19" width="0.9" height="0.9"/>
			
				<linearGradient id="SVGID_17_" gradientUnits="userSpaceOnUse" x1="23.06" y1="28.817" x2="23.06" y2="29.7627" gradientTransform="matrix(-1 0 0 -1 80.72 38)">
				<stop  offset="0" style="stop-color:#FFFFFF"/>
				<stop  offset="1" style="stop-color:#6F6F6E"/>
			</linearGradient>
			<rect x="57.2" y="8.2" class="st20" width="0.9" height="0.9"/>
		</g>
		<g>
			
				<linearGradient id="SVGID_18_" gradientUnits="userSpaceOnUse" x1="17.36" y1="27.3986" x2="17.36" y2="28.3443" gradientTransform="matrix(-1 0 0 -1 80.72 38)">
				<stop  offset="0" style="stop-color:#FFFFFF"/>
				<stop  offset="1" style="stop-color:#6F6F6E"/>
			</linearGradient>
			<rect x="62.9" y="9.7" class="st21" width="0.9" height="0.9"/>
			
				<linearGradient id="SVGID_19_" gradientUnits="userSpaceOnUse" x1="18.78" y1="27.3986" x2="18.78" y2="28.3443" gradientTransform="matrix(-1 0 0 -1 80.72 38)">
				<stop  offset="0" style="stop-color:#FFFFFF"/>
				<stop  offset="1" style="stop-color:#6F6F6E"/>
			</linearGradient>
			<rect x="61.5" y="9.7" class="st22" width="0.9" height="0.9"/>
			
				<linearGradient id="SVGID_20_" gradientUnits="userSpaceOnUse" x1="20.21" y1="27.3986" x2="20.21" y2="28.3443" gradientTransform="matrix(-1 0 0 -1 80.72 38)">
				<stop  offset="0" style="stop-color:#FFFFFF"/>
				<stop  offset="1" style="stop-color:#6F6F6E"/>
			</linearGradient>
			<rect x="60" y="9.7" class="st23" width="0.9" height="0.9"/>
			
				<linearGradient id="SVGID_21_" gradientUnits="userSpaceOnUse" x1="21.64" y1="27.3986" x2="21.64" y2="28.3443" gradientTransform="matrix(-1 0 0 -1 80.72 38)">
				<stop  offset="0" style="stop-color:#FFFFFF"/>
				<stop  offset="1" style="stop-color:#6F6F6E"/>
			</linearGradient>
			<rect x="58.6" y="9.7" class="st24" width="0.9" height="0.9"/>
			
				<linearGradient id="SVGID_22_" gradientUnits="userSpaceOnUse" x1="23.06" y1="27.3986" x2="23.06" y2="28.3443" gradientTransform="matrix(-1 0 0 -1 80.72 38)">
				<stop  offset="0" style="stop-color:#FFFFFF"/>
				<stop  offset="1" style="stop-color:#6F6F6E"/>
			</linearGradient>
			<rect x="57.2" y="9.7" class="st25" width="0.9" height="0.9"/>
		</g>
	</g>
	
		<linearGradient id="SVGID_23_" gradientUnits="userSpaceOnUse" x1="19.04" y1="23.6349" x2="19.04" y2="24.3329" gradientTransform="matrix(-1 0 0 -1 80.72 38)">
		<stop  offset="0" style="stop-color:#F4F4F4"/>
		<stop  offset="1" style="stop-color:#9C9B9A"/>
	</linearGradient>
	<rect x="58.1" y="13.7" class="st26" width="7.1" height="0.7"/>
	
		<linearGradient id="SVGID_24_" gradientUnits="userSpaceOnUse" x1="19.04" y1="20.0232" x2="19.04" y2="23.0432" gradientTransform="matrix(-1 0 0 -1 80.72 38)">
		<stop  offset="0.1229" style="stop-color:#FFFFFF"/>
		<stop  offset="1" style="stop-color:#B2B1B0"/>
	</linearGradient>
	<rect x="58.1" y="15" class="st27" width="7.1" height="3"/>
	
		<linearGradient id="SVGID_25_" gradientUnits="userSpaceOnUse" x1="12.635" y1="29.2639" x2="12.635" y2="30.7666" gradientTransform="matrix(-1 0 0 -1 80.72 38)">
		<stop  offset="0" style="stop-color:#FFFFFF"/>
		<stop  offset="1" style="stop-color:#6F6F6E"/>
	</linearGradient>
	<rect x="66.1" y="7.2" class="st28" width="4" height="1.5"/>
	<g>
		<polygon class="st29" points="47.7,14.8 55.2,14.8 55.2,11.3 48.1,11.3 47.7,11.3 		"/>
		<polygon class="st30" points="47.7,18.4 55.2,18.4 55.2,14.8 48.1,14.8 47.7,14.8 		"/>
		<polygon class="st31" points="47.7,7.7 55.2,7.7 55.2,4.2 48.1,4.2 47.7,4.2 		"/>
		<polygon class="st29" points="47.7,11.3 55.2,11.3 55.2,7.7 48.1,7.7 47.7,7.7 		"/>
	</g>
	<g>
		<polygon class="st31" points="39.8,14.8 47.2,14.8 47.2,11.3 40.1,11.3 39.8,11.3 		"/>
		<polygon class="st29" points="39.8,18.4 47.2,18.4 47.2,14.8 40.1,14.8 39.8,14.8 		"/>
		<polygon class="st30" points="39.8,7.7 47.2,7.7 47.2,4.2 40.1,4.2 39.8,4.2 		"/>
		<polygon class="st32" points="39.8,11.3 47.2,11.3 47.2,7.7 40.1,7.7 39.8,7.7 		"/>
	</g>
	<g>
		<polygon class="st31" points="31.8,14.8 39.3,14.8 39.3,11.3 32.2,11.3 31.8,11.3 		"/>
		<polygon class="st30" points="31.8,18.4 39.3,18.4 39.3,14.8 32.2,14.8 31.8,14.8 		"/>
		<polygon class="st30" points="31.8,7.7 39.3,7.7 39.3,4.2 32.2,4.2 31.8,4.2 		"/>
		<polygon class="st29" points="31.8,11.3 39.3,11.3 39.3,7.7 32.2,7.7 31.8,7.7 		"/>
	</g>
	<g>
		<polygon class="st30" points="23.8,14.8 31.3,14.8 31.3,11.3 24.2,11.3 23.8,11.3 		"/>
		<polygon class="st29" points="23.8,18.4 31.3,18.4 31.3,14.8 24.2,14.8 23.8,14.8 		"/>
		<polygon class="st30" points="23.8,11.3 31.3,11.3 31.3,7.7 24.2,7.7 23.8,7.7 		"/>
	</g>
	<g>
		<polygon class="st30" points="15.9,14.8 23.3,14.8 23.3,11.3 16.3,11.3 15.9,11.3 		"/>
		<polygon class="st31" points="15.9,18.4 23.3,18.4 23.3,14.8 16.3,14.8 15.9,14.8 		"/>
		<polygon class="st32" points="15.9,11.3 23.3,11.3 23.3,7.7 16.3,7.7 15.9,7.7 		"/>
	</g>
	<polygon class="st31" points="71.9,14.8 79.4,14.8 79.4,11.3 72.3,11.3 71.9,11.3 	"/>
	<polygon class="st29" points="71.9,18.4 79.4,18.4 79.4,14.8 72.3,14.8 71.9,14.8 	"/>
	<polygon class="st30" points="71.9,11.3 79.4,11.3 79.4,7.7 72.3,7.7 71.9,7.7 	"/>
	<path class="st2" d="M80.7,18.3H15.6l-1.5-2.6h-13c-0.2,1.9,0.2,3.3,0.7,4.2c0.9,1.9,2.6,2.8,2.6,4.6c0,0.6-0.2,1.1-0.3,1.5
		c25,0,50.1,0,75.1,0c0.9,0,1.6-0.7,1.6-1.6V18.3z"/>
</g>
</svg>
