<?xml version="1.0" encoding="utf-8"?>
<!-- Generator: Adobe Illustrator 26.0.1, SVG Export Plug-In . SVG Version: 6.00 Build 0)  -->
<svg version="1.1" id="Layer_1" xmlns="http://www.w3.org/2000/svg" xmlns:xlink="http://www.w3.org/1999/xlink" x="0px" y="0px"
	 viewBox="0 0 80.06 35.41" style="enable-background:new 0 0 80.06 35.41;" xml:space="preserve">
<style type="text/css">
	.st0{fill:#E20613;}
	.st1{fill:#009EE2;stroke:#1D70B7;stroke-width:0.25;stroke-miterlimit:10;}
	.st2{fill:#1D1D1B;}
	.st3{fill:url(#SVGID_1_);}
	.st4{fill:#FBFBFB;}
	.st5{fill:url(#SVGID_00000155148313665905617280000012966760107742557834_);}
	.st6{fill:url(#SVGID_00000145027356808114999890000012522414972271124106_);}
	.st7{fill:url(#SVGID_00000134232205373835292620000005024992654445448837_);}
	.st8{fill:url(#SVGID_00000074443191700868911390000001208755287673570219_);}
	.st9{fill:url(#SVGID_00000044170352959997672000000013994696671689212063_);}
	.st10{fill:url(#SVGID_00000172426513739957651480000008607482858770151088_);}
	.st11{fill:url(#SVGID_00000010287082277409551880000014072728162346658215_);}
	.st12{fill:url(#SVGID_00000152986849182108788090000015766686004173272990_);}
	.st13{fill:url(#SVGID_00000178190943451970466710000009830239546067842993_);}
	.st14{fill:url(#SVGID_00000080189948472814944650000005077226750824325047_);}
	.st15{fill:url(#SVGID_00000075131438048024122530000008169170798056428474_);}
	.st16{fill:url(#SVGID_00000083048299853411731430000011337758318196120477_);}
	.st17{fill:url(#SVGID_00000149370787743590118170000006296415766987313048_);}
	.st18{fill:url(#SVGID_00000168836577250747493200000010859009416899613879_);}
	.st19{fill:url(#SVGID_00000049917707606929643130000014037619833780362151_);}
	.st20{fill:url(#SVGID_00000088114201967029296810000007379506713059792788_);}
	.st21{fill:url(#SVGID_00000104673564598226948510000006838839770718675631_);}
	.st22{fill:url(#SVGID_00000063619133389673523240000009739636795335063740_);}
	.st23{fill:url(#SVGID_00000093856374308752575560000004202527668079628207_);}
	.st24{fill:url(#SVGID_00000088832519831348277350000014484778125662082216_);}
	.st25{fill:url(#SVGID_00000056404716691967987950000006075438036584594093_);}
	.st26{fill:url(#SVGID_00000105387187287505148830000005876493153075123098_);}
	.st27{fill:url(#SVGID_00000055693929485092562890000016350828063512870281_);}
	.st28{fill:url(#SVGID_00000037664066872997434420000005634012867348169128_);}
	.st29{fill:#D0D0CF;}
	.st30{fill:#009EE2;}
	.st31{fill:#D7691D;}
	.st32{fill:#8F313B;}
</style>
<g>
	<path class="st0" d="M25.71,2.3"/>
	<path class="st0" d="M2.02,18.3"/>
	<path class="st1" d="M77.9,24.65"/>
	<g>
		<ellipse class="st2" cx="5.37" cy="31.87" rx="1.17" ry="0.93"/>
		<g>
			<path class="st2" d="M4.89,31.84C5,32.5,5.26,34.25,4.76,34.98c-0.09,0.13-0.33,0.48-0.5,0.42c-0.08-0.03-0.12-0.14-0.15-0.23
				c0.13-0.27,0.26-0.59,0.36-0.97c0.26-0.97,0.18-1.82,0.09-2.34C4.67,31.85,4.78,31.85,4.89,31.84z"/>
			<path class="st2" d="M4.59,31.84c-0.11-0.66-0.37-2.41,0.13-3.14c0.09-0.13,0.33-0.48,0.5-0.42c0.08,0.03,0.12,0.14,0.15,0.23
				c-0.13,0.27-0.26,0.59-0.36,0.97c-0.26,0.97-0.18,1.82-0.09,2.34C4.81,31.83,4.7,31.84,4.59,31.84z"/>
		</g>
	</g>
	<linearGradient id="SVGID_1_" gradientUnits="userSpaceOnUse" x1="3.7929" y1="29.8848" x2="80.7229" y2="29.8848">
		<stop  offset="0" style="stop-color:#752337"/>
		<stop  offset="0.1929" style="stop-color:#97313D"/>
		<stop  offset="0.8096" style="stop-color:#97313D"/>
		<stop  offset="1" style="stop-color:#872936"/>
	</linearGradient>
	<path class="st3" d="M76.71,25.9c0,0.06,0.01,0.13,0.06,0.2c0,0,0.06,0.09,0.2,0.13c0.37,0.11,2.52-0.23,3.28,0.32
		c0.2,0.15,0.43,0.45,0.47,1.15c0,0.41-0.03,2.6-1.79,4.37c-1.73,1.73-3.86,1.8-4.29,1.81c-22.61,0-45.22,0-67.83,0
		c-0.78-0.23-1.38-0.86-1.55-1.63c-0.2-0.89,0.2-1.84,1-2.35c0.25-0.3,0.62-0.85,0.59-1.52c-0.06-1.15-1.29-2.28-3.07-2.46
		C28.1,25.9,52.4,25.9,76.71,25.9z"/>
	<path class="st2" d="M2.25,25.92v1.27H1.09c-0.17,0-0.31,0.14-0.31,0.31v6.71h1.82c0.22,0,0.4-0.18,0.4-0.4
		c0.03-2.04,0.07-4.08,0.1-6.11c0.01-0.32,0.13-0.96,0.28-1.24l0.4-0.55L2.25,25.92z"/>
	<g>
		<polygon class="st4" points="24.88,2.95 15.25,2.95 15.25,3.73 16.17,3.73 16.17,6.45 14.61,6.45 13.05,2.93 10.24,2.93 
			10.63,6.45 10.22,6.45 10.22,7.23 10.64,7.23 10.64,18.3 24.3,18.3 24.3,15.03 24.9,15.03 24.9,14.38 24.3,14.38 24.3,3.73 
			24.88,3.72 		"/>
		<polygon class="st4" points="17.5,0 18.26,0 19.41,2.95 17.63,2.95 		"/>
	</g>
	
		<linearGradient id="SVGID_00000141415336592841628960000006079762090245684355_" gradientUnits="userSpaceOnUse" x1="20.2314" y1="4.5881" x2="20.2314" y2="3.7251">
		<stop  offset="0" style="stop-color:#FFFFFF"/>
		<stop  offset="1" style="stop-color:#6F6F6E"/>
	</linearGradient>
	
		<rect x="16.17" y="3.73" style="fill:url(#SVGID_00000141415336592841628960000006079762090245684355_);" width="8.13" height="0.86"/>
	<g>
		<g>
			
				<linearGradient id="SVGID_00000072994398791671860140000005782945111271411104_" gradientUnits="userSpaceOnUse" x1="17.3548" y1="6.336" x2="17.3548" y2="5.3903">
				<stop  offset="0" style="stop-color:#FFFFFF"/>
				<stop  offset="1" style="stop-color:#6F6F6E"/>
			</linearGradient>
			
				<rect x="16.89" y="5.39" style="fill:url(#SVGID_00000072994398791671860140000005782945111271411104_);" width="0.94" height="0.95"/>
			
				<linearGradient id="SVGID_00000000195608596486699990000008247821701510670772_" gradientUnits="userSpaceOnUse" x1="18.7816" y1="6.336" x2="18.7816" y2="5.3903">
				<stop  offset="0" style="stop-color:#FFFFFF"/>
				<stop  offset="1" style="stop-color:#6F6F6E"/>
			</linearGradient>
			
				<rect x="18.31" y="5.39" style="fill:url(#SVGID_00000000195608596486699990000008247821701510670772_);" width="0.94" height="0.95"/>
			
				<linearGradient id="SVGID_00000026131787554862862930000005249124859699089806_" gradientUnits="userSpaceOnUse" x1="20.2083" y1="6.336" x2="20.2083" y2="5.3903">
				<stop  offset="0" style="stop-color:#FFFFFF"/>
				<stop  offset="1" style="stop-color:#6F6F6E"/>
			</linearGradient>
			
				<rect x="19.74" y="5.39" style="fill:url(#SVGID_00000026131787554862862930000005249124859699089806_);" width="0.94" height="0.95"/>
			
				<linearGradient id="SVGID_00000179622426441635779890000012014241354104486559_" gradientUnits="userSpaceOnUse" x1="21.635" y1="6.336" x2="21.635" y2="5.3903">
				<stop  offset="0" style="stop-color:#FFFFFF"/>
				<stop  offset="1" style="stop-color:#6F6F6E"/>
			</linearGradient>
			
				<rect x="21.17" y="5.39" style="fill:url(#SVGID_00000179622426441635779890000012014241354104486559_);" width="0.94" height="0.95"/>
			
				<linearGradient id="SVGID_00000016053242046551502660000001616684480380321419_" gradientUnits="userSpaceOnUse" x1="23.0618" y1="6.336" x2="23.0618" y2="5.3903">
				<stop  offset="0" style="stop-color:#FFFFFF"/>
				<stop  offset="1" style="stop-color:#6F6F6E"/>
			</linearGradient>
			
				<rect x="22.59" y="5.39" style="fill:url(#SVGID_00000016053242046551502660000001616684480380321419_);" width="0.94" height="0.95"/>
		</g>
		<g>
			
				<linearGradient id="SVGID_00000069389888899470597510000000935285647142851209_" gradientUnits="userSpaceOnUse" x1="17.3548" y1="7.6802" x2="17.3548" y2="6.7345">
				<stop  offset="0" style="stop-color:#FFFFFF"/>
				<stop  offset="1" style="stop-color:#6F6F6E"/>
			</linearGradient>
			
				<rect x="16.89" y="6.73" style="fill:url(#SVGID_00000069389888899470597510000000935285647142851209_);" width="0.94" height="0.95"/>
			
				<linearGradient id="SVGID_00000052782645976356974480000016900567887672991637_" gradientUnits="userSpaceOnUse" x1="18.7816" y1="7.6802" x2="18.7816" y2="6.7345">
				<stop  offset="0" style="stop-color:#FFFFFF"/>
				<stop  offset="1" style="stop-color:#6F6F6E"/>
			</linearGradient>
			
				<rect x="18.31" y="6.73" style="fill:url(#SVGID_00000052782645976356974480000016900567887672991637_);" width="0.94" height="0.95"/>
			
				<linearGradient id="SVGID_00000009553126482755439400000009912208425270630569_" gradientUnits="userSpaceOnUse" x1="20.2083" y1="7.6802" x2="20.2083" y2="6.7345">
				<stop  offset="0" style="stop-color:#FFFFFF"/>
				<stop  offset="1" style="stop-color:#6F6F6E"/>
			</linearGradient>
			
				<rect x="19.74" y="6.73" style="fill:url(#SVGID_00000009553126482755439400000009912208425270630569_);" width="0.94" height="0.95"/>
			
				<linearGradient id="SVGID_00000030469461482085536260000014177491730404837796_" gradientUnits="userSpaceOnUse" x1="21.635" y1="7.6802" x2="21.635" y2="6.7345">
				<stop  offset="0" style="stop-color:#FFFFFF"/>
				<stop  offset="1" style="stop-color:#6F6F6E"/>
			</linearGradient>
			
				<rect x="21.17" y="6.73" style="fill:url(#SVGID_00000030469461482085536260000014177491730404837796_);" width="0.94" height="0.95"/>
			
				<linearGradient id="SVGID_00000029024062266533501020000009364094452134632369_" gradientUnits="userSpaceOnUse" x1="23.0618" y1="7.6802" x2="23.0618" y2="6.7345">
				<stop  offset="0" style="stop-color:#FFFFFF"/>
				<stop  offset="1" style="stop-color:#6F6F6E"/>
			</linearGradient>
			
				<rect x="22.59" y="6.73" style="fill:url(#SVGID_00000029024062266533501020000009364094452134632369_);" width="0.94" height="0.95"/>
		</g>
		<g>
			
				<linearGradient id="SVGID_00000070081583807712871390000008064699648225284029_" gradientUnits="userSpaceOnUse" x1="17.3548" y1="9.183" x2="17.3548" y2="8.2373">
				<stop  offset="0" style="stop-color:#FFFFFF"/>
				<stop  offset="1" style="stop-color:#6F6F6E"/>
			</linearGradient>
			
				<rect x="16.89" y="8.24" style="fill:url(#SVGID_00000070081583807712871390000008064699648225284029_);" width="0.94" height="0.95"/>
			
				<linearGradient id="SVGID_00000101102274697309748830000006408730896146367918_" gradientUnits="userSpaceOnUse" x1="18.7816" y1="9.183" x2="18.7816" y2="8.2373">
				<stop  offset="0" style="stop-color:#FFFFFF"/>
				<stop  offset="1" style="stop-color:#6F6F6E"/>
			</linearGradient>
			
				<rect x="18.31" y="8.24" style="fill:url(#SVGID_00000101102274697309748830000006408730896146367918_);" width="0.94" height="0.95"/>
			
				<linearGradient id="SVGID_00000129173076573548633960000016416620070778464413_" gradientUnits="userSpaceOnUse" x1="20.2083" y1="9.183" x2="20.2083" y2="8.2373">
				<stop  offset="0" style="stop-color:#FFFFFF"/>
				<stop  offset="1" style="stop-color:#6F6F6E"/>
			</linearGradient>
			
				<rect x="19.74" y="8.24" style="fill:url(#SVGID_00000129173076573548633960000016416620070778464413_);" width="0.94" height="0.95"/>
			
				<linearGradient id="SVGID_00000130628150394964379870000005507432606638123415_" gradientUnits="userSpaceOnUse" x1="21.635" y1="9.183" x2="21.635" y2="8.2373">
				<stop  offset="0" style="stop-color:#FFFFFF"/>
				<stop  offset="1" style="stop-color:#6F6F6E"/>
			</linearGradient>
			
				<rect x="21.17" y="8.24" style="fill:url(#SVGID_00000130628150394964379870000005507432606638123415_);" width="0.94" height="0.95"/>
			
				<linearGradient id="SVGID_00000078027433284231712080000007603764900367259538_" gradientUnits="userSpaceOnUse" x1="23.0618" y1="9.183" x2="23.0618" y2="8.2373">
				<stop  offset="0" style="stop-color:#FFFFFF"/>
				<stop  offset="1" style="stop-color:#6F6F6E"/>
			</linearGradient>
			
				<rect x="22.59" y="8.24" style="fill:url(#SVGID_00000078027433284231712080000007603764900367259538_);" width="0.94" height="0.95"/>
		</g>
		<g>
			
				<linearGradient id="SVGID_00000092433311575123639310000000783241225328773037_" gradientUnits="userSpaceOnUse" x1="17.3548" y1="10.6014" x2="17.3548" y2="9.6557">
				<stop  offset="0" style="stop-color:#FFFFFF"/>
				<stop  offset="1" style="stop-color:#6F6F6E"/>
			</linearGradient>
			
				<rect x="16.89" y="9.66" style="fill:url(#SVGID_00000092433311575123639310000000783241225328773037_);" width="0.94" height="0.95"/>
			
				<linearGradient id="SVGID_00000049203667666190214650000005919855002716942773_" gradientUnits="userSpaceOnUse" x1="18.7816" y1="10.6014" x2="18.7816" y2="9.6557">
				<stop  offset="0" style="stop-color:#FFFFFF"/>
				<stop  offset="1" style="stop-color:#6F6F6E"/>
			</linearGradient>
			
				<rect x="18.31" y="9.66" style="fill:url(#SVGID_00000049203667666190214650000005919855002716942773_);" width="0.94" height="0.95"/>
			
				<linearGradient id="SVGID_00000170276640293541435150000004187105525504163735_" gradientUnits="userSpaceOnUse" x1="20.2083" y1="10.6014" x2="20.2083" y2="9.6557">
				<stop  offset="0" style="stop-color:#FFFFFF"/>
				<stop  offset="1" style="stop-color:#6F6F6E"/>
			</linearGradient>
			
				<rect x="19.74" y="9.66" style="fill:url(#SVGID_00000170276640293541435150000004187105525504163735_);" width="0.94" height="0.95"/>
			
				<linearGradient id="SVGID_00000170971710924418754230000014507219277711315081_" gradientUnits="userSpaceOnUse" x1="21.635" y1="10.6014" x2="21.635" y2="9.6557">
				<stop  offset="0" style="stop-color:#FFFFFF"/>
				<stop  offset="1" style="stop-color:#6F6F6E"/>
			</linearGradient>
			
				<rect x="21.17" y="9.66" style="fill:url(#SVGID_00000170971710924418754230000014507219277711315081_);" width="0.94" height="0.95"/>
			
				<linearGradient id="SVGID_00000104683588681577094470000003231884477242993813_" gradientUnits="userSpaceOnUse" x1="23.0618" y1="10.6014" x2="23.0618" y2="9.6557">
				<stop  offset="0" style="stop-color:#FFFFFF"/>
				<stop  offset="1" style="stop-color:#6F6F6E"/>
			</linearGradient>
			
				<rect x="22.59" y="9.66" style="fill:url(#SVGID_00000104683588681577094470000003231884477242993813_);" width="0.94" height="0.95"/>
		</g>
	</g>
	
		<linearGradient id="SVGID_00000148633006049803383410000008108444600276784017_" gradientUnits="userSpaceOnUse" x1="19.0456" y1="14.3651" x2="19.0456" y2="13.6671">
		<stop  offset="0" style="stop-color:#F4F4F4"/>
		<stop  offset="1" style="stop-color:#9C9B9A"/>
	</linearGradient>
	
		<rect x="15.47" y="13.67" style="fill:url(#SVGID_00000148633006049803383410000008108444600276784017_);" width="7.14" height="0.7"/>
	
		<linearGradient id="SVGID_00000005981184536176741570000017035224884368888252_" gradientUnits="userSpaceOnUse" x1="19.0456" y1="17.9768" x2="19.0456" y2="14.9592">
		<stop  offset="0.1229" style="stop-color:#FFFFFF"/>
		<stop  offset="1" style="stop-color:#B2B1B0"/>
	</linearGradient>
	
		<rect x="15.47" y="14.96" style="fill:url(#SVGID_00000005981184536176741570000017035224884368888252_);" width="7.14" height="3.02"/>
	
		<linearGradient id="SVGID_00000141449580542530772910000000127019669591820686_" gradientUnits="userSpaceOnUse" x1="12.6362" y1="8.7361" x2="12.6362" y2="7.2334">
		<stop  offset="0" style="stop-color:#FFFFFF"/>
		<stop  offset="1" style="stop-color:#6F6F6E"/>
	</linearGradient>
	
		<rect x="10.64" y="7.23" style="fill:url(#SVGID_00000141449580542530772910000000127019669591820686_);" width="3.99" height="1.5"/>
	<g>
		<polygon class="st29" points="33,14.82 25.53,14.82 25.53,11.26 32.61,11.26 33,11.26 		"/>
		<polygon class="st30" points="33,18.37 25.53,18.37 25.53,14.82 32.61,14.82 33,14.82 		"/>
		<polygon class="st31" points="33,7.71 25.53,7.71 25.53,4.16 32.61,4.16 33,4.16 		"/>
		<polygon class="st29" points="33,11.26 25.53,11.26 25.53,7.71 32.61,7.71 33,7.71 		"/>
	</g>
	<g>
		<polygon class="st31" points="40.96,14.82 33.49,14.82 33.49,11.26 40.57,11.26 40.96,11.26 		"/>
		<polygon class="st29" points="40.96,18.37 33.49,18.37 33.49,14.82 40.57,14.82 40.96,14.82 		"/>
		<polygon class="st30" points="40.96,7.71 33.49,7.71 33.49,4.16 40.57,4.16 40.96,4.16 		"/>
		<polygon class="st32" points="40.96,11.26 33.49,11.26 33.49,7.71 40.57,7.71 40.96,7.71 		"/>
	</g>
	<g>
		<polygon class="st31" points="48.92,14.82 41.45,14.82 41.45,11.26 48.53,11.26 48.92,11.26 		"/>
		<polygon class="st30" points="48.92,18.37 41.45,18.37 41.45,14.82 48.53,14.82 48.92,14.82 		"/>
		<polygon class="st30" points="48.92,7.71 41.45,7.71 41.45,4.16 48.53,4.16 48.92,4.16 		"/>
		<polygon class="st29" points="48.92,11.26 41.45,11.26 41.45,7.71 48.53,7.71 48.92,7.71 		"/>
	</g>
	<g>
		<polygon class="st30" points="56.88,14.82 49.41,14.82 49.41,11.26 56.49,11.26 56.88,11.26 		"/>
		<polygon class="st29" points="56.88,18.37 49.41,18.37 49.41,14.82 56.49,14.82 56.88,14.82 		"/>
		<polygon class="st30" points="56.88,11.26 49.41,11.26 49.41,7.71 56.49,7.71 56.88,7.71 		"/>
	</g>
	<g>
		<polygon class="st30" points="64.85,14.82 57.37,14.82 57.37,11.26 64.45,11.26 64.85,11.26 		"/>
		<polygon class="st31" points="64.85,18.37 57.37,18.37 57.37,14.82 64.45,14.82 64.85,14.82 		"/>
		<polygon class="st32" points="64.85,11.26 57.37,11.26 57.37,7.71 64.45,7.71 64.85,7.71 		"/>
	</g>
	<polygon class="st31" points="8.79,14.82 1.32,14.82 1.32,11.26 8.4,11.26 8.79,11.26 	"/>
	<polygon class="st29" points="8.79,18.37 1.32,18.37 1.32,14.82 8.4,14.82 8.79,14.82 	"/>
	<polygon class="st30" points="8.79,11.26 1.32,11.26 1.32,7.71 8.4,7.71 8.79,7.71 	"/>
	<path class="st2" d="M0,18.3h65.11l1.48-2.64H79.6c0.19,1.95-0.22,3.28-0.65,4.16c-0.94,1.89-2.55,2.77-2.55,4.63
		c0,0.61,0.17,1.12,0.31,1.45c-25.04,0-50.08,0-75.13,0C0.71,25.9,0,25.19,0,24.32V18.3z"/>
</g>
</svg>
