<?xml version="1.0" encoding="utf-8"?>
<!-- Generator: Adobe Illustrator 26.0.1, SVG Export Plug-In . SVG Version: 6.00 Build 0)  -->
<svg version="1.1" id="Layer_1" xmlns="http://www.w3.org/2000/svg" xmlns:xlink="http://www.w3.org/1999/xlink" x="0px" y="0px"
	 viewBox="0 0 80.55 26.44" style="enable-background:new 0 0 80.55 26.44;" xml:space="preserve">
<style type="text/css">
	.st0{fill:url(#SVGID_1_);}
	.st1{fill:url(#SVGID_00000094600846054632131490000004236844499740303528_);}
	.st2{fill:url(#SVGID_00000133522163803808196430000017241837770517755563_);}
	.st3{fill:url(#SVGID_00000011028356064434654140000015816117053709632416_);}
	.st4{fill:url(#SVGID_00000182513296110053297850000018411891099113884345_);}
	.st5{fill:url(#SVGID_00000150804544948176632520000012070894586233063571_);}
	.st6{fill:none;stroke:#F5F5F5;stroke-miterlimit:10;}
	.st7{fill:#FBFBFB;}
	.st8{fill:#1D1D1B;}
	.st9{fill:url(#SVGID_00000142137159748193315500000017811686374490134944_);}
	.st10{fill:url(#SVGID_00000132785933172966300900000003354738827572924565_);}
	.st11{fill:url(#SVGID_00000062188477108487161880000011792830856952638101_);}
	.st12{fill:url(#SVGID_00000172431518912509519500000002678510409661828497_);}
	.st13{fill:url(#SVGID_00000163776270258154926270000013440354431042130346_);}
	.st14{fill:url(#SVGID_00000003085427757752022080000015528079983718021527_);}
	.st15{fill:url(#SVGID_00000042713603459751506420000013272686335550977184_);}
	.st16{fill:url(#SVGID_00000173159062833033690900000008575544211275499414_);}
	.st17{fill:url(#SVGID_00000030453437546561053030000003171643563353362593_);}
	.st18{fill:url(#SVGID_00000080194244874928401140000005394777251585185975_);}
	.st19{fill:url(#SVGID_00000099661269309321255710000006534279344827006599_);}
	.st20{fill:url(#SVGID_00000041997269304024165870000003571586894547063962_);}
	.st21{fill:url(#SVGID_00000062157219798258910850000012823694089370777010_);}
	.st22{fill:url(#SVGID_00000111150702740210193800000014928320934282300049_);}
	.st23{fill:url(#SVGID_00000167375271364493297980000006013346094786965387_);}
	.st24{fill:url(#SVGID_00000109718747364874530980000004457399940926913439_);}
	.st25{fill:url(#SVGID_00000129884886747663786600000015558931232023191210_);}
	.st26{fill:url(#SVGID_00000041291491875984201580000004452837318648871083_);}
	.st27{fill:url(#SVGID_00000088815292880917112150000010376234058398962326_);}
	.st28{fill:url(#SVGID_00000066493430643952852060000006675820567275110545_);}
	.st29{fill:url(#SVGID_00000090992200401536350380000008064786989134802306_);}
	.st30{fill:url(#SVGID_00000040541240091314010580000009184809376652216763_);}
	.st31{fill:url(#SVGID_00000088115585785963743550000007596960497356213413_);}
</style>
<g>
	<linearGradient id="SVGID_1_" gradientUnits="userSpaceOnUse" x1="0" y1="14.4579" x2="80.5544" y2="14.4579">
		<stop  offset="0" style="stop-color:#7D2D28"/>
		<stop  offset="0.1381" style="stop-color:#BC3E3D"/>
		<stop  offset="0.8537" style="stop-color:#D34845"/>
		<stop  offset="1" style="stop-color:#D34845"/>
	</linearGradient>
	<polygon class="st0" points="0,11.19 0.48,17.73 77.11,17.73 80.55,11.19 	"/>
	
		<linearGradient id="SVGID_00000134962026343586667800000002491205647599413670_" gradientUnits="userSpaceOnUse" x1="18.0594" y1="11.1906" x2="18.0594" y2="5.0124">
		<stop  offset="0" style="stop-color:#E2EBEB"/>
		<stop  offset="1" style="stop-color:#FAF7F5"/>
	</linearGradient>
	<path style="fill:url(#SVGID_00000134962026343586667800000002491205647599413670_);" d="M24.24,11.19c0-3.41-2.77-6.18-6.18-6.18
		s-6.18,2.77-6.18,6.18H24.24z"/>
	
		<linearGradient id="SVGID_00000018922725217123633850000018064285518144919967_" gradientUnits="userSpaceOnUse" x1="30.4159" y1="11.1906" x2="30.4159" y2="5.0124">
		<stop  offset="0" style="stop-color:#E2EBEB"/>
		<stop  offset="1" style="stop-color:#FAF7F5"/>
	</linearGradient>
	<path style="fill:url(#SVGID_00000018922725217123633850000018064285518144919967_);" d="M36.59,11.19c0-3.41-2.77-6.18-6.18-6.18
		s-6.18,2.77-6.18,6.18H36.59z"/>
	
		<linearGradient id="SVGID_00000000190704042263267570000016109924790710448796_" gradientUnits="userSpaceOnUse" x1="42.7723" y1="11.1609" x2="42.7723" y2="4.9827">
		<stop  offset="0" style="stop-color:#E2EBEB"/>
		<stop  offset="1" style="stop-color:#FAF7F5"/>
	</linearGradient>
	<path style="fill:url(#SVGID_00000000190704042263267570000016109924790710448796_);" d="M48.95,11.16c0-3.41-2.77-6.18-6.18-6.18
		c-3.41,0-6.18,2.77-6.18,6.18H48.95z"/>
	
		<linearGradient id="SVGID_00000178183084155496899510000007372366535234371210_" gradientUnits="userSpaceOnUse" x1="55.1288" y1="11.1609" x2="55.1288" y2="4.9827">
		<stop  offset="0" style="stop-color:#E2EBEB"/>
		<stop  offset="1" style="stop-color:#FAF7F5"/>
	</linearGradient>
	<path style="fill:url(#SVGID_00000178183084155496899510000007372366535234371210_);" d="M61.31,11.16c0-3.41-2.77-6.18-6.18-6.18
		c-3.41,0-6.18,2.77-6.18,6.18H61.31z"/>
	
		<linearGradient id="SVGID_00000016782275201794130460000013501200211411603617_" gradientUnits="userSpaceOnUse" x1="67.4852" y1="11.1609" x2="67.4852" y2="4.9827">
		<stop  offset="0" style="stop-color:#E2EBEB"/>
		<stop  offset="1" style="stop-color:#FAF7F5"/>
	</linearGradient>
	<path style="fill:url(#SVGID_00000016782275201794130460000013501200211411603617_);" d="M73.66,11.16c0-3.41-2.77-6.18-6.18-6.18
		s-6.18,2.77-6.18,6.18H73.66z"/>
	<line class="st6" x1="14.61" y1="4.98" x2="70.81" y2="4.98"/>
	<g>
		<rect x="3.15" y="8.75" class="st7" width="8.2" height="2.41"/>
		<rect x="2.49" y="8.1" class="st7" width="9.56" height="0.65"/>
		<rect x="4.47" y="3.85" class="st7" width="6.88" height="4.9"/>
		<rect x="5.03" y="2.07" class="st7" width="5.66" height="1.78"/>
		<rect x="4.47" y="1.6" class="st7" width="6.71" height="0.47"/>
		<rect x="5.65" class="st7" width="4.57" height="1.6"/>
	</g>
	<g>
		<ellipse class="st8" cx="5.36" cy="24.29" rx="0.65" ry="0.52"/>
		<g>
			<path class="st8" d="M5.09,24.27c0.06,0.37,0.2,1.33-0.07,1.74c-0.05,0.07-0.18,0.27-0.28,0.23c-0.05-0.02-0.07-0.08-0.08-0.13
				c0.07-0.15,0.14-0.33,0.2-0.54c0.14-0.54,0.1-1.01,0.05-1.3C4.97,24.27,5.03,24.27,5.09,24.27z"/>
			<path class="st8" d="M4.92,24.27C4.86,23.9,4.72,22.93,5,22.53c0.05-0.07,0.18-0.27,0.28-0.23c0.05,0.02,0.07,0.08,0.08,0.13
				c-0.07,0.15-0.14,0.33-0.2,0.54c-0.14,0.54-0.1,1.01-0.05,1.3C5.04,24.26,4.98,24.27,4.92,24.27z"/>
		</g>
	</g>
	<path class="st8" d="M1.63,26.01h1.77c0.11,0,0.2-0.08,0.21-0.19l0.43-6.4l-2.41-1.16V26.01z"/>
	
		<linearGradient id="SVGID_00000085213345716446922570000003364770068411220670_" gradientUnits="userSpaceOnUse" x1="0.4752" y1="22.0842" x2="77.5071" y2="22.0842">
		<stop  offset="0" style="stop-color:#64241D"/>
		<stop  offset="0.3671" style="stop-color:#BC3E3D"/>
		<stop  offset="0.7048" style="stop-color:#CF4944"/>
		<stop  offset="1" style="stop-color:#C65646"/>
	</linearGradient>
	<path style="fill:url(#SVGID_00000085213345716446922570000003364770068411220670_);" d="M7.6,26.4c-0.99-0.44-2.26-1.19-2.37-2.26
		c-0.08-0.74,0.44-1.12,0.53-1.72c0.14-0.92-0.73-2.38-5.29-4.69c25.54,0,51.09,0,76.63,0c-0.19,0.39-0.48,0.99-0.83,1.72
		c-0.39,0.81-0.59,1.22-0.59,1.25c-0.51,1.73,2.19,3.28,1.78,4.46c-0.41,1.19-3.18,1.24-3.68,1.25C69,26.45,43.06,26.47,7.6,26.4z"
		/>
	<g>
		<g>
			
				<linearGradient id="SVGID_00000111912536365108819360000011888319423976610996_" gradientUnits="userSpaceOnUse" x1="5.3076" y1="4.938" x2="5.3076" y2="4.3375">
				<stop  offset="0" style="stop-color:#FFFFFF"/>
				<stop  offset="1" style="stop-color:#6F6F6E"/>
			</linearGradient>
			
				<rect x="4.9" y="4.34" style="fill:url(#SVGID_00000111912536365108819360000011888319423976610996_);" width="0.82" height="0.6"/>
			
				<linearGradient id="SVGID_00000109021869563478703150000012672578624832218784_" gradientUnits="userSpaceOnUse" x1="6.5502" y1="4.938" x2="6.5502" y2="4.3375">
				<stop  offset="0" style="stop-color:#FFFFFF"/>
				<stop  offset="1" style="stop-color:#6F6F6E"/>
			</linearGradient>
			
				<rect x="6.14" y="4.34" style="fill:url(#SVGID_00000109021869563478703150000012672578624832218784_);" width="0.82" height="0.6"/>
			
				<linearGradient id="SVGID_00000180345827291644448820000014864009890504737723_" gradientUnits="userSpaceOnUse" x1="7.7928" y1="4.938" x2="7.7928" y2="4.3375">
				<stop  offset="0" style="stop-color:#FFFFFF"/>
				<stop  offset="1" style="stop-color:#6F6F6E"/>
			</linearGradient>
			
				<rect x="7.39" y="4.34" style="fill:url(#SVGID_00000180345827291644448820000014864009890504737723_);" width="0.82" height="0.6"/>
			
				<linearGradient id="SVGID_00000137093308015420829120000001767694289390733215_" gradientUnits="userSpaceOnUse" x1="9.0355" y1="4.938" x2="9.0355" y2="4.3375">
				<stop  offset="0" style="stop-color:#FFFFFF"/>
				<stop  offset="1" style="stop-color:#6F6F6E"/>
			</linearGradient>
			
				<rect x="8.63" y="4.34" style="fill:url(#SVGID_00000137093308015420829120000001767694289390733215_);" width="0.82" height="0.6"/>
			
				<linearGradient id="SVGID_00000041256306309146551470000001797681731907876995_" gradientUnits="userSpaceOnUse" x1="10.2781" y1="4.938" x2="10.2781" y2="4.3375">
				<stop  offset="0" style="stop-color:#FFFFFF"/>
				<stop  offset="1" style="stop-color:#6F6F6E"/>
			</linearGradient>
			
				<rect x="9.87" y="4.34" style="fill:url(#SVGID_00000041256306309146551470000001797681731907876995_);" width="0.82" height="0.6"/>
		</g>
		<g>
			
				<linearGradient id="SVGID_00000086665885101129158940000016330092156243944320_" gradientUnits="userSpaceOnUse" x1="5.3076" y1="5.7914" x2="5.3076" y2="5.1909">
				<stop  offset="0" style="stop-color:#FFFFFF"/>
				<stop  offset="1" style="stop-color:#6F6F6E"/>
			</linearGradient>
			
				<rect x="4.9" y="5.19" style="fill:url(#SVGID_00000086665885101129158940000016330092156243944320_);" width="0.82" height="0.6"/>
			
				<linearGradient id="SVGID_00000173849012138892015980000007321984250526808456_" gradientUnits="userSpaceOnUse" x1="6.5502" y1="5.7914" x2="6.5502" y2="5.1909">
				<stop  offset="0" style="stop-color:#FFFFFF"/>
				<stop  offset="1" style="stop-color:#6F6F6E"/>
			</linearGradient>
			
				<rect x="6.14" y="5.19" style="fill:url(#SVGID_00000173849012138892015980000007321984250526808456_);" width="0.82" height="0.6"/>
			
				<linearGradient id="SVGID_00000114052621050529414790000014684161935289647745_" gradientUnits="userSpaceOnUse" x1="7.7928" y1="5.7914" x2="7.7928" y2="5.1909">
				<stop  offset="0" style="stop-color:#FFFFFF"/>
				<stop  offset="1" style="stop-color:#6F6F6E"/>
			</linearGradient>
			
				<rect x="7.39" y="5.19" style="fill:url(#SVGID_00000114052621050529414790000014684161935289647745_);" width="0.82" height="0.6"/>
			
				<linearGradient id="SVGID_00000097466200680124887900000005846483720204391564_" gradientUnits="userSpaceOnUse" x1="9.0355" y1="5.7914" x2="9.0355" y2="5.1909">
				<stop  offset="0" style="stop-color:#FFFFFF"/>
				<stop  offset="1" style="stop-color:#6F6F6E"/>
			</linearGradient>
			
				<rect x="8.63" y="5.19" style="fill:url(#SVGID_00000097466200680124887900000005846483720204391564_);" width="0.82" height="0.6"/>
			
				<linearGradient id="SVGID_00000059285540694515419470000006258435246620444563_" gradientUnits="userSpaceOnUse" x1="10.2781" y1="5.7914" x2="10.2781" y2="5.1909">
				<stop  offset="0" style="stop-color:#FFFFFF"/>
				<stop  offset="1" style="stop-color:#6F6F6E"/>
			</linearGradient>
			
				<rect x="9.87" y="5.19" style="fill:url(#SVGID_00000059285540694515419470000006258435246620444563_);" width="0.82" height="0.6"/>
		</g>
		<g>
			
				<linearGradient id="SVGID_00000036964421702431337830000018089141203623754407_" gradientUnits="userSpaceOnUse" x1="5.3076" y1="6.7455" x2="5.3076" y2="6.1451">
				<stop  offset="0" style="stop-color:#FFFFFF"/>
				<stop  offset="1" style="stop-color:#6F6F6E"/>
			</linearGradient>
			
				<rect x="4.9" y="6.15" style="fill:url(#SVGID_00000036964421702431337830000018089141203623754407_);" width="0.82" height="0.6"/>
			
				<linearGradient id="SVGID_00000101804728788655024520000017185044877873776054_" gradientUnits="userSpaceOnUse" x1="6.5502" y1="6.7455" x2="6.5502" y2="6.1451">
				<stop  offset="0" style="stop-color:#FFFFFF"/>
				<stop  offset="1" style="stop-color:#6F6F6E"/>
			</linearGradient>
			
				<rect x="6.14" y="6.15" style="fill:url(#SVGID_00000101804728788655024520000017185044877873776054_);" width="0.82" height="0.6"/>
			
				<linearGradient id="SVGID_00000029735292764032084030000010392950128264942263_" gradientUnits="userSpaceOnUse" x1="7.7928" y1="6.7455" x2="7.7928" y2="6.1451">
				<stop  offset="0" style="stop-color:#FFFFFF"/>
				<stop  offset="1" style="stop-color:#6F6F6E"/>
			</linearGradient>
			
				<rect x="7.39" y="6.15" style="fill:url(#SVGID_00000029735292764032084030000010392950128264942263_);" width="0.82" height="0.6"/>
			
				<linearGradient id="SVGID_00000078029492603165458370000010590599606128832904_" gradientUnits="userSpaceOnUse" x1="9.0355" y1="6.7455" x2="9.0355" y2="6.1451">
				<stop  offset="0" style="stop-color:#FFFFFF"/>
				<stop  offset="1" style="stop-color:#6F6F6E"/>
			</linearGradient>
			
				<rect x="8.63" y="6.15" style="fill:url(#SVGID_00000078029492603165458370000010590599606128832904_);" width="0.82" height="0.6"/>
			
				<linearGradient id="SVGID_00000169524762959017945600000015556848595498371752_" gradientUnits="userSpaceOnUse" x1="10.2781" y1="6.7455" x2="10.2781" y2="6.1451">
				<stop  offset="0" style="stop-color:#FFFFFF"/>
				<stop  offset="1" style="stop-color:#6F6F6E"/>
			</linearGradient>
			
				<rect x="9.87" y="6.15" style="fill:url(#SVGID_00000169524762959017945600000015556848595498371752_);" width="0.82" height="0.6"/>
		</g>
		<g>
			
				<linearGradient id="SVGID_00000014633986867829151410000005507703656020387760_" gradientUnits="userSpaceOnUse" x1="5.3076" y1="7.646" x2="5.3076" y2="7.0456">
				<stop  offset="0" style="stop-color:#FFFFFF"/>
				<stop  offset="1" style="stop-color:#6F6F6E"/>
			</linearGradient>
			
				<rect x="4.9" y="7.05" style="fill:url(#SVGID_00000014633986867829151410000005507703656020387760_);" width="0.82" height="0.6"/>
			
				<linearGradient id="SVGID_00000096033287367219549130000002128201679563703998_" gradientUnits="userSpaceOnUse" x1="6.5502" y1="7.646" x2="6.5502" y2="7.0456">
				<stop  offset="0" style="stop-color:#FFFFFF"/>
				<stop  offset="1" style="stop-color:#6F6F6E"/>
			</linearGradient>
			
				<rect x="6.14" y="7.05" style="fill:url(#SVGID_00000096033287367219549130000002128201679563703998_);" width="0.82" height="0.6"/>
			
				<linearGradient id="SVGID_00000087391247568417624250000009189841776289948573_" gradientUnits="userSpaceOnUse" x1="7.7928" y1="7.646" x2="7.7928" y2="7.0456">
				<stop  offset="0" style="stop-color:#FFFFFF"/>
				<stop  offset="1" style="stop-color:#6F6F6E"/>
			</linearGradient>
			
				<rect x="7.39" y="7.05" style="fill:url(#SVGID_00000087391247568417624250000009189841776289948573_);" width="0.82" height="0.6"/>
			
				<linearGradient id="SVGID_00000152249654676070464870000006926190832692025237_" gradientUnits="userSpaceOnUse" x1="9.0355" y1="7.646" x2="9.0355" y2="7.0456">
				<stop  offset="0" style="stop-color:#FFFFFF"/>
				<stop  offset="1" style="stop-color:#6F6F6E"/>
			</linearGradient>
			
				<rect x="8.63" y="7.05" style="fill:url(#SVGID_00000152249654676070464870000006926190832692025237_);" width="0.82" height="0.6"/>
			
				<linearGradient id="SVGID_00000058566834989467158580000016774127976378627725_" gradientUnits="userSpaceOnUse" x1="10.2781" y1="7.646" x2="10.2781" y2="7.0456">
				<stop  offset="0" style="stop-color:#FFFFFF"/>
				<stop  offset="1" style="stop-color:#6F6F6E"/>
			</linearGradient>
			
				<rect x="9.87" y="7.05" style="fill:url(#SVGID_00000058566834989467158580000016774127976378627725_);" width="0.82" height="0.6"/>
		</g>
	</g>
	
		<linearGradient id="SVGID_00000110436502249404299120000015480607053571449255_" gradientUnits="userSpaceOnUse" x1="7.8469" y1="2.6955" x2="7.8469" y2="2.0718">
		<stop  offset="0" style="stop-color:#F4F4F4"/>
		<stop  offset="1" style="stop-color:#9C9B9A"/>
	</linearGradient>
	
		<rect x="5.01" y="2.07" style="fill:url(#SVGID_00000110436502249404299120000015480607053571449255_);" width="5.68" height="0.62"/>
	
		<linearGradient id="SVGID_00000108268200901836003680000002927412691198821803_" gradientUnits="userSpaceOnUse" x1="7.2475" y1="9.6572" x2="7.2475" y2="8.755">
		<stop  offset="0" style="stop-color:#F4F4F4"/>
		<stop  offset="1" style="stop-color:#9C9B9A"/>
	</linearGradient>
	
		<rect x="3.15" y="8.75" style="fill:url(#SVGID_00000108268200901836003680000002927412691198821803_);" width="8.2" height="0.9"/>
</g>
</svg>
