<?xml version="1.0" encoding="utf-8"?>
<!-- Generator: Adobe Illustrator 21.0.0, SVG Export Plug-In . SVG Version: 6.00 Build 0)  -->
<svg version="1.1" id="Layer_1" xmlns="http://www.w3.org/2000/svg" xmlns:xlink="http://www.w3.org/1999/xlink" x="0px" y="0px"
	 viewBox="0 0 80.6 26.4" style="enable-background:new 0 0 80.6 26.4;" xml:space="preserve">
<style type="text/css">
	.st0{fill:url(#SVGID_1_);}
	.st1{fill:url(#SVGID_2_);}
	.st2{fill:url(#SVGID_3_);}
	.st3{fill:url(#SVGID_4_);}
	.st4{fill:url(#SVGID_5_);}
	.st5{fill:url(#SVGID_6_);}
	.st6{fill:none;stroke:#F5F5F5;stroke-miterlimit:10;}
	.st7{fill:#FBFBFB;}
	.st8{fill:#1D1D1B;}
	.st9{fill:url(#SVGID_7_);}
	.st10{fill:url(#SVGID_8_);}
	.st11{fill:url(#SVGID_9_);}
	.st12{fill:url(#SVGID_10_);}
	.st13{fill:url(#SVGID_11_);}
	.st14{fill:url(#SVGID_12_);}
	.st15{fill:url(#SVGID_13_);}
	.st16{fill:url(#SVGID_14_);}
	.st17{fill:url(#SVGID_15_);}
	.st18{fill:url(#SVGID_16_);}
	.st19{fill:url(#SVGID_17_);}
	.st20{fill:url(#SVGID_18_);}
	.st21{fill:url(#SVGID_19_);}
	.st22{fill:url(#SVGID_20_);}
	.st23{fill:url(#SVGID_21_);}
	.st24{fill:url(#SVGID_22_);}
	.st25{fill:url(#SVGID_23_);}
	.st26{fill:url(#SVGID_24_);}
	.st27{fill:url(#SVGID_25_);}
	.st28{fill:url(#SVGID_26_);}
	.st29{fill:url(#SVGID_27_);}
	.st30{fill:url(#SVGID_28_);}
	.st31{fill:url(#SVGID_29_);}
</style>
<g>
	
		<linearGradient id="SVGID_1_" gradientUnits="userSpaceOnUse" x1="0" y1="13.54" x2="80.55" y2="13.54" gradientTransform="matrix(-1 0 0 -1 80.55 28)">
		<stop  offset="0" style="stop-color:#7D2D28"/>
		<stop  offset="0.1381" style="stop-color:#BC3E3D"/>
		<stop  offset="0.8537" style="stop-color:#D34845"/>
		<stop  offset="1" style="stop-color:#D34845"/>
	</linearGradient>
	<polygon class="st0" points="80.6,11.2 80.1,17.7 3.4,17.7 0,11.2 	"/>
	
		<linearGradient id="SVGID_2_" gradientUnits="userSpaceOnUse" x1="18.06" y1="16.81" x2="18.06" y2="22.99" gradientTransform="matrix(-1 0 0 -1 80.55 28)">
		<stop  offset="0" style="stop-color:#E2EBEB"/>
		<stop  offset="1" style="stop-color:#FAF7F5"/>
	</linearGradient>
	<path class="st1" d="M56.3,11.2c0-3.4,2.8-6.2,6.2-6.2c3.4,0,6.2,2.8,6.2,6.2H56.3z"/>
	
		<linearGradient id="SVGID_3_" gradientUnits="userSpaceOnUse" x1="30.41" y1="16.81" x2="30.41" y2="22.99" gradientTransform="matrix(-1 0 0 -1 80.55 28)">
		<stop  offset="0" style="stop-color:#E2EBEB"/>
		<stop  offset="1" style="stop-color:#FAF7F5"/>
	</linearGradient>
	<path class="st2" d="M44,11.2C44,7.8,46.7,5,50.1,5s6.2,2.8,6.2,6.2H44z"/>
	
		<linearGradient id="SVGID_4_" gradientUnits="userSpaceOnUse" x1="42.77" y1="16.84" x2="42.77" y2="23.02" gradientTransform="matrix(-1 0 0 -1 80.55 28)">
		<stop  offset="0" style="stop-color:#E2EBEB"/>
		<stop  offset="1" style="stop-color:#FAF7F5"/>
	</linearGradient>
	<path class="st3" d="M31.6,11.2c0-3.4,2.8-6.2,6.2-6.2S44,7.8,44,11.2H31.6z"/>
	
		<linearGradient id="SVGID_5_" gradientUnits="userSpaceOnUse" x1="55.13" y1="16.84" x2="55.13" y2="23.02" gradientTransform="matrix(-1 0 0 -1 80.55 28)">
		<stop  offset="0" style="stop-color:#E2EBEB"/>
		<stop  offset="1" style="stop-color:#FAF7F5"/>
	</linearGradient>
	<path class="st4" d="M19.2,11.2C19.2,7.8,22,5,25.4,5s6.2,2.8,6.2,6.2H19.2z"/>
	
		<linearGradient id="SVGID_6_" gradientUnits="userSpaceOnUse" x1="67.48" y1="16.84" x2="67.48" y2="23.02" gradientTransform="matrix(-1 0 0 -1 80.55 28)">
		<stop  offset="0" style="stop-color:#E2EBEB"/>
		<stop  offset="1" style="stop-color:#FAF7F5"/>
	</linearGradient>
	<path class="st5" d="M6.9,11.2C6.9,7.8,9.7,5,13.1,5s6.2,2.8,6.2,6.2H6.9z"/>
	<line class="st6" x1="65.9" y1="5" x2="9.7" y2="5"/>
	<g>
		<rect x="69.2" y="8.8" class="st7" width="8.2" height="2.4"/>
		<rect x="68.5" y="8.1" class="st7" width="9.6" height="0.6"/>
		<rect x="69.2" y="3.8" class="st7" width="6.9" height="4.9"/>
		<rect x="69.9" y="2.1" class="st7" width="5.7" height="1.8"/>
		<rect x="69.4" y="1.6" class="st7" width="6.7" height="0.5"/>
		<rect x="70.3" class="st7" width="4.6" height="1.6"/>
	</g>
	<g>
		<ellipse class="st8" cx="75.2" cy="24.3" rx="0.7" ry="0.5"/>
		<g>
			<path class="st8" d="M75.5,24.3c-0.1,0.4-0.2,1.3,0.1,1.7c0,0.1,0.2,0.3,0.3,0.2c0,0,0.1-0.1,0.1-0.1c-0.1-0.1-0.1-0.3-0.2-0.5
				c-0.1-0.5-0.1-1-0.1-1.3C75.6,24.3,75.5,24.3,75.5,24.3z"/>
			<path class="st8" d="M75.6,24.3c0.1-0.4,0.2-1.3-0.1-1.7c-0.1-0.1-0.2-0.3-0.3-0.2c-0.1,0-0.1,0.1-0.1,0.1
				c0.1,0.1,0.1,0.3,0.2,0.5c0.1,0.5,0.1,1,0.1,1.3C75.5,24.3,75.6,24.3,75.6,24.3z"/>
		</g>
	</g>
	<path class="st8" d="M78.9,26h-1.8c-0.1,0-0.2-0.1-0.2-0.2l-0.4-6.4l2.4-1.2C78.9,18.3,78.9,26,78.9,26z"/>
	
		<linearGradient id="SVGID_7_" gradientUnits="userSpaceOnUse" x1="0.47" y1="5.9118" x2="77.5026" y2="5.9118" gradientTransform="matrix(-1 0 0 -1 80.55 28)">
		<stop  offset="0" style="stop-color:#64241D"/>
		<stop  offset="0.3671" style="stop-color:#BC3E3D"/>
		<stop  offset="0.7048" style="stop-color:#CF4944"/>
		<stop  offset="1" style="stop-color:#C65646"/>
	</linearGradient>
	<path class="st9" d="M73,26.4c1-0.4,2.3-1.2,2.4-2.3c0.1-0.7-0.4-1.1-0.5-1.7c-0.1-0.9,0.7-2.4,5.3-4.7c-25.5,0-51.1,0-76.6,0
		c0.2,0.4,0.5,1,0.8,1.7c0.4,0.8,0.6,1.2,0.6,1.3c0.5,1.7-2.2,3.3-1.8,4.5c0.4,1.2,3.2,1.2,3.7,1.3C11.6,26.5,37.5,26.5,73,26.4z"/>
	<g>
		<g>
			
				<linearGradient id="SVGID_8_" gradientUnits="userSpaceOnUse" x1="5.31" y1="23.062" x2="5.31" y2="23.662" gradientTransform="matrix(-1 0 0 -1 80.55 28)">
				<stop  offset="0" style="stop-color:#FFFFFF"/>
				<stop  offset="1" style="stop-color:#6F6F6E"/>
			</linearGradient>
			<rect x="74.8" y="4.3" class="st10" width="0.8" height="0.6"/>
			
				<linearGradient id="SVGID_9_" gradientUnits="userSpaceOnUse" x1="6.55" y1="23.062" x2="6.55" y2="23.662" gradientTransform="matrix(-1 0 0 -1 80.55 28)">
				<stop  offset="0" style="stop-color:#FFFFFF"/>
				<stop  offset="1" style="stop-color:#6F6F6E"/>
			</linearGradient>
			<rect x="73.6" y="4.3" class="st11" width="0.8" height="0.6"/>
			
				<linearGradient id="SVGID_10_" gradientUnits="userSpaceOnUse" x1="7.8" y1="23.062" x2="7.8" y2="23.662" gradientTransform="matrix(-1 0 0 -1 80.55 28)">
				<stop  offset="0" style="stop-color:#FFFFFF"/>
				<stop  offset="1" style="stop-color:#6F6F6E"/>
			</linearGradient>
			<rect x="72.3" y="4.3" class="st12" width="0.8" height="0.6"/>
			
				<linearGradient id="SVGID_11_" gradientUnits="userSpaceOnUse" x1="9.04" y1="23.062" x2="9.04" y2="23.662" gradientTransform="matrix(-1 0 0 -1 80.55 28)">
				<stop  offset="0" style="stop-color:#FFFFFF"/>
				<stop  offset="1" style="stop-color:#6F6F6E"/>
			</linearGradient>
			<rect x="71.1" y="4.3" class="st13" width="0.8" height="0.6"/>
			
				<linearGradient id="SVGID_12_" gradientUnits="userSpaceOnUse" x1="10.28" y1="23.062" x2="10.28" y2="23.662" gradientTransform="matrix(-1 0 0 -1 80.55 28)">
				<stop  offset="0" style="stop-color:#FFFFFF"/>
				<stop  offset="1" style="stop-color:#6F6F6E"/>
			</linearGradient>
			<rect x="69.9" y="4.3" class="st14" width="0.8" height="0.6"/>
		</g>
		<g>
			
				<linearGradient id="SVGID_13_" gradientUnits="userSpaceOnUse" x1="5.31" y1="22.2086" x2="5.31" y2="22.8086" gradientTransform="matrix(-1 0 0 -1 80.55 28)">
				<stop  offset="0" style="stop-color:#FFFFFF"/>
				<stop  offset="1" style="stop-color:#6F6F6E"/>
			</linearGradient>
			<rect x="74.8" y="5.2" class="st15" width="0.8" height="0.6"/>
			
				<linearGradient id="SVGID_14_" gradientUnits="userSpaceOnUse" x1="6.55" y1="22.2086" x2="6.55" y2="22.8086" gradientTransform="matrix(-1 0 0 -1 80.55 28)">
				<stop  offset="0" style="stop-color:#FFFFFF"/>
				<stop  offset="1" style="stop-color:#6F6F6E"/>
			</linearGradient>
			<rect x="73.6" y="5.2" class="st16" width="0.8" height="0.6"/>
			
				<linearGradient id="SVGID_15_" gradientUnits="userSpaceOnUse" x1="7.8" y1="22.2086" x2="7.8" y2="22.8086" gradientTransform="matrix(-1 0 0 -1 80.55 28)">
				<stop  offset="0" style="stop-color:#FFFFFF"/>
				<stop  offset="1" style="stop-color:#6F6F6E"/>
			</linearGradient>
			<rect x="72.3" y="5.2" class="st17" width="0.8" height="0.6"/>
			
				<linearGradient id="SVGID_16_" gradientUnits="userSpaceOnUse" x1="9.04" y1="22.2086" x2="9.04" y2="22.8086" gradientTransform="matrix(-1 0 0 -1 80.55 28)">
				<stop  offset="0" style="stop-color:#FFFFFF"/>
				<stop  offset="1" style="stop-color:#6F6F6E"/>
			</linearGradient>
			<rect x="71.1" y="5.2" class="st18" width="0.8" height="0.6"/>
			
				<linearGradient id="SVGID_17_" gradientUnits="userSpaceOnUse" x1="10.28" y1="22.2086" x2="10.28" y2="22.8086" gradientTransform="matrix(-1 0 0 -1 80.55 28)">
				<stop  offset="0" style="stop-color:#FFFFFF"/>
				<stop  offset="1" style="stop-color:#6F6F6E"/>
			</linearGradient>
			<rect x="69.9" y="5.2" class="st19" width="0.8" height="0.6"/>
		</g>
		<g>
			
				<linearGradient id="SVGID_18_" gradientUnits="userSpaceOnUse" x1="5.31" y1="21.2545" x2="5.31" y2="21.8545" gradientTransform="matrix(-1 0 0 -1 80.55 28)">
				<stop  offset="0" style="stop-color:#FFFFFF"/>
				<stop  offset="1" style="stop-color:#6F6F6E"/>
			</linearGradient>
			<rect x="74.8" y="6.2" class="st20" width="0.8" height="0.6"/>
			
				<linearGradient id="SVGID_19_" gradientUnits="userSpaceOnUse" x1="6.55" y1="21.2545" x2="6.55" y2="21.8545" gradientTransform="matrix(-1 0 0 -1 80.55 28)">
				<stop  offset="0" style="stop-color:#FFFFFF"/>
				<stop  offset="1" style="stop-color:#6F6F6E"/>
			</linearGradient>
			<rect x="73.6" y="6.2" class="st21" width="0.8" height="0.6"/>
			
				<linearGradient id="SVGID_20_" gradientUnits="userSpaceOnUse" x1="7.8" y1="21.2545" x2="7.8" y2="21.8545" gradientTransform="matrix(-1 0 0 -1 80.55 28)">
				<stop  offset="0" style="stop-color:#FFFFFF"/>
				<stop  offset="1" style="stop-color:#6F6F6E"/>
			</linearGradient>
			<rect x="72.3" y="6.2" class="st22" width="0.8" height="0.6"/>
			
				<linearGradient id="SVGID_21_" gradientUnits="userSpaceOnUse" x1="9.04" y1="21.2545" x2="9.04" y2="21.8545" gradientTransform="matrix(-1 0 0 -1 80.55 28)">
				<stop  offset="0" style="stop-color:#FFFFFF"/>
				<stop  offset="1" style="stop-color:#6F6F6E"/>
			</linearGradient>
			<rect x="71.1" y="6.2" class="st23" width="0.8" height="0.6"/>
			
				<linearGradient id="SVGID_22_" gradientUnits="userSpaceOnUse" x1="10.28" y1="21.2545" x2="10.28" y2="21.8545" gradientTransform="matrix(-1 0 0 -1 80.55 28)">
				<stop  offset="0" style="stop-color:#FFFFFF"/>
				<stop  offset="1" style="stop-color:#6F6F6E"/>
			</linearGradient>
			<rect x="69.9" y="6.2" class="st24" width="0.8" height="0.6"/>
		</g>
		<g>
			
				<linearGradient id="SVGID_23_" gradientUnits="userSpaceOnUse" x1="5.31" y1="20.354" x2="5.31" y2="20.954" gradientTransform="matrix(-1 0 0 -1 80.55 28)">
				<stop  offset="0" style="stop-color:#FFFFFF"/>
				<stop  offset="1" style="stop-color:#6F6F6E"/>
			</linearGradient>
			<rect x="74.8" y="7.1" class="st25" width="0.8" height="0.6"/>
			
				<linearGradient id="SVGID_24_" gradientUnits="userSpaceOnUse" x1="6.55" y1="20.354" x2="6.55" y2="20.954" gradientTransform="matrix(-1 0 0 -1 80.55 28)">
				<stop  offset="0" style="stop-color:#FFFFFF"/>
				<stop  offset="1" style="stop-color:#6F6F6E"/>
			</linearGradient>
			<rect x="73.6" y="7.1" class="st26" width="0.8" height="0.6"/>
			
				<linearGradient id="SVGID_25_" gradientUnits="userSpaceOnUse" x1="7.8" y1="20.354" x2="7.8" y2="20.954" gradientTransform="matrix(-1 0 0 -1 80.55 28)">
				<stop  offset="0" style="stop-color:#FFFFFF"/>
				<stop  offset="1" style="stop-color:#6F6F6E"/>
			</linearGradient>
			<rect x="72.3" y="7.1" class="st27" width="0.8" height="0.6"/>
			
				<linearGradient id="SVGID_26_" gradientUnits="userSpaceOnUse" x1="9.04" y1="20.354" x2="9.04" y2="20.954" gradientTransform="matrix(-1 0 0 -1 80.55 28)">
				<stop  offset="0" style="stop-color:#FFFFFF"/>
				<stop  offset="1" style="stop-color:#6F6F6E"/>
			</linearGradient>
			<rect x="71.1" y="7.1" class="st28" width="0.8" height="0.6"/>
			
				<linearGradient id="SVGID_27_" gradientUnits="userSpaceOnUse" x1="10.28" y1="20.354" x2="10.28" y2="20.954" gradientTransform="matrix(-1 0 0 -1 80.55 28)">
				<stop  offset="0" style="stop-color:#FFFFFF"/>
				<stop  offset="1" style="stop-color:#6F6F6E"/>
			</linearGradient>
			<rect x="69.9" y="7.1" class="st29" width="0.8" height="0.6"/>
		</g>
	</g>
	
		<linearGradient id="SVGID_28_" gradientUnits="userSpaceOnUse" x1="7.85" y1="25.3045" x2="7.85" y2="25.9282" gradientTransform="matrix(-1 0 0 -1 80.55 28)">
		<stop  offset="0" style="stop-color:#F4F4F4"/>
		<stop  offset="1" style="stop-color:#9C9B9A"/>
	</linearGradient>
	<rect x="69.9" y="2.1" class="st30" width="5.7" height="0.6"/>
	
		<linearGradient id="SVGID_29_" gradientUnits="userSpaceOnUse" x1="7.25" y1="18.3428" x2="7.25" y2="19.245" gradientTransform="matrix(-1 0 0 -1 80.55 28)">
		<stop  offset="0" style="stop-color:#F4F4F4"/>
		<stop  offset="1" style="stop-color:#9C9B9A"/>
	</linearGradient>
	<rect x="69.2" y="8.8" class="st31" width="8.2" height="0.9"/>
</g>
</svg>
