<?xml version="1.0" encoding="utf-8"?>
<!-- Generator: Adobe Illustrator 21.0.0, SVG Export Plug-In . SVG Version: 6.00 Build 0)  -->
<svg version="1.1" id="Layer_1" xmlns="http://www.w3.org/2000/svg" xmlns:xlink="http://www.w3.org/1999/xlink" x="0px" y="0px"
	 viewBox="0 0 80.5 30.7" style="enable-background:new 0 0 80.5 30.7;" xml:space="preserve">
<style type="text/css">
	.st0{fill:#FFFFFF;}
	.st1{fill:#1D1D1B;}
	.st2{fill:url(#SVGID_1_);}
	.st3{fill:none;}
	.st4{fill:url(#SVGID_2_);}
	.st5{fill:#366A4D;}
	.st6{fill:url(#SVGID_3_);}
	.st7{fill:url(#SVGID_4_);}
	.st8{fill:url(#SVGID_5_);}
	.st9{fill:url(#SVGID_6_);}
	.st10{fill:url(#SVGID_7_);}
	.st11{fill:url(#SVGID_8_);}
	.st12{fill:url(#SVGID_9_);}
	.st13{fill:url(#SVGID_10_);}
	.st14{fill:url(#SVGID_11_);}
	.st15{fill:url(#SVGID_12_);}
	.st16{fill:url(#SVGID_13_);}
	.st17{fill:url(#SVGID_14_);}
	.st18{fill:url(#SVGID_15_);}
	.st19{fill:url(#SVGID_16_);}
	.st20{fill:url(#SVGID_17_);}
	.st21{fill:url(#SVGID_18_);}
	.st22{fill:url(#SVGID_19_);}
	.st23{fill:url(#SVGID_20_);}
	.st24{fill:url(#SVGID_21_);}
	.st25{fill:url(#SVGID_22_);}
	.st26{fill:url(#SVGID_23_);}
	.st27{fill:#3C3C3B;}
	.st28{fill:#57986F;}
	.st29{fill:url(#SVGID_24_);}
	.st30{fill:#F8B133;}
	.st31{fill:url(#SVGID_25_);}
</style>
<g>
	<polygon class="st0" points="78.6,7.8 73.5,7.8 73.5,5.1 74.1,5.1 74.1,3 66.2,3 66.2,5.1 66.6,5.1 66.6,13.5 78.6,13.5 	"/>
	<g>
		<ellipse class="st1" cx="75.2" cy="27.1" rx="1.2" ry="0.9"/>
		<g>
			<path class="st1" d="M75.7,27.1c-0.1,0.7-0.4,2.4,0.1,3.1c0.1,0.1,0.3,0.5,0.5,0.4c0.1,0,0.1-0.1,0.2-0.2c-0.1-0.3-0.3-0.6-0.4-1
				c-0.3-1-0.2-1.8-0.1-2.3C75.9,27.1,75.8,27.1,75.7,27.1z"/>
			<path class="st1" d="M76,27.1c0.1-0.7,0.4-2.4-0.1-3.1c-0.1-0.1-0.3-0.5-0.5-0.4c-0.1,0-0.1,0.1-0.2,0.2c0.1,0.3,0.3,0.6,0.4,1
				c0.3,1,0.2,1.8,0.1,2.3C75.8,27.1,75.9,27.1,76,27.1z"/>
		</g>
	</g>
	
		<linearGradient id="SVGID_1_" gradientUnits="userSpaceOnUse" x1="2.5" y1="7.025" x2="80.5172" y2="7.025" gradientTransform="matrix(-1 0 0 -1 80.5072 32)">
		<stop  offset="0" style="stop-color:#888A8C"/>
		<stop  offset="0.1648" style="stop-color:#B1B0B1"/>
		<stop  offset="0.8687" style="stop-color:#B2B1B2"/>
		<stop  offset="1" style="stop-color:#8A8A8A"/>
	</linearGradient>
	<path class="st2" d="M6.6,29c-0.9,0-2.5-0.3-4.1-1.4C1.8,27.2,0.2,26,0,24.2c0-0.3-0.1-1.6,0.6-2.1c0.7-0.5,1.6,0.1,2.7-0.5
		c0.4-0.2,0.6-0.4,0.7-0.6c24.7,0,49.3,0,73.9,0c-2.9,0.3-3.8,1.1-4.1,1.9c-0.6,1.7,1.9,3.7,1.2,5.3c-0.4,0.7-1.2,0.9-1.9,1
		C51,29,28.8,29,6.6,29z"/>
	<path class="st1" d="M78.1,20.9v1.3h1.2c0.2,0,0.3,0.1,0.3,0.3v6.7h-1.8c-0.2,0-0.4-0.2-0.4-0.4c0-2-0.1-4.1-0.1-6.1
		c0-0.3-0.1-1-0.3-1.2l-0.4-0.5L78.1,20.9z"/>
	<line class="st3" x1="55.1" y1="4.9" x2="55.1" y2="6.3"/>
	
		<linearGradient id="SVGID_2_" gradientUnits="userSpaceOnUse" x1="4.22" y1="19.95" x2="4.22" y2="23.6242" gradientTransform="matrix(-1 0 0 -1 80.5072 32)">
		<stop  offset="0" style="stop-color:#FFFFFF"/>
		<stop  offset="1" style="stop-color:#6F6F6E"/>
	</linearGradient>
	<rect x="74.4" y="8.4" class="st4" width="3.7" height="3.7"/>
	<g>
		<rect x="19.8" y="12.5" class="st5" width="1.6" height="1"/>
		<rect x="18" y="12.5" class="st5" width="1.6" height="1"/>
		<rect x="16.2" y="12.5" class="st5" width="1.6" height="1"/>
		<rect x="21.7" y="12.5" class="st5" width="1.6" height="1"/>
		<rect x="14.4" y="12.5" class="st5" width="1.6" height="1"/>
	</g>
	<g>
		<g>
			
				<linearGradient id="SVGID_3_" gradientUnits="userSpaceOnUse" x1="8.055" y1="24.0297" x2="8.055" y2="24.9348" gradientTransform="matrix(-1 0 0 -1 80.5072 32)">
				<stop  offset="0" style="stop-color:#FFFFFF"/>
				<stop  offset="1" style="stop-color:#6F6F6E"/>
			</linearGradient>
			<rect x="72" y="7.1" class="st6" width="0.8" height="0.9"/>
			
				<linearGradient id="SVGID_4_" gradientUnits="userSpaceOnUse" x1="9.295" y1="24.0297" x2="9.295" y2="24.9348" gradientTransform="matrix(-1 0 0 -1 80.5072 32)">
				<stop  offset="0" style="stop-color:#FFFFFF"/>
				<stop  offset="1" style="stop-color:#6F6F6E"/>
			</linearGradient>
			<rect x="70.8" y="7.1" class="st7" width="0.8" height="0.9"/>
			
				<linearGradient id="SVGID_5_" gradientUnits="userSpaceOnUse" x1="10.535" y1="24.0297" x2="10.535" y2="24.9348" gradientTransform="matrix(-1 0 0 -1 80.5072 32)">
				<stop  offset="0" style="stop-color:#FFFFFF"/>
				<stop  offset="1" style="stop-color:#6F6F6E"/>
			</linearGradient>
			<rect x="69.6" y="7.1" class="st8" width="0.8" height="0.9"/>
			
				<linearGradient id="SVGID_6_" gradientUnits="userSpaceOnUse" x1="11.775" y1="24.0297" x2="11.775" y2="24.9348" gradientTransform="matrix(-1 0 0 -1 80.5072 32)">
				<stop  offset="0" style="stop-color:#FFFFFF"/>
				<stop  offset="1" style="stop-color:#6F6F6E"/>
			</linearGradient>
			<rect x="68.3" y="7.1" class="st9" width="0.8" height="0.9"/>
			
				<linearGradient id="SVGID_7_" gradientUnits="userSpaceOnUse" x1="13.005" y1="24.0297" x2="13.005" y2="24.9348" gradientTransform="matrix(-1 0 0 -1 80.5072 32)">
				<stop  offset="0" style="stop-color:#FFFFFF"/>
				<stop  offset="1" style="stop-color:#6F6F6E"/>
			</linearGradient>
			<rect x="67.1" y="7.1" class="st10" width="0.8" height="0.9"/>
		</g>
		<g>
			
				<linearGradient id="SVGID_8_" gradientUnits="userSpaceOnUse" x1="8.055" y1="22.7432" x2="8.055" y2="23.6484" gradientTransform="matrix(-1 0 0 -1 80.5072 32)">
				<stop  offset="0" style="stop-color:#FFFFFF"/>
				<stop  offset="1" style="stop-color:#6F6F6E"/>
			</linearGradient>
			<rect x="72" y="8.4" class="st11" width="0.8" height="0.9"/>
			
				<linearGradient id="SVGID_9_" gradientUnits="userSpaceOnUse" x1="9.295" y1="22.7432" x2="9.295" y2="23.6484" gradientTransform="matrix(-1 0 0 -1 80.5072 32)">
				<stop  offset="0" style="stop-color:#FFFFFF"/>
				<stop  offset="1" style="stop-color:#6F6F6E"/>
			</linearGradient>
			<rect x="70.8" y="8.4" class="st12" width="0.8" height="0.9"/>
			
				<linearGradient id="SVGID_10_" gradientUnits="userSpaceOnUse" x1="10.535" y1="22.7432" x2="10.535" y2="23.6484" gradientTransform="matrix(-1 0 0 -1 80.5072 32)">
				<stop  offset="0" style="stop-color:#FFFFFF"/>
				<stop  offset="1" style="stop-color:#6F6F6E"/>
			</linearGradient>
			<rect x="69.6" y="8.4" class="st13" width="0.8" height="0.9"/>
			
				<linearGradient id="SVGID_11_" gradientUnits="userSpaceOnUse" x1="11.775" y1="22.7432" x2="11.775" y2="23.6484" gradientTransform="matrix(-1 0 0 -1 80.5072 32)">
				<stop  offset="0" style="stop-color:#FFFFFF"/>
				<stop  offset="1" style="stop-color:#6F6F6E"/>
			</linearGradient>
			<rect x="68.3" y="8.4" class="st14" width="0.8" height="0.9"/>
			
				<linearGradient id="SVGID_12_" gradientUnits="userSpaceOnUse" x1="13.005" y1="22.7432" x2="13.005" y2="23.6484" gradientTransform="matrix(-1 0 0 -1 80.5072 32)">
				<stop  offset="0" style="stop-color:#FFFFFF"/>
				<stop  offset="1" style="stop-color:#6F6F6E"/>
			</linearGradient>
			<rect x="67.1" y="8.4" class="st15" width="0.8" height="0.9"/>
		</g>
		<g>
			
				<linearGradient id="SVGID_13_" gradientUnits="userSpaceOnUse" x1="8.055" y1="21.3049" x2="8.055" y2="22.2101" gradientTransform="matrix(-1 0 0 -1 80.5072 32)">
				<stop  offset="0" style="stop-color:#FFFFFF"/>
				<stop  offset="1" style="stop-color:#6F6F6E"/>
			</linearGradient>
			<rect x="72" y="9.8" class="st16" width="0.8" height="0.9"/>
			
				<linearGradient id="SVGID_14_" gradientUnits="userSpaceOnUse" x1="9.295" y1="21.3049" x2="9.295" y2="22.2101" gradientTransform="matrix(-1 0 0 -1 80.5072 32)">
				<stop  offset="0" style="stop-color:#FFFFFF"/>
				<stop  offset="1" style="stop-color:#6F6F6E"/>
			</linearGradient>
			<rect x="70.8" y="9.8" class="st17" width="0.8" height="0.9"/>
			
				<linearGradient id="SVGID_15_" gradientUnits="userSpaceOnUse" x1="10.535" y1="21.3049" x2="10.535" y2="22.2101" gradientTransform="matrix(-1 0 0 -1 80.5072 32)">
				<stop  offset="0" style="stop-color:#FFFFFF"/>
				<stop  offset="1" style="stop-color:#6F6F6E"/>
			</linearGradient>
			<rect x="69.6" y="9.8" class="st18" width="0.8" height="0.9"/>
			
				<linearGradient id="SVGID_16_" gradientUnits="userSpaceOnUse" x1="11.775" y1="21.3049" x2="11.775" y2="22.2101" gradientTransform="matrix(-1 0 0 -1 80.5072 32)">
				<stop  offset="0" style="stop-color:#FFFFFF"/>
				<stop  offset="1" style="stop-color:#6F6F6E"/>
			</linearGradient>
			<rect x="68.3" y="9.8" class="st19" width="0.8" height="0.9"/>
			
				<linearGradient id="SVGID_17_" gradientUnits="userSpaceOnUse" x1="13.005" y1="21.3049" x2="13.005" y2="22.2101" gradientTransform="matrix(-1 0 0 -1 80.5072 32)">
				<stop  offset="0" style="stop-color:#FFFFFF"/>
				<stop  offset="1" style="stop-color:#6F6F6E"/>
			</linearGradient>
			<rect x="67.1" y="9.8" class="st20" width="0.8" height="0.9"/>
		</g>
		<g>
			
				<linearGradient id="SVGID_18_" gradientUnits="userSpaceOnUse" x1="8.055" y1="19.9474" x2="8.055" y2="20.8526" gradientTransform="matrix(-1 0 0 -1 80.5072 32)">
				<stop  offset="0" style="stop-color:#FFFFFF"/>
				<stop  offset="1" style="stop-color:#6F6F6E"/>
			</linearGradient>
			<rect x="72" y="11.1" class="st21" width="0.8" height="0.9"/>
			
				<linearGradient id="SVGID_19_" gradientUnits="userSpaceOnUse" x1="9.295" y1="19.9474" x2="9.295" y2="20.8526" gradientTransform="matrix(-1 0 0 -1 80.5072 32)">
				<stop  offset="0" style="stop-color:#FFFFFF"/>
				<stop  offset="1" style="stop-color:#6F6F6E"/>
			</linearGradient>
			<rect x="70.8" y="11.1" class="st22" width="0.8" height="0.9"/>
			
				<linearGradient id="SVGID_20_" gradientUnits="userSpaceOnUse" x1="10.535" y1="19.9474" x2="10.535" y2="20.8526" gradientTransform="matrix(-1 0 0 -1 80.5072 32)">
				<stop  offset="0" style="stop-color:#FFFFFF"/>
				<stop  offset="1" style="stop-color:#6F6F6E"/>
			</linearGradient>
			<rect x="69.6" y="11.1" class="st23" width="0.8" height="0.9"/>
			
				<linearGradient id="SVGID_21_" gradientUnits="userSpaceOnUse" x1="11.775" y1="19.9474" x2="11.775" y2="20.8526" gradientTransform="matrix(-1 0 0 -1 80.5072 32)">
				<stop  offset="0" style="stop-color:#FFFFFF"/>
				<stop  offset="1" style="stop-color:#6F6F6E"/>
			</linearGradient>
			<rect x="68.3" y="11.1" class="st24" width="0.8" height="0.9"/>
			
				<linearGradient id="SVGID_22_" gradientUnits="userSpaceOnUse" x1="13.005" y1="19.9474" x2="13.005" y2="20.8526" gradientTransform="matrix(-1 0 0 -1 80.5072 32)">
				<stop  offset="0" style="stop-color:#FFFFFF"/>
				<stop  offset="1" style="stop-color:#6F6F6E"/>
			</linearGradient>
			<rect x="67.1" y="11.1" class="st25" width="0.8" height="0.9"/>
		</g>
	</g>
	
		<linearGradient id="SVGID_23_" gradientUnits="userSpaceOnUse" x1="10.46" y1="25.2357" x2="10.46" y2="26.9491" gradientTransform="matrix(-1 0 0 -1 80.5072 32)">
		<stop  offset="0" style="stop-color:#FFFFFF"/>
		<stop  offset="1" style="stop-color:#C3C4C6"/>
	</linearGradient>
	<rect x="66.8" y="5.1" class="st26" width="6.6" height="1.7"/>
	<rect x="70.3" class="st27" width="2.4" height="2.9"/>
	<path class="st28" d="M80.5,13.5H14.9l-1.2-2.4H1c-0.2,1.5,0.1,2.5,0.3,3.2c0.8,2,2.3,2.6,2.8,4.6c0.2,0.9,0.1,1.6,0,2
		c24.9,0,49.8,0,74.6,0c1,0,1.8-0.8,1.8-1.8L80.5,13.5L80.5,13.5z"/>
	<g>
		<rect x="30.7" y="12.5" class="st5" width="1.5" height="1"/>
		<rect x="29" y="12.5" class="st5" width="1.5" height="1"/>
		<rect x="27.3" y="12.5" class="st5" width="1.5" height="1"/>
		<rect x="32.4" y="12.5" class="st5" width="1.5" height="1"/>
		<rect x="25.7" y="12.5" class="st5" width="1.5" height="1"/>
	</g>
	<g>
		<rect x="41.1" y="12.5" class="st5" width="1.4" height="1"/>
		<rect x="39.5" y="12.5" class="st5" width="1.4" height="1"/>
		<rect x="37.9" y="12.5" class="st5" width="1.4" height="1"/>
		<rect x="42.8" y="12.5" class="st5" width="1.4" height="1"/>
		<rect x="36.2" y="12.5" class="st5" width="1.4" height="1"/>
	</g>
	<g>
		<rect x="51.6" y="12.5" class="st5" width="1.5" height="1"/>
		<rect x="49.9" y="12.5" class="st5" width="1.5" height="1"/>
		<rect x="48.3" y="12.5" class="st5" width="1.5" height="1"/>
		<rect x="53.2" y="12.5" class="st5" width="1.5" height="1"/>
		<rect x="46.6" y="12.5" class="st5" width="1.5" height="1"/>
	</g>
	<g>
		<rect x="62.1" y="12.5" class="st5" width="1.5" height="1"/>
		<rect x="60.4" y="12.5" class="st5" width="1.5" height="1"/>
		<rect x="58.8" y="12.5" class="st5" width="1.5" height="1"/>
		<rect x="63.7" y="12.5" class="st5" width="1.5" height="1"/>
		<rect x="57.1" y="12.5" class="st5" width="1.5" height="1"/>
	</g>
	<g>
		
			<linearGradient id="SVGID_24_" gradientUnits="userSpaceOnUse" x1="29.915" y1="26.9459" x2="29.915" y2="27.7859" gradientTransform="matrix(-1 0 0 -1 80.5072 32)">
			<stop  offset="0" style="stop-color:#DAA15B"/>
			<stop  offset="0.5" style="stop-color:#CC922D"/>
			<stop  offset="1" style="stop-color:#F8B04A"/>
		</linearGradient>
		<rect x="45.7" y="4.2" class="st29" width="9.7" height="0.8"/>
		<path class="st30" d="M46.2,4.9V1.5c0-0.4-0.3-0.6-0.6-0.6h-0.4c-0.3,0-0.6,0.3-0.6,0.6v3.5h-0.4v1.3h0.4v7.2h1.7V6.3h0.5V4.9
			H46.2z"/>
		<path class="st30" d="M56.8,4.9V1.5c0-0.4-0.3-0.6-0.6-0.6h-0.4c-0.3,0-0.6,0.3-0.6,0.6v3.5h-0.4v1.3h0.4v7.2h1.7V6.3h0.5V4.9
			H56.8z"/>
	</g>
	<g>
		
			<linearGradient id="SVGID_25_" gradientUnits="userSpaceOnUse" x1="50.775" y1="26.9459" x2="50.775" y2="27.7859" gradientTransform="matrix(-1 0 0 -1 80.5072 32)">
			<stop  offset="0" style="stop-color:#DAA15B"/>
			<stop  offset="0.5" style="stop-color:#CC922D"/>
			<stop  offset="1" style="stop-color:#F8B04A"/>
		</linearGradient>
		<rect x="24.9" y="4.2" class="st31" width="9.7" height="0.8"/>
		<path class="st30" d="M25.4,4.9V1.5c0-0.4-0.3-0.6-0.6-0.6h-0.4c-0.3,0-0.6,0.3-0.6,0.6v3.5h-0.4v1.3h0.4v7.2h1.7V6.3h0.5V4.9
			H25.4z"/>
		<path class="st30" d="M35.9,4.9V1.5c0-0.4-0.3-0.6-0.6-0.6h-0.4c-0.3,0-0.6,0.3-0.6,0.6v3.5h-0.4v1.3h0.4v7.2h1.7V6.3h0.5V4.9
			H35.9z"/>
	</g>
</g>
</svg>
