<?xml version="1.0" encoding="utf-8"?>
<!-- Generator: Adobe Illustrator 26.0.1, SVG Export Plug-In . SVG Version: 6.00 Build 0)  -->
<svg version="1.1" id="Layer_1" xmlns="http://www.w3.org/2000/svg" xmlns:xlink="http://www.w3.org/1999/xlink" x="0px" y="0px"
	 viewBox="0 0 80.52 30.67" style="enable-background:new 0 0 80.52 30.67;" xml:space="preserve">
<style type="text/css">
	.st0{fill:#FFFFFF;}
	.st1{fill:#1D1D1B;}
	.st2{fill:url(#SVGID_1_);}
	.st3{fill:#F8B133;}
	.st4{fill:url(#SVGID_00000150085889746969984970000012289873881834290565_);}
	.st5{fill:#366A4D;}
	.st6{fill:url(#SVGID_00000087393070186873421160000008443118772438391432_);}
	.st7{fill:url(#SVGID_00000152242188420264225260000012399141653643125162_);}
	.st8{fill:url(#SVGID_00000147940559093546275610000009069436958683848884_);}
	.st9{fill:url(#SVGID_00000075872006364809448280000009941336519082367383_);}
	.st10{fill:url(#SVGID_00000078030764645128633480000008651937602476531874_);}
	.st11{fill:url(#SVGID_00000029007227624899883320000014978718530855720320_);}
	.st12{fill:url(#SVGID_00000162314920311142040800000001237783236841624192_);}
	.st13{fill:url(#SVGID_00000158013406938565412000000000917882750373392520_);}
	.st14{fill:url(#SVGID_00000111879111591796830100000000264664323380099750_);}
	.st15{fill:url(#SVGID_00000003068370854267333350000010249518699995254441_);}
	.st16{fill:url(#SVGID_00000155838519103574759820000010766441653023416223_);}
	.st17{fill:url(#SVGID_00000127027543971884142050000005555272425181767091_);}
	.st18{fill:url(#SVGID_00000025442049528939884180000004629725494539012489_);}
	.st19{fill:url(#SVGID_00000030464985985626972470000005033256702159126916_);}
	.st20{fill:url(#SVGID_00000071519688610399207470000008537750420439052679_);}
	.st21{fill:url(#SVGID_00000026142006051246857170000007802227739586596488_);}
	.st22{fill:url(#SVGID_00000144306510603966376350000001851856129903606667_);}
	.st23{fill:url(#SVGID_00000047035547541812474940000008101368578893371015_);}
	.st24{fill:url(#SVGID_00000129909485269653858780000009755656730873268149_);}
	.st25{fill:url(#SVGID_00000034084227116922847620000007282265444964012694_);}
	.st26{fill:url(#SVGID_00000132080572011684456960000008632544775088848546_);}
	.st27{fill:#3C3C3B;}
	.st28{fill:#57986F;}
	.st29{fill:url(#SVGID_00000170991023290694387610000010174162418591918477_);}
	.st30{fill:url(#SVGID_00000174581900352908558890000014966551444147178372_);}
</style>
<g>
	<polygon class="st0" points="1.95,7.82 7.03,7.82 7.03,5.05 6.43,5.05 6.43,3.01 14.33,3.01 14.33,5.05 13.87,5.05 13.89,13.48 
		1.95,13.48 	"/>
	<g>
		<ellipse class="st1" cx="5.26" cy="27.14" rx="1.17" ry="0.93"/>
		<g>
			<path class="st1" d="M4.78,27.11c0.11,0.66,0.37,2.41-0.13,3.14c-0.09,0.13-0.33,0.48-0.5,0.42C4.07,30.63,4.02,30.52,4,30.43
				c0.13-0.27,0.26-0.59,0.36-0.97c0.26-0.97,0.18-1.82,0.09-2.34C4.56,27.12,4.67,27.11,4.78,27.11z"/>
			<path class="st1" d="M4.48,27.11c-0.11-0.66-0.37-2.41,0.13-3.14c0.09-0.13,0.33-0.48,0.5-0.42c0.08,0.03,0.12,0.14,0.15,0.23
				C5.13,24.05,5,24.37,4.9,24.75c-0.26,0.97-0.18,1.82-0.09,2.34C4.7,27.09,4.59,27.1,4.48,27.11z"/>
		</g>
	</g>
	<linearGradient id="SVGID_1_" gradientUnits="userSpaceOnUse" x1="2.4936" y1="24.965" x2="80.5184" y2="24.965">
		<stop  offset="0" style="stop-color:#888A8C"/>
		<stop  offset="0.1648" style="stop-color:#B1B0B1"/>
		<stop  offset="0.8687" style="stop-color:#B2B1B2"/>
		<stop  offset="1" style="stop-color:#8A8A8A"/>
	</linearGradient>
	<path class="st2" d="M73.92,29.04c0.89-0.04,2.53-0.26,4.1-1.38c0.7-0.5,2.33-1.66,2.48-3.5c0.02-0.28,0.13-1.61-0.62-2.14
		c-0.68-0.49-1.55,0.06-2.69-0.55c-0.36-0.19-0.61-0.42-0.75-0.57c-24.65,0-49.29,0-73.94,0c2.89,0.32,3.81,1.13,4.08,1.86
		c0.62,1.68-1.95,3.73-1.15,5.25c0.36,0.67,1.21,0.93,1.86,1.04C29.49,29.04,51.71,29.04,73.92,29.04z"/>
	<path class="st1" d="M2.37,20.91v1.27H1.22c-0.17,0-0.31,0.14-0.31,0.31v6.71h1.82c0.22,0,0.4-0.18,0.4-0.4
		c0.03-2.04,0.07-4.08,0.1-6.11c0.01-0.32,0.13-0.96,0.28-1.24l0.4-0.55L2.37,20.91z"/>
	<line class="st3" x1="25.41" y1="4.92" x2="25.41" y2="6.26"/>
	
		<linearGradient id="SVGID_00000024000694797962058090000000630451805979216286_" gradientUnits="userSpaceOnUse" x1="4.2167" y1="12.0526" x2="4.2167" y2="8.3784">
		<stop  offset="0" style="stop-color:#FFFFFF"/>
		<stop  offset="1" style="stop-color:#6F6F6E"/>
	</linearGradient>
	
		<rect x="2.36" y="8.38" style="fill:url(#SVGID_00000024000694797962058090000000630451805979216286_);" width="3.72" height="3.67"/>
	<g>
		<rect x="59.07" y="12.53" class="st5" width="1.61" height="1.03"/>
		<rect x="60.89" y="12.53" class="st5" width="1.61" height="1.03"/>
		<rect x="62.72" y="12.53" class="st5" width="1.61" height="1.03"/>
		<rect x="57.24" y="12.53" class="st5" width="1.61" height="1.03"/>
		<rect x="64.54" y="12.53" class="st5" width="1.61" height="1.03"/>
	</g>
	<g>
		<g>
			
				<linearGradient id="SVGID_00000139282185960052346590000016840583054952206765_" gradientUnits="userSpaceOnUse" x1="8.0598" y1="7.9703" x2="8.0598" y2="7.0652">
				<stop  offset="0" style="stop-color:#FFFFFF"/>
				<stop  offset="1" style="stop-color:#6F6F6E"/>
			</linearGradient>
			
				<rect x="7.65" y="7.07" style="fill:url(#SVGID_00000139282185960052346590000016840583054952206765_);" width="0.81" height="0.91"/>
			
				<linearGradient id="SVGID_00000162348632719917877610000001119509221674117805_" gradientUnits="userSpaceOnUse" x1="9.2969" y1="7.9703" x2="9.2969" y2="7.0652">
				<stop  offset="0" style="stop-color:#FFFFFF"/>
				<stop  offset="1" style="stop-color:#6F6F6E"/>
			</linearGradient>
			
				<rect x="8.89" y="7.07" style="fill:url(#SVGID_00000162348632719917877610000001119509221674117805_);" width="0.81" height="0.91"/>
			
				<linearGradient id="SVGID_00000128460184522015699090000016965031849975246214_" gradientUnits="userSpaceOnUse" x1="10.534" y1="7.9703" x2="10.534" y2="7.0652">
				<stop  offset="0" style="stop-color:#FFFFFF"/>
				<stop  offset="1" style="stop-color:#6F6F6E"/>
			</linearGradient>
			
				<rect x="10.13" y="7.07" style="fill:url(#SVGID_00000128460184522015699090000016965031849975246214_);" width="0.81" height="0.91"/>
			
				<linearGradient id="SVGID_00000141430752959656679400000012157608084226419609_" gradientUnits="userSpaceOnUse" x1="11.7712" y1="7.9703" x2="11.7712" y2="7.0652">
				<stop  offset="0" style="stop-color:#FFFFFF"/>
				<stop  offset="1" style="stop-color:#6F6F6E"/>
			</linearGradient>
			
				<rect x="11.37" y="7.07" style="fill:url(#SVGID_00000141430752959656679400000012157608084226419609_);" width="0.81" height="0.91"/>
			
				<linearGradient id="SVGID_00000148625077460964780380000014660276911829955981_" gradientUnits="userSpaceOnUse" x1="13.0083" y1="7.9703" x2="13.0083" y2="7.0652">
				<stop  offset="0" style="stop-color:#FFFFFF"/>
				<stop  offset="1" style="stop-color:#6F6F6E"/>
			</linearGradient>
			
				<rect x="12.6" y="7.07" style="fill:url(#SVGID_00000148625077460964780380000014660276911829955981_);" width="0.81" height="0.91"/>
		</g>
		<g>
			
				<linearGradient id="SVGID_00000153686150197142628470000009054319473922815875_" gradientUnits="userSpaceOnUse" x1="8.0598" y1="9.2568" x2="8.0598" y2="8.3516">
				<stop  offset="0" style="stop-color:#FFFFFF"/>
				<stop  offset="1" style="stop-color:#6F6F6E"/>
			</linearGradient>
			
				<rect x="7.65" y="8.35" style="fill:url(#SVGID_00000153686150197142628470000009054319473922815875_);" width="0.81" height="0.91"/>
			
				<linearGradient id="SVGID_00000039830836348450176540000008675630721920502940_" gradientUnits="userSpaceOnUse" x1="9.2969" y1="9.2568" x2="9.2969" y2="8.3516">
				<stop  offset="0" style="stop-color:#FFFFFF"/>
				<stop  offset="1" style="stop-color:#6F6F6E"/>
			</linearGradient>
			
				<rect x="8.89" y="8.35" style="fill:url(#SVGID_00000039830836348450176540000008675630721920502940_);" width="0.81" height="0.91"/>
			
				<linearGradient id="SVGID_00000052091267468185365350000013685270104812442522_" gradientUnits="userSpaceOnUse" x1="10.534" y1="9.2568" x2="10.534" y2="8.3516">
				<stop  offset="0" style="stop-color:#FFFFFF"/>
				<stop  offset="1" style="stop-color:#6F6F6E"/>
			</linearGradient>
			
				<rect x="10.13" y="8.35" style="fill:url(#SVGID_00000052091267468185365350000013685270104812442522_);" width="0.81" height="0.91"/>
			
				<linearGradient id="SVGID_00000124855946980972563540000012132571556962408123_" gradientUnits="userSpaceOnUse" x1="11.7712" y1="9.2568" x2="11.7712" y2="8.3516">
				<stop  offset="0" style="stop-color:#FFFFFF"/>
				<stop  offset="1" style="stop-color:#6F6F6E"/>
			</linearGradient>
			
				<rect x="11.37" y="8.35" style="fill:url(#SVGID_00000124855946980972563540000012132571556962408123_);" width="0.81" height="0.91"/>
			
				<linearGradient id="SVGID_00000054975359032544769020000004386264137773310849_" gradientUnits="userSpaceOnUse" x1="13.0083" y1="9.2568" x2="13.0083" y2="8.3516">
				<stop  offset="0" style="stop-color:#FFFFFF"/>
				<stop  offset="1" style="stop-color:#6F6F6E"/>
			</linearGradient>
			
				<rect x="12.6" y="8.35" style="fill:url(#SVGID_00000054975359032544769020000004386264137773310849_);" width="0.81" height="0.91"/>
		</g>
		<g>
			
				<linearGradient id="SVGID_00000132805769203692351300000009887219763283709874_" gradientUnits="userSpaceOnUse" x1="8.0598" y1="10.6951" x2="8.0598" y2="9.7899">
				<stop  offset="0" style="stop-color:#FFFFFF"/>
				<stop  offset="1" style="stop-color:#6F6F6E"/>
			</linearGradient>
			
				<rect x="7.65" y="9.79" style="fill:url(#SVGID_00000132805769203692351300000009887219763283709874_);" width="0.81" height="0.91"/>
			
				<linearGradient id="SVGID_00000142892997769892943120000003991373444382720695_" gradientUnits="userSpaceOnUse" x1="9.2969" y1="10.6951" x2="9.2969" y2="9.7899">
				<stop  offset="0" style="stop-color:#FFFFFF"/>
				<stop  offset="1" style="stop-color:#6F6F6E"/>
			</linearGradient>
			
				<rect x="8.89" y="9.79" style="fill:url(#SVGID_00000142892997769892943120000003991373444382720695_);" width="0.81" height="0.91"/>
			
				<linearGradient id="SVGID_00000149365273278601995780000014524848837383277488_" gradientUnits="userSpaceOnUse" x1="10.534" y1="10.6951" x2="10.534" y2="9.7899">
				<stop  offset="0" style="stop-color:#FFFFFF"/>
				<stop  offset="1" style="stop-color:#6F6F6E"/>
			</linearGradient>
			
				<rect x="10.13" y="9.79" style="fill:url(#SVGID_00000149365273278601995780000014524848837383277488_);" width="0.81" height="0.91"/>
			
				<linearGradient id="SVGID_00000073682797440375195390000007726663975245879474_" gradientUnits="userSpaceOnUse" x1="11.7712" y1="10.6951" x2="11.7712" y2="9.7899">
				<stop  offset="0" style="stop-color:#FFFFFF"/>
				<stop  offset="1" style="stop-color:#6F6F6E"/>
			</linearGradient>
			
				<rect x="11.37" y="9.79" style="fill:url(#SVGID_00000073682797440375195390000007726663975245879474_);" width="0.81" height="0.91"/>
			
				<linearGradient id="SVGID_00000130624518712555317120000010386177933655467700_" gradientUnits="userSpaceOnUse" x1="13.0083" y1="10.6951" x2="13.0083" y2="9.7899">
				<stop  offset="0" style="stop-color:#FFFFFF"/>
				<stop  offset="1" style="stop-color:#6F6F6E"/>
			</linearGradient>
			
				<rect x="12.6" y="9.79" style="fill:url(#SVGID_00000130624518712555317120000010386177933655467700_);" width="0.81" height="0.91"/>
		</g>
		<g>
			
				<linearGradient id="SVGID_00000036941955189029214880000011660510088247264936_" gradientUnits="userSpaceOnUse" x1="8.0598" y1="12.0526" x2="8.0598" y2="11.1474">
				<stop  offset="0" style="stop-color:#FFFFFF"/>
				<stop  offset="1" style="stop-color:#6F6F6E"/>
			</linearGradient>
			
				<rect x="7.65" y="11.15" style="fill:url(#SVGID_00000036941955189029214880000011660510088247264936_);" width="0.81" height="0.91"/>
			
				<linearGradient id="SVGID_00000022537474165723400770000013774142183574689456_" gradientUnits="userSpaceOnUse" x1="9.2969" y1="12.0526" x2="9.2969" y2="11.1474">
				<stop  offset="0" style="stop-color:#FFFFFF"/>
				<stop  offset="1" style="stop-color:#6F6F6E"/>
			</linearGradient>
			
				<rect x="8.89" y="11.15" style="fill:url(#SVGID_00000022537474165723400770000013774142183574689456_);" width="0.81" height="0.91"/>
			
				<linearGradient id="SVGID_00000147905635962944062960000012635345338363614911_" gradientUnits="userSpaceOnUse" x1="10.534" y1="12.0526" x2="10.534" y2="11.1474">
				<stop  offset="0" style="stop-color:#FFFFFF"/>
				<stop  offset="1" style="stop-color:#6F6F6E"/>
			</linearGradient>
			
				<rect x="10.13" y="11.15" style="fill:url(#SVGID_00000147905635962944062960000012635345338363614911_);" width="0.81" height="0.91"/>
			
				<linearGradient id="SVGID_00000057108368441160582680000012709949536043538870_" gradientUnits="userSpaceOnUse" x1="11.7712" y1="12.0526" x2="11.7712" y2="11.1474">
				<stop  offset="0" style="stop-color:#FFFFFF"/>
				<stop  offset="1" style="stop-color:#6F6F6E"/>
			</linearGradient>
			
				<rect x="11.37" y="11.15" style="fill:url(#SVGID_00000057108368441160582680000012709949536043538870_);" width="0.81" height="0.91"/>
			
				<linearGradient id="SVGID_00000074415225156980738690000013373452872076802992_" gradientUnits="userSpaceOnUse" x1="13.0083" y1="12.0526" x2="13.0083" y2="11.1474">
				<stop  offset="0" style="stop-color:#FFFFFF"/>
				<stop  offset="1" style="stop-color:#6F6F6E"/>
			</linearGradient>
			
				<rect x="12.6" y="11.15" style="fill:url(#SVGID_00000074415225156980738690000013373452872076802992_);" width="0.81" height="0.91"/>
		</g>
	</g>
	
		<linearGradient id="SVGID_00000054264599937881081170000012246160531836886924_" gradientUnits="userSpaceOnUse" x1="10.4537" y1="6.7643" x2="10.4537" y2="5.0509">
		<stop  offset="0" style="stop-color:#FFFFFF"/>
		<stop  offset="1" style="stop-color:#C3C4C6"/>
	</linearGradient>
	
		<rect x="7.17" y="5.05" style="fill:url(#SVGID_00000054264599937881081170000012246160531836886924_);" width="6.58" height="1.71"/>
	<rect x="7.8" class="st27" width="2.42" height="2.89"/>
	<path class="st28" d="M0,13.48h65.58l1.22-2.37h12.69c0.21,1.48-0.05,2.51-0.3,3.16c-0.77,2-2.35,2.57-2.78,4.59
		c-0.18,0.85-0.08,1.59,0.02,2.04c-24.88,0-49.76,0-74.64,0c-0.99,0-1.8-0.8-1.8-1.8V13.48z"/>
	<g>
		<rect x="48.34" y="12.53" class="st5" width="1.47" height="1.03"/>
		<rect x="50.01" y="12.53" class="st5" width="1.47" height="1.03"/>
		<rect x="51.69" y="12.53" class="st5" width="1.47" height="1.03"/>
		<rect x="46.67" y="12.53" class="st5" width="1.47" height="1.03"/>
		<rect x="53.36" y="12.53" class="st5" width="1.47" height="1.03"/>
	</g>
	<g>
		<rect x="37.93" y="12.53" class="st5" width="1.44" height="1.03"/>
		<rect x="39.57" y="12.53" class="st5" width="1.44" height="1.03"/>
		<rect x="41.21" y="12.53" class="st5" width="1.44" height="1.03"/>
		<rect x="36.29" y="12.53" class="st5" width="1.44" height="1.03"/>
		<rect x="42.85" y="12.53" class="st5" width="1.44" height="1.03"/>
	</g>
	<g>
		<rect x="27.47" y="12.53" class="st5" width="1.46" height="1.03"/>
		<rect x="29.13" y="12.53" class="st5" width="1.46" height="1.03"/>
		<rect x="30.79" y="12.53" class="st5" width="1.46" height="1.03"/>
		<rect x="25.81" y="12.53" class="st5" width="1.46" height="1.03"/>
		<rect x="32.45" y="12.53" class="st5" width="1.46" height="1.03"/>
	</g>
	<g>
		<rect x="16.96" y="12.49" class="st5" width="1.46" height="1.03"/>
		<rect x="18.61" y="12.49" class="st5" width="1.46" height="1.03"/>
		<rect x="20.27" y="12.49" class="st5" width="1.46" height="1.03"/>
		<rect x="15.3" y="12.49" class="st5" width="1.46" height="1.03"/>
		<rect x="21.93" y="12.49" class="st5" width="1.46" height="1.03"/>
	</g>
	<g>
		
			<linearGradient id="SVGID_00000083077557747453205280000013841459590845011109_" gradientUnits="userSpaceOnUse" x1="29.914" y1="5.0541" x2="29.914" y2="4.2134">
			<stop  offset="0" style="stop-color:#DAA15B"/>
			<stop  offset="0.5" style="stop-color:#CC922D"/>
			<stop  offset="1" style="stop-color:#F8B04A"/>
		</linearGradient>
		
			<rect x="25.05" y="4.21" style="fill:url(#SVGID_00000083077557747453205280000013841459590845011109_);" width="9.73" height="0.84"/>
		<path class="st3" d="M34.26,4.92V1.47c0-0.35,0.29-0.64,0.64-0.64h0.4c0.35,0,0.64,0.29,0.64,0.64v3.45l0.4,0v1.34l-0.4,0v7.22
			h-1.68V6.26h-0.48V4.92L34.26,4.92z"/>
		<path class="st3" d="M23.73,4.92V1.47c0-0.35,0.29-0.64,0.64-0.64h0.4c0.35,0,0.64,0.29,0.64,0.64v3.45l0.4,0v1.34l-0.4,0v7.22
			h-1.68V6.26h-0.48V4.92L23.73,4.92z"/>
	</g>
	<g>
		
			<linearGradient id="SVGID_00000018958509533248320980000001535986753109913740_" gradientUnits="userSpaceOnUse" x1="50.7754" y1="5.0541" x2="50.7754" y2="4.2134">
			<stop  offset="0" style="stop-color:#DAA15B"/>
			<stop  offset="0.5" style="stop-color:#CC922D"/>
			<stop  offset="1" style="stop-color:#F8B04A"/>
		</linearGradient>
		
			<rect x="45.91" y="4.21" style="fill:url(#SVGID_00000018958509533248320980000001535986753109913740_);" width="9.73" height="0.84"/>
		<path class="st3" d="M55.12,4.92V1.47c0-0.35,0.29-0.64,0.64-0.64h0.4c0.35,0,0.64,0.29,0.64,0.64v3.45l0.4,0v1.34l-0.4,0v7.22
			h-1.68V6.26h-0.48V4.92L55.12,4.92z"/>
		<path class="st3" d="M44.59,4.92V1.47c0-0.35,0.29-0.64,0.64-0.64h0.4c0.35,0,0.64,0.29,0.64,0.64v3.45l0.4,0v1.34l-0.4,0v7.22
			h-1.68V6.26h-0.48V4.92L44.59,4.92z"/>
	</g>
</g>
</svg>
