<?xml version="1.0" encoding="utf-8"?>
<!-- Generator: Adobe Illustrator 26.0.1, SVG Export Plug-In . SVG Version: 6.00 Build 0)  -->
<svg version="1.1" id="Layer_1" xmlns="http://www.w3.org/2000/svg" xmlns:xlink="http://www.w3.org/1999/xlink" x="0px" y="0px"
	 viewBox="0 0 80.55 33.41" style="enable-background:new 0 0 80.55 33.41;" xml:space="preserve">
<style type="text/css">
	.st0{fill:#6F6F6E;}
	.st1{fill:#6F6F6E;stroke:#6F6F6E;stroke-width:0.5;stroke-miterlimit:10;}
	.st2{fill:#1D1D1B;}
	.st3{fill:url(#SVGID_1_);}
	.st4{fill:#FBFBFB;}
	.st5{fill:url(#SVGID_00000052822529858415844900000012972168418240096921_);}
	.st6{fill:url(#SVGID_00000056393828867958219930000012925429629739477411_);}
	.st7{fill:url(#SVGID_00000056406481537978662530000000944843832129529021_);}
	.st8{fill:url(#SVGID_00000027579030720461862330000013049494330593189043_);}
	.st9{fill:url(#SVGID_00000133514274294364197820000009770203770600035490_);}
	.st10{fill:url(#SVGID_00000005948516303403069470000018012908328559108003_);}
	.st11{fill:url(#SVGID_00000098930461994021024960000002826900320164454559_);}
	.st12{fill:url(#SVGID_00000021823838526668677840000015877026682899555969_);}
	.st13{fill:url(#SVGID_00000133526221919248166170000007709768668150731938_);}
	.st14{fill:url(#SVGID_00000020397671789895166680000014387498100939047324_);}
	.st15{fill:url(#SVGID_00000005973932927058752690000012358627181148221630_);}
	.st16{fill:url(#SVGID_00000155860835513494084430000003229884440274170782_);}
	.st17{fill:url(#SVGID_00000065073282361959028000000004910687395721720721_);}
	.st18{fill:url(#SVGID_00000020376485662983197550000012447645175628714679_);}
	.st19{fill:url(#SVGID_00000024691275377269264470000001667488983580790146_);}
	.st20{fill:url(#SVGID_00000163045473869862673150000007500383219802583481_);}
	.st21{fill:url(#SVGID_00000103250752433346012790000000839422477645503391_);}
	.st22{fill:url(#SVGID_00000161600162908554266630000014640789900453676968_);}
	.st23{fill:url(#SVGID_00000072248416668029341500000000601029493410228658_);}
	.st24{fill:url(#SVGID_00000082359866530213975380000014755387892974520479_);}
	.st25{fill:url(#SVGID_00000058583918485442867370000015653796348225949080_);}
	.st26{fill:url(#SVGID_00000178183908982892000340000008998439630947918469_);}
	.st27{fill:url(#SVGID_00000160168105630866976980000005356378295351038117_);}
	.st28{fill:url(#SVGID_00000013153818531979973620000005937024923198645130_);}
</style>
<g>
	<path class="st0" d="M13.05,5.74h-0.5v-5.5c0-0.13,0.11-0.24,0.24-0.24h0.01c0.14,0,0.26,0.12,0.26,0.26V5.74z"/>
	<g>
		<path class="st0" d="M76.87,16.18h-0.5V9.06c0-0.13,0.11-0.24,0.24-0.24h0.01c0.14,0,0.26,0.12,0.26,0.26V16.18z"/>
		<rect x="76.13" y="14.6" class="st0" width="0.97" height="1.59"/>
	</g>
	<rect x="56.55" y="15.03" class="st0" width="3.44" height="3.44"/>
	<path class="st0" d="M50.37,18.46h-0.92v-7.93c0-0.26,0.21-0.47,0.47-0.47l0,0c0.25,0,0.45,0.2,0.45,0.45V18.46z"/>
	<g>
		<path class="st0" d="M40.25,18.65h-1.11v-6.42c0-0.26,0.21-0.47,0.47-0.47h0.19c0.25,0,0.45,0.2,0.45,0.45V18.65z"/>
		<ellipse class="st0" cx="39.69" cy="13.84" rx="0.92" ry="0.67"/>
		<polygon class="st0" points="40.61,12.71 27.18,12.71 27.33,12.06 35.46,11.13 40.45,11.13 		"/>
		<line class="st1" x1="36.38" y1="12.38" x2="39.47" y2="15.95"/>
	</g>
	<path class="st2" d="M1.84,24.18v9.24h1.89c0.15,0,0.28-0.12,0.29-0.28l0.25-8.04L1.84,24.18z"/>
	<g>
		<ellipse class="st2" cx="5.33" cy="30.9" rx="0.68" ry="0.54"/>
		<g>
			<path class="st2" d="M5.06,30.88c0.07,0.38,0.21,1.39-0.07,1.81c-0.05,0.08-0.19,0.28-0.29,0.24c-0.05-0.02-0.07-0.08-0.08-0.13
				c0.08-0.15,0.15-0.34,0.21-0.56c0.15-0.56,0.11-1.05,0.05-1.35C4.93,30.88,5,30.88,5.06,30.88z"/>
			<path class="st2" d="M4.89,30.88c-0.07-0.38-0.21-1.39,0.07-1.81c0.05-0.08,0.19-0.28,0.29-0.24c0.05,0.02,0.07,0.08,0.08,0.13
				c-0.08,0.15-0.15,0.34-0.21,0.56c-0.15,0.56-0.11,1.05-0.05,1.35C5.01,30.87,4.95,30.88,4.89,30.88z"/>
		</g>
	</g>
	<linearGradient id="SVGID_1_" gradientUnits="userSpaceOnUse" x1="0.741" y1="27.8577" x2="80.1514" y2="27.8577">
		<stop  offset="0" style="stop-color:#4E1419"/>
		<stop  offset="0.3671" style="stop-color:#872B36"/>
		<stop  offset="0.7552" style="stop-color:#903039"/>
		<stop  offset="1" style="stop-color:#631E28"/>
	</linearGradient>
	<path class="st3" d="M7.78,33.29h66.3c4.13-1.71,6.48-5.07,6.01-7.93c-0.1-0.58-0.4-1.73-1.65-2.94c-25.9,0-51.8,0-77.7,0
		c0.63,1.53,1.42,2.14,2.05,2.41c1.05,0.44,1.86,0.01,2.76,0.71c0.1,0.08,0.86,0.68,0.97,1.62c0.13,1.08-0.74,1.4-1.01,3.02
		c-0.09,0.56-0.21,1.26,0.15,1.91C6.22,33.09,7.53,33.26,7.78,33.29z"/>
	<rect x="38.42" y="17.19" class="st4" width="0.48" height="1.31"/>
	<rect x="40.46" y="17.19" class="st4" width="0.48" height="1.31"/>
	<rect x="42.5" y="17.19" class="st4" width="0.47" height="1.31"/>
	<rect x="44.53" y="17.19" class="st4" width="0.47" height="1.31"/>
	<rect x="46.57" y="17.19" class="st4" width="0.47" height="1.31"/>
	<rect x="48.6" y="17.19" class="st4" width="0.47" height="1.31"/>
	<rect x="50.63" y="17.19" class="st4" width="0.47" height="1.31"/>
	<rect x="52.66" y="17.19" class="st4" width="0.47" height="1.31"/>
	<rect x="15.95" y="16.63" class="st4" width="56.81" height="0.56"/>
	<rect x="18.07" y="17.19" class="st4" width="0.48" height="1.31"/>
	<rect x="20.11" y="17.19" class="st4" width="0.48" height="1.31"/>
	<rect x="22.16" y="17.19" class="st4" width="0.47" height="1.31"/>
	<rect x="24.19" y="17.19" class="st4" width="0.47" height="1.31"/>
	<rect x="26.22" y="17.19" class="st4" width="0.47" height="1.31"/>
	<rect x="28.26" y="17.19" class="st4" width="0.47" height="1.31"/>
	<rect x="30.29" y="17.19" class="st4" width="0.47" height="1.31"/>
	<rect x="32.32" y="17.19" class="st4" width="0.47" height="1.31"/>
	<rect x="34.35" y="17.19" class="st4" width="0.47" height="1.31"/>
	<rect x="36.38" y="17.19" class="st4" width="0.47" height="1.31"/>
	<rect x="58.76" y="17.19" class="st4" width="0.48" height="1.31"/>
	<rect x="60.8" y="17.19" class="st4" width="0.48" height="1.31"/>
	<rect x="62.84" y="17.19" class="st4" width="0.47" height="1.31"/>
	<rect x="64.88" y="17.19" class="st4" width="0.47" height="1.31"/>
	<rect x="54.7" y="17.19" class="st4" width="0.47" height="1.31"/>
	<rect x="56.73" y="17.19" class="st4" width="0.47" height="1.31"/>
	<rect x="66.89" y="17.16" class="st4" width="0.48" height="1.31"/>
	<rect x="68.93" y="17.16" class="st4" width="0.47" height="1.31"/>
	<rect x="70.96" y="17.16" class="st4" width="0.47" height="1.31"/>
	<path class="st2" d="M0.03,18.5H68.2c0.55-0.01,1.56-0.11,2.67-0.67c1.05-0.53,1.71-1.23,2.05-1.65c2.55,0,5.11,0,7.66,0
		c-0.9,1.45-1.73,3.28-2.05,5.48c-0.04,0.26-0.07,0.51-0.09,0.76c-25.9,0-51.8,0-77.7,0c-0.21-0.44-0.45-1.05-0.59-1.78
		C-0.02,19.78-0.02,19.04,0.03,18.5z"/>
	<g>
		<rect x="10.63" y="5.73" class="st4" width="5.32" height="12.77"/>
		<rect x="5.07" y="9.95" class="st4" width="5.56" height="8.55"/>
		<rect x="8.97" y="7.42" class="st4" width="7.37" height="0.5"/>
		<rect x="8.94" y="15.65" class="st4" width="7.37" height="0.5"/>
		<rect x="4.66" y="9.95" class="st4" width="7.37" height="0.5"/>
		<rect x="9.35" y="7.67" class="st4" width="2.67" height="4.08"/>
	</g>
	<polygon class="st2" points="5.55,9.95 6.4,4.76 8.71,4.76 8.71,9.95 	"/>
	
		<linearGradient id="SVGID_00000007425899302439461100000008662431130748576431_" gradientUnits="userSpaceOnUse" x1="7.2193" y1="8.8397" x2="7.2193" y2="5.8794">
		<stop  offset="0" style="stop-color:#4E1419"/>
		<stop  offset="0.3671" style="stop-color:#872B36"/>
		<stop  offset="0.7552" style="stop-color:#903039"/>
		<stop  offset="1" style="stop-color:#631E28"/>
	</linearGradient>
	<polygon style="fill:url(#SVGID_00000007425899302439461100000008662431130748576431_);" points="6.22,5.88 8.71,5.88 8.71,8.84 
		5.73,8.84 	"/>
	<g>
		<g>
			
				<linearGradient id="SVGID_00000160161773600455745920000003038764688157201824_" gradientUnits="userSpaceOnUse" x1="10.2998" y1="9.7354" x2="10.2998" y2="9.0594">
				<stop  offset="0" style="stop-color:#FFFFFF"/>
				<stop  offset="1" style="stop-color:#6F6F6E"/>
			</linearGradient>
			
				<rect x="9.97" y="9.06" style="fill:url(#SVGID_00000160161773600455745920000003038764688157201824_);" width="0.67" height="0.68"/>
			
				<linearGradient id="SVGID_00000152256419481398511850000016870694497080324748_" gradientUnits="userSpaceOnUse" x1="11.3196" y1="9.7354" x2="11.3196" y2="9.0594">
				<stop  offset="0" style="stop-color:#FFFFFF"/>
				<stop  offset="1" style="stop-color:#6F6F6E"/>
			</linearGradient>
			
				<rect x="10.99" y="9.06" style="fill:url(#SVGID_00000152256419481398511850000016870694497080324748_);" width="0.67" height="0.68"/>
			
				<linearGradient id="SVGID_00000173156155566685960810000013258818103844678842_" gradientUnits="userSpaceOnUse" x1="12.3394" y1="9.7354" x2="12.3394" y2="9.0594">
				<stop  offset="0" style="stop-color:#FFFFFF"/>
				<stop  offset="1" style="stop-color:#6F6F6E"/>
			</linearGradient>
			
				<rect x="12" y="9.06" style="fill:url(#SVGID_00000173156155566685960810000013258818103844678842_);" width="0.67" height="0.68"/>
			
				<linearGradient id="SVGID_00000174586745489113080830000005711327557816797348_" gradientUnits="userSpaceOnUse" x1="13.3592" y1="9.7354" x2="13.3592" y2="9.0594">
				<stop  offset="0" style="stop-color:#FFFFFF"/>
				<stop  offset="1" style="stop-color:#6F6F6E"/>
			</linearGradient>
			
				<rect x="13.02" y="9.06" style="fill:url(#SVGID_00000174586745489113080830000005711327557816797348_);" width="0.67" height="0.68"/>
			
				<linearGradient id="SVGID_00000152963955518402151250000013878227130583049881_" gradientUnits="userSpaceOnUse" x1="14.379" y1="9.7354" x2="14.379" y2="9.0594">
				<stop  offset="0" style="stop-color:#FFFFFF"/>
				<stop  offset="1" style="stop-color:#6F6F6E"/>
			</linearGradient>
			
				<rect x="14.04" y="9.06" style="fill:url(#SVGID_00000152963955518402151250000013878227130583049881_);" width="0.67" height="0.68"/>
		</g>
		<g>
			
				<linearGradient id="SVGID_00000107568294212778753390000010506721493046453659_" gradientUnits="userSpaceOnUse" x1="10.2998" y1="10.6962" x2="10.2998" y2="10.0202">
				<stop  offset="0" style="stop-color:#FFFFFF"/>
				<stop  offset="1" style="stop-color:#6F6F6E"/>
			</linearGradient>
			
				<rect x="9.97" y="10.02" style="fill:url(#SVGID_00000107568294212778753390000010506721493046453659_);" width="0.67" height="0.68"/>
			
				<linearGradient id="SVGID_00000001664028698132507620000005618713133979059357_" gradientUnits="userSpaceOnUse" x1="11.3196" y1="10.6962" x2="11.3196" y2="10.0202">
				<stop  offset="0" style="stop-color:#FFFFFF"/>
				<stop  offset="1" style="stop-color:#6F6F6E"/>
			</linearGradient>
			
				<rect x="10.99" y="10.02" style="fill:url(#SVGID_00000001664028698132507620000005618713133979059357_);" width="0.67" height="0.68"/>
			
				<linearGradient id="SVGID_00000016036075936993801230000004348407216407482767_" gradientUnits="userSpaceOnUse" x1="12.3394" y1="10.6962" x2="12.3394" y2="10.0202">
				<stop  offset="0" style="stop-color:#FFFFFF"/>
				<stop  offset="1" style="stop-color:#6F6F6E"/>
			</linearGradient>
			
				<rect x="12" y="10.02" style="fill:url(#SVGID_00000016036075936993801230000004348407216407482767_);" width="0.67" height="0.68"/>
			
				<linearGradient id="SVGID_00000026153538313616056450000016618211300978989242_" gradientUnits="userSpaceOnUse" x1="13.3592" y1="10.6962" x2="13.3592" y2="10.0202">
				<stop  offset="0" style="stop-color:#FFFFFF"/>
				<stop  offset="1" style="stop-color:#6F6F6E"/>
			</linearGradient>
			
				<rect x="13.02" y="10.02" style="fill:url(#SVGID_00000026153538313616056450000016618211300978989242_);" width="0.67" height="0.68"/>
			
				<linearGradient id="SVGID_00000114054216224099717250000006070125080124188303_" gradientUnits="userSpaceOnUse" x1="14.379" y1="10.6962" x2="14.379" y2="10.0202">
				<stop  offset="0" style="stop-color:#FFFFFF"/>
				<stop  offset="1" style="stop-color:#6F6F6E"/>
			</linearGradient>
			
				<rect x="14.04" y="10.02" style="fill:url(#SVGID_00000114054216224099717250000006070125080124188303_);" width="0.67" height="0.68"/>
		</g>
		<g>
			
				<linearGradient id="SVGID_00000163066486359381107360000005884204583504203154_" gradientUnits="userSpaceOnUse" x1="10.2998" y1="11.7704" x2="10.2998" y2="11.0944">
				<stop  offset="0" style="stop-color:#FFFFFF"/>
				<stop  offset="1" style="stop-color:#6F6F6E"/>
			</linearGradient>
			
				<rect x="9.97" y="11.09" style="fill:url(#SVGID_00000163066486359381107360000005884204583504203154_);" width="0.67" height="0.68"/>
			
				<linearGradient id="SVGID_00000003092226461114213780000016944861089392460161_" gradientUnits="userSpaceOnUse" x1="11.3196" y1="11.7704" x2="11.3196" y2="11.0944">
				<stop  offset="0" style="stop-color:#FFFFFF"/>
				<stop  offset="1" style="stop-color:#6F6F6E"/>
			</linearGradient>
			
				<rect x="10.99" y="11.09" style="fill:url(#SVGID_00000003092226461114213780000016944861089392460161_);" width="0.67" height="0.68"/>
			
				<linearGradient id="SVGID_00000176027490134898051020000010137680353061319562_" gradientUnits="userSpaceOnUse" x1="12.3394" y1="11.7704" x2="12.3394" y2="11.0944">
				<stop  offset="0" style="stop-color:#FFFFFF"/>
				<stop  offset="1" style="stop-color:#6F6F6E"/>
			</linearGradient>
			
				<rect x="12" y="11.09" style="fill:url(#SVGID_00000176027490134898051020000010137680353061319562_);" width="0.67" height="0.68"/>
			
				<linearGradient id="SVGID_00000125560940251330136720000018293698086874914944_" gradientUnits="userSpaceOnUse" x1="13.3592" y1="11.7704" x2="13.3592" y2="11.0944">
				<stop  offset="0" style="stop-color:#FFFFFF"/>
				<stop  offset="1" style="stop-color:#6F6F6E"/>
			</linearGradient>
			
				<rect x="13.02" y="11.09" style="fill:url(#SVGID_00000125560940251330136720000018293698086874914944_);" width="0.67" height="0.68"/>
			
				<linearGradient id="SVGID_00000078728674992415548390000001105473700607977639_" gradientUnits="userSpaceOnUse" x1="14.379" y1="11.7704" x2="14.379" y2="11.0944">
				<stop  offset="0" style="stop-color:#FFFFFF"/>
				<stop  offset="1" style="stop-color:#6F6F6E"/>
			</linearGradient>
			
				<rect x="14.04" y="11.09" style="fill:url(#SVGID_00000078728674992415548390000001105473700607977639_);" width="0.67" height="0.68"/>
		</g>
		<g>
			
				<linearGradient id="SVGID_00000125604407286135331270000013021339197833807507_" gradientUnits="userSpaceOnUse" x1="10.2998" y1="12.7843" x2="10.2998" y2="12.1082">
				<stop  offset="0" style="stop-color:#FFFFFF"/>
				<stop  offset="1" style="stop-color:#6F6F6E"/>
			</linearGradient>
			
				<rect x="9.97" y="12.11" style="fill:url(#SVGID_00000125604407286135331270000013021339197833807507_);" width="0.67" height="0.68"/>
			
				<linearGradient id="SVGID_00000027577007615358694010000016388898700439137425_" gradientUnits="userSpaceOnUse" x1="11.3196" y1="12.7843" x2="11.3196" y2="12.1082">
				<stop  offset="0" style="stop-color:#FFFFFF"/>
				<stop  offset="1" style="stop-color:#6F6F6E"/>
			</linearGradient>
			
				<rect x="10.99" y="12.11" style="fill:url(#SVGID_00000027577007615358694010000016388898700439137425_);" width="0.67" height="0.68"/>
			
				<linearGradient id="SVGID_00000130634526596376861590000007675100313956323203_" gradientUnits="userSpaceOnUse" x1="12.3394" y1="12.7843" x2="12.3394" y2="12.1082">
				<stop  offset="0" style="stop-color:#FFFFFF"/>
				<stop  offset="1" style="stop-color:#6F6F6E"/>
			</linearGradient>
			
				<rect x="12" y="12.11" style="fill:url(#SVGID_00000130634526596376861590000007675100313956323203_);" width="0.67" height="0.68"/>
			
				<linearGradient id="SVGID_00000025430550944477770070000009292798037749464202_" gradientUnits="userSpaceOnUse" x1="13.3592" y1="12.7843" x2="13.3592" y2="12.1082">
				<stop  offset="0" style="stop-color:#FFFFFF"/>
				<stop  offset="1" style="stop-color:#6F6F6E"/>
			</linearGradient>
			
				<rect x="13.02" y="12.11" style="fill:url(#SVGID_00000025430550944477770070000009292798037749464202_);" width="0.67" height="0.68"/>
			
				<linearGradient id="SVGID_00000065067166189956760690000000734239547290236860_" gradientUnits="userSpaceOnUse" x1="14.379" y1="12.7843" x2="14.379" y2="12.1082">
				<stop  offset="0" style="stop-color:#FFFFFF"/>
				<stop  offset="1" style="stop-color:#6F6F6E"/>
			</linearGradient>
			
				<rect x="14.04" y="12.11" style="fill:url(#SVGID_00000065067166189956760690000000734239547290236860_);" width="0.67" height="0.68"/>
		</g>
	</g>
	<g>
		
			<linearGradient id="SVGID_00000137116633468501043230000000020284578656367496_" gradientUnits="userSpaceOnUse" x1="11.8936" y1="14.3858" x2="11.8936" y2="13.6877">
			<stop  offset="0" style="stop-color:#F4F4F4"/>
			<stop  offset="1" style="stop-color:#9C9B9A"/>
		</linearGradient>
		
			<rect x="8.94" y="13.69" style="fill:url(#SVGID_00000137116633468501043230000000020284578656367496_);" width="5.91" height="0.7"/>
		
			<linearGradient id="SVGID_00000013895693012992117290000011948343382290337726_" gradientUnits="userSpaceOnUse" x1="11.8936" y1="17.9975" x2="11.8936" y2="14.9798">
			<stop  offset="0.1229" style="stop-color:#FFFFFF"/>
			<stop  offset="1" style="stop-color:#B2B1B0"/>
		</linearGradient>
		
			<rect x="8.94" y="14.98" style="fill:url(#SVGID_00000013895693012992117290000011948343382290337726_);" width="5.91" height="3.02"/>
	</g>
	
		<linearGradient id="SVGID_00000064323123587276553650000001416727966469734302_" gradientUnits="userSpaceOnUse" x1="12.6519" y1="8.6213" x2="12.6519" y2="7.927">
		<stop  offset="0" style="stop-color:#FFFFFF"/>
		<stop  offset="1" style="stop-color:#6F6F6E"/>
	</linearGradient>
	
		<rect x="9.35" y="7.93" style="fill:url(#SVGID_00000064323123587276553650000001416727966469734302_);" width="6.59" height="0.69"/>
</g>
</svg>
