<?xml version="1.0" encoding="utf-8"?>
<!-- Generator: Adobe Illustrator 21.0.0, SVG Export Plug-In . SVG Version: 6.00 Build 0)  -->
<svg version="1.1" id="Layer_1" xmlns="http://www.w3.org/2000/svg" xmlns:xlink="http://www.w3.org/1999/xlink" x="0px" y="0px"
	 viewBox="0 0 80.6 33.4" style="enable-background:new 0 0 80.6 33.4;" xml:space="preserve">
<style type="text/css">
	.st0{fill:#6F6F6E;}
	.st1{fill:none;stroke:#6F6F6E;stroke-width:0.5;stroke-miterlimit:10;}
	.st2{fill:#1D1D1B;}
	.st3{fill:url(#SVGID_1_);}
	.st4{fill:#FBFBFB;}
	.st5{fill:url(#SVGID_2_);}
	.st6{fill:url(#SVGID_3_);}
	.st7{fill:url(#SVGID_4_);}
	.st8{fill:url(#SVGID_5_);}
	.st9{fill:url(#SVGID_6_);}
	.st10{fill:url(#SVGID_7_);}
	.st11{fill:url(#SVGID_8_);}
	.st12{fill:url(#SVGID_9_);}
	.st13{fill:url(#SVGID_10_);}
	.st14{fill:url(#SVGID_11_);}
	.st15{fill:url(#SVGID_12_);}
	.st16{fill:url(#SVGID_13_);}
	.st17{fill:url(#SVGID_14_);}
	.st18{fill:url(#SVGID_15_);}
	.st19{fill:url(#SVGID_16_);}
	.st20{fill:url(#SVGID_17_);}
	.st21{fill:url(#SVGID_18_);}
	.st22{fill:url(#SVGID_19_);}
	.st23{fill:url(#SVGID_20_);}
	.st24{fill:url(#SVGID_21_);}
	.st25{fill:url(#SVGID_22_);}
	.st26{fill:url(#SVGID_23_);}
	.st27{fill:url(#SVGID_24_);}
	.st28{fill:url(#SVGID_25_);}
</style>
<g>
	<path class="st0" d="M67.5,5.7H68V0.2C68,0.1,67.9,0,67.8,0h0c-0.1,0-0.3,0.1-0.3,0.3L67.5,5.7L67.5,5.7z"/>
	<g>
		<path class="st0" d="M3.7,16.2h0.5V9.1c0-0.1-0.1-0.2-0.2-0.2h0c-0.1,0-0.3,0.1-0.3,0.3L3.7,16.2L3.7,16.2z"/>
		<rect x="3.5" y="14.6" class="st0" width="1" height="1.6"/>
	</g>
	<rect x="20.6" y="15" class="st0" width="3.4" height="3.4"/>
	<path class="st0" d="M30.2,18.5h0.9v-7.9c0-0.3-0.2-0.5-0.5-0.5l0,0c-0.3,0-0.5,0.2-0.5,0.4C30.2,10.5,30.2,18.5,30.2,18.5z"/>
	<g>
		<path class="st0" d="M40.3,18.6h1.1v-6.4c0-0.3-0.2-0.5-0.5-0.5h-0.2c-0.3,0-0.5,0.2-0.5,0.4V18.6z"/>
		<ellipse class="st0" cx="40.9" cy="13.8" rx="0.9" ry="0.7"/>
		<polygon class="st0" points="40,12.7 53.4,12.7 53.3,12.1 45.1,11.1 40.1,11.1 		"/>
		<line class="st1" x1="44.2" y1="12.4" x2="41.1" y2="15.9"/>
	</g>
	<path class="st2" d="M78.7,24.2v9.2h-1.9c-0.2,0-0.3-0.1-0.3-0.3l-0.3-8L78.7,24.2z"/>
	<g>
		<ellipse class="st2" cx="75.3" cy="30.9" rx="0.7" ry="0.5"/>
		<g>
			<path class="st2" d="M75.5,30.9c-0.1,0.4-0.2,1.4,0.1,1.8c0.1,0.1,0.2,0.3,0.3,0.2c0.1,0,0.1-0.1,0.1-0.1
				c-0.1-0.2-0.2-0.3-0.2-0.6c-0.2-0.6-0.1-1-0.1-1.4C75.7,30.9,75.6,30.9,75.5,30.9z"/>
			<path class="st2" d="M75.7,30.9c0.1-0.4,0.2-1.4-0.1-1.8c-0.1-0.1-0.2-0.3-0.3-0.2c-0.1,0-0.1,0.1-0.1,0.1
				c0.1,0.1,0.2,0.3,0.2,0.6c0.2,0.6,0.1,1,0.1,1.4C75.6,30.9,75.6,30.9,75.7,30.9z"/>
		</g>
	</g>
	
		<linearGradient id="SVGID_1_" gradientUnits="userSpaceOnUse" x1="0.74" y1="8.145" x2="80.1494" y2="8.145" gradientTransform="matrix(-1 0 0 -1 80.581 36)">
		<stop  offset="0" style="stop-color:#4E1419"/>
		<stop  offset="0.3671" style="stop-color:#872B36"/>
		<stop  offset="0.7552" style="stop-color:#903039"/>
		<stop  offset="1" style="stop-color:#631E28"/>
	</linearGradient>
	<path class="st3" d="M72.8,33.3H6.5c-4.1-1.7-6.5-5.1-6-7.9c0.1-0.6,0.4-1.7,1.7-2.9c25.9,0,51.8,0,77.7,0
		c-0.6,1.5-1.4,2.1-2.1,2.4c-1.1,0.4-1.9,0-2.8,0.7c-0.1,0.1-0.9,0.7-1,1.6c-0.1,1.1,0.7,1.4,1,3c0.1,0.6,0.2,1.3-0.2,1.9
		C74.4,33.1,73.1,33.3,72.8,33.3z"/>
	<rect x="41.7" y="17.2" class="st4" width="0.5" height="1.3"/>
	<rect x="39.6" y="17.2" class="st4" width="0.5" height="1.3"/>
	<rect x="37.6" y="17.2" class="st4" width="0.5" height="1.3"/>
	<rect x="35.6" y="17.2" class="st4" width="0.5" height="1.3"/>
	<rect x="33.5" y="17.2" class="st4" width="0.5" height="1.3"/>
	<rect x="31.5" y="17.2" class="st4" width="0.5" height="1.3"/>
	<rect x="29.5" y="17.2" class="st4" width="0.5" height="1.3"/>
	<rect x="27.5" y="17.2" class="st4" width="0.5" height="1.3"/>
	<rect x="7.8" y="16.6" class="st4" width="56.8" height="0.6"/>
	<rect x="62" y="17.2" class="st4" width="0.5" height="1.3"/>
	<rect x="60" y="17.2" class="st4" width="0.5" height="1.3"/>
	<rect x="58" y="17.2" class="st4" width="0.5" height="1.3"/>
	<rect x="55.9" y="17.2" class="st4" width="0.5" height="1.3"/>
	<rect x="53.9" y="17.2" class="st4" width="0.5" height="1.3"/>
	<rect x="51.9" y="17.2" class="st4" width="0.5" height="1.3"/>
	<rect x="49.8" y="17.2" class="st4" width="0.5" height="1.3"/>
	<rect x="47.8" y="17.2" class="st4" width="0.5" height="1.3"/>
	<rect x="45.8" y="17.2" class="st4" width="0.5" height="1.3"/>
	<rect x="43.7" y="17.2" class="st4" width="0.5" height="1.3"/>
	<rect x="21.3" y="17.2" class="st4" width="0.5" height="1.3"/>
	<rect x="19.3" y="17.2" class="st4" width="0.5" height="1.3"/>
	<rect x="17.3" y="17.2" class="st4" width="0.5" height="1.3"/>
	<rect x="15.2" y="17.2" class="st4" width="0.5" height="1.3"/>
	<rect x="25.4" y="17.2" class="st4" width="0.5" height="1.3"/>
	<rect x="23.4" y="17.2" class="st4" width="0.5" height="1.3"/>
	<rect x="13.2" y="17.2" class="st4" width="0.5" height="1.3"/>
	<rect x="11.2" y="17.2" class="st4" width="0.5" height="1.3"/>
	<rect x="9.2" y="17.2" class="st4" width="0.5" height="1.3"/>
	<path class="st2" d="M80.6,18.5H12.4c-0.6,0-1.6-0.1-2.7-0.7c-1.1-0.5-1.7-1.2-2.1-1.6c-2.6,0-5.1,0-7.7,0c0.9,1.5,1.7,3.3,2.1,5.5
		c0,0.3,0.1,0.5,0.1,0.8c25.9,0,51.8,0,77.7,0c0.2-0.4,0.4-1,0.6-1.8C80.6,19.8,80.6,19,80.6,18.5z"/>
	<g>
		<rect x="64.6" y="5.7" class="st4" width="5.3" height="12.8"/>
		<rect x="70" y="9.9" class="st4" width="5.6" height="8.6"/>
		<rect x="64.2" y="7.4" class="st4" width="7.4" height="0.5"/>
		<rect x="64.3" y="15.6" class="st4" width="7.4" height="0.5"/>
		<rect x="68.6" y="9.9" class="st4" width="7.4" height="0.5"/>
		<rect x="68.6" y="7.7" class="st4" width="2.7" height="4.1"/>
	</g>
	<polygon class="st2" points="75,9.9 74.2,4.8 71.9,4.8 71.9,9.9 	"/>
	
		<linearGradient id="SVGID_2_" gradientUnits="userSpaceOnUse" x1="7.22" y1="27.16" x2="7.22" y2="30.12" gradientTransform="matrix(-1 0 0 -1 80.581 36)">
		<stop  offset="0" style="stop-color:#4E1419"/>
		<stop  offset="0.3671" style="stop-color:#872B36"/>
		<stop  offset="0.7552" style="stop-color:#903039"/>
		<stop  offset="1" style="stop-color:#631E28"/>
	</linearGradient>
	<polygon class="st5" points="74.4,5.9 71.9,5.9 71.9,8.8 74.9,8.8 	"/>
	<g>
		<g>
			
				<linearGradient id="SVGID_3_" gradientUnits="userSpaceOnUse" x1="10.305" y1="26.2646" x2="10.305" y2="26.9406" gradientTransform="matrix(-1 0 0 -1 80.581 36)">
				<stop  offset="0" style="stop-color:#FFFFFF"/>
				<stop  offset="1" style="stop-color:#6F6F6E"/>
			</linearGradient>
			<rect x="69.9" y="9.1" class="st6" width="0.7" height="0.7"/>
			
				<linearGradient id="SVGID_4_" gradientUnits="userSpaceOnUse" x1="11.325" y1="26.2646" x2="11.325" y2="26.9406" gradientTransform="matrix(-1 0 0 -1 80.581 36)">
				<stop  offset="0" style="stop-color:#FFFFFF"/>
				<stop  offset="1" style="stop-color:#6F6F6E"/>
			</linearGradient>
			<rect x="68.9" y="9.1" class="st7" width="0.7" height="0.7"/>
			
				<linearGradient id="SVGID_5_" gradientUnits="userSpaceOnUse" x1="12.335" y1="26.2646" x2="12.335" y2="26.9406" gradientTransform="matrix(-1 0 0 -1 80.581 36)">
				<stop  offset="0" style="stop-color:#FFFFFF"/>
				<stop  offset="1" style="stop-color:#6F6F6E"/>
			</linearGradient>
			<rect x="67.9" y="9.1" class="st8" width="0.7" height="0.7"/>
			
				<linearGradient id="SVGID_6_" gradientUnits="userSpaceOnUse" x1="13.355" y1="26.2646" x2="13.355" y2="26.9406" gradientTransform="matrix(-1 0 0 -1 80.581 36)">
				<stop  offset="0" style="stop-color:#FFFFFF"/>
				<stop  offset="1" style="stop-color:#6F6F6E"/>
			</linearGradient>
			<rect x="66.9" y="9.1" class="st9" width="0.7" height="0.7"/>
			
				<linearGradient id="SVGID_7_" gradientUnits="userSpaceOnUse" x1="14.375" y1="26.2646" x2="14.375" y2="26.9406" gradientTransform="matrix(-1 0 0 -1 80.581 36)">
				<stop  offset="0" style="stop-color:#FFFFFF"/>
				<stop  offset="1" style="stop-color:#6F6F6E"/>
			</linearGradient>
			<rect x="65.9" y="9.1" class="st10" width="0.7" height="0.7"/>
		</g>
		<g>
			
				<linearGradient id="SVGID_8_" gradientUnits="userSpaceOnUse" x1="10.305" y1="25.3038" x2="10.305" y2="25.9798" gradientTransform="matrix(-1 0 0 -1 80.581 36)">
				<stop  offset="0" style="stop-color:#FFFFFF"/>
				<stop  offset="1" style="stop-color:#6F6F6E"/>
			</linearGradient>
			<rect x="69.9" y="10" class="st11" width="0.7" height="0.7"/>
			
				<linearGradient id="SVGID_9_" gradientUnits="userSpaceOnUse" x1="11.325" y1="25.3038" x2="11.325" y2="25.9798" gradientTransform="matrix(-1 0 0 -1 80.581 36)">
				<stop  offset="0" style="stop-color:#FFFFFF"/>
				<stop  offset="1" style="stop-color:#6F6F6E"/>
			</linearGradient>
			<rect x="68.9" y="10" class="st12" width="0.7" height="0.7"/>
			
				<linearGradient id="SVGID_10_" gradientUnits="userSpaceOnUse" x1="12.335" y1="25.3038" x2="12.335" y2="25.9798" gradientTransform="matrix(-1 0 0 -1 80.581 36)">
				<stop  offset="0" style="stop-color:#FFFFFF"/>
				<stop  offset="1" style="stop-color:#6F6F6E"/>
			</linearGradient>
			<rect x="67.9" y="10" class="st13" width="0.7" height="0.7"/>
			
				<linearGradient id="SVGID_11_" gradientUnits="userSpaceOnUse" x1="13.355" y1="25.3038" x2="13.355" y2="25.9798" gradientTransform="matrix(-1 0 0 -1 80.581 36)">
				<stop  offset="0" style="stop-color:#FFFFFF"/>
				<stop  offset="1" style="stop-color:#6F6F6E"/>
			</linearGradient>
			<rect x="66.9" y="10" class="st14" width="0.7" height="0.7"/>
			
				<linearGradient id="SVGID_12_" gradientUnits="userSpaceOnUse" x1="14.375" y1="25.3038" x2="14.375" y2="25.9798" gradientTransform="matrix(-1 0 0 -1 80.581 36)">
				<stop  offset="0" style="stop-color:#FFFFFF"/>
				<stop  offset="1" style="stop-color:#6F6F6E"/>
			</linearGradient>
			<rect x="65.9" y="10" class="st15" width="0.7" height="0.7"/>
		</g>
		<g>
			
				<linearGradient id="SVGID_13_" gradientUnits="userSpaceOnUse" x1="10.305" y1="24.23" x2="10.305" y2="24.906" gradientTransform="matrix(-1 0 0 -1 80.581 36)">
				<stop  offset="0" style="stop-color:#FFFFFF"/>
				<stop  offset="1" style="stop-color:#6F6F6E"/>
			</linearGradient>
			<rect x="69.9" y="11.1" class="st16" width="0.7" height="0.7"/>
			
				<linearGradient id="SVGID_14_" gradientUnits="userSpaceOnUse" x1="11.325" y1="24.23" x2="11.325" y2="24.906" gradientTransform="matrix(-1 0 0 -1 80.581 36)">
				<stop  offset="0" style="stop-color:#FFFFFF"/>
				<stop  offset="1" style="stop-color:#6F6F6E"/>
			</linearGradient>
			<rect x="68.9" y="11.1" class="st17" width="0.7" height="0.7"/>
			
				<linearGradient id="SVGID_15_" gradientUnits="userSpaceOnUse" x1="12.335" y1="24.23" x2="12.335" y2="24.906" gradientTransform="matrix(-1 0 0 -1 80.581 36)">
				<stop  offset="0" style="stop-color:#FFFFFF"/>
				<stop  offset="1" style="stop-color:#6F6F6E"/>
			</linearGradient>
			<rect x="67.9" y="11.1" class="st18" width="0.7" height="0.7"/>
			
				<linearGradient id="SVGID_16_" gradientUnits="userSpaceOnUse" x1="13.355" y1="24.23" x2="13.355" y2="24.906" gradientTransform="matrix(-1 0 0 -1 80.581 36)">
				<stop  offset="0" style="stop-color:#FFFFFF"/>
				<stop  offset="1" style="stop-color:#6F6F6E"/>
			</linearGradient>
			<rect x="66.9" y="11.1" class="st19" width="0.7" height="0.7"/>
			
				<linearGradient id="SVGID_17_" gradientUnits="userSpaceOnUse" x1="14.375" y1="24.23" x2="14.375" y2="24.906" gradientTransform="matrix(-1 0 0 -1 80.581 36)">
				<stop  offset="0" style="stop-color:#FFFFFF"/>
				<stop  offset="1" style="stop-color:#6F6F6E"/>
			</linearGradient>
			<rect x="65.9" y="11.1" class="st20" width="0.7" height="0.7"/>
		</g>
		<g>
			
				<linearGradient id="SVGID_18_" gradientUnits="userSpaceOnUse" x1="10.305" y1="23.2157" x2="10.305" y2="23.8918" gradientTransform="matrix(-1 0 0 -1 80.581 36)">
				<stop  offset="0" style="stop-color:#FFFFFF"/>
				<stop  offset="1" style="stop-color:#6F6F6E"/>
			</linearGradient>
			<rect x="69.9" y="12.1" class="st21" width="0.7" height="0.7"/>
			
				<linearGradient id="SVGID_19_" gradientUnits="userSpaceOnUse" x1="11.325" y1="23.2157" x2="11.325" y2="23.8918" gradientTransform="matrix(-1 0 0 -1 80.581 36)">
				<stop  offset="0" style="stop-color:#FFFFFF"/>
				<stop  offset="1" style="stop-color:#6F6F6E"/>
			</linearGradient>
			<rect x="68.9" y="12.1" class="st22" width="0.7" height="0.7"/>
			
				<linearGradient id="SVGID_20_" gradientUnits="userSpaceOnUse" x1="12.335" y1="23.2157" x2="12.335" y2="23.8918" gradientTransform="matrix(-1 0 0 -1 80.581 36)">
				<stop  offset="0" style="stop-color:#FFFFFF"/>
				<stop  offset="1" style="stop-color:#6F6F6E"/>
			</linearGradient>
			<rect x="67.9" y="12.1" class="st23" width="0.7" height="0.7"/>
			
				<linearGradient id="SVGID_21_" gradientUnits="userSpaceOnUse" x1="13.355" y1="23.2157" x2="13.355" y2="23.8918" gradientTransform="matrix(-1 0 0 -1 80.581 36)">
				<stop  offset="0" style="stop-color:#FFFFFF"/>
				<stop  offset="1" style="stop-color:#6F6F6E"/>
			</linearGradient>
			<rect x="66.9" y="12.1" class="st24" width="0.7" height="0.7"/>
			
				<linearGradient id="SVGID_22_" gradientUnits="userSpaceOnUse" x1="14.375" y1="23.2157" x2="14.375" y2="23.8918" gradientTransform="matrix(-1 0 0 -1 80.581 36)">
				<stop  offset="0" style="stop-color:#FFFFFF"/>
				<stop  offset="1" style="stop-color:#6F6F6E"/>
			</linearGradient>
			<rect x="65.9" y="12.1" class="st25" width="0.7" height="0.7"/>
		</g>
	</g>
	<g>
		
			<linearGradient id="SVGID_23_" gradientUnits="userSpaceOnUse" x1="11.895" y1="21.6142" x2="11.895" y2="22.3123" gradientTransform="matrix(-1 0 0 -1 80.581 36)">
			<stop  offset="0" style="stop-color:#F4F4F4"/>
			<stop  offset="1" style="stop-color:#9C9B9A"/>
		</linearGradient>
		<rect x="65.7" y="13.7" class="st26" width="5.9" height="0.7"/>
		
			<linearGradient id="SVGID_24_" gradientUnits="userSpaceOnUse" x1="11.895" y1="18" x2="11.895" y2="21.02" gradientTransform="matrix(-1 0 0 -1 80.581 36)">
			<stop  offset="0.1229" style="stop-color:#FFFFFF"/>
			<stop  offset="1" style="stop-color:#B2B1B0"/>
		</linearGradient>
		<rect x="65.7" y="15" class="st27" width="5.9" height="3"/>
	</g>
	
		<linearGradient id="SVGID_25_" gradientUnits="userSpaceOnUse" x1="12.645" y1="27.3787" x2="12.645" y2="28.073" gradientTransform="matrix(-1 0 0 -1 80.581 36)">
		<stop  offset="0" style="stop-color:#FFFFFF"/>
		<stop  offset="1" style="stop-color:#6F6F6E"/>
	</linearGradient>
	<rect x="64.6" y="7.9" class="st28" width="6.6" height="0.7"/>
</g>
</svg>
