<?xml version="1.0" encoding="utf-8"?>
<!-- Generator: Adobe Illustrator 21.0.0, SVG Export Plug-In . SVG Version: 6.00 Build 0)  -->
<svg version="1.1" id="Layer_1" xmlns="http://www.w3.org/2000/svg" xmlns:xlink="http://www.w3.org/1999/xlink" x="0px" y="0px"
	 viewBox="0 0 79.3 34.8" style="enable-background:new 0 0 79.3 34.8;" xml:space="preserve">
<style type="text/css">
	.st0{fill:none;stroke:#C6C6C5;stroke-width:0.25;stroke-miterlimit:10;}
	.st1{fill:#1D1D1B;}
	.st2{fill:url(#SVGID_1_);}
	.st3{fill:url(#SVGID_2_);}
	.st4{fill:url(#SVGID_3_);}
	.st5{fill:#FBFBFB;}
	.st6{fill:url(#SVGID_4_);}
	.st7{fill:url(#SVGID_5_);}
	.st8{fill:url(#SVGID_6_);}
	.st9{fill:url(#SVGID_7_);}
	.st10{fill:url(#SVGID_8_);}
	.st11{fill:#AF2C25;}
	.st12{fill:#868686;}
</style>
<g>
	<path class="st0" d="M3.6,27.2"/>
	<g>
		<ellipse class="st1" cx="73.1" cy="33.2" rx="0.5" ry="0.4"/>
		<g>
			<path class="st1" d="M73.3,33.2c0,0.3-0.2,1.1,0.1,1.5c0,0.1,0.1,0.2,0.2,0.2c0,0,0.1-0.1,0.1-0.1c-0.1-0.1-0.1-0.3-0.2-0.5
				c-0.1-0.5-0.1-0.8,0-1.1C73.4,33.2,73.4,33.2,73.3,33.2z"/>
			<path class="st1" d="M73.4,33.2c0.1-0.3,0.2-1.1-0.1-1.5c0-0.1-0.2-0.2-0.2-0.2c0,0-0.1,0.1-0.1,0.1c0.1,0.1,0.1,0.3,0.2,0.4
				c0.1,0.5,0.1,0.8,0,1.1C73.3,33.2,73.4,33.2,73.4,33.2z"/>
		</g>
	</g>
	<path class="st1" d="M74.5,32.8h1c0.2,0,0.4-0.2,0.4-0.4v-3.5h-1.5L74.5,32.8z"/>
	
		<linearGradient id="SVGID_1_" gradientUnits="userSpaceOnUse" x1="3.35" y1="4.255" x2="78.2801" y2="4.255" gradientTransform="matrix(-1 0 0 -1 79.25 36)">
		<stop  offset="0" style="stop-color:#601F11"/>
		<stop  offset="0.2486" style="stop-color:#9A2421"/>
		<stop  offset="0.7984" style="stop-color:#AC2B25"/>
		<stop  offset="1" style="stop-color:#791815"/>
	</linearGradient>
	<path class="st2" d="M72.2,34.6H2.6C2.5,34.5,1,33.5,1,31.8c0-0.2,0-1.5,0.7-1.9c0.5-0.3,1.1-0.1,1.8-0.6c0.2-0.1,0.3-0.3,0.4-0.4
		c24,0,48,0,72,0c-0.3,0.3-0.8,0.7-1.5,1.2c-0.9,0.6-1.1,0.5-1.3,0.9c-0.5,0.9,0.4,1.8-0.1,2.9C72.8,34.2,72.4,34.4,72.2,34.6z"/>
	
		<linearGradient id="SVGID_2_" gradientUnits="userSpaceOnUse" x1="0" y1="15.235" x2="79.25" y2="15.235" gradientTransform="matrix(-1 0 0 -1 79.25 36)">
		<stop  offset="0" style="stop-color:#1E364E"/>
		<stop  offset="0.2598" style="stop-color:#3B668D"/>
		<stop  offset="0.8184" style="stop-color:#40709A"/>
		<stop  offset="1" style="stop-color:#304967"/>
	</linearGradient>
	<polygon class="st3" points="79.3,12.6 0,12.6 0,19.4 3.9,28.9 75.9,28.9 79.3,26.4 	"/>
	
		<linearGradient id="SVGID_3_" gradientUnits="userSpaceOnUse" x1="62.12" y1="11.85" x2="79.25" y2="11.85" gradientTransform="matrix(-1 0 0 -1 79.25 36)">
		<stop  offset="0" style="stop-color:#3D6585"/>
		<stop  offset="1" style="stop-color:#20354E"/>
	</linearGradient>
	<path class="st4" d="M0,19.4c2.1,0.2,5.9,0.8,10,3.2c3.6,2.1,5.9,4.7,7.1,6.3c-4.4,0-8.8,0-13.2,0L0,19.4z"/>
	<path class="st5" d="M0,6.2h24.2l1.2,1.8h14.8V6.7h1.1c0.2,0,0.4-0.2,0.4-0.4V5h13.1v1.5H56v0.7C56,7.7,56.4,8,56.8,8h22.4v4.6H0
		V6.2z"/>
	
		<linearGradient id="SVGID_4_" gradientUnits="userSpaceOnUse" x1="19.75" y1="25.2257" x2="19.75" y2="26.8891" gradientTransform="matrix(-1 0 0 -1 79.25 36)">
		<stop  offset="0.1786" style="stop-color:#FCFDFF"/>
		<stop  offset="1" style="stop-color:#95A49D"/>
	</linearGradient>
	<rect x="57.4" y="9.1" class="st6" width="4.1" height="1.7"/>
	
		<linearGradient id="SVGID_5_" gradientUnits="userSpaceOnUse" x1="15.02" y1="25.2257" x2="15.02" y2="26.8891" gradientTransform="matrix(-1 0 0 -1 79.25 36)">
		<stop  offset="0.1786" style="stop-color:#FCFDFF"/>
		<stop  offset="1" style="stop-color:#95A49D"/>
	</linearGradient>
	<rect x="62.2" y="9.1" class="st7" width="4.1" height="1.7"/>
	
		<linearGradient id="SVGID_6_" gradientUnits="userSpaceOnUse" x1="10.28" y1="25.2257" x2="10.28" y2="26.8891" gradientTransform="matrix(-1 0 0 -1 79.25 36)">
		<stop  offset="0.1786" style="stop-color:#FCFDFF"/>
		<stop  offset="1" style="stop-color:#95A49D"/>
	</linearGradient>
	<rect x="66.9" y="9.1" class="st8" width="4.1" height="1.7"/>
	
		<linearGradient id="SVGID_7_" gradientUnits="userSpaceOnUse" x1="34.42" y1="25.2257" x2="34.42" y2="26.8891" gradientTransform="matrix(-1 0 0 -1 79.25 36)">
		<stop  offset="0.1786" style="stop-color:#FCFDFF"/>
		<stop  offset="1" style="stop-color:#95A49D"/>
	</linearGradient>
	<rect x="44" y="9.1" class="st9" width="1.7" height="1.7"/>
	
		<linearGradient id="SVGID_8_" gradientUnits="userSpaceOnUse" x1="32.21" y1="25.2257" x2="32.21" y2="26.8891" gradientTransform="matrix(-1 0 0 -1 79.25 36)">
		<stop  offset="0.1786" style="stop-color:#FCFDFF"/>
		<stop  offset="1" style="stop-color:#95A49D"/>
	</linearGradient>
	<rect x="46.2" y="9.1" class="st10" width="1.7" height="1.7"/>
	<g>
		<polygon class="st11" points="69.5,2.5 64.6,2.5 63.2,5.8 63.2,8.1 69.5,8.1 		"/>
		<polygon class="st1" points="69.5,5 63.5,5 64.6,2.5 69.5,2.5 		"/>
	</g>
	<g>
		<rect x="65.9" y="1" class="st12" width="0.9" height="1.5"/>
		<path class="st12" d="M65.9,0.9l0.7,0.6l0.7-0.9c0.1-0.1,0.1-0.2,0-0.3L67,0.1c-0.1-0.1-0.3-0.1-0.4,0L65.9,0.9z"/>
	</g>
	<g>
		<rect x="67.4" y="1" class="st12" width="0.9" height="1.5"/>
		<path class="st12" d="M67.4,1l0.7,0.6l0.7-0.9c0.1-0.1,0.1-0.2,0-0.3l-0.3-0.3c-0.1-0.1-0.3-0.1-0.4,0L67.4,1z"/>
	</g>
</g>
</svg>
