{
  "accessors": [
    {
      "name": "body_1_0_positions",
      "componentType": 5126,
      "count": 1656,
      "min": [
        -0.2676999866962433,
        -0.59579998254776,
        -0.006399999838322401
      ],
      "max": [
        0.27059999108314514,
        0.59579998254776,
        0.3874000012874603
      ],
      "type": "VEC3",
      "bufferView": 0,
      "byteOffset": 0
    },
    {
      "name": "body_1_0_normals",
      "componentType": 5126,
      "count": 1656,
      "min": [
        -1,
        -1,
        -0.9999969005584717
      ],
      "max": [
        1,
        1,
        1
      ],
      "type": "VEC3",
      "bufferView": 1,
      "byteOffset": 0
    },
    {
      "name": "body_1_0_texcoords",
      "componentType": 5126,
      "count": 1656,
      "min": [
        -0.17890000343322754,
        -2.9400999546051025
      ],
      "max": [
        1.1789000034332275,
        2.7339999675750732
      ],
      "type": "VEC2",
      "bufferView": 2,
      "byteOffset": 0
    },
    {
      "name": "body_1_0_indices",
      "componentType": 5123,
      "count": 5052,
      "min": [
        0
      ],
      "max": [
        1655
      ],
      "type": "SCALAR",
      "bufferView": 3,
      "byteOffset": 0
    },
    {
      "name": "body_1_1_positions",
      "componentType": 5126,
      "count": 509,
      "min": [
        -0.23579999804496765,
        -0.583899974822998,
        0.04190000146627426
      ],
      "max": [
        0.23669999837875366,
        0.5950999855995178,
        0.19259999692440033
      ],
      "type": "VEC3",
      "bufferView": 0,
      "byteOffset": 19872
    },
    {
      "name": "body_1_1_normals",
      "componentType": 5126,
      "count": 509,
      "min": [
        -0.9999927878379822,
        -0.9999372959136963,
        -0.20300529897212982
      ],
      "max": [
        0.9999529719352722,
        0.9999372959136963,
        1
      ],
      "type": "VEC3",
      "bufferView": 1,
      "byteOffset": 19872
    },
    {
      "name": "body_1_1_texcoords",
      "componentType": 5126,
      "count": 509,
      "min": [
        0.027799999341368675,
        0
      ],
      "max": [
        1.0277999639511108,
        0.20000000298023224
      ],
      "type": "VEC2",
      "bufferView": 2,
      "byteOffset": 13248
    },
    {
      "name": "body_1_1_indices",
      "componentType": 5123,
      "count": 726,
      "min": [
        0
      ],
      "max": [
        508
      ],
      "type": "SCALAR",
      "bufferView": 3,
      "byteOffset": 10104
    },
    {
      "name": "body_1_2_positions",
      "componentType": 5126,
      "count": 132,
      "min": [
        -0.23019999265670776,
        0.17659999430179596,
        0.2533999979496002
      ],
      "max": [
        0.23270000517368317,
        0.23109999299049377,
        0.29339998960494995
      ],
      "type": "VEC3",
      "bufferView": 0,
      "byteOffset": 25980
    },
    {
      "name": "body_1_2_normals",
      "componentType": 5126,
      "count": 132,
      "min": [
        -0.9888704419136047,
        -0.849345862865448,
        -0.9984428286552429
      ],
      "max": [
        1,
        0.9771389365196228,
        0.9999226927757263
      ],
      "type": "VEC3",
      "bufferView": 1,
      "byteOffset": 25980
    },
    {
      "name": "body_1_2_texcoords",
      "componentType": 5126,
      "count": 132,
      "min": [
        0,
        0
      ],
      "max": [
        1,
        1
      ],
      "type": "VEC2",
      "bufferView": 2,
      "byteOffset": 17320
    },
    {
      "name": "body_1_2_indices",
      "componentType": 5123,
      "count": 216,
      "min": [
        0
      ],
      "max": [
        131
      ],
      "type": "SCALAR",
      "bufferView": 3,
      "byteOffset": 11556
    },
    {
      "name": "body_1_3_positions",
      "componentType": 5126,
      "count": 216,
      "min": [
        -0.23229999840259552,
        -0.4131999909877777,
        -0.0027000000700354576
      ],
      "max": [
        -0.1729000061750412,
        0.4440000057220459,
        0.17589999735355377
      ],
      "type": "VEC3",
      "bufferView": 0,
      "byteOffset": 27564
    },
    {
      "name": "body_1_3_normals",
      "componentType": 5126,
      "count": 216,
      "min": [
        -0.9813348650932312,
        -1,
        -1
      ],
      "max": [
        0.9813348650932312,
        1,
        1
      ],
      "type": "VEC3",
      "bufferView": 1,
      "byteOffset": 27564
    },
    {
      "name": "body_1_3_texcoords",
      "componentType": 5126,
      "count": 216,
      "min": [
        0.21629999577999115,
        0.5281999707221985
      ],
      "max": [
        0.47360000014305115,
        0.9879999756813049
      ],
      "type": "VEC2",
      "bufferView": 2,
      "byteOffset": 18376
    },
    {
      "name": "body_1_3_indices",
      "componentType": 5123,
      "count": 408,
      "min": [
        0
      ],
      "max": [
        215
      ],
      "type": "SCALAR",
      "bufferView": 3,
      "byteOffset": 11988
    }
  ],
  "asset": {
    "generator": "obj2gltf",
    "version": "2.0"
  },
  "buffers": [
    {
      "name": "sedan",
      "byteLength": 153664,
      "uri": "data:application/octet-stream;base64,"
    }
  ],
  "bufferViews": [
    {
      "name": "bufferView_0",
      "buffer": 0,
      "byteLength": 30156,
      "byteOffset": 0,
      "byteStride": 12,
      "target": 34962
    },
    {
      "name": "bufferView_1",
      "buffer": 0,
      "byteLength": 30156,
      "byteOffset": 30156,
      "byteStride": 12,
      "target": 34962
    },
    {
      "name": "bufferView_2",
      "buffer": 0,
      "byteLength": 20104,
      "byteOffset": 60312,
      "byteStride": 8,
      "target": 34962
    },
    {
      "name": "bufferView_3",
      "buffer": 0,
      "byteLength": 12804,
      "byteOffset": 80416,
      "target": 34963
    },
    {
      "buffer": 0,
      "byteOffset": 93220,
      "byteLength": 60443
    }
  ],
  "images": [
    {
      "name": "Sedan",
      "mimeType": "image/jpeg",
      "bufferView": 4
    }
  ],
  "materials": [
    {
      "name": "15___Default1",
      "pbrMetallicRoughness": {
        "baseColorTexture": {
          "index": 0
        },
        "baseColorFactor": [
          1,
          1,
          1,
          1
        ],
        "metallicFactor": 0,
        "roughnessFactor": 0.99
      },
      "emissiveFactor": [
        0,
        0,
        0
      ],
      "alphaMode": "OPAQUE",
      "doubleSided": false
    },
    {
      "name": "02___Default",
      "pbrMetallicRoughness": {
        "baseColorFactor": [
          0.1922,
          0.1922,
          0.1922,
          1
        ],
        "metallicFactor": 0,
        "roughnessFactor": 0.99
      },
      "emissiveFactor": [
        0,
        0,
        0
      ],
      "alphaMode": "OPAQUE",
      "doubleSided": false
    },
    {
      "name": "08___Default",
      "pbrMetallicRoughness": {
        "baseColorFactor": [
          0.0471,
          0.0471,
          0.0471,
          1
        ],
        "metallicFactor": 0,
        "roughnessFactor": 0.99
      },
      "emissiveFactor": [
        0,
        0,
        0
      ],
      "alphaMode": "OPAQUE",
      "doubleSided": false
    },
    {
      "name": "02___Default555",
      "pbrMetallicRoughness": {
        "baseColorTexture": {
          "index": 0
        },
        "baseColorFactor": [
          1,
          1,
          1,
          1
        ],
        "metallicFactor": 0,
        "roughnessFactor": 0.99
      },
      "emissiveFactor": [
        0,
        0,
        0
      ],
      "alphaMode": "OPAQUE",
      "doubleSided": false
    }
  ],
  "meshes": [
    {
      "name": "body_1",
      "primitives": [
        {
          "attributes": {
            "POSITION": 0,
            "NORMAL": 1,
            "TEXCOORD_0": 2
          },
          "indices": 3,
          "material": 0,
          "mode": 4
        },
        {
          "attributes": {
            "POSITION": 4,
            "NORMAL": 5,
            "TEXCOORD_0": 6
          },
          "indices": 7,
          "material": 1,
          "mode": 4
        },
        {
          "attributes": {
            "POSITION": 8,
            "NORMAL": 9,
            "TEXCOORD_0": 10
          },
          "indices": 11,
          "material": 2,
          "mode": 4
        },
        {
          "attributes": {
            "POSITION": 12,
            "NORMAL": 13,
            "TEXCOORD_0": 14
          },
          "indices": 15,
          "material": 3,
          "mode": 4
        }
      ]
    }
  ],
  "nodes": [
    {
      "name": "body",
      "mesh": 0
    }
  ],
  "samplers": [
    {
      "magFilter": 9729,
      "minFilter": 9986,
      "wrapS": 10497,
      "wrapT": 10497
    }
  ],
  "scene": 0,
  "scenes": [
    {
      "nodes": [
        0
      ]
    }
  ],
  "textures": [
    {
      "name": "Sedan",
      "sampler": 0,
      "source": 0
    }
  ]
}
