{
  "accessors": [
    {
      "name": "van03a__1_0_positions",
      "componentType": 5126,
      "count": 3112,
      "min": [
        -0.30169999599456787,
        -0.6470000147819519,
        -0.005499999970197678
      ],
      "max": [
        0.30169999599456787,
        0.6675000190734863,
        0.5550000071525574
      ],
      "type": "VEC3",
      "bufferView": 0,
      "byteOffset": 0
    },
    {
      "name": "van03a__1_0_normals",
      "componentType": 5126,
      "count": 3112,
      "min": [
        -1,
        -0.9984306693077087,
        -0.9999946355819702
      ],
      "max": [
        1,
        1,
        0.9999997019767761
      ],
      "type": "VEC3",
      "bufferView": 1,
      "byteOffset": 0
    },
    {
      "name": "van03a__1_0_texcoords",
      "componentType": 5126,
      "count": 3112,
      "min": [
        0.003700000001117587,
        0.008799999952316284
      ],
      "max": [
        0.9983000159263611,
        0.9976999759674072
      ],
      "type": "VEC2",
      "bufferView": 2,
      "byteOffset": 0
    },
    {
      "name": "van03a__1_0_indices",
      "componentType": 5123,
      "count": 11871,
      "min": [
        0
      ],
      "max": [
        3111
      ],
      "type": "SCALAR",
      "bufferView": 3,
      "byteOffset": 0
    },
    {
      "name": "van03a__1_1_positions",
      "componentType": 5126,
      "count": 105,
      "min": [
        -0.24079999327659607,
        0.16380000114440918,
        0.27390000224113464
      ],
      "max": [
        0.24079999327659607,
        0.48240000009536743,
        0.4632999897003174
      ],
      "type": "VEC3",
      "bufferView": 0,
      "byteOffset": 37344
    },
    {
      "name": "van03a__1_1_normals",
      "componentType": 5126,
      "count": 105,
      "min": [
        -1,
        -0.7184151411056519,
        -0.740338146686554
      ],
      "max": [
        1,
        0.02459973655641079,
        0
      ],
      "type": "VEC3",
      "bufferView": 1,
      "byteOffset": 37344
    },
    {
      "name": "van03a__1_1_texcoords",
      "componentType": 5126,
      "count": 105,
      "min": [
        0.018699999898672104,
        0.017400000244379044
      ],
      "max": [
        0.7056999802589417,
        0.8546000123023987
      ],
      "type": "VEC2",
      "bufferView": 2,
      "byteOffset": 24896
    },
    {
      "name": "van03a__1_1_indices",
      "componentType": 5123,
      "count": 348,
      "min": [
        0
      ],
      "max": [
        104
      ],
      "type": "SCALAR",
      "bufferView": 3,
      "byteOffset": 23744
    }
  ],
  "asset": {
    "generator": "obj2gltf",
    "version": "2.0"
  },
  "buffers": [
    {
      "name": "van",
      "byteLength": 296036,
      "uri": "data:application/octet-stream;base64,"
    }
  ],
  "bufferViews": [
    {
      "name": "bufferView_0",
      "buffer": 0,
      "byteLength": 38604,
      "byteOffset": 0,
      "byteStride": 12,
      "target": 34962
    },
    {
      "name": "bufferView_1",
      "buffer": 0,
      "byteLength": 38604,
      "byteOffset": 38604,
      "byteStride": 12,
      "target": 34962
    },
    {
      "name": "bufferView_2",
      "buffer": 0,
      "byteLength": 25736,
      "byteOffset": 77208,
      "byteStride": 8,
      "target": 34962
    },
    {
      "name": "bufferView_3",
      "buffer": 0,
      "byteLength": 24440,
      "byteOffset": 102944,
      "target": 34963
    },
    {
      "buffer": 0,
      "byteOffset": 127384,
      "byteLength": 168651
    }
  ],
  "images": [
    {
      "name": "van_03_a",
      "mimeType": "image/jpeg",
      "bufferView": 4
    }
  ],
  "materials": [
    {
      "name": "van_03_a",
      "pbrMetallicRoughness": {
        "baseColorTexture": {
          "index": 0
        },
        "baseColorFactor": [
          1,
          1,
          1,
          1
        ],
        "metallicFactor": 0,
        "roughnessFactor": 0.99
      },
      "emissiveFactor": [
        0,
        0,
        0
      ],
      "alphaMode": "OPAQUE",
      "doubleSided": false
    },
    {
      "name": "van_03_a_gla",
      "pbrMetallicRoughness": {
        "baseColorTexture": {
          "index": 0
        },
        "baseColorFactor": [
          1,
          1,
          1,
          0.7
        ],
        "metallicFactor": 0,
        "roughnessFactor": 0.99
      },
      "emissiveFactor": [
        0,
        0,
        0
      ],
      "alphaMode": "BLEND",
      "doubleSided": true
    }
  ],
  "meshes": [
    {
      "name": "van03a__1",
      "primitives": [
        {
          "attributes": {
            "POSITION": 0,
            "NORMAL": 1,
            "TEXCOORD_0": 2
          },
          "indices": 3,
          "material": 0,
          "mode": 4
        },
        {
          "attributes": {
            "POSITION": 4,
            "NORMAL": 5,
            "TEXCOORD_0": 6
          },
          "indices": 7,
          "material": 1,
          "mode": 4
        }
      ]
    }
  ],
  "nodes": [
    {
      "name": "van03a_",
      "mesh": 0
    }
  ],
  "samplers": [
    {
      "magFilter": 9729,
      "minFilter": 9986,
      "wrapS": 10497,
      "wrapT": 10497
    }
  ],
  "scene": 0,
  "scenes": [
    {
      "nodes": [
        0
      ]
    }
  ],
  "textures": [
    {
      "name": "van_03_a",
      "sampler": 0,
      "source": 0
    }
  ]
}
