{
  "accessors": [
    {
      "name": "Body3_1_0_positions",
      "componentType": 5126,
      "count": 32,
      "min": [
        -0.27149999141693115,
        -0.5950999855995178,
        0.181099995970726
      ],
      "max": [
        0.2712000012397766,
        0.595300018787384,
        0.2800000011920929
      ],
      "type": "VEC3",
      "bufferView": 0,
      "byteOffset": 0
    },
    {
      "name": "Body3_1_0_normals",
      "componentType": 5126,
      "count": 32,
      "min": [
        -0.9993155002593994,
        -0.9998704195022583,
        0.015899579972028732
      ],
      "max": [
        0.9993155002593994,
        0.9998735785484314,
        0.03910181298851967
      ],
      "type": "VEC3",
      "bufferView": 1,
      "byteOffset": 0
    },
    {
      "name": "Body3_1_0_texcoords",
      "componentType": 5126,
      "count": 32,
      "min": [
        0.1256999969482422,
        0.26179999113082886
      ],
      "max": [
        0.989799976348877,
        0.6743999719619751
      ],
      "type": "VEC2",
      "bufferView": 2,
      "byteOffset": 0
    },
    {
      "name": "Body3_1_0_indices",
      "componentType": 5123,
      "count": 48,
      "min": [
        0
      ],
      "max": [
        31
      ],
      "type": "SCALAR",
      "bufferView": 3,
      "byteOffset": 0
    },
    {
      "name": "Body3_1_1_positions",
      "componentType": 5126,
      "count": 615,
      "min": [
        -0.2734000086784363,
        -0.5968999862670898,
        0.08150000125169754
      ],
      "max": [
        0.27300000190734863,
        0.5968999862670898,
        0.48980000615119934
      ],
      "type": "VEC3",
      "bufferView": 0,
      "byteOffset": 384
    },
    {
      "name": "Body3_1_1_normals",
      "componentType": 5126,
      "count": 615,
      "min": [
        -0.9998962879180908,
        -0.9998704195022583,
        -0.9999350309371948
      ],
      "max": [
        0.9998962879180908,
        0.9999206066131592,
        1
      ],
      "type": "VEC3",
      "bufferView": 1,
      "byteOffset": 384
    },
    {
      "name": "Body3_1_1_texcoords",
      "componentType": 5126,
      "count": 615,
      "min": [
        0.125,
        0
      ],
      "max": [
        0.875,
        1
      ],
      "type": "VEC2",
      "bufferView": 2,
      "byteOffset": 256
    },
    {
      "name": "Body3_1_1_indices",
      "componentType": 5123,
      "count": 1050,
      "min": [
        0
      ],
      "max": [
        614
      ],
      "type": "SCALAR",
      "bufferView": 3,
      "byteOffset": 96
    },
    {
      "name": "Body3_1_2_positions",
      "componentType": 5126,
      "count": 56,
      "min": [
        -0.26840001344680786,
        -0.4043999910354614,
        0.32100000977516174
      ],
      "max": [
        0.2680000066757202,
        0.19789999723434448,
        0.47290000319480896
      ],
      "type": "VEC3",
      "bufferView": 0,
      "byteOffset": 7764
    },
    {
      "name": "Body3_1_2_normals",
      "componentType": 5126,
      "count": 56,
      "min": [
        -0.9946290850639343,
        -0.9980700612068176,
        -0.11620298027992249
      ],
      "max": [
        0.9946290850639343,
        0.9932255148887634,
        -0.06209813803434372
      ],
      "type": "VEC3",
      "bufferView": 1,
      "byteOffset": 7764
    },
    {
      "name": "Body3_1_2_texcoords",
      "componentType": 5126,
      "count": 56,
      "min": [
        0.375,
        0.5382000207901001
      ],
      "max": [
        0.625,
        0.6682000160217285
      ],
      "type": "VEC2",
      "bufferView": 2,
      "byteOffset": 5176
    },
    {
      "name": "Body3_1_2_indices",
      "componentType": 5123,
      "count": 84,
      "min": [
        0
      ],
      "max": [
        55
      ],
      "type": "SCALAR",
      "bufferView": 3,
      "byteOffset": 2196
    },
    {
      "name": "Body3_1_3_positions",
      "componentType": 5126,
      "count": 108,
      "min": [
        -0.26980000734329224,
        -0.5823000073432922,
        0.08150000125169754
      ],
      "max": [
        0.2694000005722046,
        0.5935999751091003,
        0.27000001072883606
      ],
      "type": "VEC3",
      "bufferView": 0,
      "byteOffset": 8436
    },
    {
      "name": "Body3_1_3_normals",
      "componentType": 5126,
      "count": 108,
      "min": [
        -0.9997022747993469,
        -0.9998704195022583,
        0.010600464418530464
      ],
      "max": [
        0.9997022747993469,
        0.9999437928199768,
        0.05380278080701828
      ],
      "type": "VEC3",
      "bufferView": 1,
      "byteOffset": 8436
    },
    {
      "name": "Body3_1_3_texcoords",
      "componentType": 5126,
      "count": 108,
      "min": [
        0.125,
        0.25
      ],
      "max": [
        0.875,
        1
      ],
      "type": "VEC2",
      "bufferView": 2,
      "byteOffset": 5624
    },
    {
      "name": "Body3_1_3_indices",
      "componentType": 5123,
      "count": 162,
      "min": [
        0
      ],
      "max": [
        107
      ],
      "type": "SCALAR",
      "bufferView": 3,
      "byteOffset": 2364
    },
    {
      "name": "Body3_1_4_positions",
      "componentType": 5126,
      "count": 48,
      "min": [
        -0.2639000117778778,
        -0.5817999839782715,
        0.08609999716281891
      ],
      "max": [
        0.26350000500679016,
        0.5831000208854675,
        0.19939999282360077
      ],
      "type": "VEC3",
      "bufferView": 0,
      "byteOffset": 9732
    },
    {
      "name": "Body3_1_4_normals",
      "componentType": 5126,
      "count": 48,
      "min": [
        -0.9995706677436829,
        -0.9998704195022583,
        0.015899579972028732
      ],
      "max": [
        0.9995706677436829,
        0.9998735785484314,
        0.037100840359926224
      ],
      "type": "VEC3",
      "bufferView": 1,
      "byteOffset": 9732
    },
    {
      "name": "Body3_1_4_texcoords",
      "componentType": 5126,
      "count": 48,
      "min": [
        0.1632000058889389,
        0.25
      ],
      "max": [
        0.8367999792098999,
        1
      ],
      "type": "VEC2",
      "bufferView": 2,
      "byteOffset": 6488
    },
    {
      "name": "Body3_1_4_indices",
      "componentType": 5123,
      "count": 72,
      "min": [
        0
      ],
      "max": [
        47
      ],
      "type": "SCALAR",
      "bufferView": 3,
      "byteOffset": 2688
    },
    {
      "name": "pCube2_1_0_positions",
      "componentType": 5126,
      "count": 20,
      "min": [
        -0.33809998631477356,
        0.18379999697208405,
        0.30070000886917114
      ],
      "max": [
        -0.2669000029563904,
        0.2190999984741211,
        0.3393999934196472
      ],
      "type": "VEC3",
      "bufferView": 0,
      "byteOffset": 10308
    },
    {
      "name": "pCube2_1_0_normals",
      "componentType": 5126,
      "count": 20,
      "min": [
        -1,
        0,
        -1
      ],
      "max": [
        1,
        1,
        1
      ],
      "type": "VEC3",
      "bufferView": 1,
      "byteOffset": 10308
    },
    {
      "name": "pCube2_1_0_texcoords",
      "componentType": 5126,
      "count": 20,
      "min": [
        0.125,
        0
      ],
      "max": [
        0.875,
        1
      ],
      "type": "VEC2",
      "bufferView": 2,
      "byteOffset": 6872
    },
    {
      "name": "pCube2_1_0_indices",
      "componentType": 5123,
      "count": 30,
      "min": [
        0
      ],
      "max": [
        19
      ],
      "type": "SCALAR",
      "bufferView": 3,
      "byteOffset": 2832
    },
    {
      "name": "pCube2_1_1_positions",
      "componentType": 5126,
      "count": 4,
      "min": [
        -0.3345000147819519,
        0.18379999697208405,
        0.3028999865055084
      ],
      "max": [
        -0.2669000029563904,
        0.2013999968767166,
        0.3393999934196472
      ],
      "type": "VEC3",
      "bufferView": 0,
      "byteOffset": 10548
    },
    {
      "name": "pCube2_1_1_normals",
      "componentType": 5126,
      "count": 4,
      "min": [
        0,
        -1,
        0
      ],
      "max": [
        0,
        -1,
        0
      ],
      "type": "VEC3",
      "bufferView": 1,
      "byteOffset": 10548
    },
    {
      "name": "pCube2_1_1_texcoords",
      "componentType": 5126,
      "count": 4,
      "min": [
        0.375,
        0.25
      ],
      "max": [
        0.625,
        0.5
      ],
      "type": "VEC2",
      "bufferView": 2,
      "byteOffset": 7032
    },
    {
      "name": "pCube2_1_1_indices",
      "componentType": 5123,
      "count": 6,
      "min": [
        0
      ],
      "max": [
        3
      ],
      "type": "SCALAR",
      "bufferView": 3,
      "byteOffset": 2892
    },
    {
      "name": "pCube3_1_0_positions",
      "componentType": 5126,
      "count": 20,
      "min": [
        0.2667999863624573,
        0.18310000002384186,
        0.29919999837875366
      ],
      "max": [
        0.33809998631477356,
        0.21979999542236328,
        0.3409000039100647
      ],
      "type": "VEC3",
      "bufferView": 0,
      "byteOffset": 10596
    },
    {
      "name": "pCube3_1_0_normals",
      "componentType": 5126,
      "count": 20,
      "min": [
        -1,
        0,
        -1
      ],
      "max": [
        1,
        1,
        1
      ],
      "type": "VEC3",
      "bufferView": 1,
      "byteOffset": 10596
    },
    {
      "name": "pCube3_1_0_texcoords",
      "componentType": 5126,
      "count": 20,
      "min": [
        0.125,
        0
      ],
      "max": [
        0.875,
        1
      ],
      "type": "VEC2",
      "bufferView": 2,
      "byteOffset": 7064
    },
    {
      "name": "pCube3_1_0_indices",
      "componentType": 5123,
      "count": 30,
      "min": [
        0
      ],
      "max": [
        19
      ],
      "type": "SCALAR",
      "bufferView": 3,
      "byteOffset": 2904
    },
    {
      "name": "pCube3_1_1_positions",
      "componentType": 5126,
      "count": 4,
      "min": [
        0.2667999863624573,
        0.18310000002384186,
        0.3010999858379364
      ],
      "max": [
        0.33390000462532043,
        0.2021999955177307,
        0.3409000039100647
      ],
      "type": "VEC3",
      "bufferView": 0,
      "byteOffset": 10836
    },
    {
      "name": "pCube3_1_1_normals",
      "componentType": 5126,
      "count": 4,
      "min": [
        0,
        -1,
        0
      ],
      "max": [
        0,
        -1,
        0
      ],
      "type": "VEC3",
      "bufferView": 1,
      "byteOffset": 10836
    },
    {
      "name": "pCube3_1_1_texcoords",
      "componentType": 5126,
      "count": 4,
      "min": [
        0.375,
        0.25
      ],
      "max": [
        0.625,
        0.5
      ],
      "type": "VEC2",
      "bufferView": 2,
      "byteOffset": 7224
    },
    {
      "name": "pCube3_1_1_indices",
      "componentType": 5123,
      "count": 6,
      "min": [
        0
      ],
      "max": [
        3
      ],
      "type": "SCALAR",
      "bufferView": 3,
      "byteOffset": 2964
    },
    {
      "name": "WheelRL009_1_0_positions",
      "componentType": 5126,
      "count": 90,
      "min": [
        -0.2750000059604645,
        0.2809000015258789,
        0.003100000089034438
      ],
      "max": [
        -0.19539999961853027,
        0.4828999936580658,
        0.2062000036239624
      ],
      "type": "VEC3",
      "bufferView": 0,
      "byteOffset": 10884
    },
    {
      "name": "WheelRL009_1_0_normals",
      "componentType": 5126,
      "count": 90,
      "min": [
        -0.9781479239463806,
        -0.9945245981216431,
        -1
      ],
      "max": [
        1,
        0.9945245981216431,
        0.9337522387504578
      ],
      "type": "VEC3",
      "bufferView": 1,
      "byteOffset": 10884
    },
    {
      "name": "WheelRL009_1_0_texcoords",
      "componentType": 5126,
      "count": 90,
      "min": [
        0.28610000014305115,
        0.24160000681877136
      ],
      "max": [
        0.8999999761581421,
        0.8179000020027161
      ],
      "type": "VEC2",
      "bufferView": 2,
      "byteOffset": 7256
    },
    {
      "name": "WheelRL009_1_0_indices",
      "componentType": 5123,
      "count": 168,
      "min": [
        0
      ],
      "max": [
        89
      ],
      "type": "SCALAR",
      "bufferView": 3,
      "byteOffset": 2976
    },
    {
      "name": "WheelRL010_1_0_positions",
      "componentType": 5126,
      "count": 90,
      "min": [
        -0.2750000059604645,
        -0.51419997215271,
        0.004699999932199717
      ],
      "max": [
        -0.19539999961853027,
        -0.3109999895095825,
        0.20679999887943268
      ],
      "type": "VEC3",
      "bufferView": 0,
      "byteOffset": 11964
    },
    {
      "name": "WheelRL010_1_0_normals",
      "componentType": 5126,
      "count": 90,
      "min": [
        -0.9781479239463806,
        -0.9945245981216431,
        -1
      ],
      "max": [
        1,
        0.9945245981216431,
        0.9337522387504578
      ],
      "type": "VEC3",
      "bufferView": 1,
      "byteOffset": 11964
    },
    {
      "name": "WheelRL010_1_0_texcoords",
      "componentType": 5126,
      "count": 90,
      "min": [
        0.28610000014305115,
        0.24160000681877136
      ],
      "max": [
        0.8999999761581421,
        0.8179000020027161
      ],
      "type": "VEC2",
      "bufferView": 2,
      "byteOffset": 7976
    },
    {
      "name": "WheelRL010_1_0_indices",
      "componentType": 5123,
      "count": 168,
      "min": [
        0
      ],
      "max": [
        89
      ],
      "type": "SCALAR",
      "bufferView": 3,
      "byteOffset": 3312
    },
    {
      "name": "WheelRL011_1_0_positions",
      "componentType": 5126,
      "count": 90,
      "min": [
        0.19280000030994415,
        0.2809000015258789,
        0.003100000089034438
      ],
      "max": [
        0.27239999175071716,
        0.4828999936580658,
        0.2062000036239624
      ],
      "type": "VEC3",
      "bufferView": 0,
      "byteOffset": 13044
    },
    {
      "name": "WheelRL011_1_0_normals",
      "componentType": 5126,
      "count": 90,
      "min": [
        -0.9781479239463806,
        -0.9945245981216431,
        -1
      ],
      "max": [
        1,
        0.9945245981216431,
        0.9337522387504578
      ],
      "type": "VEC3",
      "bufferView": 1,
      "byteOffset": 13044
    },
    {
      "name": "WheelRL011_1_0_texcoords",
      "componentType": 5126,
      "count": 90,
      "min": [
        0.28610000014305115,
        0.24160000681877136
      ],
      "max": [
        0.8999999761581421,
        0.8179000020027161
      ],
      "type": "VEC2",
      "bufferView": 2,
      "byteOffset": 8696
    },
    {
      "name": "WheelRL011_1_0_indices",
      "componentType": 5123,
      "count": 168,
      "min": [
        0
      ],
      "max": [
        89
      ],
      "type": "SCALAR",
      "bufferView": 3,
      "byteOffset": 3648
    },
    {
      "name": "WheelRL012_1_0_positions",
      "componentType": 5126,
      "count": 90,
      "min": [
        0.19280000030994415,
        -0.51419997215271,
        0.004699999932199717
      ],
      "max": [
        0.27239999175071716,
        -0.3109999895095825,
        0.20679999887943268
      ],
      "type": "VEC3",
      "bufferView": 0,
      "byteOffset": 14124
    },
    {
      "name": "WheelRL012_1_0_normals",
      "componentType": 5126,
      "count": 90,
      "min": [
        -0.9781479239463806,
        -0.9945245981216431,
        -1
      ],
      "max": [
        1,
        0.9945245981216431,
        0.9337522387504578
      ],
      "type": "VEC3",
      "bufferView": 1,
      "byteOffset": 14124
    },
    {
      "name": "WheelRL012_1_0_texcoords",
      "componentType": 5126,
      "count": 90,
      "min": [
        0.28610000014305115,
        0.24160000681877136
      ],
      "max": [
        0.8999999761581421,
        0.8179000020027161
      ],
      "type": "VEC2",
      "bufferView": 2,
      "byteOffset": 9416
    },
    {
      "name": "WheelRL012_1_0_indices",
      "componentType": 5123,
      "count": 168,
      "min": [
        0
      ],
      "max": [
        89
      ],
      "type": "SCALAR",
      "bufferView": 3,
      "byteOffset": 3984
    }
  ],
  "asset": {
    "generator": "obj2gltf",
    "version": "2.0"
  },
  "buffers": [
    {
      "name": "SedanR",
      "byteLength": 168828,
      "uri": "data:application/octet-stream;base64,"
    }
  ],
  "bufferViews": [
    {
      "name": "bufferView_0",
      "buffer": 0,
      "byteLength": 15204,
      "byteOffset": 0,
      "byteStride": 12,
      "target": 34962
    },
    {
      "name": "bufferView_1",
      "buffer": 0,
      "byteLength": 15204,
      "byteOffset": 15204,
      "byteStride": 12,
      "target": 34962
    },
    {
      "name": "bufferView_2",
      "buffer": 0,
      "byteLength": 10136,
      "byteOffset": 30408,
      "byteStride": 8,
      "target": 34962
    },
    {
      "name": "bufferView_3",
      "buffer": 0,
      "byteLength": 4320,
      "byteOffset": 40544,
      "target": 34963
    },
    {
      "buffer": 0,
      "byteOffset": 44864,
      "byteLength": 70644
    },
    {
      "buffer": 0,
      "byteOffset": 115508,
      "byteLength": 31139
    },
    {
      "buffer": 0,
      "byteOffset": 146647,
      "byteLength": 22180
    }
  ],
  "images": [
    {
      "name": "Lights",
      "mimeType": "image/jpeg",
      "bufferView": 4
    },
    {
      "name": "Grill",
      "mimeType": "image/jpeg",
      "bufferView": 5
    },
    {
      "name": "tire2",
      "mimeType": "image/jpeg",
      "bufferView": 6
    }
  ],
  "materials": [
    {
      "name": "YellowLights",
      "pbrMetallicRoughness": {
        "baseColorTexture": {
          "index": 0
        },
        "baseColorFactor": [
          1,
          1,
          1,
          1
        ],
        "metallicFactor": 0,
        "roughnessFactor": 0.9734195
      },
      "emissiveFactor": [
        0,
        0,
        0
      ],
      "alphaMode": "OPAQUE",
      "doubleSided": false
    },
    {
      "name": "BlackPolice",
      "pbrMetallicRoughness": {
        "baseColorFactor": [
          0.4235,
          0.4824,
          0.3843,
          1
        ],
        "metallicFactor": 0,
        "roughnessFactor": 0.9734195
      },
      "emissiveFactor": [
        0,
        0,
        0
      ],
      "alphaMode": "OPAQUE",
      "doubleSided": false
    },
    {
      "name": "Glass",
      "pbrMetallicRoughness": {
        "baseColorFactor": [
          0.251,
          0.251,
          0.251,
          1
        ],
        "metallicFactor": 0,
        "roughnessFactor": 1
      },
      "emissiveFactor": [
        0,
        0,
        0
      ],
      "alphaMode": "OPAQUE",
      "doubleSided": false
    },
    {
      "name": "Black",
      "pbrMetallicRoughness": {
        "baseColorTexture": {
          "index": 1
        },
        "baseColorFactor": [
          1,
          1,
          1,
          1
        ],
        "metallicFactor": 0,
        "roughnessFactor": 1
      },
      "emissiveFactor": [
        0,
        0,
        0
      ],
      "alphaMode": "OPAQUE",
      "doubleSided": false
    },
    {
      "name": "White",
      "pbrMetallicRoughness": {
        "baseColorFactor": [
          0.3412,
          0.3882,
          0.3059,
          1
        ],
        "metallicFactor": 0,
        "roughnessFactor": 0.9480276
      },
      "emissiveFactor": [
        0,
        0,
        0
      ],
      "alphaMode": "OPAQUE",
      "doubleSided": false
    },
    {
      "name": "Material__33",
      "pbrMetallicRoughness": {
        "baseColorTexture": {
          "index": 2
        },
        "baseColorFactor": [
          1,
          1,
          1,
          1
        ],
        "metallicFactor": 0,
        "roughnessFactor": 0.99
      },
      "emissiveFactor": [
        0,
        0,
        0
      ],
      "alphaMode": "OPAQUE",
      "doubleSided": false
    }
  ],
  "meshes": [
    {
      "name": "Body3_1",
      "primitives": [
        {
          "attributes": {
            "POSITION": 0,
            "NORMAL": 1,
            "TEXCOORD_0": 2
          },
          "indices": 3,
          "material": 0,
          "mode": 4
        },
        {
          "attributes": {
            "POSITION": 4,
            "NORMAL": 5,
            "TEXCOORD_0": 6
          },
          "indices": 7,
          "material": 1,
          "mode": 4
        },
        {
          "attributes": {
            "POSITION": 8,
            "NORMAL": 9,
            "TEXCOORD_0": 10
          },
          "indices": 11,
          "material": 2,
          "mode": 4
        },
        {
          "attributes": {
            "POSITION": 12,
            "NORMAL": 13,
            "TEXCOORD_0": 14
          },
          "indices": 15,
          "material": 3,
          "mode": 4
        },
        {
          "attributes": {
            "POSITION": 16,
            "NORMAL": 17,
            "TEXCOORD_0": 18
          },
          "indices": 19,
          "material": 4,
          "mode": 4
        }
      ]
    },
    {
      "name": "pCube2_1",
      "primitives": [
        {
          "attributes": {
            "POSITION": 20,
            "NORMAL": 21,
            "TEXCOORD_0": 22
          },
          "indices": 23,
          "material": 1,
          "mode": 4
        },
        {
          "attributes": {
            "POSITION": 24,
            "NORMAL": 25,
            "TEXCOORD_0": 26
          },
          "indices": 27,
          "material": 2,
          "mode": 4
        }
      ]
    },
    {
      "name": "pCube3_1",
      "primitives": [
        {
          "attributes": {
            "POSITION": 28,
            "NORMAL": 29,
            "TEXCOORD_0": 30
          },
          "indices": 31,
          "material": 1,
          "mode": 4
        },
        {
          "attributes": {
            "POSITION": 32,
            "NORMAL": 33,
            "TEXCOORD_0": 34
          },
          "indices": 35,
          "material": 2,
          "mode": 4
        }
      ]
    },
    {
      "name": "WheelRL009_1",
      "primitives": [
        {
          "attributes": {
            "POSITION": 36,
            "NORMAL": 37,
            "TEXCOORD_0": 38
          },
          "indices": 39,
          "material": 5,
          "mode": 4
        }
      ]
    },
    {
      "name": "WheelRL010_1",
      "primitives": [
        {
          "attributes": {
            "POSITION": 40,
            "NORMAL": 41,
            "TEXCOORD_0": 42
          },
          "indices": 43,
          "material": 5,
          "mode": 4
        }
      ]
    },
    {
      "name": "WheelRL011_1",
      "primitives": [
        {
          "attributes": {
            "POSITION": 44,
            "NORMAL": 45,
            "TEXCOORD_0": 46
          },
          "indices": 47,
          "material": 5,
          "mode": 4
        }
      ]
    },
    {
      "name": "WheelRL012_1",
      "primitives": [
        {
          "attributes": {
            "POSITION": 48,
            "NORMAL": 49,
            "TEXCOORD_0": 50
          },
          "indices": 51,
          "material": 5,
          "mode": 4
        }
      ]
    }
  ],
  "nodes": [
    {
      "name": "Body3",
      "mesh": 0
    },
    {
      "name": "pCube2",
      "mesh": 1
    },
    {
      "name": "pCube3",
      "mesh": 2
    },
    {
      "name": "WheelRL009",
      "mesh": 3
    },
    {
      "name": "WheelRL010",
      "mesh": 4
    },
    {
      "name": "WheelRL011",
      "mesh": 5
    },
    {
      "name": "WheelRL012",
      "mesh": 6
    }
  ],
  "samplers": [
    {
      "magFilter": 9729,
      "minFilter": 9986,
      "wrapS": 10497,
      "wrapT": 10497
    }
  ],
  "scene": 0,
  "scenes": [
    {
      "nodes": [
        0,
        1,
        2,
        3,
        4,
        5,
        6
      ]
    }
  ],
  "textures": [
    {
      "name": "Lights",
      "sampler": 0,
      "source": 0
    },
    {
      "name": "Grill",
      "sampler": 0,
      "source": 1
    },
    {
      "name": "tire2",
      "sampler": 0,
      "source": 2
    }
  ]
}
