{
  "accessors": [
    {
      "name": "handle_1_0_positions",
      "componentType": 5126,
      "count": 98,
      "min": [
        0.14090000092983246,
        -0.1088000014424324,
        -0.05050000175833702
      ],
      "max": [
        0.3296999931335449,
        0.11949999630451202,
        0.050599999725818634
      ],
      "type": "VEC3",
      "bufferView": 0,
      "byteOffset": 0
    },
    {
      "name": "handle_1_0_normals",
      "componentType": 5126,
      "count": 98,
      "min": [
        -0.8248239159584045,
        -0.9903337955474854,
        -0.9015800952911377
      ],
      "max": [
        0.8248239159584045,
        0.9996849298477173,
        0.9996697306632996
      ],
      "type": "VEC3",
      "bufferView": 1,
      "byteOffset": 0
    },
    {
      "name": "handle_1_0_texcoords",
      "componentType": 5126,
      "count": 98,
      "min": [
        0.382999986410141,
        0.2793999910354614
      ],
      "max": [
        0.8733999729156494,
        0.8180000185966492
      ],
      "type": "VEC2",
      "bufferView": 2,
      "byteOffset": 0
    },
    {
      "name": "handle_1_0_indices",
      "componentType": 5123,
      "count": 246,
      "min": [
        0
      ],
      "max": [
        97
      ],
      "type": "SCALAR",
      "bufferView": 3,
      "byteOffset": 0
    },
    {
      "name": "handle_1_1_positions",
      "componentType": 5126,
      "count": 44,
      "min": [
        0.1362999975681305,
        0.0949999988079071,
        -0.07020000368356705
      ],
      "max": [
        0.18209999799728394,
        0.1290999948978424,
        0.07289999723434448
      ],
      "type": "VEC3",
      "bufferView": 0,
      "byteOffset": 1176
    },
    {
      "name": "handle_1_1_normals",
      "componentType": 5126,
      "count": 44,
      "min": [
        -0.8419162631034851,
        -0.9889268279075623,
        -0.9986833333969116
      ],
      "max": [
        0.8419162631034851,
        0.9554690718650818,
        0.9803221225738525
      ],
      "type": "VEC3",
      "bufferView": 1,
      "byteOffset": 1176
    },
    {
      "name": "handle_1_1_texcoords",
      "componentType": 5126,
      "count": 44,
      "min": [
        -22.40679931640625,
        -16.62779998779297
      ],
      "max": [
        18.81999969482422,
        12.576399803161621
      ],
      "type": "VEC2",
      "bufferView": 2,
      "byteOffset": 784
    },
    {
      "name": "handle_1_1_indices",
      "componentType": 5123,
      "count": 228,
      "min": [
        0
      ],
      "max": [
        43
      ],
      "type": "SCALAR",
      "bufferView": 3,
      "byteOffset": 492
    },
    {
      "name": "handle_1_2_positions",
      "componentType": 5126,
      "count": 126,
      "min": [
        0.12800000607967377,
        0.08820000290870667,
        -0.13609999418258667
      ],
      "max": [
        0.17139999568462372,
        0.12319999933242798,
        0.1387999951839447
      ],
      "type": "VEC3",
      "bufferView": 0,
      "byteOffset": 1704
    },
    {
      "name": "handle_1_2_normals",
      "componentType": 5126,
      "count": 126,
      "min": [
        -0.9003759622573853,
        -0.9983819127082825,
        -0.9195932745933533
      ],
      "max": [
        0.9003759622573853,
        0.99921715259552,
        0.9186659455299377
      ],
      "type": "VEC3",
      "bufferView": 1,
      "byteOffset": 1704
    },
    {
      "name": "handle_1_2_texcoords",
      "componentType": 5126,
      "count": 126,
      "min": [
        0.5180000066757202,
        0.2696000039577484
      ],
      "max": [
        0.7652000188827515,
        0.9399999976158142
      ],
      "type": "VEC2",
      "bufferView": 2,
      "byteOffset": 1136
    },
    {
      "name": "handle_1_2_indices",
      "componentType": 5123,
      "count": 396,
      "min": [
        0
      ],
      "max": [
        125
      ],
      "type": "SCALAR",
      "bufferView": 3,
      "byteOffset": 948
    },
    {
      "name": "handle_1_3_positions",
      "componentType": 5126,
      "count": 12,
      "min": [
        0.15929999947547913,
        0.1111999973654747,
        -0.06279999762773514
      ],
      "max": [
        0.17139999568462372,
        0.12319999933242798,
        0.06539999693632126
      ],
      "type": "VEC3",
      "bufferView": 0,
      "byteOffset": 3216
    },
    {
      "name": "handle_1_3_normals",
      "componentType": 5126,
      "count": 12,
      "min": [
        -0.9003759622573853,
        -0.505302906036377,
        -0.5349798798561096
      ],
      "max": [
        0.9003759622573853,
        0.9702368378639221,
        0.8935072422027588
      ],
      "type": "VEC3",
      "bufferView": 1,
      "byteOffset": 3216
    },
    {
      "name": "handle_1_3_texcoords",
      "componentType": 5126,
      "count": 12,
      "min": [
        0.09040000289678574,
        0.9904000163078308
      ],
      "max": [
        0.9628999829292297,
        0.9994999766349792
      ],
      "type": "VEC2",
      "bufferView": 2,
      "byteOffset": 2144
    },
    {
      "name": "handle_1_3_indices",
      "componentType": 5123,
      "count": 24,
      "min": [
        0
      ],
      "max": [
        11
      ],
      "type": "SCALAR",
      "bufferView": 3,
      "byteOffset": 1740
    },
    {
      "name": "weel_fr_1_0_positions",
      "componentType": 5126,
      "count": 492,
      "min": [
        -0.30630001425743103,
        -0.17309999465942383,
        -0.031300000846385956
      ],
      "max": [
        0.3287000060081482,
        -0.016699999570846558,
        0.031300000846385956
      ],
      "type": "VEC3",
      "bufferView": 0,
      "byteOffset": 3360
    },
    {
      "name": "weel_fr_1_0_normals",
      "componentType": 5126,
      "count": 492,
      "min": [
        -1,
        -0.9999904632568359,
        -1
      ],
      "max": [
        1,
        0.9999995827674866,
        0.9999992847442627
      ],
      "type": "VEC3",
      "bufferView": 1,
      "byteOffset": 3360
    },
    {
      "name": "weel_fr_1_0_texcoords",
      "componentType": 5126,
      "count": 492,
      "min": [
        0.0005000000237487257,
        0.0005000000237487257
      ],
      "max": [
        0.9994999766349792,
        0.9994999766349792
      ],
      "type": "VEC2",
      "bufferView": 2,
      "byteOffset": 2240
    },
    {
      "name": "weel_fr_1_0_indices",
      "componentType": 5123,
      "count": 1764,
      "min": [
        0
      ],
      "max": [
        491
      ],
      "type": "SCALAR",
      "bufferView": 3,
      "byteOffset": 1788
    },
    {
      "name": "weel_fr_1_1_positions",
      "componentType": 5126,
      "count": 491,
      "min": [
        -0.32690000534057617,
        -0.19380000233650208,
        -0.031300000846385956
      ],
      "max": [
        0.34929999709129333,
        0.0038999998942017555,
        0.031300000846385956
      ],
      "type": "VEC3",
      "bufferView": 0,
      "byteOffset": 9264
    },
    {
      "name": "weel_fr_1_1_normals",
      "componentType": 5126,
      "count": 491,
      "min": [
        -1,
        -0.9999998211860657,
        -0.9999997019767761
      ],
      "max": [
        1,
        0.999995768070221,
        1
      ],
      "type": "VEC3",
      "bufferView": 1,
      "byteOffset": 9264
    },
    {
      "name": "weel_fr_1_1_texcoords",
      "componentType": 5126,
      "count": 491,
      "min": [
        0.708299994468689,
        0.6466000080108643
      ],
      "max": [
        0.9596999883651733,
        0.9433000087738037
      ],
      "type": "VEC2",
      "bufferView": 2,
      "byteOffset": 6176
    },
    {
      "name": "weel_fr_1_1_indices",
      "componentType": 5123,
      "count": 1476,
      "min": [
        0
      ],
      "max": [
        490
      ],
      "type": "SCALAR",
      "bufferView": 3,
      "byteOffset": 5316
    },
    {
      "name": "bike_1_0_positions",
      "componentType": 5126,
      "count": 1131,
      "min": [
        -0.34929999709129333,
        -0.12690000236034393,
        -0.08730000257492065
      ],
      "max": [
        0.23510000109672546,
        0.13439999520778656,
        0.08730000257492065
      ],
      "type": "VEC3",
      "bufferView": 0,
      "byteOffset": 15156
    },
    {
      "name": "bike_1_0_normals",
      "componentType": 5126,
      "count": 1131,
      "min": [
        -0.9999650120735168,
        -0.9998021125793457,
        -0.9998098611831665
      ],
      "max": [
        0.9999650120735168,
        0.9999405741691589,
        0.9906477332115173
      ],
      "type": "VEC3",
      "bufferView": 1,
      "byteOffset": 15156
    },
    {
      "name": "bike_1_0_texcoords",
      "componentType": 5126,
      "count": 1131,
      "min": [
        0.008299999870359898,
        0.00039999998989515007
      ],
      "max": [
        0.9991000294685364,
        0.9717000126838684
      ],
      "type": "VEC2",
      "bufferView": 2,
      "byteOffset": 10104
    },
    {
      "name": "bike_1_0_indices",
      "componentType": 5123,
      "count": 3636,
      "min": [
        0
      ],
      "max": [
        1130
      ],
      "type": "SCALAR",
      "bufferView": 3,
      "byteOffset": 8268
    },
    {
      "name": "bike_1_1_positions",
      "componentType": 5126,
      "count": 2159,
      "min": [
        -0.33469998836517334,
        -0.1453000009059906,
        -0.09629999846220016
      ],
      "max": [
        0.29580000042915344,
        0.15809999406337738,
        0.09629999846220016
      ],
      "type": "VEC3",
      "bufferView": 0,
      "byteOffset": 28728
    },
    {
      "name": "bike_1_1_normals",
      "componentType": 5126,
      "count": 2159,
      "min": [
        -1,
        -0.9968590140342712,
        -0.998890221118927
      ],
      "max": [
        0.9987401366233826,
        0.9999997019767761,
        0.9990794062614441
      ],
      "type": "VEC3",
      "bufferView": 1,
      "byteOffset": 28728
    },
    {
      "name": "bike_1_1_texcoords",
      "componentType": 5126,
      "count": 2159,
      "min": [
        0.0020000000949949026,
        -0.0015999999595806003
      ],
      "max": [
        0.9787999987602234,
        0.9919999837875366
      ],
      "type": "VEC2",
      "bufferView": 2,
      "byteOffset": 19152
    },
    {
      "name": "bike_1_1_indices",
      "componentType": 5123,
      "count": 6810,
      "min": [
        0
      ],
      "max": [
        2158
      ],
      "type": "SCALAR",
      "bufferView": 3,
      "byteOffset": 15540
    },
    {
      "name": "bike_1_2_positions",
      "componentType": 5126,
      "count": 236,
      "min": [
        0.15029999613761902,
        0.125,
        -0.14390000700950623
      ],
      "max": [
        0.25,
        0.1915999948978424,
        0.14390000700950623
      ],
      "type": "VEC3",
      "bufferView": 0,
      "byteOffset": 54636
    },
    {
      "name": "bike_1_2_normals",
      "componentType": 5126,
      "count": 236,
      "min": [
        -0.9319467544555664,
        -0.9178156852722168,
        -0.991683840751648
      ],
      "max": [
        0.9319467544555664,
        0.9999206066131592,
        0.7174792885780334
      ],
      "type": "VEC3",
      "bufferView": 1,
      "byteOffset": 54636
    },
    {
      "name": "bike_1_2_texcoords",
      "componentType": 5126,
      "count": 236,
      "min": [
        -0.6322000026702881,
        -0.1315000057220459
      ],
      "max": [
        0.260699987411499,
        0.6563000082969666
      ],
      "type": "VEC2",
      "bufferView": 2,
      "byteOffset": 36424
    },
    {
      "name": "bike_1_2_indices",
      "componentType": 5123,
      "count": 696,
      "min": [
        0
      ],
      "max": [
        235
      ],
      "type": "SCALAR",
      "bufferView": 3,
      "byteOffset": 29160
    },
    {
      "name": "bike_1_3_positions",
      "componentType": 5126,
      "count": 511,
      "min": [
        -0.3287000060081482,
        -0.12470000237226486,
        -0.14560000598430634
      ],
      "max": [
        0.2150000035762787,
        0.19380000233650208,
        0.14560000598430634
      ],
      "type": "VEC3",
      "bufferView": 0,
      "byteOffset": 57468
    },
    {
      "name": "bike_1_3_normals",
      "componentType": 5126,
      "count": 511,
      "min": [
        -0.9928248524665833,
        -0.9921464323997498,
        -0.9907464981079102
      ],
      "max": [
        0.9928248524665833,
        0.9910328984260559,
        0.9914631843566895
      ],
      "type": "VEC3",
      "bufferView": 1,
      "byteOffset": 57468
    },
    {
      "name": "bike_1_3_texcoords",
      "componentType": 5126,
      "count": 511,
      "min": [
        0.2825999855995178,
        0.4819999933242798
      ],
      "max": [
        0.9708999991416931,
        0.885699987411499
      ],
      "type": "VEC2",
      "bufferView": 2,
      "byteOffset": 38312
    },
    {
      "name": "bike_1_3_indices",
      "componentType": 5123,
      "count": 2136,
      "min": [
        0
      ],
      "max": [
        510
      ],
      "type": "SCALAR",
      "bufferView": 3,
      "byteOffset": 30552
    },
    {
      "name": "weel_bc_1_0_positions",
      "componentType": 5126,
      "count": 102,
      "min": [
        -0.26649999618530273,
        -0.12489999830722809,
        -0.04740000143647194
      ],
      "max": [
        -0.1931000053882599,
        -0.051500000059604645,
        0.035599999129772186
      ],
      "type": "VEC3",
      "bufferView": 0,
      "byteOffset": 63600
    },
    {
      "name": "weel_bc_1_0_normals",
      "componentType": 5126,
      "count": 102,
      "min": [
        -1,
        -0.9369768500328064,
        -0.9369768500328064
      ],
      "max": [
        1,
        0.9369768500328064,
        0.9369768500328064
      ],
      "type": "VEC3",
      "bufferView": 1,
      "byteOffset": 63600
    },
    {
      "name": "weel_bc_1_0_texcoords",
      "componentType": 5126,
      "count": 102,
      "min": [
        0.3849000036716461,
        0.6466000080108643
      ],
      "max": [
        0.9596999883651733,
        0.9980999827384949
      ],
      "type": "VEC2",
      "bufferView": 2,
      "byteOffset": 42400
    },
    {
      "name": "weel_bc_1_0_indices",
      "componentType": 5123,
      "count": 306,
      "min": [
        0
      ],
      "max": [
        101
      ],
      "type": "SCALAR",
      "bufferView": 3,
      "byteOffset": 34824
    },
    {
      "name": "weel_bc_1_1_positions",
      "componentType": 5126,
      "count": 74,
      "min": [
        -0.2912999987602234,
        -0.14239999651908875,
        -0.017000000923871994
      ],
      "max": [
        -0.16899999976158142,
        -0.03060000017285347,
        0.016899999231100082
      ],
      "type": "VEC3",
      "bufferView": 0,
      "byteOffset": 64824
    },
    {
      "name": "weel_bc_1_1_normals",
      "componentType": 5126,
      "count": 74,
      "min": [
        -0.9824821352958679,
        -0.8094925880432129,
        -0.8844054937362671
      ],
      "max": [
        0.9788489937782288,
        0.76707923412323,
        0.9024795889854431
      ],
      "type": "VEC3",
      "bufferView": 1,
      "byteOffset": 64824
    },
    {
      "name": "weel_bc_1_1_texcoords",
      "componentType": 5126,
      "count": 74,
      "min": [
        0.0005000000237487257,
        0.0005000000237487257
      ],
      "max": [
        0.9994999766349792,
        0.9994999766349792
      ],
      "type": "VEC2",
      "bufferView": 2,
      "byteOffset": 43216
    },
    {
      "name": "weel_bc_1_1_indices",
      "componentType": 5123,
      "count": 162,
      "min": [
        0
      ],
      "max": [
        73
      ],
      "type": "SCALAR",
      "bufferView": 3,
      "byteOffset": 35436
    }
  ],
  "asset": {
    "generator": "obj2gltf",
    "version": "2.0"
  },
  "buffers": [
    {
      "name": "Bike",
      "byteLength": 274752,
      "uri": "data:application/octet-stream;base64,"
    }
  ],
  "bufferViews": [
    {
      "name": "bufferView_0",
      "buffer": 0,
      "byteLength": 65712,
      "byteOffset": 0,
      "byteStride": 12,
      "target": 34962
    },
    {
      "name": "bufferView_1",
      "buffer": 0,
      "byteLength": 65712,
      "byteOffset": 65712,
      "byteStride": 12,
      "target": 34962
    },
    {
      "name": "bufferView_2",
      "buffer": 0,
      "byteLength": 43808,
      "byteOffset": 131424,
      "byteStride": 8,
      "target": 34962
    },
    {
      "name": "bufferView_3",
      "buffer": 0,
      "byteLength": 35760,
      "byteOffset": 175232,
      "target": 34963
    },
    {
      "buffer": 0,
      "byteOffset": 210992,
      "byteLength": 63757
    }
  ],
  "images": [
    {
      "name": "bike01",
      "mimeType": "image/jpeg",
      "bufferView": 4
    }
  ],
  "materials": [
    {
      "name": "Bike3_1___Default",
      "pbrMetallicRoughness": {
        "baseColorTexture": {
          "index": 0
        },
        "baseColorFactor": [
          1,
          1,
          1,
          1
        ],
        "metallicFactor": 0,
        "roughnessFactor": 0.963
      },
      "emissiveFactor": [
        0,
        0,
        0
      ],
      "alphaMode": "OPAQUE",
      "doubleSided": false
    },
    {
      "name": "Bike3_19___Defaulteddd",
      "pbrMetallicRoughness": {
        "baseColorFactor": [
          0.7373,
          0.7373,
          0.7373,
          1
        ],
        "metallicFactor": 0,
        "roughnessFactor": 0.963
      },
      "emissiveFactor": [
        0,
        0,
        0
      ],
      "alphaMode": "OPAQUE",
      "doubleSided": false
    },
    {
      "name": "Bike3_1___Defaultee",
      "pbrMetallicRoughness": {
        "baseColorTexture": {
          "index": 0
        },
        "baseColorFactor": [
          1,
          1,
          1,
          1
        ],
        "metallicFactor": 0,
        "roughnessFactor": 0.954
      },
      "emissiveFactor": [
        0,
        0,
        0
      ],
      "alphaMode": "OPAQUE",
      "doubleSided": false
    },
    {
      "name": "Bike3_8___Default",
      "pbrMetallicRoughness": {
        "baseColorFactor": [
          0.3882,
          0.3882,
          0.3882,
          1
        ],
        "metallicFactor": 0,
        "roughnessFactor": 1
      },
      "emissiveFactor": [
        0,
        0,
        0
      ],
      "alphaMode": "OPAQUE",
      "doubleSided": false
    },
    {
      "name": "Bike3_fara",
      "pbrMetallicRoughness": {
        "baseColorTexture": {
          "index": 0
        },
        "baseColorFactor": [
          1,
          1,
          1,
          1
        ],
        "metallicFactor": 0,
        "roughnessFactor": 0.917
      },
      "emissiveFactor": [
        0,
        0,
        0
      ],
      "alphaMode": "OPAQUE",
      "doubleSided": false
    }
  ],
  "meshes": [
    {
      "name": "handle_1",
      "primitives": [
        {
          "attributes": {
            "POSITION": 0,
            "NORMAL": 1,
            "TEXCOORD_0": 2
          },
          "indices": 3,
          "material": 0,
          "mode": 4
        },
        {
          "attributes": {
            "POSITION": 4,
            "NORMAL": 5,
            "TEXCOORD_0": 6
          },
          "indices": 7,
          "material": 1,
          "mode": 4
        },
        {
          "attributes": {
            "POSITION": 8,
            "NORMAL": 9,
            "TEXCOORD_0": 10
          },
          "indices": 11,
          "material": 2,
          "mode": 4
        },
        {
          "attributes": {
            "POSITION": 12,
            "NORMAL": 13,
            "TEXCOORD_0": 14
          },
          "indices": 15,
          "material": 3,
          "mode": 4
        }
      ]
    },
    {
      "name": "weel_fr_1",
      "primitives": [
        {
          "attributes": {
            "POSITION": 16,
            "NORMAL": 17,
            "TEXCOORD_0": 18
          },
          "indices": 19,
          "material": 1,
          "mode": 4
        },
        {
          "attributes": {
            "POSITION": 20,
            "NORMAL": 21,
            "TEXCOORD_0": 22
          },
          "indices": 23,
          "material": 2,
          "mode": 4
        }
      ]
    },
    {
      "name": "bike_1",
      "primitives": [
        {
          "attributes": {
            "POSITION": 24,
            "NORMAL": 25,
            "TEXCOORD_0": 26
          },
          "indices": 27,
          "material": 2,
          "mode": 4
        },
        {
          "attributes": {
            "POSITION": 28,
            "NORMAL": 29,
            "TEXCOORD_0": 30
          },
          "indices": 31,
          "material": 4,
          "mode": 4
        },
        {
          "attributes": {
            "POSITION": 32,
            "NORMAL": 33,
            "TEXCOORD_0": 34
          },
          "indices": 35,
          "material": 1,
          "mode": 4
        },
        {
          "attributes": {
            "POSITION": 36,
            "NORMAL": 37,
            "TEXCOORD_0": 38
          },
          "indices": 39,
          "material": 0,
          "mode": 4
        }
      ]
    },
    {
      "name": "weel_bc_1",
      "primitives": [
        {
          "attributes": {
            "POSITION": 40,
            "NORMAL": 41,
            "TEXCOORD_0": 42
          },
          "indices": 43,
          "material": 2,
          "mode": 4
        },
        {
          "attributes": {
            "POSITION": 44,
            "NORMAL": 45,
            "TEXCOORD_0": 46
          },
          "indices": 47,
          "material": 1,
          "mode": 4
        }
      ]
    }
  ],
  "nodes": [
    {
      "name": "handle",
      "mesh": 0
    },
    {
      "name": "weel_fr",
      "mesh": 1
    },
    {
      "name": "bike",
      "mesh": 2
    },
    {
      "name": "weel_bc",
      "mesh": 3
    }
  ],
  "samplers": [
    {
      "magFilter": 9729,
      "minFilter": 9986,
      "wrapS": 10497,
      "wrapT": 10497
    }
  ],
  "scene": 0,
  "scenes": [
    {
      "nodes": [
        0,
        1,
        2,
        3
      ]
    }
  ],
  "textures": [
    {
      "name": "bike01",
      "sampler": 0,
      "source": 0
    }
  ]
}
