{
  "accessors": [
    {
      "name": "Body2_1_0_positions",
      "componentType": 5126,
      "count": 282,
      "min": [
        -0.4740000069141388,
        -0.17440000176429749,
        -0.2493000030517578
      ],
      "max": [
        0.4740000069141388,
        0.250900000333786,
        0.2493000030517578
      ],
      "type": "VEC3",
      "bufferView": 0,
      "byteOffset": 0
    },
    {
      "name": "Body2_1_0_normals",
      "componentType": 5126,
      "count": 282,
      "min": [
        -0.9999977946281433,
        -0.9999923706054688,
        -0.9693729877471924
      ],
      "max": [
        0.9999977946281433,
        0.9999510049819946,
        1
      ],
      "type": "VEC3",
      "bufferView": 1,
      "byteOffset": 0
    },
    {
      "name": "Body2_1_0_texcoords",
      "componentType": 5126,
      "count": 282,
      "min": [
        0.125,
        0
      ],
      "max": [
        0.875,
        1
      ],
      "type": "VEC2",
      "bufferView": 2,
      "byteOffset": 0
    },
    {
      "name": "Body2_1_0_indices",
      "componentType": 5123,
      "count": 564,
      "min": [
        0
      ],
      "max": [
        281
      ],
      "type": "SCALAR",
      "bufferView": 3,
      "byteOffset": 0
    },
    {
      "name": "Body2_1_1_positions",
      "componentType": 5126,
      "count": 28,
      "min": [
        -0.40220001339912415,
        0.250900000333786,
        -0.2223999947309494
      ],
      "max": [
        0.04500000178813934,
        0.250900000333786,
        0.2223999947309494
      ],
      "type": "VEC3",
      "bufferView": 0,
      "byteOffset": 3384
    },
    {
      "name": "Body2_1_1_normals",
      "componentType": 5126,
      "count": 28,
      "min": [
        0,
        0,
        -1
      ],
      "max": [
        0,
        0,
        -1
      ],
      "type": "VEC3",
      "bufferView": 1,
      "byteOffset": 3384
    },
    {
      "name": "Body2_1_1_texcoords",
      "componentType": 5126,
      "count": 28,
      "min": [
        0.375,
        0.5
      ],
      "max": [
        0.625,
        0.664900004863739
      ],
      "type": "VEC2",
      "bufferView": 2,
      "byteOffset": 2256
    },
    {
      "name": "Body2_1_1_indices",
      "componentType": 5123,
      "count": 54,
      "min": [
        0
      ],
      "max": [
        27
      ],
      "type": "SCALAR",
      "bufferView": 3,
      "byteOffset": 1128
    },
    {
      "name": "Body2_1_2_positions",
      "componentType": 5126,
      "count": 48,
      "min": [
        -0.4627000093460083,
        0.06629999727010727,
        -0.2467000037431717
      ],
      "max": [
        0.14329999685287476,
        0.23330000042915344,
        0.2467000037431717
      ],
      "type": "VEC3",
      "bufferView": 0,
      "byteOffset": 3720
    },
    {
      "name": "Body2_1_2_normals",
      "componentType": 5126,
      "count": 48,
      "min": [
        -0.9981923699378967,
        -0.996337890625,
        -0.1259053647518158
      ],
      "max": [
        0.9981923699378967,
        0.9920422434806824,
        -0.06009954214096069
      ],
      "type": "VEC3",
      "bufferView": 1,
      "byteOffset": 3720
    },
    {
      "name": "Body2_1_2_texcoords",
      "componentType": 5126,
      "count": 48,
      "min": [
        0.375,
        0.5
      ],
      "max": [
        0.625,
        0.664900004863739
      ],
      "type": "VEC2",
      "bufferView": 2,
      "byteOffset": 2480
    },
    {
      "name": "Body2_1_2_indices",
      "componentType": 5123,
      "count": 72,
      "min": [
        0
      ],
      "max": [
        47
      ],
      "type": "SCALAR",
      "bufferView": 3,
      "byteOffset": 1236
    },
    {
      "name": "Body2_1_3_positions",
      "componentType": 5126,
      "count": 64,
      "min": [
        -0.453900009393692,
        -0.17440000176429749,
        -0.24860000610351562
      ],
      "max": [
        0.4740000069141388,
        0.03460000082850456,
        0.24860000610351562
      ],
      "type": "VEC3",
      "bufferView": 0,
      "byteOffset": 4296
    },
    {
      "name": "Body2_1_3_normals",
      "componentType": 5126,
      "count": 64,
      "min": [
        -0.9999019503593445,
        -0.9996593594551086,
        0.009899514727294445
      ],
      "max": [
        0.9999019503593445,
        0.9999510049819946,
        0.026098938658833504
      ],
      "type": "VEC3",
      "bufferView": 1,
      "byteOffset": 4296
    },
    {
      "name": "Body2_1_3_texcoords",
      "componentType": 5126,
      "count": 64,
      "min": [
        0.004399999976158142,
        0.25
      ],
      "max": [
        0.9865999817848206,
        1
      ],
      "type": "VEC2",
      "bufferView": 2,
      "byteOffset": 2864
    },
    {
      "name": "Body2_1_3_indices",
      "componentType": 5123,
      "count": 114,
      "min": [
        0
      ],
      "max": [
        63
      ],
      "type": "SCALAR",
      "bufferView": 3,
      "byteOffset": 1380
    },
    {
      "name": "Body2_1_4_positions",
      "componentType": 5126,
      "count": 16,
      "min": [
        -0.4740000069141388,
        -0.024399999529123306,
        -0.2493000030517578
      ],
      "max": [
        -0.40880000591278076,
        0.051500000059604645,
        0.2493000030517578
      ],
      "type": "VEC3",
      "bufferView": 0,
      "byteOffset": 5064
    },
    {
      "name": "Body2_1_4_normals",
      "componentType": 5126,
      "count": 16,
      "min": [
        -0.9999977946281433,
        -0.9999923706054688,
        -0.006699849851429462
      ],
      "max": [
        0.9999977946281433,
        0,
        0.026098938658833504
      ],
      "type": "VEC3",
      "bufferView": 1,
      "byteOffset": 5064
    },
    {
      "name": "Body2_1_4_texcoords",
      "componentType": 5126,
      "count": 16,
      "min": [
        0.8657000064849854,
        0.003000000026077032
      ],
      "max": [
        0.998199999332428,
        0.24899999797344208
      ],
      "type": "VEC2",
      "bufferView": 2,
      "byteOffset": 3376
    },
    {
      "name": "Body2_1_4_indices",
      "componentType": 5123,
      "count": 24,
      "min": [
        0
      ],
      "max": [
        15
      ],
      "type": "SCALAR",
      "bufferView": 3,
      "byteOffset": 1608
    },
    {
      "name": "Body2_1_5_positions",
      "componentType": 5126,
      "count": 16,
      "min": [
        -0.453000009059906,
        -0.16979999840259552,
        -0.23759999871253967
      ],
      "max": [
        0.4740000069141388,
        0.03200000151991844,
        0.23810000717639923
      ],
      "type": "VEC3",
      "bufferView": 0,
      "byteOffset": 5256
    },
    {
      "name": "Body2_1_5_normals",
      "componentType": 5126,
      "count": 16,
      "min": [
        0,
        -0.9996593594551086,
        0.009899514727294445
      ],
      "max": [
        0,
        0.9999510049819946,
        0.026098938658833504
      ],
      "type": "VEC3",
      "bufferView": 1,
      "byteOffset": 5256
    },
    {
      "name": "Body2_1_5_texcoords",
      "componentType": 5126,
      "count": 16,
      "min": [
        0.002899999963119626,
        0.11800000071525574
      ],
      "max": [
        0.8518000245094299,
        0.33980000019073486
      ],
      "type": "VEC2",
      "bufferView": 2,
      "byteOffset": 3504
    },
    {
      "name": "Body2_1_5_indices",
      "componentType": 5123,
      "count": 24,
      "min": [
        0
      ],
      "max": [
        15
      ],
      "type": "SCALAR",
      "bufferView": 3,
      "byteOffset": 1656
    },
    {
      "name": "WheelRL011_1_0_positions",
      "componentType": 5126,
      "count": 90,
      "min": [
        0.18000000715255737,
        -0.25060001015663147,
        0.1736000031232834
      ],
      "max": [
        0.3831999897956848,
        -0.048500001430511475,
        0.2531999945640564
      ],
      "type": "VEC3",
      "bufferView": 0,
      "byteOffset": 5448
    },
    {
      "name": "WheelRL011_1_0_normals",
      "componentType": 5126,
      "count": 90,
      "min": [
        -0.9781479239463806,
        -0.9945245981216431,
        -1
      ],
      "max": [
        1,
        0.9945245981216431,
        0.9337522387504578
      ],
      "type": "VEC3",
      "bufferView": 1,
      "byteOffset": 5448
    },
    {
      "name": "WheelRL011_1_0_texcoords",
      "componentType": 5126,
      "count": 90,
      "min": [
        0.31470000743865967,
        0.1687999963760376
      ],
      "max": [
        0.8992999792098999,
        0.7864999771118164
      ],
      "type": "VEC2",
      "bufferView": 2,
      "byteOffset": 3632
    },
    {
      "name": "WheelRL011_1_0_indices",
      "componentType": 5123,
      "count": 168,
      "min": [
        0
      ],
      "max": [
        89
      ],
      "type": "SCALAR",
      "bufferView": 3,
      "byteOffset": 1704
    },
    {
      "name": "WheelRL012_1_0_positions",
      "componentType": 5126,
      "count": 90,
      "min": [
        -0.399399995803833,
        -0.25060001015663147,
        0.1736000031232834
      ],
      "max": [
        -0.19619999825954437,
        -0.048500001430511475,
        0.2531999945640564
      ],
      "type": "VEC3",
      "bufferView": 0,
      "byteOffset": 6528
    },
    {
      "name": "WheelRL012_1_0_normals",
      "componentType": 5126,
      "count": 90,
      "min": [
        -0.9781479239463806,
        -0.9945245981216431,
        -1
      ],
      "max": [
        1,
        0.9945245981216431,
        0.9337522387504578
      ],
      "type": "VEC3",
      "bufferView": 1,
      "byteOffset": 6528
    },
    {
      "name": "WheelRL012_1_0_texcoords",
      "componentType": 5126,
      "count": 90,
      "min": [
        0.3061999976634979,
        0.1687999963760376
      ],
      "max": [
        0.8992999792098999,
        0.792900025844574
      ],
      "type": "VEC2",
      "bufferView": 2,
      "byteOffset": 4352
    },
    {
      "name": "WheelRL012_1_0_indices",
      "componentType": 5123,
      "count": 168,
      "min": [
        0
      ],
      "max": [
        89
      ],
      "type": "SCALAR",
      "bufferView": 3,
      "byteOffset": 2040
    },
    {
      "name": "WheelRL013_1_0_positions",
      "componentType": 5126,
      "count": 90,
      "min": [
        0.18000000715255737,
        -0.2484000027179718,
        -0.2524000108242035
      ],
      "max": [
        0.3831999897956848,
        -0.046300001442432404,
        -0.1729000061750412
      ],
      "type": "VEC3",
      "bufferView": 0,
      "byteOffset": 7608
    },
    {
      "name": "WheelRL013_1_0_normals",
      "componentType": 5126,
      "count": 90,
      "min": [
        -0.9781479239463806,
        -0.9945245981216431,
        -1
      ],
      "max": [
        1,
        0.9945245981216431,
        0.9337522387504578
      ],
      "type": "VEC3",
      "bufferView": 1,
      "byteOffset": 7608
    },
    {
      "name": "WheelRL013_1_0_texcoords",
      "componentType": 5126,
      "count": 90,
      "min": [
        0.31220000982284546,
        0.1687999963760376
      ],
      "max": [
        0.8992999792098999,
        0.7911999821662903
      ],
      "type": "VEC2",
      "bufferView": 2,
      "byteOffset": 5072
    },
    {
      "name": "WheelRL013_1_0_indices",
      "componentType": 5123,
      "count": 168,
      "min": [
        0
      ],
      "max": [
        89
      ],
      "type": "SCALAR",
      "bufferView": 3,
      "byteOffset": 2376
    },
    {
      "name": "WheelRL014_1_0_positions",
      "componentType": 5126,
      "count": 90,
      "min": [
        -0.399399995803833,
        -0.2484000027179718,
        -0.2524000108242035
      ],
      "max": [
        -0.19619999825954437,
        -0.046300001442432404,
        -0.1729000061750412
      ],
      "type": "VEC3",
      "bufferView": 0,
      "byteOffset": 8688
    },
    {
      "name": "WheelRL014_1_0_normals",
      "componentType": 5126,
      "count": 90,
      "min": [
        -0.9781479239463806,
        -0.9945245981216431,
        -1
      ],
      "max": [
        1,
        0.9945245981216431,
        0.9337522387504578
      ],
      "type": "VEC3",
      "bufferView": 1,
      "byteOffset": 8688
    },
    {
      "name": "WheelRL014_1_0_texcoords",
      "componentType": 5126,
      "count": 90,
      "min": [
        0.3431999981403351,
        0.1687999963760376
      ],
      "max": [
        0.8992999792098999,
        0.7559000253677368
      ],
      "type": "VEC2",
      "bufferView": 2,
      "byteOffset": 5792
    },
    {
      "name": "WheelRL014_1_0_indices",
      "componentType": 5123,
      "count": 168,
      "min": [
        0
      ],
      "max": [
        89
      ],
      "type": "SCALAR",
      "bufferView": 3,
      "byteOffset": 2712
    }
  ],
  "asset": {
    "generator": "obj2gltf",
    "version": "2.0"
  },
  "buffers": [
    {
      "name": "HachBack",
      "byteLength": 153060,
      "uri": "data:application/octet-stream;base64,"
    }
  ],
  "bufferViews": [
    {
      "name": "bufferView_0",
      "buffer": 0,
      "byteLength": 9768,
      "byteOffset": 0,
      "byteStride": 12,
      "target": 34962
    },
    {
      "name": "bufferView_1",
      "buffer": 0,
      "byteLength": 9768,
      "byteOffset": 9768,
      "byteStride": 12,
      "target": 34962
    },
    {
      "name": "bufferView_2",
      "buffer": 0,
      "byteLength": 6512,
      "byteOffset": 19536,
      "byteStride": 8,
      "target": 34962
    },
    {
      "name": "bufferView_3",
      "buffer": 0,
      "byteLength": 3048,
      "byteOffset": 26048,
      "target": 34963
    },
    {
      "buffer": 0,
      "byteOffset": 29096,
      "byteLength": 31139
    },
    {
      "buffer": 0,
      "byteOffset": 60235,
      "byteLength": 70644
    },
    {
      "buffer": 0,
      "byteOffset": 130879,
      "byteLength": 22180
    }
  ],
  "images": [
    {
      "name": "Grill",
      "mimeType": "image/jpeg",
      "bufferView": 4
    },
    {
      "name": "Lights",
      "mimeType": "image/jpeg",
      "bufferView": 5
    },
    {
      "name": "tire2",
      "mimeType": "image/jpeg",
      "bufferView": 6
    }
  ],
  "materials": [
    {
      "name": "TealColor",
      "pbrMetallicRoughness": {
        "baseColorFactor": [
          0.2863,
          0.1451,
          0.0667,
          1
        ],
        "metallicFactor": 0,
        "roughnessFactor": 1
      },
      "emissiveFactor": [
        0,
        0,
        0
      ],
      "alphaMode": "OPAQUE",
      "doubleSided": false
    },
    {
      "name": "Material__32",
      "pbrMetallicRoughness": {
        "baseColorFactor": [
          0.0353,
          0.0235,
          0.0196,
          1
        ],
        "metallicFactor": 0,
        "roughnessFactor": 0.99
      },
      "emissiveFactor": [
        0,
        0,
        0
      ],
      "alphaMode": "OPAQUE",
      "doubleSided": false
    },
    {
      "name": "Glass",
      "pbrMetallicRoughness": {
        "baseColorFactor": [
          0.0122,
          0.0148,
          0.0155,
          1
        ],
        "metallicFactor": 0,
        "roughnessFactor": 1
      },
      "emissiveFactor": [
        0,
        0,
        0
      ],
      "alphaMode": "OPAQUE",
      "doubleSided": false
    },
    {
      "name": "Black",
      "pbrMetallicRoughness": {
        "baseColorTexture": {
          "index": 0
        },
        "baseColorFactor": [
          1,
          1,
          1,
          1
        ],
        "metallicFactor": 0,
        "roughnessFactor": 1
      },
      "emissiveFactor": [
        0,
        0,
        0
      ],
      "alphaMode": "OPAQUE",
      "doubleSided": false
    },
    {
      "name": "RedLights",
      "pbrMetallicRoughness": {
        "baseColorTexture": {
          "index": 1
        },
        "baseColorFactor": [
          1,
          1,
          1,
          1
        ],
        "metallicFactor": 0,
        "roughnessFactor": 0.9734195
      },
      "emissiveFactor": [
        0,
        0,
        0
      ],
      "alphaMode": "OPAQUE",
      "doubleSided": false
    },
    {
      "name": "White",
      "pbrMetallicRoughness": {
        "baseColorTexture": {
          "index": 1
        },
        "baseColorFactor": [
          1,
          1,
          1,
          1
        ],
        "metallicFactor": 0,
        "roughnessFactor": 1
      },
      "emissiveFactor": [
        0,
        0,
        0
      ],
      "alphaMode": "OPAQUE",
      "doubleSided": false
    },
    {
      "name": "Material__33",
      "pbrMetallicRoughness": {
        "baseColorTexture": {
          "index": 2
        },
        "baseColorFactor": [
          1,
          1,
          1,
          1
        ],
        "metallicFactor": 0,
        "roughnessFactor": 0.99
      },
      "emissiveFactor": [
        0,
        0,
        0
      ],
      "alphaMode": "OPAQUE",
      "doubleSided": false
    }
  ],
  "meshes": [
    {
      "name": "Body2_1",
      "primitives": [
        {
          "attributes": {
            "POSITION": 0,
            "NORMAL": 1,
            "TEXCOORD_0": 2
          },
          "indices": 3,
          "material": 0,
          "mode": 4
        },
        {
          "attributes": {
            "POSITION": 4,
            "NORMAL": 5,
            "TEXCOORD_0": 6
          },
          "indices": 7,
          "material": 1,
          "mode": 4
        },
        {
          "attributes": {
            "POSITION": 8,
            "NORMAL": 9,
            "TEXCOORD_0": 10
          },
          "indices": 11,
          "material": 2,
          "mode": 4
        },
        {
          "attributes": {
            "POSITION": 12,
            "NORMAL": 13,
            "TEXCOORD_0": 14
          },
          "indices": 15,
          "material": 3,
          "mode": 4
        },
        {
          "attributes": {
            "POSITION": 16,
            "NORMAL": 17,
            "TEXCOORD_0": 18
          },
          "indices": 19,
          "material": 4,
          "mode": 4
        },
        {
          "attributes": {
            "POSITION": 20,
            "NORMAL": 21,
            "TEXCOORD_0": 22
          },
          "indices": 23,
          "material": 5,
          "mode": 4
        }
      ]
    },
    {
      "name": "WheelRL011_1",
      "primitives": [
        {
          "attributes": {
            "POSITION": 24,
            "NORMAL": 25,
            "TEXCOORD_0": 26
          },
          "indices": 27,
          "material": 6,
          "mode": 4
        }
      ]
    },
    {
      "name": "WheelRL012_1",
      "primitives": [
        {
          "attributes": {
            "POSITION": 28,
            "NORMAL": 29,
            "TEXCOORD_0": 30
          },
          "indices": 31,
          "material": 6,
          "mode": 4
        }
      ]
    },
    {
      "name": "WheelRL013_1",
      "primitives": [
        {
          "attributes": {
            "POSITION": 32,
            "NORMAL": 33,
            "TEXCOORD_0": 34
          },
          "indices": 35,
          "material": 6,
          "mode": 4
        }
      ]
    },
    {
      "name": "WheelRL014_1",
      "primitives": [
        {
          "attributes": {
            "POSITION": 36,
            "NORMAL": 37,
            "TEXCOORD_0": 38
          },
          "indices": 39,
          "material": 6,
          "mode": 4
        }
      ]
    }
  ],
  "nodes": [
    {
      "name": "Body2",
      "mesh": 0
    },
    {
      "name": "WheelRL011",
      "mesh": 1
    },
    {
      "name": "WheelRL012",
      "mesh": 2
    },
    {
      "name": "WheelRL013",
      "mesh": 3
    },
    {
      "name": "WheelRL014",
      "mesh": 4
    }
  ],
  "samplers": [
    {
      "magFilter": 9729,
      "minFilter": 9986,
      "wrapS": 10497,
      "wrapT": 10497
    }
  ],
  "scene": 0,
  "scenes": [
    {
      "nodes": [
        0,
        1,
        2,
        3,
        4
      ]
    }
  ],
  "textures": [
    {
      "name": "Grill",
      "sampler": 0,
      "source": 0
    },
    {
      "name": "Lights",
      "sampler": 0,
      "source": 1
    },
    {
      "name": "tire2",
      "sampler": 0,
      "source": 2
    }
  ]
}
