{
  "accessors": [
    {
      "name": "pCube4_1_0_positions",
      "componentType": 5126,
      "count": 16,
      "min": [
        -0.6147000193595886,
        -0.24220000207424164,
        -0.28870001435279846
      ],
      "max": [
        0.6297000050544739,
        -0.08290000259876251,
        0.2896000146865845
      ],
      "type": "VEC3",
      "bufferView": 0,
      "byteOffset": 0
    },
    {
      "name": "pCube4_1_0_normals",
      "componentType": 5126,
      "count": 16,
      "min": [
        0,
        -0.9998735785484314,
        0.0054999166168272495
      ],
      "max": [
        0,
        0.999984860420227,
        0.015899579972028732
      ],
      "type": "VEC3",
      "bufferView": 1,
      "byteOffset": 0
    },
    {
      "name": "pCube4_1_0_texcoords",
      "componentType": 5126,
      "count": 16,
      "min": [
        0.0026000000070780516,
        0.29600000381469727
      ],
      "max": [
        0.9980000257492065,
        0.857200026512146
      ],
      "type": "VEC2",
      "bufferView": 2,
      "byteOffset": 0
    },
    {
      "name": "pCube4_1_0_indices",
      "componentType": 5123,
      "count": 24,
      "min": [
        0
      ],
      "max": [
        15
      ],
      "type": "SCALAR",
      "bufferView": 3,
      "byteOffset": 0
    },
    {
      "name": "pCube4_1_1_positions",
      "componentType": 5126,
      "count": 423,
      "min": [
        -0.6317999958992004,
        -0.24860000610351562,
        -0.29249998927116394
      ],
      "max": [
        0.6317999958992004,
        0.3278999924659729,
        0.29330000281333923
      ],
      "type": "VEC3",
      "bufferView": 0,
      "byteOffset": 192
    },
    {
      "name": "pCube4_1_1_normals",
      "componentType": 5126,
      "count": 423,
      "min": [
        -0.9998912215232849,
        -0.9999558329582214,
        -1
      ],
      "max": [
        0.9998912215232849,
        0.9999948740005493,
        1
      ],
      "type": "VEC3",
      "bufferView": 1,
      "byteOffset": 192
    },
    {
      "name": "pCube4_1_1_texcoords",
      "componentType": 5126,
      "count": 423,
      "min": [
        0.125,
        0
      ],
      "max": [
        0.875,
        1
      ],
      "type": "VEC2",
      "bufferView": 2,
      "byteOffset": 128
    },
    {
      "name": "pCube4_1_1_indices",
      "componentType": 5123,
      "count": 786,
      "min": [
        0
      ],
      "max": [
        422
      ],
      "type": "SCALAR",
      "bufferView": 3,
      "byteOffset": 48
    },
    {
      "name": "pCube4_1_2_positions",
      "componentType": 5126,
      "count": 24,
      "min": [
        -0.6270999908447266,
        -0.17239999771118164,
        -0.28870001435279846
      ],
      "max": [
        0.6297000050544739,
        0.00019999999494757503,
        0.2896000146865845
      ],
      "type": "VEC3",
      "bufferView": 0,
      "byteOffset": 5268
    },
    {
      "name": "pCube4_1_2_normals",
      "componentType": 5126,
      "count": 24,
      "min": [
        -0.999768853187561,
        -0.9999558329582214,
        0.009399584494531155
      ],
      "max": [
        0.999768853187561,
        0,
        0.032598722726106644
      ],
      "type": "VEC3",
      "bufferView": 1,
      "byteOffset": 5268
    },
    {
      "name": "pCube4_1_2_texcoords",
      "componentType": 5126,
      "count": 24,
      "min": [
        0.1354999989271164,
        0.008700000122189522
      ],
      "max": [
        0.8582000136375427,
        0.5253999829292297
      ],
      "type": "VEC2",
      "bufferView": 2,
      "byteOffset": 3512
    },
    {
      "name": "pCube4_1_2_indices",
      "componentType": 5123,
      "count": 36,
      "min": [
        0
      ],
      "max": [
        23
      ],
      "type": "SCALAR",
      "bufferView": 3,
      "byteOffset": 1620
    },
    {
      "name": "pCube4_1_3_positions",
      "componentType": 5126,
      "count": 76,
      "min": [
        -0.6151999831199646,
        -0.24860000610351562,
        -0.29100000858306885
      ],
      "max": [
        0.6290000081062317,
        0.051500000059604645,
        0.29190000891685486
      ],
      "type": "VEC3",
      "bufferView": 0,
      "byteOffset": 5556
    },
    {
      "name": "pCube4_1_3_normals",
      "componentType": 5126,
      "count": 76,
      "min": [
        -0.9998605847358704,
        -0.9998735785484314,
        0.009899514727294445
      ],
      "max": [
        0.9998605847358704,
        0.9999510049819946,
        1
      ],
      "type": "VEC3",
      "bufferView": 1,
      "byteOffset": 5556
    },
    {
      "name": "pCube4_1_3_texcoords",
      "componentType": 5126,
      "count": 76,
      "min": [
        0.125,
        0.01140000019222498
      ],
      "max": [
        0.875,
        1.0052000284194946
      ],
      "type": "VEC2",
      "bufferView": 2,
      "byteOffset": 3704
    },
    {
      "name": "pCube4_1_3_indices",
      "componentType": 5123,
      "count": 126,
      "min": [
        0
      ],
      "max": [
        75
      ],
      "type": "SCALAR",
      "bufferView": 3,
      "byteOffset": 1692
    },
    {
      "name": "pCube4_1_4_positions",
      "componentType": 5126,
      "count": 24,
      "min": [
        -0.003599999938160181,
        0.0738999992609024,
        -0.29010000824928284
      ],
      "max": [
        0.43709999322891235,
        0.3100999891757965,
        0.29100000858306885
      ],
      "type": "VEC3",
      "bufferView": 0,
      "byteOffset": 6468
    },
    {
      "name": "pCube4_1_4_normals",
      "componentType": 5126,
      "count": 24,
      "min": [
        -0.9981305599212646,
        -0.0014000429073348641,
        -0.07369856536388397
      ],
      "max": [
        0.9981305599212646,
        0.997287929058075,
        -0.061101868748664856
      ],
      "type": "VEC3",
      "bufferView": 1,
      "byteOffset": 6468
    },
    {
      "name": "pCube4_1_4_texcoords",
      "componentType": 5126,
      "count": 24,
      "min": [
        0.375,
        0.6177999973297119
      ],
      "max": [
        0.625,
        0.7071999907493591
      ],
      "type": "VEC2",
      "bufferView": 2,
      "byteOffset": 4312
    },
    {
      "name": "pCube4_1_4_indices",
      "componentType": 5123,
      "count": 36,
      "min": [
        0
      ],
      "max": [
        23
      ],
      "type": "SCALAR",
      "bufferView": 3,
      "byteOffset": 1944
    },
    {
      "name": "pCube4_1_5_positions",
      "componentType": 5126,
      "count": 64,
      "min": [
        -0.6317999958992004,
        -0.0003000000142492354,
        -0.29249998927116394
      ],
      "max": [
        0.4431000053882599,
        0.05999999865889549,
        0.29330000281333923
      ],
      "type": "VEC3",
      "bufferView": 0,
      "byteOffset": 6756
    },
    {
      "name": "pCube4_1_5_normals",
      "componentType": 5126,
      "count": 64,
      "min": [
        -0.9998912215232849,
        -0.9999558329582214,
        -0.045498378574848175
      ],
      "max": [
        0.9998912215232849,
        0.01519930362701416,
        0.03420138731598854
      ],
      "type": "VEC3",
      "bufferView": 1,
      "byteOffset": 6756
    },
    {
      "name": "pCube4_1_5_texcoords",
      "componentType": 5126,
      "count": 64,
      "min": [
        0.125,
        0.4429999887943268
      ],
      "max": [
        0.875,
        0.8069999814033508
      ],
      "type": "VEC2",
      "bufferView": 2,
      "byteOffset": 4504
    },
    {
      "name": "pCube4_1_5_indices",
      "componentType": 5123,
      "count": 132,
      "min": [
        0
      ],
      "max": [
        63
      ],
      "type": "SCALAR",
      "bufferView": 3,
      "byteOffset": 2016
    },
    {
      "name": "pCube3_1_0_positions",
      "componentType": 5126,
      "count": 24,
      "min": [
        0.4097000062465668,
        0.03700000047683716,
        0.2863999903202057
      ],
      "max": [
        0.445499986410141,
        0.08380000293254852,
        0.3587000072002411
      ],
      "type": "VEC3",
      "bufferView": 0,
      "byteOffset": 7524
    },
    {
      "name": "pCube3_1_0_normals",
      "componentType": 5126,
      "count": 24,
      "min": [
        -1,
        -1,
        -1
      ],
      "max": [
        1,
        1,
        1
      ],
      "type": "VEC3",
      "bufferView": 1,
      "byteOffset": 7524
    },
    {
      "name": "pCube3_1_0_texcoords",
      "componentType": 5126,
      "count": 24,
      "min": [
        0.125,
        0
      ],
      "max": [
        0.875,
        1
      ],
      "type": "VEC2",
      "bufferView": 2,
      "byteOffset": 5016
    },
    {
      "name": "pCube3_1_0_indices",
      "componentType": 5123,
      "count": 36,
      "min": [
        0
      ],
      "max": [
        23
      ],
      "type": "SCALAR",
      "bufferView": 3,
      "byteOffset": 2280
    },
    {
      "name": "pCube2_1_0_positions",
      "componentType": 5126,
      "count": 24,
      "min": [
        0.40939998626708984,
        0.037300001829862595,
        -0.3587000072002411
      ],
      "max": [
        0.4458000063896179,
        0.08349999785423279,
        -0.2867000102996826
      ],
      "type": "VEC3",
      "bufferView": 0,
      "byteOffset": 7812
    },
    {
      "name": "pCube2_1_0_normals",
      "componentType": 5126,
      "count": 24,
      "min": [
        -1,
        -1,
        -1
      ],
      "max": [
        1,
        1,
        1
      ],
      "type": "VEC3",
      "bufferView": 1,
      "byteOffset": 7812
    },
    {
      "name": "pCube2_1_0_texcoords",
      "componentType": 5126,
      "count": 24,
      "min": [
        0.125,
        0
      ],
      "max": [
        0.875,
        1
      ],
      "type": "VEC2",
      "bufferView": 2,
      "byteOffset": 5208
    },
    {
      "name": "pCube2_1_0_indices",
      "componentType": 5123,
      "count": 36,
      "min": [
        0
      ],
      "max": [
        23
      ],
      "type": "SCALAR",
      "bufferView": 3,
      "byteOffset": 2352
    },
    {
      "name": "WheelRL013_1_0_positions",
      "componentType": 5126,
      "count": 90,
      "min": [
        0.36629998683929443,
        -0.3278999924659729,
        -0.2955000102519989
      ],
      "max": [
        0.5695000290870667,
        -0.1257999986410141,
        -0.2159000039100647
      ],
      "type": "VEC3",
      "bufferView": 0,
      "byteOffset": 8100
    },
    {
      "name": "WheelRL013_1_0_normals",
      "componentType": 5126,
      "count": 90,
      "min": [
        -0.9781479239463806,
        -0.9945245981216431,
        -1
      ],
      "max": [
        1,
        0.9945245981216431,
        0.9337522387504578
      ],
      "type": "VEC3",
      "bufferView": 1,
      "byteOffset": 8100
    },
    {
      "name": "WheelRL013_1_0_texcoords",
      "componentType": 5126,
      "count": 90,
      "min": [
        0.10130000114440918,
        0.1687999963760376
      ],
      "max": [
        0.570900022983551,
        0.7861999869346619
      ],
      "type": "VEC2",
      "bufferView": 2,
      "byteOffset": 5400
    },
    {
      "name": "WheelRL013_1_0_indices",
      "componentType": 5123,
      "count": 168,
      "min": [
        0
      ],
      "max": [
        89
      ],
      "type": "SCALAR",
      "bufferView": 3,
      "byteOffset": 2424
    },
    {
      "name": "WheelRL014_1_0_positions",
      "componentType": 5126,
      "count": 90,
      "min": [
        -0.5712000131607056,
        -0.3278999924659729,
        -0.2957000136375427
      ],
      "max": [
        -0.36800000071525574,
        -0.1257999986410141,
        -0.21610000729560852
      ],
      "type": "VEC3",
      "bufferView": 0,
      "byteOffset": 9180
    },
    {
      "name": "WheelRL014_1_0_normals",
      "componentType": 5126,
      "count": 90,
      "min": [
        -0.9781479239463806,
        -0.9945245981216431,
        -1
      ],
      "max": [
        1,
        0.9945245981216431,
        0.9337522387504578
      ],
      "type": "VEC3",
      "bufferView": 1,
      "byteOffset": 9180
    },
    {
      "name": "WheelRL014_1_0_texcoords",
      "componentType": 5126,
      "count": 90,
      "min": [
        0.10130000114440918,
        0.1687999963760376
      ],
      "max": [
        0.570900022983551,
        0.7861999869346619
      ],
      "type": "VEC2",
      "bufferView": 2,
      "byteOffset": 6120
    },
    {
      "name": "WheelRL014_1_0_indices",
      "componentType": 5123,
      "count": 168,
      "min": [
        0
      ],
      "max": [
        89
      ],
      "type": "SCALAR",
      "bufferView": 3,
      "byteOffset": 2760
    },
    {
      "name": "WheelRL011_1_0_positions",
      "componentType": 5126,
      "count": 90,
      "min": [
        0.36629998683929443,
        -0.3278999924659729,
        0.21359999477863312
      ],
      "max": [
        0.5695000290870667,
        -0.1257999986410141,
        0.2930999994277954
      ],
      "type": "VEC3",
      "bufferView": 0,
      "byteOffset": 10260
    },
    {
      "name": "WheelRL011_1_0_normals",
      "componentType": 5126,
      "count": 90,
      "min": [
        -0.9781479239463806,
        -0.9945245981216431,
        -1
      ],
      "max": [
        1,
        0.9945245981216431,
        0.9337522387504578
      ],
      "type": "VEC3",
      "bufferView": 1,
      "byteOffset": 10260
    },
    {
      "name": "WheelRL011_1_0_texcoords",
      "componentType": 5126,
      "count": 90,
      "min": [
        0.10130000114440918,
        0.1687999963760376
      ],
      "max": [
        0.570900022983551,
        0.7861999869346619
      ],
      "type": "VEC2",
      "bufferView": 2,
      "byteOffset": 6840
    },
    {
      "name": "WheelRL011_1_0_indices",
      "componentType": 5123,
      "count": 168,
      "min": [
        0
      ],
      "max": [
        89
      ],
      "type": "SCALAR",
      "bufferView": 3,
      "byteOffset": 3096
    },
    {
      "name": "WheelRL012_1_0_positions",
      "componentType": 5126,
      "count": 90,
      "min": [
        -0.5712000131607056,
        -0.3278999924659729,
        0.2134000062942505
      ],
      "max": [
        -0.36800000071525574,
        -0.1257999986410141,
        0.2930000126361847
      ],
      "type": "VEC3",
      "bufferView": 0,
      "byteOffset": 11340
    },
    {
      "name": "WheelRL012_1_0_normals",
      "componentType": 5126,
      "count": 90,
      "min": [
        -0.9781479239463806,
        -0.9945245981216431,
        -1
      ],
      "max": [
        1,
        0.9945245981216431,
        0.9337522387504578
      ],
      "type": "VEC3",
      "bufferView": 1,
      "byteOffset": 11340
    },
    {
      "name": "WheelRL012_1_0_texcoords",
      "componentType": 5126,
      "count": 90,
      "min": [
        0.10130000114440918,
        0.1687999963760376
      ],
      "max": [
        0.570900022983551,
        0.7861999869346619
      ],
      "type": "VEC2",
      "bufferView": 2,
      "byteOffset": 7560
    },
    {
      "name": "WheelRL012_1_0_indices",
      "componentType": 5123,
      "count": 168,
      "min": [
        0
      ],
      "max": [
        89
      ],
      "type": "SCALAR",
      "bufferView": 3,
      "byteOffset": 3432
    }
  ],
  "asset": {
    "generator": "obj2gltf",
    "version": "2.0"
  },
  "buffers": [
    {
      "name": "MiniVan",
      "byteLength": 160852,
      "uri": "data:application/octet-stream;base64,"
    }
  ],
  "bufferViews": [
    {
      "name": "bufferView_0",
      "buffer": 0,
      "byteLength": 12420,
      "byteOffset": 0,
      "byteStride": 12,
      "target": 34962
    },
    {
      "name": "bufferView_1",
      "buffer": 0,
      "byteLength": 12420,
      "byteOffset": 12420,
      "byteStride": 12,
      "target": 34962
    },
    {
      "name": "bufferView_2",
      "buffer": 0,
      "byteLength": 8280,
      "byteOffset": 24840,
      "byteStride": 8,
      "target": 34962
    },
    {
      "name": "bufferView_3",
      "buffer": 0,
      "byteLength": 3768,
      "byteOffset": 33120,
      "target": 34963
    },
    {
      "buffer": 0,
      "byteOffset": 36888,
      "byteLength": 70644
    },
    {
      "buffer": 0,
      "byteOffset": 107532,
      "byteLength": 31139
    },
    {
      "buffer": 0,
      "byteOffset": 138671,
      "byteLength": 22180
    }
  ],
  "images": [
    {
      "name": "Lights",
      "mimeType": "image/jpeg",
      "bufferView": 4
    },
    {
      "name": "Grill",
      "mimeType": "image/jpeg",
      "bufferView": 5
    },
    {
      "name": "tire2",
      "mimeType": "image/jpeg",
      "bufferView": 6
    }
  ],
  "materials": [
    {
      "name": "YellowLights",
      "pbrMetallicRoughness": {
        "baseColorTexture": {
          "index": 0
        },
        "baseColorFactor": [
          1,
          1,
          1,
          1
        ],
        "metallicFactor": 0,
        "roughnessFactor": 0.9734195
      },
      "emissiveFactor": [
        0,
        0,
        0
      ],
      "alphaMode": "OPAQUE",
      "doubleSided": false
    },
    {
      "name": "White",
      "pbrMetallicRoughness": {
        "baseColorFactor": [
          0.4431,
          0.2784,
          0.2706,
          1
        ],
        "metallicFactor": 0,
        "roughnessFactor": 0.9480276
      },
      "emissiveFactor": [
        0,
        0,
        0
      ],
      "alphaMode": "OPAQUE",
      "doubleSided": false
    },
    {
      "name": "RedLights",
      "pbrMetallicRoughness": {
        "baseColorTexture": {
          "index": 0
        },
        "baseColorFactor": [
          1,
          1,
          1,
          1
        ],
        "metallicFactor": 0,
        "roughnessFactor": 1
      },
      "emissiveFactor": [
        0,
        0,
        0
      ],
      "alphaMode": "OPAQUE",
      "doubleSided": false
    },
    {
      "name": "Black",
      "pbrMetallicRoughness": {
        "baseColorTexture": {
          "index": 1
        },
        "baseColorFactor": [
          1,
          1,
          1,
          1
        ],
        "metallicFactor": 0,
        "roughnessFactor": 1
      },
      "emissiveFactor": [
        0,
        0,
        0
      ],
      "alphaMode": "OPAQUE",
      "doubleSided": false
    },
    {
      "name": "Glass",
      "pbrMetallicRoughness": {
        "baseColorFactor": [
          0.1255,
          0.1255,
          0.1255,
          1
        ],
        "metallicFactor": 0,
        "roughnessFactor": 0.974309
      },
      "emissiveFactor": [
        0,
        0,
        0
      ],
      "alphaMode": "OPAQUE",
      "doubleSided": false
    },
    {
      "name": "Material__0",
      "pbrMetallicRoughness": {
        "baseColorFactor": [
          0.6471,
          0.4549,
          0.451,
          1
        ],
        "metallicFactor": 0,
        "roughnessFactor": 0.99
      },
      "emissiveFactor": [
        0,
        0,
        0
      ],
      "alphaMode": "OPAQUE",
      "doubleSided": false
    },
    {
      "name": "Material__33",
      "pbrMetallicRoughness": {
        "baseColorTexture": {
          "index": 2
        },
        "baseColorFactor": [
          1,
          1,
          1,
          1
        ],
        "metallicFactor": 0,
        "roughnessFactor": 0.99
      },
      "emissiveFactor": [
        0,
        0,
        0
      ],
      "alphaMode": "OPAQUE",
      "doubleSided": false
    }
  ],
  "meshes": [
    {
      "name": "pCube4_1",
      "primitives": [
        {
          "attributes": {
            "POSITION": 0,
            "NORMAL": 1,
            "TEXCOORD_0": 2
          },
          "indices": 3,
          "material": 0,
          "mode": 4
        },
        {
          "attributes": {
            "POSITION": 4,
            "NORMAL": 5,
            "TEXCOORD_0": 6
          },
          "indices": 7,
          "material": 1,
          "mode": 4
        },
        {
          "attributes": {
            "POSITION": 8,
            "NORMAL": 9,
            "TEXCOORD_0": 10
          },
          "indices": 11,
          "material": 2,
          "mode": 4
        },
        {
          "attributes": {
            "POSITION": 12,
            "NORMAL": 13,
            "TEXCOORD_0": 14
          },
          "indices": 15,
          "material": 3,
          "mode": 4
        },
        {
          "attributes": {
            "POSITION": 16,
            "NORMAL": 17,
            "TEXCOORD_0": 18
          },
          "indices": 19,
          "material": 4,
          "mode": 4
        },
        {
          "attributes": {
            "POSITION": 20,
            "NORMAL": 21,
            "TEXCOORD_0": 22
          },
          "indices": 23,
          "material": 5,
          "mode": 4
        }
      ]
    },
    {
      "name": "pCube3_1",
      "primitives": [
        {
          "attributes": {
            "POSITION": 24,
            "NORMAL": 25,
            "TEXCOORD_0": 26
          },
          "indices": 27,
          "material": 1,
          "mode": 4
        }
      ]
    },
    {
      "name": "pCube2_1",
      "primitives": [
        {
          "attributes": {
            "POSITION": 28,
            "NORMAL": 29,
            "TEXCOORD_0": 30
          },
          "indices": 31,
          "material": 1,
          "mode": 4
        }
      ]
    },
    {
      "name": "WheelRL013_1",
      "primitives": [
        {
          "attributes": {
            "POSITION": 32,
            "NORMAL": 33,
            "TEXCOORD_0": 34
          },
          "indices": 35,
          "material": 6,
          "mode": 4
        }
      ]
    },
    {
      "name": "WheelRL014_1",
      "primitives": [
        {
          "attributes": {
            "POSITION": 36,
            "NORMAL": 37,
            "TEXCOORD_0": 38
          },
          "indices": 39,
          "material": 6,
          "mode": 4
        }
      ]
    },
    {
      "name": "WheelRL011_1",
      "primitives": [
        {
          "attributes": {
            "POSITION": 40,
            "NORMAL": 41,
            "TEXCOORD_0": 42
          },
          "indices": 43,
          "material": 6,
          "mode": 4
        }
      ]
    },
    {
      "name": "WheelRL012_1",
      "primitives": [
        {
          "attributes": {
            "POSITION": 44,
            "NORMAL": 45,
            "TEXCOORD_0": 46
          },
          "indices": 47,
          "material": 6,
          "mode": 4
        }
      ]
    }
  ],
  "nodes": [
    {
      "name": "pCube4",
      "mesh": 0
    },
    {
      "name": "pCube3",
      "mesh": 1
    },
    {
      "name": "pCube2",
      "mesh": 2
    },
    {
      "name": "WheelRL013",
      "mesh": 3
    },
    {
      "name": "WheelRL014",
      "mesh": 4
    },
    {
      "name": "WheelRL011",
      "mesh": 5
    },
    {
      "name": "WheelRL012",
      "mesh": 6
    }
  ],
  "samplers": [
    {
      "magFilter": 9729,
      "minFilter": 9986,
      "wrapS": 10497,
      "wrapT": 10497
    }
  ],
  "scene": 0,
  "scenes": [
    {
      "nodes": [
        0,
        1,
        2,
        3,
        4,
        5,
        6
      ]
    }
  ],
  "textures": [
    {
      "name": "Lights",
      "sampler": 0,
      "source": 0
    },
    {
      "name": "Grill",
      "sampler": 0,
      "source": 1
    },
    {
      "name": "tire2",
      "sampler": 0,
      "source": 2
    }
  ]
}
