<?xml version="1.0" encoding="UTF-8" standalone="no"?>
<!-- Created with Inkscape (http://www.inkscape.org/) -->

<svg
   width="10.38748mm"
   height="17.23254mm"
   viewBox="0 0 10.38748 17.23254"
   version="1.1"
   id="svg23333"
   inkscape:version="1.2.2 (b0a8486541, 2022-12-01)"
   sodipodi:docname="Bow.svg"
   xmlns:inkscape="http://www.inkscape.org/namespaces/inkscape"
   xmlns:sodipodi="http://sodipodi.sourceforge.net/DTD/sodipodi-0.dtd"
   xmlns:xlink="http://www.w3.org/1999/xlink"
   xmlns="http://www.w3.org/2000/svg"
   xmlns:svg="http://www.w3.org/2000/svg">
  <sodipodi:namedview
     id="namedview23335"
     pagecolor="#ffffff"
     bordercolor="#666666"
     borderopacity="1.0"
     inkscape:showpageshadow="2"
     inkscape:pageopacity="0.0"
     inkscape:pagecheckerboard="0"
     inkscape:deskcolor="#d1d1d1"
     inkscape:document-units="mm"
     showgrid="false"
     inkscape:zoom="0.73851712"
     inkscape:cx="-41.976007"
     inkscape:cy="314.14302"
     inkscape:window-width="1920"
     inkscape:window-height="1057"
     inkscape:window-x="-8"
     inkscape:window-y="-8"
     inkscape:window-maximized="1"
     inkscape:current-layer="layer1" />
  <defs
     id="defs23330">
    <linearGradient
       inkscape:collect="always"
       xlink:href="#linearGradient15407"
       id="linearGradient21952"
       gradientUnits="userSpaceOnUse"
       gradientTransform="matrix(0.82902466,0,0,1,22.279151,-0.2216639)"
       x1="41.750866"
       y1="236.22914"
       x2="144.46498"
       y2="236.22914" />
    <linearGradient
       id="linearGradient15407"
       inkscape:swatch="solid">
      <stop
         style="stop-color:#1c5b7c;stop-opacity:1;"
         offset="0"
         id="stop15405" />
    </linearGradient>
  </defs>
  <g
     inkscape:label="Layer 1"
     inkscape:groupmode="layer"
     id="layer1"
     transform="translate(-116.25741,-65.1859)">
    <path
       class="st99"
       d="M 120.23456,73.68863"
       id="path12149"
       style="fill:#009fe3;stroke:#1d71b8;stroke-width:0.25;stroke-miterlimit:10" />
    <g
       id="g22002"
       transform="translate(-15.399154,-157.36279)">
      <path
         id="path21991"
         style="fill:url(#linearGradient21952);fill-opacity:1;stroke:none;stroke-width:1.02341;stroke-dasharray:none"
         class="st100"
         d="m 131.65656,232.23182 v 7.54941 h 3.65869 c 0.4759,-0.009 2.83339,-0.0758 4.74804,-1.71204 1.94781,-1.67409 1.98075,-3.7453 1.98075,-4.13308 -0.0442,-0.66207 -0.29851,-0.94592 -0.51986,-1.08779 -0.84112,-0.5202 -3.22078,-0.19827 -3.63027,-0.30231 -0.15495,-0.0378 -0.22118,-0.12299 -0.22118,-0.12299 -0.0553,-0.0662 -0.16166,-0.14826 -0.16166,-0.20496 -1.98282,0 -3.87147,0.0143 -5.85451,0.0138 z"
         sodipodi:nodetypes="cccccccccc" />
      <path
         id="path21988"
         style="stroke:none;stroke-width:1.02252"
         d="m 131.65656,225.01986 v 7.21403 h 5.84874 c -0.15476,-0.31211 -0.34313,-0.79455 -0.34313,-1.3715 0,-1.75919 1.77985,-2.59148 2.81895,-4.37906 0.47533,-0.83232 0.92886,-2.0903 0.71882,-3.93464 l -6.00067,0.0579 -2.01641,2.41277 z" />
    </g>
  </g>
</svg>
