{
  "accessors": [
    {
      "name": "handle_1_0_positions",
      "componentType": 5126,
      "count": 98,
      "min": [
        -0.621999979019165,
        -1.0513999462127686,
        2.6979000568389893
      ],
      "max": [
        -0.1477999985218048,
        0.019700000062584877,
        3.5834999084472656
      ],
      "type": "VEC3",
      "bufferView": 0,
      "byteOffset": 0
    },
    {
      "name": "handle_1_0_normals",
      "componentType": 5126,
      "count": 98,
      "min": [
        -0.8248239159584045,
        -0.9903337955474854,
        -0.9015800952911377
      ],
      "max": [
        0.8248239159584045,
        0.9996849298477173,
        0.9996697306632996
      ],
      "type": "VEC3",
      "bufferView": 1,
      "byteOffset": 0
    },
    {
      "name": "handle_1_0_texcoords",
      "componentType": 5126,
      "count": 98,
      "min": [
        0.382999986410141,
        0.2793999910354614
      ],
      "max": [
        0.8733999729156494,
        0.8180000185966492
      ],
      "type": "VEC2",
      "bufferView": 2,
      "byteOffset": 0
    },
    {
      "name": "handle_1_0_indices",
      "componentType": 5123,
      "count": 246,
      "min": [
        0
      ],
      "max": [
        97
      ],
      "type": "SCALAR",
      "bufferView": 3,
      "byteOffset": 0
    },
    {
      "name": "handle_1_1_positions",
      "componentType": 5126,
      "count": 96,
      "min": [
        -1.0598000288009644,
        -0.1256999969482422,
        2.6767001152038574
      ],
      "max": [
        0.2777999937534332,
        0.06459999829530716,
        2.910399913787842
      ],
      "type": "VEC3",
      "bufferView": 0,
      "byteOffset": 1176
    },
    {
      "name": "handle_1_1_normals",
      "componentType": 5126,
      "count": 96,
      "min": [
        -0.9310258030891418,
        -0.9889268279075623,
        -0.9986833333969116
      ],
      "max": [
        0.9310258030891418,
        0.9927989840507507,
        0.9928470849990845
      ],
      "type": "VEC3",
      "bufferView": 1,
      "byteOffset": 1176
    },
    {
      "name": "handle_1_1_texcoords",
      "componentType": 5126,
      "count": 96,
      "min": [
        -22.40679931640625,
        -16.62779998779297
      ],
      "max": [
        18.81999969482422,
        12.576399803161621
      ],
      "type": "VEC2",
      "bufferView": 2,
      "byteOffset": 784
    },
    {
      "name": "handle_1_1_indices",
      "componentType": 5123,
      "count": 516,
      "min": [
        0
      ],
      "max": [
        95
      ],
      "type": "SCALAR",
      "bufferView": 3,
      "byteOffset": 492
    },
    {
      "name": "handle_1_2_positions",
      "componentType": 5126,
      "count": 164,
      "min": [
        -1.0358999967575073,
        -1.0257999897003174,
        2.637500047683716
      ],
      "max": [
        0.2538999915122986,
        0.03680000081658363,
        3.255199909210205
      ],
      "type": "VEC3",
      "bufferView": 0,
      "byteOffset": 2328
    },
    {
      "name": "handle_1_2_normals",
      "componentType": 5126,
      "count": 164,
      "min": [
        -1,
        -0.9983819127082825,
        -0.9195932745933533
      ],
      "max": [
        1,
        0.99921715259552,
        0.9186659455299377
      ],
      "type": "VEC3",
      "bufferView": 1,
      "byteOffset": 2328
    },
    {
      "name": "handle_1_2_texcoords",
      "componentType": 5126,
      "count": 164,
      "min": [
        0.5180000066757202,
        0.2696000039577484
      ],
      "max": [
        0.9725000262260437,
        0.9399999976158142
      ],
      "type": "VEC2",
      "bufferView": 2,
      "byteOffset": 1552
    },
    {
      "name": "handle_1_2_indices",
      "componentType": 5123,
      "count": 468,
      "min": [
        0
      ],
      "max": [
        163
      ],
      "type": "SCALAR",
      "bufferView": 3,
      "byteOffset": 1524
    },
    {
      "name": "handle_1_3_positions",
      "componentType": 5126,
      "count": 12,
      "min": [
        -0.6916999816894531,
        -0.019300000742077827,
        2.7843000888824463
      ],
      "max": [
        -0.09040000289678574,
        0.03680000081658363,
        2.841099977493286
      ],
      "type": "VEC3",
      "bufferView": 0,
      "byteOffset": 4296
    },
    {
      "name": "handle_1_3_normals",
      "componentType": 5126,
      "count": 12,
      "min": [
        -0.9003759622573853,
        -0.505302906036377,
        -0.5349798798561096
      ],
      "max": [
        0.9003759622573853,
        0.9702368378639221,
        0.8935072422027588
      ],
      "type": "VEC3",
      "bufferView": 1,
      "byteOffset": 4296
    },
    {
      "name": "handle_1_3_texcoords",
      "componentType": 5126,
      "count": 12,
      "min": [
        0.09040000289678574,
        0.9904000163078308
      ],
      "max": [
        0.9628999829292297,
        0.9994999766349792
      ],
      "type": "VEC2",
      "bufferView": 2,
      "byteOffset": 2864
    },
    {
      "name": "handle_1_3_indices",
      "componentType": 5123,
      "count": 24,
      "min": [
        0
      ],
      "max": [
        11
      ],
      "type": "SCALAR",
      "bufferView": 3,
      "byteOffset": 2460
    },
    {
      "name": "weel_fr_1_0_positions",
      "componentType": 5126,
      "count": 491,
      "min": [
        -0.531499981880188,
        -1.4499000310897827,
        0.503600001335144
      ],
      "max": [
        -0.23800000548362732,
        -0.5227000117301941,
        3.675800085067749
      ],
      "type": "VEC3",
      "bufferView": 0,
      "byteOffset": 4440
    },
    {
      "name": "weel_fr_1_0_normals",
      "componentType": 5126,
      "count": 491,
      "min": [
        -1,
        -0.9999998211860657,
        -0.9999997019767761
      ],
      "max": [
        1,
        0.999995768070221,
        1
      ],
      "type": "VEC3",
      "bufferView": 1,
      "byteOffset": 4440
    },
    {
      "name": "weel_fr_1_0_texcoords",
      "componentType": 5126,
      "count": 491,
      "min": [
        0.708299994468689,
        0.6466000080108643
      ],
      "max": [
        0.9596999883651733,
        0.9433000087738037
      ],
      "type": "VEC2",
      "bufferView": 2,
      "byteOffset": 2960
    },
    {
      "name": "weel_fr_1_0_indices",
      "componentType": 5123,
      "count": 1476,
      "min": [
        0
      ],
      "max": [
        490
      ],
      "type": "SCALAR",
      "bufferView": 3,
      "byteOffset": 2508
    },
    {
      "name": "weel_fr_1_1_positions",
      "componentType": 5126,
      "count": 492,
      "min": [
        -0.531499981880188,
        -1.3530999422073364,
        0.6003000140190125
      ],
      "max": [
        -0.23800000548362732,
        -0.6194000244140625,
        3.5790998935699463
      ],
      "type": "VEC3",
      "bufferView": 0,
      "byteOffset": 10332
    },
    {
      "name": "weel_fr_1_1_normals",
      "componentType": 5126,
      "count": 492,
      "min": [
        -1,
        -0.9999904632568359,
        -1
      ],
      "max": [
        1,
        0.9999995827674866,
        0.9999992847442627
      ],
      "type": "VEC3",
      "bufferView": 1,
      "byteOffset": 10332
    },
    {
      "name": "weel_fr_1_1_texcoords",
      "componentType": 5126,
      "count": 492,
      "min": [
        0.0005000000237487257,
        0.0005000000237487257
      ],
      "max": [
        0.9994999766349792,
        0.9994999766349792
      ],
      "type": "VEC2",
      "bufferView": 2,
      "byteOffset": 6888
    },
    {
      "name": "weel_fr_1_1_indices",
      "componentType": 5123,
      "count": 1764,
      "min": [
        0
      ],
      "max": [
        491
      ],
      "type": "SCALAR",
      "bufferView": 3,
      "byteOffset": 5460
    },
    {
      "name": "bike_1_0_positions",
      "componentType": 5126,
      "count": 1327,
      "min": [
        -0.7943999767303467,
        -1.1361000537872314,
        0.3984000086784363
      ],
      "max": [
        0.02500000037252903,
        0.08969999849796295,
        3.139699935913086
      ],
      "type": "VEC3",
      "bufferView": 0,
      "byteOffset": 16236
    },
    {
      "name": "bike_1_0_normals",
      "componentType": 5126,
      "count": 1327,
      "min": [
        -1,
        -1,
        -1
      ],
      "max": [
        1,
        1,
        1
      ],
      "type": "VEC3",
      "bufferView": 1,
      "byteOffset": 16236
    },
    {
      "name": "bike_1_0_texcoords",
      "componentType": 5126,
      "count": 1327,
      "min": [
        0.008299999870359898,
        0.00039999998989515007
      ],
      "max": [
        0.9991000294685364,
        1.0084999799728394
      ],
      "type": "VEC2",
      "bufferView": 2,
      "byteOffset": 10824
    },
    {
      "name": "bike_1_0_indices",
      "componentType": 5123,
      "count": 4464,
      "min": [
        0
      ],
      "max": [
        1326
      ],
      "type": "SCALAR",
      "bufferView": 3,
      "byteOffset": 8988
    },
    {
      "name": "bike_1_1_positions",
      "componentType": 5126,
      "count": 2159,
      "min": [
        -0.8363000154495239,
        -1.2223000526428223,
        0.46700000762939453
      ],
      "max": [
        0.06679999828338623,
        0.20059999823570251,
        3.4249000549316406
      ],
      "type": "VEC3",
      "bufferView": 0,
      "byteOffset": 32160
    },
    {
      "name": "bike_1_1_normals",
      "componentType": 5126,
      "count": 2159,
      "min": [
        -1,
        -0.9968590140342712,
        -0.998890221118927
      ],
      "max": [
        0.9987401366233826,
        0.9999997019767761,
        0.9990794062614441
      ],
      "type": "VEC3",
      "bufferView": 1,
      "byteOffset": 32160
    },
    {
      "name": "bike_1_1_texcoords",
      "componentType": 5126,
      "count": 2159,
      "min": [
        0.0020000000949949026,
        -0.0015999999595806003
      ],
      "max": [
        0.9787999987602234,
        0.9919999837875366
      ],
      "type": "VEC2",
      "bufferView": 2,
      "byteOffset": 21440
    },
    {
      "name": "bike_1_1_indices",
      "componentType": 5123,
      "count": 6810,
      "min": [
        0
      ],
      "max": [
        2158
      ],
      "type": "SCALAR",
      "bufferView": 3,
      "byteOffset": 17916
    },
    {
      "name": "bike_1_2_positions",
      "componentType": 5126,
      "count": 357,
      "min": [
        -1.0598000288009644,
        -0.030500000342726707,
        2.1208999156951904
      ],
      "max": [
        0.29030001163482666,
        0.3578999936580658,
        3.20989990234375
      ],
      "type": "VEC3",
      "bufferView": 0,
      "byteOffset": 58068
    },
    {
      "name": "bike_1_2_normals",
      "componentType": 5126,
      "count": 357,
      "min": [
        -0.999964714050293,
        -0.9178156852722168,
        -1
      ],
      "max": [
        0.999964714050293,
        0.9999206066131592,
        1
      ],
      "type": "VEC3",
      "bufferView": 1,
      "byteOffset": 58068
    },
    {
      "name": "bike_1_2_texcoords",
      "componentType": 5126,
      "count": 357,
      "min": [
        -0.6322000026702881,
        -0.1315000057220459
      ],
      "max": [
        0.5152000188827515,
        0.9757000207901001
      ],
      "type": "VEC2",
      "bufferView": 2,
      "byteOffset": 38712
    },
    {
      "name": "bike_1_2_indices",
      "componentType": 5123,
      "count": 1032,
      "min": [
        0
      ],
      "max": [
        356
      ],
      "type": "SCALAR",
      "bufferView": 3,
      "byteOffset": 31536
    },
    {
      "name": "bike_1_3_positions",
      "componentType": 5126,
      "count": 112,
      "min": [
        -0.6877999901771545,
        0.040699999779462814,
        2.8032000064849854
      ],
      "max": [
        -0.08169999718666077,
        0.20239999890327454,
        3.218899965286255
      ],
      "type": "VEC3",
      "bufferView": 0,
      "byteOffset": 62352
    },
    {
      "name": "bike_1_3_normals",
      "componentType": 5126,
      "count": 112,
      "min": [
        -0.972917377948761,
        -0.4684266149997711,
        -0.63626629114151
      ],
      "max": [
        0.972917377948761,
        0.8642727732658386,
        -0.22290398180484772
      ],
      "type": "VEC3",
      "bufferView": 1,
      "byteOffset": 62352
    },
    {
      "name": "bike_1_3_texcoords",
      "componentType": 5126,
      "count": 112,
      "min": [
        0.2508000135421753,
        0.6926000118255615
      ],
      "max": [
        0.3467000126838684,
        0.7157999873161316
      ],
      "type": "VEC2",
      "bufferView": 2,
      "byteOffset": 41568
    },
    {
      "name": "bike_1_3_indices",
      "componentType": 5123,
      "count": 288,
      "min": [
        0
      ],
      "max": [
        111
      ],
      "type": "SCALAR",
      "bufferView": 3,
      "byteOffset": 33600
    },
    {
      "name": "bike_1_4_positions",
      "componentType": 5126,
      "count": 887,
      "min": [
        -1.0678000450134277,
        -1.1260000467300415,
        0.47029998898506165
      ],
      "max": [
        0.29840001463890076,
        0.36800000071525574,
        3.045599937438965
      ],
      "type": "VEC3",
      "bufferView": 0,
      "byteOffset": 63696
    },
    {
      "name": "bike_1_4_normals",
      "componentType": 5126,
      "count": 887,
      "min": [
        -1,
        -0.993865430355072,
        -0.9969218373298645
      ],
      "max": [
        0.9996577501296997,
        0.9997153282165527,
        0.9964401125907898
      ],
      "type": "VEC3",
      "bufferView": 1,
      "byteOffset": 63696
    },
    {
      "name": "bike_1_4_texcoords",
      "componentType": 5126,
      "count": 887,
      "min": [
        0.2825999855995178,
        0.43369999527931213
      ],
      "max": [
        0.9708999991416931,
        0.885699987411499
      ],
      "type": "VEC2",
      "bufferView": 2,
      "byteOffset": 42464
    },
    {
      "name": "bike_1_4_indices",
      "componentType": 5123,
      "count": 3888,
      "min": [
        0
      ],
      "max": [
        886
      ],
      "type": "SCALAR",
      "bufferView": 3,
      "byteOffset": 34176
    },
    {
      "name": "weel_bc_1_0_positions",
      "componentType": 5126,
      "count": 102,
      "min": [
        -0.5515999794006348,
        -1.1266000270843506,
        0.7871999740600586
      ],
      "max": [
        -0.1624000072479248,
        -0.7827000021934509,
        1.1311999559402466
      ],
      "type": "VEC3",
      "bufferView": 0,
      "byteOffset": 74340
    },
    {
      "name": "weel_bc_1_0_normals",
      "componentType": 5126,
      "count": 102,
      "min": [
        -1,
        -0.9369768500328064,
        -0.9369768500328064
      ],
      "max": [
        1,
        0.9369768500328064,
        0.9369768500328064
      ],
      "type": "VEC3",
      "bufferView": 1,
      "byteOffset": 74340
    },
    {
      "name": "weel_bc_1_0_texcoords",
      "componentType": 5126,
      "count": 102,
      "min": [
        0.3849000036716461,
        0.6466000080108643
      ],
      "max": [
        0.9596999883651733,
        0.9980999827384949
      ],
      "type": "VEC2",
      "bufferView": 2,
      "byteOffset": 49560
    },
    {
      "name": "weel_bc_1_0_indices",
      "componentType": 5123,
      "count": 306,
      "min": [
        0
      ],
      "max": [
        101
      ],
      "type": "SCALAR",
      "bufferView": 3,
      "byteOffset": 41952
    },
    {
      "name": "weel_bc_1_1_positions",
      "componentType": 5126,
      "count": 74,
      "min": [
        -0.46399998664855957,
        -1.2091000080108643,
        0.670799970626831
      ],
      "max": [
        -0.3050000071525574,
        -0.6845999956130981,
        1.2444000244140625
      ],
      "type": "VEC3",
      "bufferView": 0,
      "byteOffset": 75564
    },
    {
      "name": "weel_bc_1_1_normals",
      "componentType": 5126,
      "count": 74,
      "min": [
        -0.9824821352958679,
        -0.8094925880432129,
        -0.8844054937362671
      ],
      "max": [
        0.9788489937782288,
        0.76707923412323,
        0.9024795889854431
      ],
      "type": "VEC3",
      "bufferView": 1,
      "byteOffset": 75564
    },
    {
      "name": "weel_bc_1_1_texcoords",
      "componentType": 5126,
      "count": 74,
      "min": [
        0.0005000000237487257,
        0.0005000000237487257
      ],
      "max": [
        0.9994999766349792,
        0.9994999766349792
      ],
      "type": "VEC2",
      "bufferView": 2,
      "byteOffset": 50376
    },
    {
      "name": "weel_bc_1_1_indices",
      "componentType": 5123,
      "count": 162,
      "min": [
        0
      ],
      "max": [
        73
      ],
      "type": "SCALAR",
      "bufferView": 3,
      "byteOffset": 42564
    }
  ],
  "asset": {
    "generator": "obj2gltf",
    "version": "2.0"
  },
  "buffers": [
    {
      "name": "Bike04",
      "byteLength": 310520,
      "uri": "data:application/octet-stream;base64,"
    }
  ],
  "bufferViews": [
    {
      "name": "bufferView_0",
      "buffer": 0,
      "byteLength": 76452,
      "byteOffset": 0,
      "byteStride": 12,
      "target": 34962
    },
    {
      "name": "bufferView_1",
      "buffer": 0,
      "byteLength": 76452,
      "byteOffset": 76452,
      "byteStride": 12,
      "target": 34962
    },
    {
      "name": "bufferView_2",
      "buffer": 0,
      "byteLength": 50968,
      "byteOffset": 152904,
      "byteStride": 8,
      "target": 34962
    },
    {
      "name": "bufferView_3",
      "buffer": 0,
      "byteLength": 42888,
      "byteOffset": 203872,
      "target": 34963
    },
    {
      "buffer": 0,
      "byteOffset": 246760,
      "byteLength": 63757
    }
  ],
  "images": [
    {
      "name": "bike01",
      "mimeType": "image/jpeg",
      "bufferView": 4
    }
  ],
  "materials": [
    {
      "name": "Bike3_1___Default",
      "pbrMetallicRoughness": {
        "baseColorTexture": {
          "index": 0
        },
        "baseColorFactor": [
          1,
          1,
          1,
          1
        ],
        "metallicFactor": 0,
        "roughnessFactor": 0.963
      },
      "emissiveFactor": [
        0,
        0,
        0
      ],
      "alphaMode": "OPAQUE",
      "doubleSided": false
    },
    {
      "name": "Bike3_19___Defaulteddd",
      "pbrMetallicRoughness": {
        "baseColorFactor": [
          0.7373,
          0.7373,
          0.7373,
          1
        ],
        "metallicFactor": 0,
        "roughnessFactor": 0.963
      },
      "emissiveFactor": [
        0,
        0,
        0
      ],
      "alphaMode": "OPAQUE",
      "doubleSided": false
    },
    {
      "name": "Bike3_1___Defaultee",
      "pbrMetallicRoughness": {
        "baseColorTexture": {
          "index": 0
        },
        "baseColorFactor": [
          1,
          1,
          1,
          1
        ],
        "metallicFactor": 0,
        "roughnessFactor": 0.954
      },
      "emissiveFactor": [
        0,
        0,
        0
      ],
      "alphaMode": "OPAQUE",
      "doubleSided": false
    },
    {
      "name": "Bike3_8___Default",
      "pbrMetallicRoughness": {
        "baseColorFactor": [
          0.3882,
          0.3882,
          0.3882,
          1
        ],
        "metallicFactor": 0,
        "roughnessFactor": 1
      },
      "emissiveFactor": [
        0,
        0,
        0
      ],
      "alphaMode": "OPAQUE",
      "doubleSided": false
    },
    {
      "name": "Bike3_fara",
      "pbrMetallicRoughness": {
        "baseColorTexture": {
          "index": 0
        },
        "baseColorFactor": [
          1,
          1,
          1,
          1
        ],
        "metallicFactor": 0,
        "roughnessFactor": 0.917
      },
      "emissiveFactor": [
        0,
        0,
        0
      ],
      "alphaMode": "OPAQUE",
      "doubleSided": false
    },
    {
      "name": "Bike3_9___Defaulteee",
      "pbrMetallicRoughness": {
        "baseColorFactor": [
          0.1137,
          0.1137,
          0.1137,
          1
        ],
        "metallicFactor": 0,
        "roughnessFactor": 0.99
      },
      "emissiveFactor": [
        0,
        0,
        0
      ],
      "alphaMode": "BLEND",
      "doubleSided": true
    }
  ],
  "meshes": [
    {
      "name": "handle_1",
      "primitives": [
        {
          "attributes": {
            "POSITION": 0,
            "NORMAL": 1,
            "TEXCOORD_0": 2
          },
          "indices": 3,
          "material": 0,
          "mode": 4
        },
        {
          "attributes": {
            "POSITION": 4,
            "NORMAL": 5,
            "TEXCOORD_0": 6
          },
          "indices": 7,
          "material": 1,
          "mode": 4
        },
        {
          "attributes": {
            "POSITION": 8,
            "NORMAL": 9,
            "TEXCOORD_0": 10
          },
          "indices": 11,
          "material": 2,
          "mode": 4
        },
        {
          "attributes": {
            "POSITION": 12,
            "NORMAL": 13,
            "TEXCOORD_0": 14
          },
          "indices": 15,
          "material": 3,
          "mode": 4
        }
      ]
    },
    {
      "name": "weel_fr_1",
      "primitives": [
        {
          "attributes": {
            "POSITION": 16,
            "NORMAL": 17,
            "TEXCOORD_0": 18
          },
          "indices": 19,
          "material": 2,
          "mode": 4
        },
        {
          "attributes": {
            "POSITION": 20,
            "NORMAL": 21,
            "TEXCOORD_0": 22
          },
          "indices": 23,
          "material": 1,
          "mode": 4
        }
      ]
    },
    {
      "name": "bike_1",
      "primitives": [
        {
          "attributes": {
            "POSITION": 24,
            "NORMAL": 25,
            "TEXCOORD_0": 26
          },
          "indices": 27,
          "material": 2,
          "mode": 4
        },
        {
          "attributes": {
            "POSITION": 28,
            "NORMAL": 29,
            "TEXCOORD_0": 30
          },
          "indices": 31,
          "material": 4,
          "mode": 4
        },
        {
          "attributes": {
            "POSITION": 32,
            "NORMAL": 33,
            "TEXCOORD_0": 34
          },
          "indices": 35,
          "material": 1,
          "mode": 4
        },
        {
          "attributes": {
            "POSITION": 36,
            "NORMAL": 37,
            "TEXCOORD_0": 38
          },
          "indices": 39,
          "material": 5,
          "mode": 4
        },
        {
          "attributes": {
            "POSITION": 40,
            "NORMAL": 41,
            "TEXCOORD_0": 42
          },
          "indices": 43,
          "material": 0,
          "mode": 4
        }
      ]
    },
    {
      "name": "weel_bc_1",
      "primitives": [
        {
          "attributes": {
            "POSITION": 44,
            "NORMAL": 45,
            "TEXCOORD_0": 46
          },
          "indices": 47,
          "material": 2,
          "mode": 4
        },
        {
          "attributes": {
            "POSITION": 48,
            "NORMAL": 49,
            "TEXCOORD_0": 50
          },
          "indices": 51,
          "material": 1,
          "mode": 4
        }
      ]
    }
  ],
  "nodes": [
    {
      "name": "handle",
      "mesh": 0
    },
    {
      "name": "weel_fr",
      "mesh": 1
    },
    {
      "name": "bike",
      "mesh": 2
    },
    {
      "name": "weel_bc",
      "mesh": 3
    }
  ],
  "samplers": [
    {
      "magFilter": 9729,
      "minFilter": 9986,
      "wrapS": 10497,
      "wrapT": 10497
    }
  ],
  "scene": 0,
  "scenes": [
    {
      "nodes": [
        0,
        1,
        2,
        3
      ]
    }
  ],
  "textures": [
    {
      "name": "bike01",
      "sampler": 0,
      "source": 0
    }
  ]
}
