{
  "accessors": [
    {
      "bufferView": 0,
      "byteOffset": 0,
      "componentType": 5123,
      "count": 4476,
      "type": "SCALAR",
      "max": [4475],
      "min": [0]
    },
    {
      "bufferView": 1,
      "byteOffset": 0,
      "componentType": 5126,
      "count": 4476,
      "type": "VEC3",
      "max": [4.053250789642334, 8.883102416992188, 4.278570175170898],
      "min": [-4.053250789642334, 0, -4.278570175170898],
      "name": "POSITION"
    },
    {
      "bufferView": 1,
      "byteOffset": 12,
      "componentType": 5126,
      "count": 4476,
      "type": "VEC3",
      "max": [1.0000044107437134, 1.0000044107437134, 1.0000044107437134],
      "min": [-1.0000044107437134, -1.0000044107437134, -1.0000044107437134],
      "name": "NORMAL"
    },
    {
      "bufferView": 1,
      "byteOffset": 24,
      "componentType": 5126,
      "count": 4476,
      "type": "VEC2",
      "max": [1.25, -0.00037610530853271484],
      "min": [0.00042914337245747447, -0.9992969632148743],
      "name": "TEXCOORD_0"
    },
    {
      "bufferView": 1,
      "byteOffset": 32,
      "componentType": 5126,
      "count": 4476,
      "type": "VEC2",
      "max": [1.25, -0],
      "min": [0, -1],
      "name": "TEXCOORD_1"
    }
  ],
  "asset": { "generator": "Aspose.3D 21.5.1", "version": "2.0" },
  "buffers": [
    {
      "uri": "data:application/octet-stream;base64,",
      "byteLength": 188000
    }
  ],
  "bufferViews": [
    { "buffer": 0, "byteOffset": 0, "byteLength": 8952, "target": 34963 },
    {
      "buffer": 0,
      "byteOffset": 8956,
      "byteLength": 179040,
      "byteStride": 40,
      "target": 34962
    }
  ],
  "materials": [
    {
      "pbrMetallicRoughness": {
        "baseColorFactor": [
          0.7725490927696228,
          0.615686297416687,
          0.24313727021217346,
          1
        ],
        "metallicFactor": 0,
        "roughnessFactor": 0
      },
      "emissiveFactor": [0, 0, 0],
      "alphaMode": "OPAQUE",
      "doubleSided": false
    }
  ],
  "meshes": [
    {
      "primitives": [
        {
          "attributes": {
            "POSITION": 1,
            "NORMAL": 2,
            "TEXCOORD_0": 3,
            "TEXCOORD_1": 4
          },
          "indices": 0,
          "material": 0,
          "mode": 4
        }
      ]
    }
  ],
  "nodes": [
    {
      "matrix": [
        1,
        0,
        0,
        0,
        0,
        0.999999999999999,
        4.3711388397760225e-8,
        0,
        0,
        -4.3711388397760225e-8,
        0.999999999999999,
        0,
        4.285726409707747e-19,
        0,
        0,
        1
      ],
      "mesh": 0,
      "name": "bitta01"
    }
  ],
  "scene": 0,
  "scenes": [{ "nodes": [0] }]
}
