{
  "accessors": [
    {
      "name": "obj01_1_0_positions",
      "componentType": 5126,
      "count": 7066,
      "min": [
        -497.9919128417969,
        -277.1029968261719,
        -2479.907958984375
      ],
      "max": [
        498.101806640625,
        333.7773132324219,
        2480.1171875
      ],
      "type": "VEC3",
      "bufferView": 0,
      "byteOffset": 0
    },
    {
      "name": "obj01_1_0_normals",
      "componentType": 5126,
      "count": 7066,
      "min": [
        -1,
        -1,
        -1
      ],
      "max": [
        1,
        1,
        1
      ],
      "type": "VEC3",
      "bufferView": 1,
      "byteOffset": 0
    },
    {
      "name": "obj01_1_0_texcoords",
      "componentType": 5126,
      "count": 7066,
      "min": [
        0.3727000057697296,
        0.0005000000237487257
      ],
      "max": [
        0.6273000240325928,
        0.9994999766349792
      ],
      "type": "VEC2",
      "bufferView": 2,
      "byteOffset": 0
    },
    {
      "name": "obj01_1_0_indices",
      "componentType": 5123,
      "count": 42384,
      "min": [
        0
      ],
      "max": [
        7065
      ],
      "type": "SCALAR",
      "bufferView": 3,
      "byteOffset": 0
    },
    {
      "name": "obj02_1_0_positions",
      "componentType": 5126,
      "count": 6847,
      "min": [
        -495.9941101074219,
        277.2474060058594,
        -2470.664794921875
      ],
      "max": [
        496.1044921875,
        954.6414184570312,
        2477.735107421875
      ],
      "type": "VEC3",
      "bufferView": 0,
      "byteOffset": 84792
    },
    {
      "name": "obj02_1_0_normals",
      "componentType": 5126,
      "count": 6847,
      "min": [
        -1,
        -1,
        -1
      ],
      "max": [
        1,
        1,
        1
      ],
      "type": "VEC3",
      "bufferView": 1,
      "byteOffset": 84792
    },
    {
      "name": "obj02_1_0_texcoords",
      "componentType": 5126,
      "count": 6847,
      "min": [
        -4968.3896484375,
        -975.4747924804688
      ],
      "max": [
        4772.5546875,
        977.4747924804688
      ],
      "type": "VEC2",
      "bufferView": 2,
      "byteOffset": 56528
    },
    {
      "name": "obj02_1_0_indices",
      "componentType": 5123,
      "count": 19824,
      "min": [
        0
      ],
      "max": [
        6846
      ],
      "type": "SCALAR",
      "bufferView": 3,
      "byteOffset": 84768
    },
    {
      "name": "Line002_1_0_positions",
      "componentType": 5126,
      "count": 72,
      "min": [
        -431.60418701171875,
        374.3367004394531,
        -481.5122985839844
      ],
      "max": [
        432.96038818359375,
        720.85400390625,
        298.3880920410156
      ],
      "type": "VEC3",
      "bufferView": 0,
      "byteOffset": 166956
    },
    {
      "name": "Line002_1_0_normals",
      "componentType": 5126,
      "count": 72,
      "min": [
        -1,
        -1,
        -1
      ],
      "max": [
        1,
        1,
        1
      ],
      "type": "VEC3",
      "bufferView": 1,
      "byteOffset": 166956
    },
    {
      "name": "Line002_1_0_indices",
      "componentType": 5123,
      "count": 132,
      "min": [
        0
      ],
      "max": [
        71
      ],
      "type": "SCALAR",
      "bufferView": 3,
      "byteOffset": 124416
    },
    {
      "name": "Line001_1_0_positions",
      "componentType": 5126,
      "count": 72,
      "min": [
        -431.7882080078125,
        374.3367004394531,
        337.0190124511719
      ],
      "max": [
        432.7760925292969,
        587.3572998046875,
        1116.9190673828125
      ],
      "type": "VEC3",
      "bufferView": 0,
      "byteOffset": 167820
    },
    {
      "name": "Line001_1_0_normals",
      "componentType": 5126,
      "count": 72,
      "min": [
        -1,
        -1,
        -1
      ],
      "max": [
        1,
        1,
        1
      ],
      "type": "VEC3",
      "bufferView": 1,
      "byteOffset": 167820
    },
    {
      "name": "Line001_1_0_indices",
      "componentType": 5123,
      "count": 132,
      "min": [
        0
      ],
      "max": [
        71
      ],
      "type": "SCALAR",
      "bufferView": 3,
      "byteOffset": 124680
    },
    {
      "name": "Line004_1_0_positions",
      "componentType": 5126,
      "count": 72,
      "min": [
        -431.7882080078125,
        374.3367004394531,
        1638.4891357421875
      ],
      "max": [
        432.7760925292969,
        587.8386840820312,
        2239.689208984375
      ],
      "type": "VEC3",
      "bufferView": 0,
      "byteOffset": 168684
    },
    {
      "name": "Line004_1_0_normals",
      "componentType": 5126,
      "count": 72,
      "min": [
        -1,
        -1,
        -1
      ],
      "max": [
        1,
        1,
        1
      ],
      "type": "VEC3",
      "bufferView": 1,
      "byteOffset": 168684
    },
    {
      "name": "Line004_1_0_indices",
      "componentType": 5123,
      "count": 132,
      "min": [
        0
      ],
      "max": [
        71
      ],
      "type": "SCALAR",
      "bufferView": 3,
      "byteOffset": 124944
    },
    {
      "name": "Line003_1_0_positions",
      "componentType": 5126,
      "count": 72,
      "min": [
        -431.60418701171875,
        374.3367004394531,
        -1296.2869873046875
      ],
      "max": [
        432.96038818359375,
        652.6610107421875,
        -516.386474609375
      ],
      "type": "VEC3",
      "bufferView": 0,
      "byteOffset": 169548
    },
    {
      "name": "Line003_1_0_normals",
      "componentType": 5126,
      "count": 72,
      "min": [
        -1,
        -1,
        -1
      ],
      "max": [
        1,
        1,
        1
      ],
      "type": "VEC3",
      "bufferView": 1,
      "byteOffset": 169548
    },
    {
      "name": "Line003_1_0_indices",
      "componentType": 5123,
      "count": 132,
      "min": [
        0
      ],
      "max": [
        71
      ],
      "type": "SCALAR",
      "bufferView": 3,
      "byteOffset": 125208
    }
  ],
  "asset": {
    "generator": "obj2gltf",
    "version": "2.0"
  },
  "buffers": [
    {
      "name": "shipblue",
      "byteLength": 577600,
      "uri": "data:application/octet-stream;base64,"
    }
  ],
  "bufferViews": [
    {
      "name": "bufferView_0",
      "buffer": 0,
      "byteLength": 170412,
      "byteOffset": 0,
      "byteStride": 12,
      "target": 34962
    },
    {
      "name": "bufferView_1",
      "buffer": 0,
      "byteLength": 170412,
      "byteOffset": 170412,
      "byteStride": 12,
      "target": 34962
    },
    {
      "name": "bufferView_2",
      "buffer": 0,
      "byteLength": 111304,
      "byteOffset": 340824,
      "byteStride": 8,
      "target": 34962
    },
    {
      "name": "bufferView_3",
      "buffer": 0,
      "byteLength": 125472,
      "byteOffset": 452128,
      "target": 34963
    }
  ],
  "materials": [
    {
      "name": "Standardmaterial_2",
      "pbrMetallicRoughness": {
        "baseColorFactor": [
          0,
          0.4824,
          0.8196,
          1
        ],
        "metallicFactor": 0,
        "roughnessFactor": 0.99
      },
      "emissiveFactor": [
        0,
        0,
        0
      ],
      "alphaMode": "OPAQUE",
      "doubleSided": false
    },
    {
      "name": "Standardmaterial_2-2",
      "pbrMetallicRoughness": {
        "baseColorFactor": [
          0,
          0.4824,
          0.8196,
          1
        ],
        "metallicFactor": 0,
        "roughnessFactor": 0.99
      },
      "emissiveFactor": [
        0,
        0,
        0
      ],
      "alphaMode": "OPAQUE",
      "doubleSided": false
    }
  ],
  "meshes": [
    {
      "name": "obj01_1",
      "primitives": [
        {
          "attributes": {
            "POSITION": 0,
            "NORMAL": 1,
            "TEXCOORD_0": 2
          },
          "indices": 3,
          "material": 0,
          "mode": 4
        }
      ]
    },
    {
      "name": "obj02_1",
      "primitives": [
        {
          "attributes": {
            "POSITION": 4,
            "NORMAL": 5,
            "TEXCOORD_0": 6
          },
          "indices": 7,
          "material": 0,
          "mode": 4
        }
      ]
    },
    {
      "name": "Line002_1",
      "primitives": [
        {
          "attributes": {
            "POSITION": 8,
            "NORMAL": 9
          },
          "indices": 10,
          "material": 1,
          "mode": 4
        }
      ]
    },
    {
      "name": "Line001_1",
      "primitives": [
        {
          "attributes": {
            "POSITION": 11,
            "NORMAL": 12
          },
          "indices": 13,
          "material": 1,
          "mode": 4
        }
      ]
    },
    {
      "name": "Line004_1",
      "primitives": [
        {
          "attributes": {
            "POSITION": 14,
            "NORMAL": 15
          },
          "indices": 16,
          "material": 1,
          "mode": 4
        }
      ]
    },
    {
      "name": "Line003_1",
      "primitives": [
        {
          "attributes": {
            "POSITION": 17,
            "NORMAL": 18
          },
          "indices": 19,
          "material": 1,
          "mode": 4
        }
      ]
    }
  ],
  "nodes": [
    {
      "name": "obj01",
      "mesh": 0
    },
    {
      "name": "obj02",
      "mesh": 1
    },
    {
      "name": "Line002",
      "mesh": 2
    },
    {
      "name": "Line001",
      "mesh": 3
    },
    {
      "name": "Line004",
      "mesh": 4
    },
    {
      "name": "Line003",
      "mesh": 5
    }
  ],
  "scene": 0,
  "scenes": [
    {
      "nodes": [
        0,
        1,
        2,
        3,
        4,
        5
      ]
    }
  ]
}
