{
  "accessors": [
    {
      "name": "van03a__1_0_positions",
      "componentType": 5126,
      "count": 3112,
      "min": [
        -0.20649999380111694,
        -0.006200000178068876,
        -0.46779999136924744
      ],
      "max": [
        0.19419999420642853,
        0.4065999984741211,
        0.5001999735832214
      ],
      "type": "VEC3",
      "bufferView": 0,
      "byteOffset": 0
    },
    {
      "name": "van03a__1_0_normals",
      "componentType": 5126,
      "count": 3112,
      "min": [
        -1,
        -0.9999997019767761,
        -1
      ],
      "max": [
        1,
        0.9999946355819702,
        0.9984306693077087
      ],
      "type": "VEC3",
      "bufferView": 1,
      "byteOffset": 0
    },
    {
      "name": "van03a__1_0_texcoords",
      "componentType": 5126,
      "count": 3112,
      "min": [
        0.003700000001117587,
        0.008799999952316284
      ],
      "max": [
        0.9983000159263611,
        0.9976999759674072
      ],
      "type": "VEC2",
      "bufferView": 2,
      "byteOffset": 0
    },
    {
      "name": "van03a__1_0_indices",
      "componentType": 5123,
      "count": 11871,
      "min": [
        0
      ],
      "max": [
        3111
      ],
      "type": "SCALAR",
      "bufferView": 3,
      "byteOffset": 0
    },
    {
      "name": "van03a_gla__1_0_positions",
      "componentType": 5126,
      "count": 105,
      "min": [
        -0.16609999537467957,
        0.1995999962091446,
        0.12919999659061432
      ],
      "max": [
        0.15379999577999115,
        0.3391000032424927,
        0.36390000581741333
      ],
      "type": "VEC3",
      "bufferView": 0,
      "byteOffset": 37344
    },
    {
      "name": "van03a_gla__1_0_normals",
      "componentType": 5126,
      "count": 105,
      "min": [
        -1,
        0,
        -0.02459973655641079
      ],
      "max": [
        1,
        0.740338146686554,
        0.7184151411056519
      ],
      "type": "VEC3",
      "bufferView": 1,
      "byteOffset": 37344
    },
    {
      "name": "van03a_gla__1_0_texcoords",
      "componentType": 5126,
      "count": 105,
      "min": [
        0.018699999898672104,
        0.017400000244379044
      ],
      "max": [
        0.7056999802589417,
        0.8546000123023987
      ],
      "type": "VEC2",
      "bufferView": 2,
      "byteOffset": 24896
    },
    {
      "name": "van03a_gla__1_0_indices",
      "componentType": 5123,
      "count": 348,
      "min": [
        0
      ],
      "max": [
        104
      ],
      "type": "SCALAR",
      "bufferView": 3,
      "byteOffset": 23744
    }
  ],
  "asset": {
    "generator": "obj2gltf",
    "version": "2.0"
  },
  "buffers": [
    {
      "name": "vaan2",
      "byteLength": 289100,
      "uri": "data:application/octet-stream;base64,"
    }
  ],
  "bufferViews": [
    {
      "name": "bufferView_0",
      "buffer": 0,
      "byteLength": 38604,
      "byteOffset": 0,
      "byteStride": 12,
      "target": 34962
    },
    {
      "name": "bufferView_1",
      "buffer": 0,
      "byteLength": 38604,
      "byteOffset": 38604,
      "byteStride": 12,
      "target": 34962
    },
    {
      "name": "bufferView_2",
      "buffer": 0,
      "byteLength": 25736,
      "byteOffset": 77208,
      "byteStride": 8,
      "target": 34962
    },
    {
      "name": "bufferView_3",
      "buffer": 0,
      "byteLength": 24440,
      "byteOffset": 102944,
      "target": 34963
    },
    {
      "buffer": 0,
      "byteOffset": 127384,
      "byteLength": 161713
    }
  ],
  "images": [
    {
      "name": "van_03_a",
      "mimeType": "image/jpeg",
      "bufferView": 4
    }
  ],
  "materials": [
    {
      "name": "VAN_van_03_a",
      "pbrMetallicRoughness": {
        "baseColorTexture": {
          "index": 0
        },
        "baseColorFactor": [
          1,
          1,
          1,
          1
        ],
        "metallicFactor": 0,
        "roughnessFactor": 0.99
      },
      "emissiveFactor": [
        0,
        0,
        0
      ],
      "alphaMode": "OPAQUE",
      "doubleSided": false
    },
    {
      "name": "VAN_van_03_a_gla",
      "pbrMetallicRoughness": {
        "baseColorTexture": {
          "index": 0
        },
        "baseColorFactor": [
          1,
          1,
          1,
          0.7
        ],
        "metallicFactor": 0,
        "roughnessFactor": 0.99
      },
      "emissiveFactor": [
        0,
        0,
        0
      ],
      "alphaMode": "BLEND",
      "doubleSided": true
    }
  ],
  "meshes": [
    {
      "name": "van03a__1",
      "primitives": [
        {
          "attributes": {
            "POSITION": 0,
            "NORMAL": 1,
            "TEXCOORD_0": 2
          },
          "indices": 3,
          "material": 0,
          "mode": 4
        }
      ]
    },
    {
      "name": "van03a_gla__1",
      "primitives": [
        {
          "attributes": {
            "POSITION": 4,
            "NORMAL": 5,
            "TEXCOORD_0": 6
          },
          "indices": 7,
          "material": 1,
          "mode": 4
        }
      ]
    }
  ],
  "nodes": [
    {
      "name": "van03a_",
      "mesh": 0
    },
    {
      "name": "van03a_gla_",
      "mesh": 1
    }
  ],
  "samplers": [
    {
      "magFilter": 9729,
      "minFilter": 9986,
      "wrapS": 10497,
      "wrapT": 10497
    }
  ],
  "scene": 0,
  "scenes": [
    {
      "nodes": [
        0,
        1
      ]
    }
  ],
  "textures": [
    {
      "name": "van_03_a",
      "sampler": 0,
      "source": 0
    }
  ]
}
